M48
; DRILL file {KiCad 8.99.0-417-ga763d613e5} date 2024-07-02T15:15:20-0400
; FORMAT={-:-/ absolute / inch / decimal}
; #@! TF.CreationDate,2024-07-02T15:15:20-04:00
; #@! TF.GenerationSoftware,Kicad,Pcbnew,8.99.0-417-ga763d613e5
; #@! TF.FileFunction,Plated,1,2,PTH
FMAT,2
INCH
; #@! TA.AperFunction,Plated,PTH,ViaDrill
T1C0.0118
; #@! TA.AperFunction,Plated,PTH,ViaDrill
T2C0.0472
; #@! TA.AperFunction,Plated,PTH,ViaDrill
T3C0.1102
%
G90
G05
T1
X5.76Y-4.4387
X5.7619Y-4.1376
X5.7892Y-4.444
X5.7903Y-4.1364
X5.797Y-4.6882
X5.7993Y-4.5614
X5.8003Y-4.5024
X5.8009Y-4.4705
X5.8009Y-4.5343
X5.803Y-4.0306
X5.8168Y-4.0563
X5.8172Y-4.1191
X5.818Y-4.0867
X5.8306Y-4.5406
X5.8482Y-4.6518
X5.8582Y-4.5316
X5.8587Y-4.6092
X5.8855Y-4.8887
X5.8901Y-4.8596
X5.9116Y-4.0278
X5.9252Y-4.4643
X5.9314Y-4.1277
X5.9468Y-4.0286
X5.9507Y-4.5235
X5.9774Y-4.8417
X5.9811Y-4.0298
X5.982Y-4.5858
X5.9878Y-4.1397
X5.9971Y-4.7236
X6.0175Y-4.0302
X6.0519Y-4.0286
X6.0568Y-4.3496
X6.0572Y-4.1173
X6.0572Y-4.1449
X6.0572Y-4.1721
X6.0632Y-4.5407
X6.0798Y-4.8772
X6.0847Y-4.0306
X6.0956Y-4.8614
X6.1123Y-4.593
X6.1151Y-4.0329
X6.1211Y-4.7589
X6.1222Y-4.6263
X6.1298Y-4.1255
X6.1362Y-4.8878
X6.1402Y-4.7043
X6.1431Y-4.0432
X6.1541Y-4.147
X6.1712Y-4.031
X6.1879Y-4.2354
X6.1979Y-4.0358
X6.2011Y-4.1975
X6.2273Y-4.0307
X6.2328Y-4.7456
X6.2339Y-4.4608
X6.2339Y-4.575
X6.2353Y-4.2959
X6.2643Y-4.0251
X6.2684Y-4.7543
X6.2734Y-4.2945
X6.2958Y-4.7443
X6.2965Y-4.774
X6.3019Y-4.0337
X6.3071Y-4.066
X6.3162Y-4.8038
X6.35Y-4.5179
X6.3567Y-4.3738
X6.3588Y-4.4089
X6.3638Y-4.6045
X6.39Y-3.9881
X6.3913Y-4.6301
X6.3992Y-4.1104
X6.4071Y-4.5199
X6.4228Y-4.8191
X6.4363Y-4.0624
X6.4504Y-4.6931
X6.4598Y-4.7646
X6.5154Y-4.8821
X6.535Y-4.7561
X6.5409Y-4.1065
X6.5449Y-4.8191
X6.5571Y-4.7089
X6.5588Y-3.9851
X6.5613Y-4.3499
X6.567Y-4.0203
X6.5795Y-4.1221
X6.6079Y-3.9884
X6.6086Y-4.2933
X6.6367Y-4.3581
X6.6445Y-4.127
X6.6591Y-4.5671
X6.664Y-4.7698
X6.6649Y-4.6738
X6.6784Y-4.4372
X6.7094Y-3.9673
X6.7425Y-4.5103
X6.7529Y-3.9664
T2
X6.4346Y-4.4687
X6.537Y-4.449
T3
X6.2255Y-4.8417
M30
