%TF.GenerationSoftware,KiCad,Pcbnew,8.99.0-417-ga763d613e5*%
%TF.CreationDate,2024-07-02T15:16:59-04:00*%
%TF.ProjectId,kawaiiSD,6b617761-6969-4534-942e-6b696361645f,rev?*%
%TF.SameCoordinates,Original*%
%TF.FileFunction,Profile,NP*%
%FSLAX46Y46*%
G04 Gerber Fmt 4.6, Leading zero omitted, Abs format (unit mm)*
G04 Created by KiCad (PCBNEW 8.99.0-417-ga763d613e5) date 2024-07-02 15:16:59*
%MOMM*%
%LPD*%
G01*
G04 APERTURE LIST*
%ADD10C,0.010000*%
%TA.AperFunction,Profile*%
%ADD11C,0.010000*%
%TD*%
G04 APERTURE END LIST*
D10*
X159512529Y-124814079D02*
X159523211Y-124814070D01*
X159534764Y-124814043D01*
X159547187Y-124813999D01*
X159560480Y-124813938D01*
X159571021Y-124813880D01*
X159582051Y-124813812D01*
X159593571Y-124813735D01*
X159605579Y-124813647D01*
X159618078Y-124813550D01*
X159622353Y-124813516D01*
D11*
X161675892Y-124791083D02*
X161301565Y-124794932D01*
X168077422Y-123998460D02*
X167734625Y-124159303D01*
X162020350Y-100773599D02*
G75*
G02*
X157273641Y-101696873I-4746750J11740399D01*
G01*
D10*
X170727279Y-118285733D02*
X170728806Y-118273263D01*
X170730335Y-118260800D01*
X170731866Y-118248344D01*
X170733398Y-118235894D01*
X170734932Y-118223450D01*
X170736467Y-118211013D01*
X170738004Y-118198582D01*
X170739543Y-118186156D01*
X170741084Y-118173737D01*
X170742626Y-118161323D01*
X170744170Y-118148915D01*
X170745716Y-118136512D01*
X170747264Y-118124115D01*
X170748815Y-118111723D01*
X170750367Y-118099336D01*
X170751921Y-118086954D01*
X170753477Y-118074577D01*
X170755036Y-118062204D01*
X170756597Y-118049836D01*
X170758160Y-118037473D01*
X170759726Y-118025114D01*
X170761294Y-118012759D01*
X170762864Y-118000408D01*
X170764438Y-117988061D01*
X170766013Y-117975718D01*
X170767591Y-117963379D01*
X170769172Y-117951043D01*
X170770756Y-117938711D01*
X170772342Y-117926382D01*
X170773931Y-117914056D01*
X170775524Y-117901733D01*
X170777119Y-117889414D01*
D11*
X161887201Y-100827432D02*
X162020350Y-100773599D01*
D10*
X159743114Y-124812250D02*
X159755477Y-124812114D01*
X159768073Y-124811975D01*
X159780901Y-124811831D01*
X159793962Y-124811685D01*
X159807256Y-124811534D01*
X159820785Y-124811380D01*
X159834547Y-124811222D01*
X159848545Y-124811061D01*
X159862778Y-124810896D01*
X159877247Y-124810727D01*
X159891952Y-124810555D01*
X159906895Y-124810380D01*
X159922074Y-124810201D01*
X159937491Y-124810019D01*
X159953146Y-124809833D01*
X159969041Y-124809644D01*
D11*
X170199749Y-121323671D02*
X170091596Y-121652773D01*
D10*
X162710886Y-124779100D02*
X162731490Y-124778810D01*
X162752122Y-124778517D01*
X162772784Y-124778222D01*
X162793473Y-124777923D01*
X162814190Y-124777620D01*
X162834934Y-124777315D01*
X162855706Y-124777005D01*
X162876505Y-124776693D01*
X162897331Y-124776377D01*
X162918183Y-124776058D01*
X162939061Y-124775734D01*
X162959966Y-124775408D01*
X162980897Y-124775077D01*
X163001853Y-124774743D01*
X163022834Y-124774405D01*
X163043841Y-124774064D01*
X163064872Y-124773718D01*
X163085928Y-124773369D01*
X163107008Y-124773015D01*
X163128112Y-124772658D01*
X163149240Y-124772297D01*
X163170392Y-124771931D01*
X163191567Y-124771561D01*
X163212765Y-124771187D01*
X163233985Y-124770809D01*
X163255229Y-124770427D01*
X163276495Y-124770040D01*
X163297782Y-124769649D01*
X163319092Y-124769253D01*
X163340423Y-124768853D01*
X163361776Y-124768449D01*
X163383150Y-124768040D01*
D11*
X170548129Y-119706110D02*
X170501020Y-120016181D01*
X160171859Y-124807258D02*
X159969041Y-124809644D01*
D10*
X166130415Y-124572053D02*
X166150799Y-124568876D01*
X166171158Y-124565670D01*
X166191490Y-124562435D01*
X166211796Y-124559170D01*
X166232075Y-124555876D01*
X166252328Y-124552552D01*
X166272554Y-124549198D01*
X166292753Y-124545815D01*
X166312924Y-124542402D01*
X166333069Y-124538959D01*
X166353186Y-124535485D01*
X166373276Y-124531982D01*
X166393338Y-124528448D01*
X166413372Y-124524884D01*
X166433379Y-124521289D01*
X166453357Y-124517664D01*
X166473308Y-124514008D01*
X166493230Y-124510322D01*
X166513123Y-124506604D01*
X166532988Y-124502856D01*
X166552824Y-124499076D01*
X166572632Y-124495265D01*
X166592410Y-124491423D01*
X166612159Y-124487550D01*
X166631879Y-124483645D01*
X166651570Y-124479708D01*
X166671230Y-124475740D01*
X166690862Y-124471740D01*
X166710463Y-124467708D01*
X166730035Y-124463644D01*
X166749576Y-124459549D01*
X166769088Y-124455421D01*
X167166972Y-124348629D02*
X167185305Y-124343304D01*
X167203602Y-124337943D01*
X167221860Y-124332544D01*
X167240082Y-124327107D01*
X167258265Y-124321633D01*
X167276411Y-124316120D01*
X167294519Y-124310570D01*
X167312589Y-124304982D01*
X167330621Y-124299356D01*
X167348615Y-124293692D01*
X167366570Y-124287989D01*
X167384488Y-124282249D01*
X167402366Y-124276470D01*
X167420206Y-124270653D01*
X167438008Y-124264797D01*
X167455771Y-124258903D01*
X167473494Y-124252970D01*
X167491179Y-124246999D01*
X167508825Y-124240989D01*
X167526432Y-124234940D01*
X167543999Y-124228852D01*
X167561528Y-124222726D01*
X167579016Y-124216560D01*
X167596466Y-124210355D01*
X167613875Y-124204112D01*
X167631245Y-124197829D01*
X167648575Y-124191506D01*
X167665865Y-124185144D01*
X167683115Y-124178743D01*
X167700325Y-124172303D01*
X167717495Y-124165822D01*
X167734625Y-124159303D01*
X170645231Y-118968993D02*
X170646838Y-118955746D01*
X170648441Y-118942516D01*
X170650040Y-118929302D01*
X170651635Y-118916105D01*
X170653226Y-118902924D01*
X170654813Y-118889760D01*
X170656396Y-118876611D01*
X170657976Y-118863479D01*
X170659552Y-118850363D01*
X170661124Y-118837263D01*
X170662693Y-118824179D01*
X170664258Y-118811111D01*
X170665819Y-118798058D01*
X170667378Y-118785022D01*
X170668933Y-118772001D01*
X170670485Y-118758996D01*
X170672034Y-118746006D01*
X170673579Y-118733032D01*
X170675122Y-118720073D01*
X170676662Y-118707130D01*
X170678199Y-118694202D01*
X170679733Y-118681290D01*
X170681264Y-118668392D01*
X170682793Y-118655510D01*
X170684319Y-118642643D01*
X170685842Y-118629791D01*
X170687363Y-118616954D01*
X170688882Y-118604132D01*
X170690399Y-118591324D01*
X170691913Y-118578532D01*
X170693425Y-118565754D01*
X170694935Y-118552991D01*
X170199749Y-121323671D02*
X170204557Y-121308208D01*
X170209336Y-121292740D01*
X170214084Y-121277269D01*
X170218801Y-121261794D01*
X170223489Y-121246316D01*
X170228146Y-121230834D01*
X170232773Y-121215349D01*
X170237370Y-121199860D01*
X170241937Y-121184369D01*
X170246474Y-121168874D01*
X170250981Y-121153377D01*
X170255459Y-121137877D01*
X170259908Y-121122375D01*
X170264327Y-121106871D01*
X170268716Y-121091364D01*
X170273077Y-121075856D01*
X170277408Y-121060346D01*
X170281710Y-121044834D01*
X170285984Y-121029321D01*
X170290228Y-121013806D01*
X170294444Y-120998290D01*
X170298631Y-120982774D01*
X170302789Y-120967256D01*
X170306920Y-120951738D01*
X170311021Y-120936219D01*
X170315095Y-120920700D01*
X170319140Y-120905180D01*
X170323157Y-120889661D01*
X170327146Y-120874142D01*
X170331107Y-120858622D01*
X170335041Y-120843104D01*
X170338947Y-120827586D01*
X160816058Y-124800051D02*
X160830242Y-124799898D01*
X160844490Y-124799745D01*
X160858802Y-124799592D01*
X160873179Y-124799438D01*
X160887620Y-124799284D01*
X160902124Y-124799129D01*
X160916693Y-124798973D01*
X160931325Y-124798818D01*
X160946022Y-124798661D01*
X160960782Y-124798504D01*
X160975606Y-124798347D01*
X160990494Y-124798189D01*
X161005446Y-124798031D01*
X161020461Y-124797872D01*
X161035540Y-124797713D01*
X161050682Y-124797553D01*
X161065888Y-124797393D01*
X161081157Y-124797232D01*
X161096490Y-124797071D01*
X161111886Y-124796909D01*
X161127346Y-124796747D01*
X161142868Y-124796585D01*
X161158454Y-124796421D01*
X161174103Y-124796258D01*
X161189815Y-124796094D01*
X161205591Y-124795929D01*
X161221429Y-124795764D01*
X161237330Y-124795599D01*
X161253295Y-124795432D01*
X161269322Y-124795266D01*
X161285412Y-124795099D01*
X161301565Y-124794932D01*
X161675892Y-124791083D02*
X161693884Y-124790896D01*
X161711928Y-124790709D01*
X161730025Y-124790521D01*
X161748173Y-124790332D01*
X161766373Y-124790143D01*
X161784625Y-124789952D01*
X161802927Y-124789761D01*
X161821281Y-124789570D01*
X161839686Y-124789377D01*
X161858141Y-124789184D01*
X161876646Y-124788990D01*
X161895202Y-124788795D01*
X161913808Y-124788599D01*
X161932463Y-124788402D01*
X161951169Y-124788205D01*
X161969923Y-124788007D01*
X161988727Y-124787808D01*
X162007580Y-124787608D01*
X162026481Y-124787407D01*
X162045432Y-124787205D01*
X162064430Y-124787003D01*
X162083477Y-124786799D01*
X162102572Y-124786595D01*
X162121714Y-124786390D01*
X162140904Y-124786183D01*
X162160142Y-124785976D01*
X162179427Y-124785768D01*
X162198758Y-124785559D01*
X162218137Y-124785349D01*
X162237562Y-124785138D01*
X162257033Y-124784926D01*
X162276551Y-124784714D01*
D11*
X170727279Y-118285733D02*
X170694935Y-118552991D01*
X170923077Y-116957541D02*
X170874010Y-117226931D01*
X161887201Y-100827432D02*
G75*
G02*
X165669991Y-100091665I3782799J-9356368D01*
G01*
X159743114Y-124812250D02*
X159622353Y-124813516D01*
D10*
X163845419Y-124755133D02*
X163867151Y-124754443D01*
X163888891Y-124753743D01*
X163910638Y-124753034D01*
X163932392Y-124752314D01*
X163954152Y-124751583D01*
X163975919Y-124750843D01*
X163997693Y-124750092D01*
X164019472Y-124749330D01*
X164041257Y-124748558D01*
X164063048Y-124747774D01*
X164084844Y-124746980D01*
X164106646Y-124746176D01*
X164128453Y-124745360D01*
X164150264Y-124744533D01*
X164172080Y-124743694D01*
X164193901Y-124742845D01*
X164215725Y-124741984D01*
X164237554Y-124741112D01*
X164259387Y-124740228D01*
X164281223Y-124739333D01*
X164303062Y-124738425D01*
X164324905Y-124737506D01*
X164346751Y-124736575D01*
X164368599Y-124735633D01*
X164390450Y-124734678D01*
X164412304Y-124733711D01*
X164434160Y-124732731D01*
X164456017Y-124731739D01*
X164477877Y-124730735D01*
X164499738Y-124729719D01*
X164521600Y-124728689D01*
X164543464Y-124727648D01*
X170813757Y-117625574D02*
X170815529Y-117613178D01*
X170817307Y-117600779D01*
X170819092Y-117588376D01*
X170820884Y-117575970D01*
X170822682Y-117563560D01*
X170824487Y-117551147D01*
X170826299Y-117538730D01*
X170828118Y-117526309D01*
X170829944Y-117513884D01*
X170831777Y-117501456D01*
X170833617Y-117489023D01*
X170835464Y-117476587D01*
X170837319Y-117464146D01*
X170839180Y-117451702D01*
X170841049Y-117439253D01*
X170842926Y-117426800D01*
X170844810Y-117414343D01*
X170846701Y-117401881D01*
X170848600Y-117389416D01*
X170850507Y-117376945D01*
X170852421Y-117364470D01*
X170854343Y-117351991D01*
X170856274Y-117339506D01*
X170858212Y-117327018D01*
X170860158Y-117314524D01*
X170862112Y-117302026D01*
X170864074Y-117289522D01*
X170866044Y-117277014D01*
X170868023Y-117264501D01*
X170870010Y-117251982D01*
X170872006Y-117239459D01*
X170874010Y-117226931D01*
D11*
X171079879Y-116285931D02*
X171007719Y-116552015D01*
X167166972Y-124348629D02*
X166769088Y-124455421D01*
X162710886Y-124779100D02*
X162276551Y-124784714D01*
D10*
X170410052Y-120499939D02*
X170413205Y-120484658D01*
X170416337Y-120469387D01*
X170419448Y-120454126D01*
X170422539Y-120438874D01*
X170425609Y-120423631D01*
X170428658Y-120408399D01*
X170431686Y-120393176D01*
X170434695Y-120377964D01*
X170437682Y-120362761D01*
X170440650Y-120347569D01*
X170443597Y-120332387D01*
X170446525Y-120317216D01*
X170449432Y-120302055D01*
X170452320Y-120286905D01*
X170455188Y-120271766D01*
X170458036Y-120256638D01*
X170460865Y-120241521D01*
X170463674Y-120226416D01*
X170466464Y-120211321D01*
X170469235Y-120196238D01*
X170471986Y-120181167D01*
X170474719Y-120166107D01*
X170477432Y-120151059D01*
X170480127Y-120136024D01*
X170482803Y-120121000D01*
X170485461Y-120105988D01*
X170488100Y-120090989D01*
X170490720Y-120076002D01*
X170493322Y-120061027D01*
X170495906Y-120046066D01*
X170498472Y-120031117D01*
X170501020Y-120016181D01*
X171079879Y-116285931D02*
X171083467Y-116273610D01*
X171087080Y-116261307D01*
X171090717Y-116249024D01*
X171094379Y-116236759D01*
X171098066Y-116224514D01*
X171101779Y-116212289D01*
X171105516Y-116200084D01*
X171109279Y-116187900D01*
X171113068Y-116175738D01*
X171116883Y-116163597D01*
X171120723Y-116151478D01*
X171124590Y-116139382D01*
X171128483Y-116127308D01*
X171132403Y-116115258D01*
X171136349Y-116103232D01*
X171140323Y-116091230D01*
X171144323Y-116079252D01*
X171148351Y-116067299D01*
X171152406Y-116055372D01*
X171156489Y-116043471D01*
X171160599Y-116031596D01*
X171164738Y-116019748D01*
X171168905Y-116007927D01*
X171173100Y-115996134D01*
X171177324Y-115984368D01*
X171181576Y-115972631D01*
X171185857Y-115960923D01*
X171190168Y-115949244D01*
X171194507Y-115937594D01*
X171198876Y-115925975D01*
X171203275Y-115914386D01*
X171207704Y-115902829D01*
X172048676Y-115127145D02*
X172060507Y-115124106D01*
X172072138Y-115121215D01*
X172083565Y-115118467D01*
X172094783Y-115115860D01*
X172105788Y-115113392D01*
X172116577Y-115111058D01*
X172127144Y-115108857D01*
X172137486Y-115106786D01*
X172147599Y-115104841D01*
X172157477Y-115103020D01*
X172171848Y-115100515D01*
X172185668Y-115098273D01*
X172198924Y-115096284D01*
X172211603Y-115094539D01*
X171322324Y-115686138D02*
X171328016Y-115676534D01*
X171333746Y-115666996D01*
X171339514Y-115657524D01*
X171345319Y-115648119D01*
X171351162Y-115638780D01*
X171357042Y-115629507D01*
X171362960Y-115620303D01*
X171368914Y-115611165D01*
X171374906Y-115602096D01*
X171380935Y-115593095D01*
X171387002Y-115584163D01*
X171393105Y-115575300D01*
X171399245Y-115566506D01*
X171405423Y-115557782D01*
X171411637Y-115549128D01*
X171417888Y-115540545D01*
X171424176Y-115532032D01*
X171430500Y-115523590D01*
X171436862Y-115515220D01*
X171443260Y-115506922D01*
X171449695Y-115498696D01*
X171456166Y-115490543D01*
X171462674Y-115482462D01*
X171469218Y-115474455D01*
X171475798Y-115466521D01*
X171482415Y-115458661D01*
X171489068Y-115450876D01*
X171495758Y-115443165D01*
X171502484Y-115435529D01*
X171509246Y-115427969D01*
X171516044Y-115420484D01*
X171522878Y-115413076D01*
D11*
X166130415Y-124572053D02*
X165690831Y-124634544D01*
X145640041Y-102704906D02*
G75*
G02*
X146640059Y-101696809I1000059J8006D01*
G01*
D10*
X170923077Y-116957541D02*
X170925494Y-116944892D01*
X170927925Y-116932242D01*
X170930371Y-116919589D01*
X170932830Y-116906934D01*
X170935304Y-116894278D01*
X170937792Y-116881618D01*
X170940294Y-116868958D01*
X170942810Y-116856295D01*
X170945341Y-116843630D01*
X170947887Y-116830964D01*
X170950447Y-116818295D01*
X170953022Y-116805626D01*
X170955611Y-116792955D01*
X170958215Y-116780282D01*
X170960835Y-116767608D01*
X170963469Y-116754933D01*
X170966118Y-116742256D01*
X170968783Y-116729579D01*
X170971462Y-116716900D01*
X170974157Y-116704220D01*
X170976868Y-116691540D01*
X170979593Y-116678858D01*
X170982335Y-116666176D01*
X170985092Y-116653493D01*
X170987864Y-116640810D01*
X170990653Y-116628126D01*
X170993457Y-116615441D01*
X170996277Y-116602756D01*
X170999113Y-116590071D01*
X171001966Y-116577386D01*
X171004834Y-116564700D01*
X171007719Y-116552015D01*
X169885064Y-122132306D02*
X169892111Y-122117596D01*
X169899119Y-122102868D01*
X169906088Y-122088120D01*
X169913018Y-122073353D01*
X169919910Y-122058567D01*
X169926762Y-122043762D01*
X169933577Y-122028939D01*
X169940352Y-122014097D01*
X169947089Y-121999238D01*
X169953788Y-121984359D01*
X169960448Y-121969463D01*
X169967070Y-121954550D01*
X169973654Y-121939618D01*
X169980200Y-121924669D01*
X169986707Y-121909703D01*
X169993177Y-121894719D01*
X169999609Y-121879719D01*
X170006003Y-121864701D01*
X170012360Y-121849667D01*
X170018678Y-121834616D01*
X170024959Y-121819549D01*
X170031203Y-121804466D01*
X170037409Y-121789366D01*
X170043578Y-121774251D01*
X170049710Y-121759120D01*
X170055805Y-121743973D01*
X170061862Y-121728811D01*
X170067882Y-121713633D01*
X170073866Y-121698440D01*
X170079813Y-121683232D01*
X170085722Y-121668010D01*
X170091596Y-121652773D01*
X168077422Y-123998460D02*
X168093112Y-123990561D01*
X168108758Y-123982621D01*
X168124359Y-123974639D01*
X168139916Y-123966614D01*
X168155428Y-123958547D01*
X168170896Y-123950438D01*
X168186318Y-123942286D01*
X168201696Y-123934092D01*
X168217029Y-123925856D01*
X168232317Y-123917578D01*
X168247560Y-123909257D01*
X168262757Y-123900893D01*
X168277910Y-123892487D01*
X168293018Y-123884039D01*
X168308080Y-123875548D01*
X168323097Y-123867014D01*
X168338069Y-123858438D01*
X168352995Y-123849820D01*
X168367876Y-123841159D01*
X168382712Y-123832455D01*
X168397502Y-123823708D01*
X168412246Y-123814919D01*
X168426945Y-123806087D01*
X168441598Y-123797213D01*
X168456206Y-123788296D01*
X168470767Y-123779336D01*
X168485283Y-123770333D01*
X168499753Y-123761287D01*
X168514177Y-123752198D01*
X168528555Y-123743067D01*
X168542887Y-123733893D01*
X168557173Y-123724676D01*
D11*
X169885064Y-122132306D02*
X169727634Y-122442563D01*
X168837319Y-123505941D02*
X168557173Y-123724676D01*
X165006180Y-124696547D02*
X164543464Y-124727648D01*
X169437580Y-122874763D02*
X169221290Y-123146408D01*
X171322324Y-115686138D02*
X171207704Y-115902829D01*
X171678149Y-115293705D02*
X171522878Y-115413076D01*
X146640049Y-124814079D02*
G75*
G02*
X145640121Y-123814071I51J999979D01*
G01*
D10*
X168837319Y-123505941D02*
X168850049Y-123495337D01*
X168862733Y-123484691D01*
X168875369Y-123474005D01*
X168887959Y-123463278D01*
X168900501Y-123452509D01*
X168912996Y-123441699D01*
X168925443Y-123430849D01*
X168937844Y-123419957D01*
X168950197Y-123409025D01*
X168962503Y-123398052D01*
X168974762Y-123387038D01*
X168986974Y-123375983D01*
X168999138Y-123364888D01*
X169011256Y-123353752D01*
X169023326Y-123342575D01*
X169035349Y-123331358D01*
X169047324Y-123320100D01*
X169059253Y-123308802D01*
X169071134Y-123297464D01*
X169082968Y-123286085D01*
X169094754Y-123274666D01*
X169106494Y-123263206D01*
X169118186Y-123251706D01*
X169129831Y-123240167D01*
X169141429Y-123228587D01*
X169152979Y-123216967D01*
X169164482Y-123205306D01*
X169175938Y-123193606D01*
X169187347Y-123181866D01*
X169198708Y-123170087D01*
X169210023Y-123158267D01*
X169221290Y-123146408D01*
D11*
X170813757Y-117625574D02*
X170777119Y-117889414D01*
X163845419Y-124755133D02*
X163383150Y-124768040D01*
X157273641Y-101696855D02*
X146640059Y-101696855D01*
D10*
X160171859Y-124807258D02*
X160181905Y-124807140D01*
X160192016Y-124807022D01*
X160202190Y-124806904D01*
X160212428Y-124806785D01*
X160222729Y-124806665D01*
X160233095Y-124806545D01*
X160243524Y-124806424D01*
X160254016Y-124806302D01*
X160264573Y-124806180D01*
X160275194Y-124806058D01*
X160285878Y-124805934D01*
X160296627Y-124805810D01*
X160307440Y-124805686D01*
X160318316Y-124805561D01*
X160329257Y-124805435D01*
X160340263Y-124805309D01*
X160351332Y-124805182D01*
X160362466Y-124805054D01*
X160373664Y-124804926D01*
X160384926Y-124804797D01*
X160396253Y-124804668D01*
X160407644Y-124804538D01*
X160419100Y-124804408D01*
X160430621Y-124804277D01*
X160442206Y-124804146D01*
X160453856Y-124804014D01*
X160465570Y-124803881D01*
X160477350Y-124803748D01*
X160489194Y-124803614D01*
X160501103Y-124803480D01*
X160513077Y-124803345D01*
X160525116Y-124803210D01*
X169437580Y-122874763D02*
X169447335Y-122861748D01*
X169457045Y-122848701D01*
X169466711Y-122835621D01*
X169476331Y-122822508D01*
X169485907Y-122809363D01*
X169495437Y-122796185D01*
X169504923Y-122782975D01*
X169514364Y-122769733D01*
X169523760Y-122756459D01*
X169533112Y-122743152D01*
X169542419Y-122729814D01*
X169551682Y-122716444D01*
X169560899Y-122703042D01*
X169570073Y-122689609D01*
X169579202Y-122676145D01*
X169588286Y-122662649D01*
X169597326Y-122649122D01*
X169606322Y-122635564D01*
X169615274Y-122621976D01*
X169624181Y-122608356D01*
X169633044Y-122594706D01*
X169641863Y-122581025D01*
X169650638Y-122567314D01*
X169659368Y-122553572D01*
X169668055Y-122539800D01*
X169676698Y-122525998D01*
X169685297Y-122512167D01*
X169693852Y-122498305D01*
X169702363Y-122484414D01*
X169710830Y-122470493D01*
X169719254Y-122456542D01*
X169727634Y-122442563D01*
D11*
X146640049Y-124814079D02*
X159512511Y-124814079D01*
X145640041Y-102704906D02*
X145640041Y-123814071D01*
D10*
X171678149Y-115293705D02*
X171692820Y-115283761D01*
X171707512Y-115274094D01*
X171722222Y-115264700D01*
X171736945Y-115255578D01*
X171751676Y-115246727D01*
X171766411Y-115238144D01*
X171781147Y-115229829D01*
X171795878Y-115221779D01*
X171810601Y-115213992D01*
X171825311Y-115206467D01*
X171840004Y-115199202D01*
X171854676Y-115192195D01*
X171869323Y-115185445D01*
X171883940Y-115178950D01*
X171898523Y-115172707D01*
X171913068Y-115166717D01*
D11*
X160816058Y-124800051D02*
X160525116Y-124803210D01*
X172048676Y-115127145D02*
X171913068Y-115166717D01*
D10*
X165006180Y-124696547D02*
X165027776Y-124694925D01*
X165049361Y-124693284D01*
X165070934Y-124691624D01*
X165092496Y-124689944D01*
X165114047Y-124688244D01*
X165135585Y-124686525D01*
X165157111Y-124684786D01*
X165178625Y-124683027D01*
X165200127Y-124681247D01*
X165221616Y-124679448D01*
X165243092Y-124677628D01*
X165264556Y-124675788D01*
X165286006Y-124673927D01*
X165307443Y-124672046D01*
X165328866Y-124670144D01*
X165350276Y-124668221D01*
X165371672Y-124666277D01*
X165393054Y-124664313D01*
X165414421Y-124662327D01*
X165435775Y-124660320D01*
X165457113Y-124658291D01*
X165478437Y-124656242D01*
X165499747Y-124654170D01*
X165521041Y-124652078D01*
X165542320Y-124649963D01*
X165563583Y-124647826D01*
X165584831Y-124645668D01*
X165606063Y-124643488D01*
X165627279Y-124641285D01*
X165648479Y-124639060D01*
X165669663Y-124636813D01*
X165690831Y-124634544D01*
D11*
X172684910Y-115091665D02*
X172490443Y-115091665D01*
X170645231Y-118968993D02*
X170610176Y-119254591D01*
X172490441Y-115091665D02*
X172259683Y-115091665D01*
D10*
X170548129Y-119706110D02*
X170550236Y-119691723D01*
X170552332Y-119677353D01*
X170554416Y-119663001D01*
X170556488Y-119648667D01*
X170558549Y-119634350D01*
X170560598Y-119620051D01*
X170562636Y-119605769D01*
X170564663Y-119591506D01*
X170566679Y-119577259D01*
X170568684Y-119563031D01*
X170570678Y-119548820D01*
X170572661Y-119534628D01*
X170574633Y-119520453D01*
X170576594Y-119506296D01*
X170578545Y-119492157D01*
X170580486Y-119478036D01*
X170582415Y-119463933D01*
X170584335Y-119449849D01*
X170586244Y-119435782D01*
X170588144Y-119421734D01*
X170590033Y-119407704D01*
X170591912Y-119393692D01*
X170593781Y-119379699D01*
X170595641Y-119365724D01*
X170597491Y-119351767D01*
X170599331Y-119337829D01*
X170601162Y-119323910D01*
X170602983Y-119310008D01*
X170604795Y-119296126D01*
X170606598Y-119282262D01*
X170608391Y-119268417D01*
X170610176Y-119254591D01*
D11*
X172684910Y-115091665D02*
X172684910Y-100091668D01*
X172684910Y-100091668D02*
X165669991Y-100091668D01*
X172259683Y-115091665D02*
X172211603Y-115094539D01*
X170410052Y-120499939D02*
X170338947Y-120827586D01*
M02*
