%TF.GenerationSoftware,KiCad,Pcbnew,8.99.0-417-ga763d613e5*%
%TF.CreationDate,2024-07-02T15:16:59-04:00*%
%TF.ProjectId,kawaiiSD,6b617761-6969-4534-942e-6b696361645f,rev?*%
%TF.SameCoordinates,Original*%
%TF.FileFunction,Copper,L2,Bot*%
%TF.FilePolarity,Positive*%
%FSLAX46Y46*%
G04 Gerber Fmt 4.6, Leading zero omitted, Abs format (unit mm)*
G04 Created by KiCad (PCBNEW 8.99.0-417-ga763d613e5) date 2024-07-02 15:16:59*
%MOMM*%
%LPD*%
G01*
G04 APERTURE LIST*
G04 Aperture macros list*
%AMRoundRect*
0 Rectangle with rounded corners*
0 $1 Rounding radius*
0 $2 $3 $4 $5 $6 $7 $8 $9 X,Y pos of 4 corners*
0 Add a 4 corners polygon primitive as box body*
4,1,4,$2,$3,$4,$5,$6,$7,$8,$9,$2,$3,0*
0 Add four circle primitives for the rounded corners*
1,1,$1+$1,$2,$3*
1,1,$1+$1,$4,$5*
1,1,$1+$1,$6,$7*
1,1,$1+$1,$8,$9*
0 Add four rect primitives between the rounded corners*
20,1,$1+$1,$2,$3,$4,$5,0*
20,1,$1+$1,$4,$5,$6,$7,0*
20,1,$1+$1,$6,$7,$8,$9,0*
20,1,$1+$1,$8,$9,$2,$3,0*%
G04 Aperture macros list end*
%TA.AperFunction,SMDPad,CuDef*%
%ADD10C,1.000000*%
%TD*%
%TA.AperFunction,SMDPad,CuDef*%
%ADD11RoundRect,0.175000X0.175000X-0.175000X0.175000X0.175000X-0.175000X0.175000X-0.175000X-0.175000X0*%
%TD*%
%TA.AperFunction,SMDPad,CuDef*%
%ADD12RoundRect,0.175000X-0.175000X-0.175000X0.175000X-0.175000X0.175000X0.175000X-0.175000X0.175000X0*%
%TD*%
%TA.AperFunction,SMDPad,CuDef*%
%ADD13RoundRect,0.140000X0.140000X0.170000X-0.140000X0.170000X-0.140000X-0.170000X0.140000X-0.170000X0*%
%TD*%
%TA.AperFunction,SMDPad,CuDef*%
%ADD14RoundRect,0.140000X-0.167393X-0.143107X0.108353X-0.191728X0.167393X0.143107X-0.108353X0.191728X0*%
%TD*%
%TA.AperFunction,SMDPad,CuDef*%
%ADD15RoundRect,0.300000X0.950000X0.450000X-0.950000X0.450000X-0.950000X-0.450000X0.950000X-0.450000X0*%
%TD*%
%TA.AperFunction,SMDPad,CuDef*%
%ADD16RoundRect,0.075000X-0.162500X0.075000X-0.162500X-0.075000X0.162500X-0.075000X0.162500X0.075000X0*%
%TD*%
%TA.AperFunction,SMDPad,CuDef*%
%ADD17RoundRect,0.140000X0.170000X-0.140000X0.170000X0.140000X-0.170000X0.140000X-0.170000X-0.140000X0*%
%TD*%
%TA.AperFunction,SMDPad,CuDef*%
%ADD18RoundRect,0.100000X0.185305X0.475039X-0.011657X0.509769X-0.185305X-0.475039X0.011657X-0.509769X0*%
%TD*%
%TA.AperFunction,SMDPad,CuDef*%
%ADD19RoundRect,0.175000X0.175000X0.175000X-0.175000X0.175000X-0.175000X-0.175000X0.175000X-0.175000X0*%
%TD*%
%TA.AperFunction,ViaPad*%
%ADD20C,0.600000*%
%TD*%
%TA.AperFunction,ViaPad*%
%ADD21C,0.550000*%
%TD*%
%TA.AperFunction,ViaPad*%
%ADD22C,0.500000*%
%TD*%
%TA.AperFunction,ViaPad*%
%ADD23C,1.700000*%
%TD*%
%TA.AperFunction,ViaPad*%
%ADD24C,4.000000*%
%TD*%
%TA.AperFunction,Conductor*%
%ADD25C,0.127000*%
%TD*%
%TA.AperFunction,Conductor*%
%ADD26C,0.300000*%
%TD*%
%TA.AperFunction,Conductor*%
%ADD27C,0.200000*%
%TD*%
%TA.AperFunction,Conductor*%
%ADD28C,0.650000*%
%TD*%
%TA.AperFunction,Conductor*%
%ADD29C,0.450000*%
%TD*%
%TA.AperFunction,Conductor*%
%ADD30C,0.400000*%
%TD*%
%TA.AperFunction,Conductor*%
%ADD31C,0.250000*%
%TD*%
G04 APERTURE END LIST*
D10*
%TO.P,TP9,1,1*%
%TO.N,RGB_IN*%
X165040041Y-101704906D03*
%TD*%
D11*
%TO.P,D10,1,A1*%
%TO.N,GND*%
X168540041Y-108004906D03*
%TO.P,D10,2,A2*%
%TO.N,Mode*%
X167440041Y-108004906D03*
%TD*%
D12*
%TO.P,D4,1,A1*%
%TO.N,P1*%
X169640041Y-102454906D03*
%TO.P,D4,2,A2*%
%TO.N,GND*%
X169640041Y-101354906D03*
%TD*%
D13*
%TO.P,C10,1*%
%TO.N,GND*%
X165520041Y-105004906D03*
%TO.P,C10,2*%
%TO.N,+1V8_ALW*%
X164560041Y-105004906D03*
%TD*%
D14*
%TO.P,C7,1*%
%TO.N,+5V*%
X168225430Y-117865571D03*
%TO.P,C7,2*%
%TO.N,GND*%
X169170846Y-118032273D03*
%TD*%
D15*
%TO.P,TP11,1,1*%
%TO.N,Pb*%
X171740041Y-110904906D03*
%TD*%
D16*
%TO.P,U2,1,V_{CCA}*%
%TO.N,+1V8_ALW*%
X164902041Y-103804906D03*
%TO.P,U2,2,GND*%
%TO.N,GND*%
X164902041Y-103304906D03*
%TO.P,U2,3,A*%
%TO.N,RGB_IN*%
X164902041Y-102804906D03*
%TO.P,U2,4,B*%
%TO.N,RGB_OUT*%
X166578041Y-102804906D03*
%TO.P,U2,5,OE*%
%TO.N,+1V8_ALW*%
X166578041Y-103304906D03*
%TO.P,U2,6,V_{CCB}*%
%TO.N,+5V*%
X166578041Y-103804906D03*
%TD*%
D15*
%TO.P,TP12,1,1*%
%TO.N,Pr*%
X171740041Y-108704906D03*
%TD*%
%TO.P,TP15,1,1*%
%TO.N,P2*%
X171740041Y-104304906D03*
%TD*%
D12*
%TO.P,D3,1,A1*%
%TO.N,GND*%
X169940041Y-115354906D03*
%TO.P,D3,2,A2*%
%TO.N,Y{slash}CVBS*%
X169940041Y-114254906D03*
%TD*%
D15*
%TO.P,TP14,1,1*%
%TO.N,GND*%
X171740041Y-106504906D03*
%TD*%
D17*
%TO.P,C11,1*%
%TO.N,+5V*%
X167440040Y-103784905D03*
%TO.P,C11,2*%
%TO.N,GND*%
X167440042Y-102824907D03*
%TD*%
D12*
%TO.P,D2,1,A1*%
%TO.N,GND*%
X169740041Y-112054906D03*
%TO.P,D2,2,A2*%
%TO.N,Pb*%
X169740041Y-110954906D03*
%TD*%
D15*
%TO.P,TP16,1,1*%
%TO.N,P1*%
X171740041Y-102104906D03*
%TD*%
D18*
%TO.P,S1,1,IN*%
%TO.N,Mode*%
X167364882Y-119016468D03*
%TO.P,S1,2,V+*%
%TO.N,+5V*%
X168005006Y-119129339D03*
%TO.P,S1,3,GND*%
%TO.N,GND*%
X168645132Y-119242211D03*
%TO.P,S1,4,NC*%
%TO.N,CVBS*%
X168315200Y-121113346D03*
%TO.P,S1,5,COM*%
%TO.N,Y{slash}CVBS*%
X167675076Y-121000475D03*
%TO.P,S1,6,NO*%
%TO.N,Y*%
X167034950Y-120887603D03*
%TD*%
D19*
%TO.P,D1,1,A1*%
%TO.N,GND*%
X169740041Y-107654906D03*
%TO.P,D1,2,A2*%
%TO.N,Pr*%
X169740041Y-108754906D03*
%TD*%
D15*
%TO.P,TP13,1,1*%
%TO.N,Y{slash}CVBS*%
X171740041Y-113104906D03*
%TD*%
D11*
%TO.P,D5,1,A1*%
%TO.N,P2*%
X169590041Y-104104906D03*
%TO.P,D5,2,A2*%
%TO.N,GND*%
X168490041Y-104104906D03*
%TD*%
D20*
%TO.N,Mode*%
X161290041Y-114754906D03*
X167859301Y-109050532D03*
D21*
%TO.N,GND*%
X162306657Y-101296873D03*
X168771306Y-104827053D03*
X163481281Y-103184043D03*
D22*
%TO.N,RGB_OUT*%
X162540041Y-104404906D03*
D21*
%TO.N,GND*%
X166657244Y-110487942D03*
X162740041Y-114804906D03*
X161513468Y-111985323D03*
X161459772Y-111093969D03*
X158340041Y-113304906D03*
X158340041Y-116204906D03*
D22*
%TO.N,+5V*%
X161640041Y-116954906D03*
%TO.N,+1V8_ALW*%
X159913197Y-120504906D03*
D21*
%TO.N,GND*%
X169287360Y-118714114D03*
X169265260Y-121152064D03*
X165490041Y-124004906D03*
X164077678Y-121020176D03*
X165990041Y-120804906D03*
X169140041Y-116004906D03*
X162340041Y-117604906D03*
X155858677Y-124150822D03*
X152090758Y-105147254D03*
X154550157Y-102376658D03*
X148798601Y-115103058D03*
X160199244Y-103277330D03*
X170419763Y-100769269D03*
X155322786Y-102436862D03*
X155504855Y-117507565D03*
X157427080Y-102510328D03*
X147341614Y-113551637D03*
X159931061Y-121260195D03*
X155252406Y-116661120D03*
X158313732Y-120538545D03*
X159216906Y-120758586D03*
X151943248Y-116480230D03*
X160067758Y-102455542D03*
X166802801Y-102116728D03*
X147044821Y-112877107D03*
X156314648Y-105334532D03*
X153717322Y-102326487D03*
X148097089Y-115332399D03*
X153843248Y-110480230D03*
X157173697Y-107578171D03*
X155695773Y-104786793D03*
X146352256Y-105095912D03*
X155476177Y-120874875D03*
X147777106Y-103801507D03*
X147328124Y-114361074D03*
X147747003Y-103028877D03*
D23*
X163440041Y-113504906D03*
D21*
X156747635Y-102386692D03*
X149492952Y-124174210D03*
X152844351Y-102366623D03*
X152327131Y-119980230D03*
X171260395Y-114562308D03*
X155961333Y-119490374D03*
X154004058Y-115334200D03*
X147301142Y-115858533D03*
X168571211Y-110694697D03*
X156035211Y-102697750D03*
X148812091Y-117072688D03*
D24*
X158127131Y-122980230D03*
D21*
X147395808Y-102376658D03*
X150499573Y-113393167D03*
X169630095Y-112703779D03*
X151921209Y-102356589D03*
X157507760Y-106615629D03*
X158172168Y-102378842D03*
X160432670Y-122016859D03*
X147341614Y-115170511D03*
X148543248Y-118155674D03*
X147757037Y-104624307D03*
X150155199Y-102306419D03*
X150657675Y-104842343D03*
X146302837Y-112742201D03*
X167120281Y-104702042D03*
X151048238Y-102326487D03*
X159114484Y-102236399D03*
X151148941Y-114896808D03*
X158376340Y-109116118D03*
X149608107Y-123433213D03*
X147074715Y-105065810D03*
X171522538Y-100745468D03*
D20*
%TO.N,SD_VCC*%
X153852131Y-105280230D03*
X153852131Y-105971347D03*
D21*
X159343248Y-109080230D03*
X154827131Y-123480230D03*
X154427131Y-123880230D03*
D20*
X153852131Y-104580230D03*
%TO.N,+3.3V*%
X147243248Y-119080230D03*
D21*
X151827131Y-122980230D03*
%TO.N,+5V*%
X166140041Y-104304906D03*
D23*
X166040041Y-113004906D03*
D21*
%TO.N,Pr*%
X163140041Y-122404906D03*
%TO.N,Pb*%
X163840041Y-119204906D03*
D20*
%TO.N,P1*%
X167840041Y-101304906D03*
%TO.N,P2*%
X166592838Y-101221288D03*
D21*
%TO.N,Y*%
X166550288Y-119605800D03*
%TO.N,CVBS*%
X166240041Y-122404906D03*
%TD*%
D25*
%TO.N,Mode*%
X167859301Y-108424166D02*
X167440041Y-108004906D01*
X167859301Y-109050532D02*
X167859301Y-108424166D01*
X162056705Y-115738242D02*
X162268852Y-115833717D01*
X162268852Y-115833717D02*
X164640354Y-114429768D01*
X162174631Y-115889496D02*
X162268852Y-115833717D01*
X162056705Y-115738242D02*
X162049003Y-115963868D01*
X162049003Y-115963868D02*
X162174631Y-115889496D01*
X161729664Y-116152920D02*
X162049003Y-115963868D01*
X162056705Y-115738242D02*
X161290041Y-114754906D01*
X162174631Y-115889496D02*
X162056705Y-115738242D01*
X161073740Y-116729926D02*
X161729664Y-116152920D01*
X161076541Y-117354906D02*
X161073740Y-116729926D01*
D26*
%TO.N,+5V*%
X165270017Y-114384883D02*
X166040041Y-113004906D01*
X164899729Y-114755171D02*
X165270017Y-114384883D01*
X164753575Y-114843268D02*
X164899729Y-114755171D01*
X166040041Y-113614859D02*
X166040041Y-113004906D01*
X162297898Y-116297049D02*
X164753575Y-114843268D01*
X161640041Y-116954906D02*
X162297898Y-116297049D01*
D27*
X166840041Y-117604906D02*
X167140041Y-117604906D01*
X165140041Y-119304906D02*
X166840041Y-117604906D01*
X164740041Y-123104906D02*
X165140041Y-119304906D01*
X162540041Y-123804906D02*
X164040041Y-123804906D01*
X164040041Y-123804906D02*
X164740041Y-123104906D01*
X161440041Y-117154906D02*
X161440041Y-122704906D01*
X161640041Y-116954906D02*
X161440041Y-117154906D01*
X167140041Y-117604906D02*
X168225430Y-117865571D01*
X161440041Y-122704906D02*
X162540041Y-123804906D01*
D25*
%TO.N,Mode*%
X167333099Y-109050532D02*
X167859301Y-109050532D01*
X166105184Y-110278447D02*
X167333099Y-109050532D01*
X164890041Y-112580179D02*
X166105184Y-111365036D01*
X164890041Y-114180081D02*
X164890041Y-112580179D01*
X164640354Y-114429768D02*
X164890041Y-114180081D01*
X161076541Y-122855472D02*
X161076541Y-117354906D01*
X162389474Y-124168406D02*
X161076541Y-122855472D01*
X164190608Y-124168406D02*
X162389474Y-124168406D01*
X165103541Y-123123988D02*
X165103541Y-123255472D01*
X166105184Y-111365036D02*
X166105184Y-110278447D01*
X166804107Y-118154906D02*
X165488072Y-119470941D01*
X167140041Y-118154906D02*
X166804107Y-118154906D01*
X165488072Y-119470941D02*
X165103541Y-123123988D01*
X167364882Y-118379747D02*
X167140041Y-118154906D01*
X167364882Y-119016468D02*
X167364882Y-118379747D01*
X165103541Y-123255472D02*
X164190608Y-124168406D01*
D26*
%TO.N,+1V8_ALW*%
X159968248Y-105876699D02*
X160840041Y-105004906D01*
X160840041Y-105004906D02*
X164560041Y-105004906D01*
X159913197Y-120504906D02*
X159968248Y-120449855D01*
X159968248Y-120449855D02*
X159968248Y-105876699D01*
%TO.N,Y*%
X166550288Y-119605800D02*
X166550288Y-120402941D01*
X166550288Y-120402941D02*
X167034950Y-120887603D01*
%TO.N,Pr*%
X167640041Y-113804906D02*
X162540041Y-118904906D01*
X167640041Y-110704906D02*
X167640041Y-113804906D01*
X162540041Y-118904906D02*
X162540041Y-121804906D01*
X169590041Y-108754906D02*
X167640041Y-110704906D01*
X169740041Y-108754906D02*
X169590041Y-108754906D01*
X162540041Y-121804906D02*
X163140041Y-122404906D01*
D27*
%TO.N,RGB_OUT*%
X162540041Y-103073535D02*
X162540041Y-104404906D01*
X165390041Y-100904906D02*
X164708670Y-100904906D01*
X164708670Y-100904906D02*
X162540041Y-103073535D01*
X165840041Y-101354906D02*
X165390041Y-100904906D01*
X165840041Y-102066906D02*
X165840041Y-101354906D01*
X166578041Y-102804906D02*
X165840041Y-102066906D01*
%TO.N,P2*%
X167591512Y-101904906D02*
X168063439Y-101904906D01*
X166907894Y-101221288D02*
X167591512Y-101904906D01*
X166592838Y-101221288D02*
X166907894Y-101221288D01*
X168063439Y-101904906D02*
X169590041Y-103431508D01*
X169590041Y-103431508D02*
X169590041Y-104104906D01*
%TO.N,RGB_IN*%
X165040041Y-102404906D02*
X165040041Y-101704906D01*
X164902041Y-102542906D02*
X165040041Y-102404906D01*
X164902041Y-102804906D02*
X164902041Y-102542906D01*
D26*
%TO.N,Pb*%
X168790041Y-114254906D02*
X163840041Y-119204906D01*
X168790041Y-111904906D02*
X168790041Y-114254906D01*
X169740041Y-110954906D02*
X168790041Y-111904906D01*
%TO.N,Y{slash}CVBS*%
X170440041Y-116104906D02*
X169840041Y-119804906D01*
X170640041Y-114954906D02*
X170640041Y-115904906D01*
X170640041Y-115904906D02*
X170440041Y-116104906D01*
X169940041Y-114254906D02*
X170640041Y-114954906D01*
X169840041Y-119804906D02*
X168695674Y-120231856D01*
X171740041Y-113104906D02*
X170890041Y-113104906D01*
X170890041Y-113104906D02*
X169740041Y-114254906D01*
D28*
%TO.N,SD_VCC*%
X154427131Y-123880230D02*
X154827131Y-123480230D01*
D29*
X153852131Y-104580230D02*
X153852131Y-104564629D01*
X153852131Y-104564629D02*
X154836530Y-103580230D01*
X154827131Y-123480230D02*
X155427131Y-122880230D01*
X159343248Y-104380230D02*
X159343248Y-109080230D01*
X155427131Y-122080230D02*
X159343248Y-118164113D01*
X154836530Y-103580230D02*
X158543248Y-103580230D01*
X155427131Y-122880230D02*
X155427131Y-122080230D01*
X158543248Y-103580230D02*
X159343248Y-104380230D01*
D28*
X153852131Y-104580230D02*
X153852131Y-105971347D01*
D29*
X159343248Y-118164113D02*
X159343248Y-109080230D01*
%TO.N,+3.3V*%
X149043248Y-119480230D02*
X151827131Y-122264113D01*
X147643248Y-119480230D02*
X149043248Y-119480230D01*
X147243248Y-119080230D02*
X147643248Y-119480230D01*
X151827131Y-122264113D02*
X151827131Y-122980230D01*
D27*
%TO.N,+5V*%
X166578041Y-103804906D02*
X167420039Y-103804906D01*
X166578041Y-103866906D02*
X166140041Y-104304906D01*
X167420039Y-103804906D02*
X167440040Y-103784905D01*
D26*
X168005006Y-119129339D02*
X168227357Y-117868322D01*
D27*
X166578041Y-103804906D02*
X166578041Y-103866906D01*
D30*
%TO.N,Pr*%
X171740041Y-108704906D02*
X171569478Y-108534343D01*
X169790041Y-108704906D02*
X169740041Y-108754906D01*
X171740041Y-108704906D02*
X169790041Y-108704906D01*
%TO.N,Pb*%
X169790041Y-110904906D02*
X169740041Y-110954906D01*
X171740041Y-110904906D02*
X169790041Y-110904906D01*
D31*
%TO.N,Y{slash}CVBS*%
X167675076Y-121000475D02*
X167822614Y-120239784D01*
X167822614Y-120239784D02*
X168196385Y-120138992D01*
X168196385Y-120138992D02*
X168695674Y-120231856D01*
D26*
%TO.N,P1*%
X169990041Y-102104906D02*
X169640041Y-102454906D01*
D27*
X167840041Y-101304906D02*
X168029125Y-101304906D01*
X168029125Y-101304906D02*
X169179125Y-102454906D01*
X169179125Y-102454906D02*
X169640041Y-102454906D01*
D26*
X171740041Y-102104906D02*
X169990041Y-102104906D01*
D27*
X169640041Y-102454906D02*
X169640041Y-102404906D01*
D26*
%TO.N,P2*%
X171440041Y-104004906D02*
X169590041Y-104004906D01*
X171740041Y-104304906D02*
X171440041Y-104004906D01*
D27*
%TO.N,+1V8_ALW*%
X166578041Y-103304906D02*
X166308131Y-103304906D01*
X164902041Y-103804906D02*
X164902041Y-104662906D01*
X166040541Y-103604406D02*
X165840041Y-103804906D01*
X164902041Y-104662906D02*
X164560041Y-105004906D01*
X165840041Y-103804906D02*
X164902041Y-103804906D01*
X166040541Y-103572496D02*
X166040541Y-103604406D01*
X166308131Y-103304906D02*
X166040541Y-103572496D01*
D26*
%TO.N,CVBS*%
X168315200Y-121113346D02*
X168315200Y-122129747D01*
X168040041Y-122404906D02*
X166240041Y-122404906D01*
X168315200Y-122129747D02*
X168040041Y-122404906D01*
%TD*%
%TA.AperFunction,Conductor*%
%TO.N,GND*%
G36*
X172466104Y-100310474D02*
G01*
X172484410Y-100354668D01*
X172484410Y-101091906D01*
X172466104Y-101136100D01*
X172421910Y-101154406D01*
X170742176Y-101154406D01*
X170742159Y-101154407D01*
X170682554Y-101160815D01*
X170547709Y-101211109D01*
X170547704Y-101211112D01*
X170432497Y-101297357D01*
X170432492Y-101297362D01*
X170346247Y-101412569D01*
X170346244Y-101412574D01*
X170295950Y-101547419D01*
X170289541Y-101607025D01*
X170289541Y-101691906D01*
X170271235Y-101736100D01*
X170227041Y-101754406D01*
X169943897Y-101754406D01*
X169943896Y-101754406D01*
X169943890Y-101754407D01*
X169854756Y-101778290D01*
X169854753Y-101778291D01*
X169774827Y-101824437D01*
X169743996Y-101855268D01*
X169713164Y-101886100D01*
X169668971Y-101904406D01*
X169429405Y-101904406D01*
X169356415Y-101915040D01*
X169356414Y-101915040D01*
X169243831Y-101970078D01*
X169243829Y-101970080D01*
X169225744Y-101988166D01*
X169181550Y-102006472D01*
X169137356Y-101988166D01*
X168342126Y-101192936D01*
X168326352Y-101166352D01*
X168325206Y-101162450D01*
X168325206Y-101162449D01*
X168265418Y-101031533D01*
X168265417Y-101031531D01*
X168171169Y-100922763D01*
X168050094Y-100844953D01*
X168050092Y-100844952D01*
X168050090Y-100844951D01*
X167912004Y-100804406D01*
X167912002Y-100804406D01*
X167768080Y-100804406D01*
X167768078Y-100804406D01*
X167629991Y-100844951D01*
X167508912Y-100922763D01*
X167414664Y-101031531D01*
X167414663Y-101031533D01*
X167366922Y-101136069D01*
X167331911Y-101168665D01*
X167284106Y-101166957D01*
X167265876Y-101154299D01*
X167092405Y-100980828D01*
X167085525Y-100976856D01*
X167035398Y-100947915D01*
X167023880Y-100941265D01*
X167020099Y-100939699D01*
X167020781Y-100938050D01*
X166996450Y-100922796D01*
X166923966Y-100839145D01*
X166860982Y-100798668D01*
X166802891Y-100761335D01*
X166802889Y-100761334D01*
X166802887Y-100761333D01*
X166664801Y-100720788D01*
X166664799Y-100720788D01*
X166520877Y-100720788D01*
X166520875Y-100720788D01*
X166382788Y-100761333D01*
X166261709Y-100839145D01*
X166167461Y-100947913D01*
X166167460Y-100947915D01*
X166107842Y-101078460D01*
X166072831Y-101111056D01*
X166025026Y-101109348D01*
X166006796Y-101096690D01*
X165574549Y-100664443D01*
X165560788Y-100656499D01*
X165560787Y-100656498D01*
X165560787Y-100656499D01*
X165506030Y-100624885D01*
X165506029Y-100624884D01*
X165506028Y-100624884D01*
X165429608Y-100604406D01*
X165429603Y-100604406D01*
X164748232Y-100604406D01*
X164669108Y-100604406D01*
X164669107Y-100604406D01*
X164669101Y-100604407D01*
X164592685Y-100624882D01*
X164592676Y-100624886D01*
X164524162Y-100664443D01*
X164524153Y-100664450D01*
X162870216Y-102318389D01*
X162355530Y-102833075D01*
X162337490Y-102851115D01*
X162299582Y-102889022D01*
X162260019Y-102957546D01*
X162260019Y-102957548D01*
X162239541Y-103033967D01*
X162239541Y-104040456D01*
X162224276Y-104081384D01*
X162157159Y-104158842D01*
X162157159Y-104158843D01*
X162103343Y-104276681D01*
X162084908Y-104404906D01*
X162103343Y-104533130D01*
X162103344Y-104533133D01*
X162118328Y-104565943D01*
X162120035Y-104613748D01*
X162087439Y-104648758D01*
X162061476Y-104654406D01*
X160793897Y-104654406D01*
X160793896Y-104654406D01*
X160793890Y-104654407D01*
X160704756Y-104678290D01*
X160704747Y-104678294D01*
X160624831Y-104724434D01*
X160624822Y-104724441D01*
X159875442Y-105473822D01*
X159831248Y-105492128D01*
X159787054Y-105473822D01*
X159768748Y-105429628D01*
X159768748Y-104324213D01*
X159768746Y-104324205D01*
X159739752Y-104215996D01*
X159739751Y-104215993D01*
X159735211Y-104208129D01*
X159683733Y-104118967D01*
X159604511Y-104039745D01*
X159213522Y-103648756D01*
X158804516Y-103239749D01*
X158804512Y-103239746D01*
X158804511Y-103239745D01*
X158740477Y-103202775D01*
X158707484Y-103183726D01*
X158707481Y-103183725D01*
X158599272Y-103154731D01*
X158599267Y-103154730D01*
X158599266Y-103154730D01*
X154892548Y-103154730D01*
X154780511Y-103154730D01*
X154780510Y-103154730D01*
X154780504Y-103154731D01*
X154672297Y-103183725D01*
X154672293Y-103183726D01*
X154575265Y-103239746D01*
X154575266Y-103239746D01*
X153763826Y-104051184D01*
X153735809Y-104067360D01*
X153649297Y-104090541D01*
X153649295Y-104090541D01*
X153529464Y-104159726D01*
X153529460Y-104159729D01*
X153431630Y-104257559D01*
X153431627Y-104257563D01*
X153362442Y-104377394D01*
X153362441Y-104377397D01*
X153326632Y-104511040D01*
X153326631Y-104511048D01*
X153326631Y-106040528D01*
X153326632Y-106040536D01*
X153362441Y-106174179D01*
X153362442Y-106174182D01*
X153431627Y-106294013D01*
X153431630Y-106294017D01*
X153529460Y-106391847D01*
X153529464Y-106391850D01*
X153529466Y-106391852D01*
X153649295Y-106461035D01*
X153649298Y-106461036D01*
X153731086Y-106482950D01*
X153782948Y-106496847D01*
X153782949Y-106496847D01*
X153921313Y-106496847D01*
X153921314Y-106496847D01*
X154054967Y-106461035D01*
X154174796Y-106391852D01*
X154272636Y-106294012D01*
X154341819Y-106174183D01*
X154377631Y-106040530D01*
X154377631Y-104666765D01*
X154395937Y-104622571D01*
X154994472Y-104024036D01*
X155038666Y-104005730D01*
X158341112Y-104005730D01*
X158385306Y-104024036D01*
X158899442Y-104538172D01*
X158917748Y-104582366D01*
X158917748Y-108853709D01*
X158912100Y-108879672D01*
X158882317Y-108944886D01*
X158882316Y-108944889D01*
X158862858Y-109080230D01*
X158882316Y-109215571D01*
X158912100Y-109280786D01*
X158917748Y-109306750D01*
X158917748Y-117961977D01*
X158899442Y-118006171D01*
X155165868Y-121739745D01*
X155086650Y-121818962D01*
X155086647Y-121818965D01*
X155030627Y-121915993D01*
X155030626Y-121915996D01*
X155001632Y-122024205D01*
X155001631Y-122024213D01*
X155001631Y-122678093D01*
X154983325Y-122722287D01*
X154760138Y-122945473D01*
X154732121Y-122961649D01*
X154624298Y-122990541D01*
X154624296Y-122990541D01*
X154504464Y-123059727D01*
X154504460Y-123059730D01*
X154006631Y-123557559D01*
X154006628Y-123557563D01*
X153937442Y-123677395D01*
X153937442Y-123677397D01*
X153901630Y-123811041D01*
X153901630Y-123949418D01*
X153937442Y-124083062D01*
X153937442Y-124083064D01*
X153970504Y-124140328D01*
X154002467Y-124195690D01*
X154006628Y-124202896D01*
X154006631Y-124202900D01*
X154104460Y-124300729D01*
X154104464Y-124300732D01*
X154104466Y-124300734D01*
X154224296Y-124369918D01*
X154249263Y-124376608D01*
X154357942Y-124405730D01*
X154357948Y-124405731D01*
X154496314Y-124405731D01*
X154496319Y-124405730D01*
X154542168Y-124393444D01*
X154629966Y-124369918D01*
X154749796Y-124300734D01*
X155247635Y-123802895D01*
X155316819Y-123683065D01*
X155345712Y-123575233D01*
X155361884Y-123547223D01*
X155767616Y-123141493D01*
X155823634Y-123044467D01*
X155852631Y-122936249D01*
X155852631Y-122824212D01*
X155852631Y-122282366D01*
X155870937Y-122238172D01*
X159511054Y-118598055D01*
X159555248Y-118579749D01*
X159599442Y-118598055D01*
X159617748Y-118642249D01*
X159617748Y-120134626D01*
X159602483Y-120175554D01*
X159530315Y-120258842D01*
X159530315Y-120258843D01*
X159476499Y-120376681D01*
X159458064Y-120504906D01*
X159476499Y-120633130D01*
X159476500Y-120633132D01*
X159530315Y-120750969D01*
X159615148Y-120848873D01*
X159724128Y-120918910D01*
X159724130Y-120918910D01*
X159724131Y-120918911D01*
X159786276Y-120937158D01*
X159825698Y-120948733D01*
X159848422Y-120955405D01*
X159848424Y-120955406D01*
X159848425Y-120955406D01*
X159977970Y-120955406D01*
X159977970Y-120955405D01*
X160102266Y-120918910D01*
X160211246Y-120848873D01*
X160296079Y-120750969D01*
X160349894Y-120633132D01*
X160368330Y-120504906D01*
X160349894Y-120376680D01*
X160343834Y-120363410D01*
X160324396Y-120320846D01*
X160318748Y-120294883D01*
X160318748Y-106047769D01*
X160337054Y-106003575D01*
X160966917Y-105373712D01*
X161011111Y-105355406D01*
X164093112Y-105355406D01*
X164137306Y-105373712D01*
X164221722Y-105458128D01*
X164221723Y-105458128D01*
X164221725Y-105458130D01*
X164330554Y-105508878D01*
X164380140Y-105515406D01*
X164739941Y-105515405D01*
X164789528Y-105508878D01*
X164898357Y-105458130D01*
X164983265Y-105373222D01*
X165034013Y-105264393D01*
X165040541Y-105214807D01*
X165040540Y-104975264D01*
X165058846Y-104931071D01*
X165142501Y-104847417D01*
X165158959Y-104818910D01*
X165182062Y-104778895D01*
X165202541Y-104702468D01*
X165202541Y-104167906D01*
X165220847Y-104123712D01*
X165265041Y-104105406D01*
X165616205Y-104105406D01*
X165660399Y-104123712D01*
X165678705Y-104167906D01*
X165678069Y-104176800D01*
X165659651Y-104304905D01*
X165679109Y-104440246D01*
X165679110Y-104440249D01*
X165730001Y-104551683D01*
X165735911Y-104564624D01*
X165825452Y-104667961D01*
X165940480Y-104741884D01*
X166066538Y-104778898D01*
X166071671Y-104780405D01*
X166071673Y-104780406D01*
X166071674Y-104780406D01*
X166208409Y-104780406D01*
X166208409Y-104780405D01*
X166339602Y-104741884D01*
X166454630Y-104667961D01*
X166544171Y-104564624D01*
X166600972Y-104440248D01*
X166620431Y-104304906D01*
X166617916Y-104287418D01*
X166629745Y-104241071D01*
X166635573Y-104234343D01*
X166696207Y-104173709D01*
X166740400Y-104155405D01*
X166767672Y-104155405D01*
X166767673Y-104155405D01*
X166848036Y-104139421D01*
X166883180Y-104115938D01*
X166917902Y-104105406D01*
X166943112Y-104105406D01*
X166987306Y-104123712D01*
X167071721Y-104208127D01*
X167071722Y-104208127D01*
X167071724Y-104208129D01*
X167180553Y-104258877D01*
X167230139Y-104265405D01*
X167649940Y-104265404D01*
X167699527Y-104258877D01*
X167808356Y-104208129D01*
X167893264Y-104123221D01*
X167944012Y-104014392D01*
X167950540Y-103964806D01*
X167950539Y-103605005D01*
X167944012Y-103555418D01*
X167893264Y-103446589D01*
X167893262Y-103446587D01*
X167893262Y-103446586D01*
X167808358Y-103361682D01*
X167699526Y-103310932D01*
X167649941Y-103304405D01*
X167230148Y-103304405D01*
X167230146Y-103304405D01*
X167230140Y-103304406D01*
X167180553Y-103310933D01*
X167180551Y-103310933D01*
X167180550Y-103310934D01*
X167180547Y-103310934D01*
X167104953Y-103346185D01*
X167057164Y-103348272D01*
X167021896Y-103315954D01*
X167016040Y-103289541D01*
X167016040Y-103202775D01*
X167016039Y-103202771D01*
X167015091Y-103198006D01*
X167000056Y-103122411D01*
X167000055Y-103122409D01*
X167000054Y-103122407D01*
X166978152Y-103089630D01*
X166968819Y-103042714D01*
X166978152Y-103020182D01*
X166980802Y-103016217D01*
X166995131Y-102994772D01*
X167000055Y-102987403D01*
X167000056Y-102987400D01*
X167005994Y-102957548D01*
X167016041Y-102907039D01*
X167016040Y-102702774D01*
X167000056Y-102622411D01*
X166966471Y-102572148D01*
X166939165Y-102531281D01*
X166848037Y-102470391D01*
X166848035Y-102470390D01*
X166767674Y-102454406D01*
X166678400Y-102454406D01*
X166634206Y-102436100D01*
X166158847Y-101960741D01*
X166140541Y-101916547D01*
X166140541Y-101631163D01*
X166158847Y-101586969D01*
X166203041Y-101568663D01*
X166247235Y-101586969D01*
X166250271Y-101590230D01*
X166261710Y-101603431D01*
X166382785Y-101681241D01*
X166382787Y-101681241D01*
X166382788Y-101681242D01*
X166520874Y-101721787D01*
X166520876Y-101721788D01*
X166520877Y-101721788D01*
X166664800Y-101721788D01*
X166664800Y-101721787D01*
X166802891Y-101681241D01*
X166845739Y-101653703D01*
X166892814Y-101645210D01*
X166923723Y-101662088D01*
X167351052Y-102089417D01*
X167407001Y-102145366D01*
X167475523Y-102184927D01*
X167498908Y-102191193D01*
X167551944Y-102205405D01*
X167551950Y-102205406D01*
X167631074Y-102205406D01*
X167913080Y-102205406D01*
X167957274Y-102223712D01*
X169239269Y-103505707D01*
X169257575Y-103549901D01*
X169239269Y-103594095D01*
X169222526Y-103606050D01*
X169193831Y-103620078D01*
X169105213Y-103708696D01*
X169050175Y-103821279D01*
X169050175Y-103821280D01*
X169039541Y-103894270D01*
X169039541Y-104315541D01*
X169050175Y-104388531D01*
X169050175Y-104388532D01*
X169105213Y-104501115D01*
X169193831Y-104589733D01*
X169242955Y-104613748D01*
X169306416Y-104644772D01*
X169379405Y-104655406D01*
X169800677Y-104655406D01*
X169873666Y-104644772D01*
X169986252Y-104589732D01*
X170074867Y-104501117D01*
X170128966Y-104390456D01*
X170164821Y-104358792D01*
X170185115Y-104355406D01*
X170227042Y-104355406D01*
X170271236Y-104373712D01*
X170289542Y-104417906D01*
X170289542Y-104802787D01*
X170295950Y-104862392D01*
X170346244Y-104997237D01*
X170346247Y-104997242D01*
X170432492Y-105112449D01*
X170432497Y-105112454D01*
X170547704Y-105198699D01*
X170547709Y-105198702D01*
X170682555Y-105248996D01*
X170682556Y-105248996D01*
X170682558Y-105248997D01*
X170742168Y-105255406D01*
X172421910Y-105255405D01*
X172466104Y-105273711D01*
X172484410Y-105317905D01*
X172484410Y-107691906D01*
X172466104Y-107736100D01*
X172421910Y-107754406D01*
X170742176Y-107754406D01*
X170742159Y-107754407D01*
X170682554Y-107760815D01*
X170547709Y-107811109D01*
X170547704Y-107811112D01*
X170432497Y-107897357D01*
X170432492Y-107897362D01*
X170346247Y-108012569D01*
X170346244Y-108012574D01*
X170295950Y-108147419D01*
X170289541Y-108207025D01*
X170289541Y-108241906D01*
X170271235Y-108286100D01*
X170227041Y-108304406D01*
X170196466Y-108304406D01*
X170152272Y-108286100D01*
X170136250Y-108270078D01*
X170023666Y-108215040D01*
X169950677Y-108204406D01*
X169529405Y-108204406D01*
X169456415Y-108215040D01*
X169456414Y-108215040D01*
X169343831Y-108270078D01*
X169255213Y-108358696D01*
X169200175Y-108471279D01*
X169200175Y-108471280D01*
X169189541Y-108544270D01*
X169189541Y-108633835D01*
X169171235Y-108678029D01*
X167359575Y-110489688D01*
X167359572Y-110489692D01*
X167313426Y-110569618D01*
X167313425Y-110569621D01*
X167289542Y-110658755D01*
X167289541Y-110658763D01*
X167289541Y-113633835D01*
X167271235Y-113678029D01*
X162259575Y-118689688D01*
X162259568Y-118689697D01*
X162219228Y-118759567D01*
X162219229Y-118759568D01*
X162213427Y-118769616D01*
X162213425Y-118769621D01*
X162189542Y-118858755D01*
X162189541Y-118858763D01*
X162189541Y-121851048D01*
X162189542Y-121851056D01*
X162210517Y-121929336D01*
X162213425Y-121940190D01*
X162213429Y-121940200D01*
X162259568Y-122020114D01*
X162259575Y-122020123D01*
X162647508Y-122408055D01*
X162665178Y-122443354D01*
X162679109Y-122540246D01*
X162679110Y-122540249D01*
X162734261Y-122661011D01*
X162735911Y-122664624D01*
X162825452Y-122767961D01*
X162940480Y-122841884D01*
X162940482Y-122841884D01*
X162940483Y-122841885D01*
X163071671Y-122880405D01*
X163071673Y-122880406D01*
X163071674Y-122880406D01*
X163208409Y-122880406D01*
X163208409Y-122880405D01*
X163339602Y-122841884D01*
X163454630Y-122767961D01*
X163544171Y-122664624D01*
X163600972Y-122540248D01*
X163620431Y-122404906D01*
X163600972Y-122269564D01*
X163544171Y-122145188D01*
X163454630Y-122041851D01*
X163339602Y-121967928D01*
X163339600Y-121967927D01*
X163339598Y-121967926D01*
X163208410Y-121929406D01*
X163208408Y-121929406D01*
X163186111Y-121929406D01*
X163141917Y-121911100D01*
X162908847Y-121678030D01*
X162890541Y-121633836D01*
X162890541Y-119075976D01*
X162908847Y-119031782D01*
X167920506Y-114020123D01*
X167920511Y-114020118D01*
X167966655Y-113940194D01*
X167976244Y-113904407D01*
X167990541Y-113851050D01*
X167990541Y-110875976D01*
X168008847Y-110831782D01*
X169516917Y-109323712D01*
X169561111Y-109305406D01*
X169950677Y-109305406D01*
X170023666Y-109294772D01*
X170136252Y-109239732D01*
X170185878Y-109190105D01*
X170230069Y-109171801D01*
X170274264Y-109190106D01*
X170292212Y-109227620D01*
X170295950Y-109262392D01*
X170346244Y-109397237D01*
X170346247Y-109397242D01*
X170432492Y-109512449D01*
X170432497Y-109512454D01*
X170547704Y-109598699D01*
X170547709Y-109598702D01*
X170682555Y-109648996D01*
X170682556Y-109648996D01*
X170682558Y-109648997D01*
X170742168Y-109655406D01*
X172421910Y-109655405D01*
X172466104Y-109673711D01*
X172484410Y-109717905D01*
X172484410Y-109891906D01*
X172466104Y-109936100D01*
X172421910Y-109954406D01*
X170742176Y-109954406D01*
X170742159Y-109954407D01*
X170682554Y-109960815D01*
X170547709Y-110011109D01*
X170547704Y-110011112D01*
X170432497Y-110097357D01*
X170432492Y-110097362D01*
X170346247Y-110212569D01*
X170346244Y-110212574D01*
X170295950Y-110347419D01*
X170289541Y-110407025D01*
X170289541Y-110441906D01*
X170271235Y-110486100D01*
X170227041Y-110504406D01*
X170196466Y-110504406D01*
X170152272Y-110486100D01*
X170136250Y-110470078D01*
X170023666Y-110415040D01*
X169950677Y-110404406D01*
X169529405Y-110404406D01*
X169456415Y-110415040D01*
X169456414Y-110415040D01*
X169343831Y-110470078D01*
X169255213Y-110558696D01*
X169200175Y-110671279D01*
X169200175Y-110671280D01*
X169189541Y-110744270D01*
X169189541Y-110983836D01*
X169171235Y-111028030D01*
X168509571Y-111689693D01*
X168496432Y-111712452D01*
X168463426Y-111769618D01*
X168463425Y-111769621D01*
X168439542Y-111858755D01*
X168439541Y-111858763D01*
X168439541Y-114083836D01*
X168421235Y-114128030D01*
X163838165Y-118711100D01*
X163793971Y-118729406D01*
X163771672Y-118729406D01*
X163640483Y-118767926D01*
X163633540Y-118772388D01*
X163525452Y-118841851D01*
X163435911Y-118945188D01*
X163435910Y-118945189D01*
X163435909Y-118945191D01*
X163379110Y-119069562D01*
X163379109Y-119069565D01*
X163359651Y-119204906D01*
X163379109Y-119340246D01*
X163379110Y-119340249D01*
X163435713Y-119464191D01*
X163435911Y-119464624D01*
X163525452Y-119567961D01*
X163640480Y-119641884D01*
X163640482Y-119641884D01*
X163640483Y-119641885D01*
X163688984Y-119656126D01*
X163763156Y-119677905D01*
X163771671Y-119680405D01*
X163771673Y-119680406D01*
X163771674Y-119680406D01*
X163908409Y-119680406D01*
X163908409Y-119680405D01*
X164039602Y-119641884D01*
X164154630Y-119567961D01*
X164244171Y-119464624D01*
X164300972Y-119340248D01*
X164314902Y-119243353D01*
X164332570Y-119208057D01*
X169070511Y-114470118D01*
X169116655Y-114390194D01*
X169120122Y-114377255D01*
X169140541Y-114301050D01*
X169140541Y-112075976D01*
X169158847Y-112031782D01*
X169666917Y-111523712D01*
X169711111Y-111505406D01*
X169950677Y-111505406D01*
X170023666Y-111494772D01*
X170136252Y-111439732D01*
X170185878Y-111390105D01*
X170230069Y-111371801D01*
X170274264Y-111390106D01*
X170292212Y-111427620D01*
X170295950Y-111462392D01*
X170346244Y-111597237D01*
X170346247Y-111597242D01*
X170432492Y-111712449D01*
X170432497Y-111712454D01*
X170547704Y-111798699D01*
X170547709Y-111798702D01*
X170682555Y-111848996D01*
X170682556Y-111848996D01*
X170682558Y-111848997D01*
X170742168Y-111855406D01*
X172421910Y-111855405D01*
X172466104Y-111873711D01*
X172484410Y-111917905D01*
X172484410Y-112091906D01*
X172466104Y-112136100D01*
X172421910Y-112154406D01*
X170742176Y-112154406D01*
X170742159Y-112154407D01*
X170682554Y-112160815D01*
X170547709Y-112211109D01*
X170547704Y-112211112D01*
X170432497Y-112297357D01*
X170432492Y-112297362D01*
X170346247Y-112412569D01*
X170346244Y-112412574D01*
X170295950Y-112547419D01*
X170289541Y-112607025D01*
X170289541Y-113183835D01*
X170271235Y-113228029D01*
X169813165Y-113686100D01*
X169768971Y-113704406D01*
X169729405Y-113704406D01*
X169656415Y-113715040D01*
X169656414Y-113715040D01*
X169543831Y-113770078D01*
X169455213Y-113858696D01*
X169400175Y-113971279D01*
X169400175Y-113971280D01*
X169394703Y-114008836D01*
X169389541Y-114044270D01*
X169389541Y-114465542D01*
X169391871Y-114481533D01*
X169400175Y-114538531D01*
X169400175Y-114538532D01*
X169455213Y-114651115D01*
X169543831Y-114739733D01*
X169600123Y-114767252D01*
X169656416Y-114794772D01*
X169729405Y-114805406D01*
X169968971Y-114805406D01*
X170013165Y-114823712D01*
X170271235Y-115081782D01*
X170289541Y-115125976D01*
X170289541Y-115733835D01*
X170271235Y-115778029D01*
X170243317Y-115805947D01*
X170215720Y-115833544D01*
X170208080Y-115840045D01*
X170197637Y-115847574D01*
X170197636Y-115847575D01*
X170181666Y-115867147D01*
X170177438Y-115871825D01*
X170159571Y-115889693D01*
X170159568Y-115889696D01*
X170153133Y-115900843D01*
X170147438Y-115909097D01*
X170139299Y-115919074D01*
X170139290Y-115919088D01*
X170128931Y-115942124D01*
X170126059Y-115947736D01*
X170113427Y-115969618D01*
X170110093Y-115982057D01*
X170106729Y-115991501D01*
X170101448Y-116003248D01*
X170097401Y-116028198D01*
X170096078Y-116034363D01*
X170089543Y-116058755D01*
X170089542Y-116058764D01*
X170089542Y-116071632D01*
X170088736Y-116081636D01*
X169532481Y-119511866D01*
X169507337Y-119552561D01*
X169492634Y-119560419D01*
X168634967Y-119880404D01*
X168601691Y-119883292D01*
X168566421Y-119876733D01*
X168346963Y-119835915D01*
X168306862Y-119809837D01*
X168296946Y-119763040D01*
X168298503Y-119756593D01*
X168301774Y-119745633D01*
X168304807Y-119735472D01*
X168494035Y-118662299D01*
X168495529Y-118637047D01*
X168470824Y-118536647D01*
X168469965Y-118510868D01*
X168492275Y-118384340D01*
X168517976Y-118343999D01*
X168578267Y-118301784D01*
X168647142Y-118203420D01*
X168662181Y-118155721D01*
X168735078Y-117742298D01*
X168737261Y-117692331D01*
X168706182Y-117576343D01*
X168666968Y-117520339D01*
X168637308Y-117477979D01*
X168538946Y-117409106D01*
X168538942Y-117409104D01*
X168510996Y-117400293D01*
X168491245Y-117394066D01*
X168491243Y-117394065D01*
X168491241Y-117394065D01*
X168136919Y-117331589D01*
X168136906Y-117331587D01*
X168086947Y-117329404D01*
X168086939Y-117329405D01*
X167970956Y-117360484D01*
X167970955Y-117360485D01*
X167872593Y-117429357D01*
X167871565Y-117430826D01*
X167870353Y-117431597D01*
X167868727Y-117433224D01*
X167868366Y-117432863D01*
X167831218Y-117456523D01*
X167805777Y-117455743D01*
X167214841Y-117313825D01*
X167213261Y-117313424D01*
X167179604Y-117304406D01*
X167175679Y-117303889D01*
X167171747Y-117303475D01*
X167136927Y-117304385D01*
X167135296Y-117304406D01*
X166800473Y-117304406D01*
X166724054Y-117324884D01*
X166724052Y-117324884D01*
X166663037Y-117360112D01*
X166655529Y-117364446D01*
X164941029Y-119078945D01*
X164936162Y-119083327D01*
X164920218Y-119096235D01*
X164920216Y-119096236D01*
X164913735Y-119105154D01*
X164907375Y-119112600D01*
X164899581Y-119120393D01*
X164899581Y-119120394D01*
X164889325Y-119138157D01*
X164885761Y-119143645D01*
X164873700Y-119160242D01*
X164873699Y-119160243D01*
X164869744Y-119170539D01*
X164865533Y-119179366D01*
X164860020Y-119188916D01*
X164854712Y-119208725D01*
X164852688Y-119214951D01*
X164845334Y-119234101D01*
X164844179Y-119245067D01*
X164842395Y-119254691D01*
X164839541Y-119265345D01*
X164839541Y-119285851D01*
X164839198Y-119292394D01*
X164454645Y-122945641D01*
X164436682Y-122983292D01*
X163933876Y-123486100D01*
X163889682Y-123504406D01*
X162690400Y-123504406D01*
X162646206Y-123486100D01*
X161758847Y-122598741D01*
X161740541Y-122554547D01*
X161740541Y-117441702D01*
X161758847Y-117397508D01*
X161785431Y-117381734D01*
X161829110Y-117368910D01*
X161938090Y-117298873D01*
X162022923Y-117200969D01*
X162076738Y-117083132D01*
X162085404Y-117022851D01*
X162103073Y-116987554D01*
X162508914Y-116581712D01*
X162521259Y-116572132D01*
X164889044Y-115170384D01*
X164894279Y-115167705D01*
X164894994Y-115167273D01*
X164894997Y-115167273D01*
X164933185Y-115144253D01*
X164933397Y-115144126D01*
X164971837Y-115121371D01*
X164971837Y-115121370D01*
X164972563Y-115120941D01*
X164977415Y-115117593D01*
X164991598Y-115109044D01*
X165077408Y-115057320D01*
X165078274Y-115056809D01*
X165114941Y-115035641D01*
X165114947Y-115035634D01*
X165117579Y-115033615D01*
X165120182Y-115031538D01*
X165120190Y-115031534D01*
X165149535Y-115001059D01*
X165150256Y-115000324D01*
X165482428Y-114668151D01*
X165487855Y-114663322D01*
X165489297Y-114662181D01*
X165489311Y-114662173D01*
X165519467Y-114631119D01*
X165519974Y-114630605D01*
X165550486Y-114600095D01*
X165550489Y-114600088D01*
X165551595Y-114598648D01*
X165551697Y-114598530D01*
X165551787Y-114598410D01*
X165552392Y-114597610D01*
X165552427Y-114597563D01*
X165552506Y-114597444D01*
X165553599Y-114595974D01*
X165553607Y-114595967D01*
X165574712Y-114558143D01*
X165575039Y-114557567D01*
X165596631Y-114520171D01*
X165596632Y-114520164D01*
X165597339Y-114518460D01*
X165600501Y-114511925D01*
X165842225Y-114078726D01*
X165879743Y-114049055D01*
X165902923Y-114046983D01*
X166040041Y-114060489D01*
X166245975Y-114040206D01*
X166443995Y-113980138D01*
X166626491Y-113882591D01*
X166786451Y-113751316D01*
X166917726Y-113591356D01*
X167015273Y-113408860D01*
X167075341Y-113210840D01*
X167095624Y-113004906D01*
X167075341Y-112798972D01*
X167015273Y-112600952D01*
X166958008Y-112493818D01*
X166917729Y-112418461D01*
X166917727Y-112418459D01*
X166917726Y-112418456D01*
X166786451Y-112258496D01*
X166728709Y-112211109D01*
X166626496Y-112127225D01*
X166626494Y-112127224D01*
X166626491Y-112127221D01*
X166626489Y-112127219D01*
X166626485Y-112127217D01*
X166443995Y-112029674D01*
X166443990Y-112029672D01*
X166245976Y-111969606D01*
X166245971Y-111969605D01*
X166038829Y-111949203D01*
X165996642Y-111926653D01*
X165982756Y-111880878D01*
X166000759Y-111842812D01*
X166328993Y-111514580D01*
X166369184Y-111417548D01*
X166369184Y-111312523D01*
X166369184Y-110413686D01*
X166387489Y-110369493D01*
X167386063Y-109370918D01*
X167430256Y-109352613D01*
X167474450Y-109370919D01*
X167477490Y-109374184D01*
X167497466Y-109397237D01*
X167528173Y-109432675D01*
X167649248Y-109510485D01*
X167649250Y-109510485D01*
X167649251Y-109510486D01*
X167787337Y-109551031D01*
X167787339Y-109551032D01*
X167787340Y-109551032D01*
X167931263Y-109551032D01*
X167931263Y-109551031D01*
X168069354Y-109510485D01*
X168190429Y-109432675D01*
X168284678Y-109323905D01*
X168344466Y-109192989D01*
X168364948Y-109050532D01*
X168344466Y-108908075D01*
X168284678Y-108777159D01*
X168284677Y-108777157D01*
X168190430Y-108668390D01*
X168190429Y-108668389D01*
X168170969Y-108655882D01*
X168152010Y-108643698D01*
X168124729Y-108604404D01*
X168123301Y-108591120D01*
X168123301Y-108371653D01*
X168123300Y-108371650D01*
X168083111Y-108274625D01*
X168083107Y-108274620D01*
X168008847Y-108200360D01*
X167990541Y-108156166D01*
X167990541Y-107794270D01*
X167990443Y-107793594D01*
X167979907Y-107721281D01*
X167977609Y-107716580D01*
X167924868Y-107608696D01*
X167836250Y-107520078D01*
X167723666Y-107465040D01*
X167650677Y-107454406D01*
X167229405Y-107454406D01*
X167156415Y-107465040D01*
X167156414Y-107465040D01*
X167043831Y-107520078D01*
X166955213Y-107608696D01*
X166900175Y-107721279D01*
X166900175Y-107721280D01*
X166889541Y-107794270D01*
X166889541Y-108215541D01*
X166900175Y-108288531D01*
X166900175Y-108288532D01*
X166955213Y-108401115D01*
X167043831Y-108489733D01*
X167100123Y-108517252D01*
X167156416Y-108544772D01*
X167229405Y-108555406D01*
X167491123Y-108555406D01*
X167535317Y-108573712D01*
X167553623Y-108617906D01*
X167535317Y-108662100D01*
X167531383Y-108665270D01*
X167531550Y-108665463D01*
X167528173Y-108668389D01*
X167444493Y-108764960D01*
X167401719Y-108786373D01*
X167397260Y-108786532D01*
X167280583Y-108786532D01*
X167183558Y-108826721D01*
X167183553Y-108826725D01*
X165881377Y-110128901D01*
X165881373Y-110128906D01*
X165841184Y-110225931D01*
X165841184Y-111229795D01*
X165822878Y-111273989D01*
X164740497Y-112356371D01*
X164666234Y-112430633D01*
X164666230Y-112430638D01*
X164626041Y-112527663D01*
X164626041Y-114044840D01*
X164607735Y-114089034D01*
X164482789Y-114213979D01*
X164470434Y-114223567D01*
X162287333Y-115515981D01*
X162239978Y-115522742D01*
X162206204Y-115500628D01*
X162204642Y-115498625D01*
X161783985Y-114959084D01*
X161771250Y-114912976D01*
X161774421Y-114901786D01*
X161773948Y-114901647D01*
X161775206Y-114897363D01*
X161795688Y-114754904D01*
X161775206Y-114612450D01*
X161768849Y-114598530D01*
X161715418Y-114481533D01*
X161715417Y-114481531D01*
X161621169Y-114372763D01*
X161500094Y-114294953D01*
X161500092Y-114294952D01*
X161500090Y-114294951D01*
X161362004Y-114254406D01*
X161362002Y-114254406D01*
X161218080Y-114254406D01*
X161218078Y-114254406D01*
X161079991Y-114294951D01*
X160958912Y-114372763D01*
X160864664Y-114481531D01*
X160864664Y-114481533D01*
X160804875Y-114612450D01*
X160784394Y-114754904D01*
X160804875Y-114897361D01*
X160810511Y-114909702D01*
X160864005Y-115026837D01*
X160864664Y-115028278D01*
X160864664Y-115028280D01*
X160954296Y-115131721D01*
X160958913Y-115137049D01*
X161079988Y-115214859D01*
X161079990Y-115214859D01*
X161079991Y-115214860D01*
X161218077Y-115255405D01*
X161218079Y-115255406D01*
X161218080Y-115255406D01*
X161314980Y-115255406D01*
X161359174Y-115273712D01*
X161364270Y-115279477D01*
X161738255Y-115759157D01*
X161750991Y-115805266D01*
X161727394Y-115846876D01*
X161720805Y-115851368D01*
X161624177Y-115908573D01*
X161612522Y-115913942D01*
X161594721Y-115920016D01*
X161594720Y-115920017D01*
X161578270Y-115934486D01*
X161568837Y-115941336D01*
X161549984Y-115952498D01*
X161538702Y-115967539D01*
X161529987Y-115976961D01*
X160939470Y-116496430D01*
X160926703Y-116504422D01*
X160923193Y-116506790D01*
X160894097Y-116536148D01*
X160890988Y-116539078D01*
X160859940Y-116566391D01*
X160857414Y-116569693D01*
X160851573Y-116577897D01*
X160849263Y-116581389D01*
X160833618Y-116619640D01*
X160831868Y-116623533D01*
X160813635Y-116660653D01*
X160812540Y-116664761D01*
X160810307Y-116674474D01*
X160809506Y-116678596D01*
X160809691Y-116719949D01*
X160809564Y-116724218D01*
X160806925Y-116765465D01*
X160807485Y-116769671D01*
X160809980Y-116784516D01*
X160811703Y-117168516D01*
X160812508Y-117348188D01*
X160812540Y-117355176D01*
X160812541Y-117355456D01*
X160812541Y-122907986D01*
X160821825Y-122930399D01*
X160821825Y-122930401D01*
X160821826Y-122930401D01*
X160829876Y-122949837D01*
X160852732Y-123005016D01*
X162165666Y-124317950D01*
X162239930Y-124392214D01*
X162239931Y-124392214D01*
X162239933Y-124392216D01*
X162336958Y-124432405D01*
X162336961Y-124432406D01*
X163742410Y-124432406D01*
X163786604Y-124450712D01*
X163804910Y-124494906D01*
X163786604Y-124539100D01*
X163744154Y-124557382D01*
X163378662Y-124567586D01*
X163378114Y-124567599D01*
X163361191Y-124567923D01*
X163361178Y-124567923D01*
X163334784Y-124568422D01*
X163332753Y-124568461D01*
X163332743Y-124568461D01*
X163315920Y-124568776D01*
X163314237Y-124568808D01*
X163314229Y-124568808D01*
X163299280Y-124569086D01*
X163297411Y-124569121D01*
X163297395Y-124569121D01*
X163269210Y-124569638D01*
X163269201Y-124569639D01*
X163254807Y-124569901D01*
X163254794Y-124569901D01*
X163230005Y-124570347D01*
X163229995Y-124570347D01*
X163205879Y-124570777D01*
X163205867Y-124570777D01*
X163191208Y-124571035D01*
X163189986Y-124571057D01*
X163189976Y-124571057D01*
X163166031Y-124571475D01*
X163166022Y-124571476D01*
X163144767Y-124571844D01*
X163144752Y-124571844D01*
X163128387Y-124572123D01*
X163127296Y-124572142D01*
X163127289Y-124572142D01*
X163103323Y-124572548D01*
X163099899Y-124572606D01*
X163099890Y-124572606D01*
X163083211Y-124572886D01*
X163083196Y-124572886D01*
X163061490Y-124573245D01*
X163061485Y-124573246D01*
X163039675Y-124573605D01*
X163039661Y-124573605D01*
X163021274Y-124573903D01*
X163019960Y-124573925D01*
X163019952Y-124573925D01*
X163000232Y-124574242D01*
X162997767Y-124574282D01*
X162997758Y-124574282D01*
X162979194Y-124574578D01*
X162979188Y-124574578D01*
X162956033Y-124574945D01*
X162956016Y-124574945D01*
X162940177Y-124575191D01*
X162939245Y-124575206D01*
X162939243Y-124575206D01*
X162914896Y-124575584D01*
X162914880Y-124575585D01*
X162895743Y-124575877D01*
X162895740Y-124575877D01*
X162873657Y-124576213D01*
X162873643Y-124576213D01*
X162857457Y-124576455D01*
X162856300Y-124576473D01*
X162856296Y-124576473D01*
X162831278Y-124576846D01*
X162831267Y-124576846D01*
X162811362Y-124577139D01*
X162809552Y-124577166D01*
X162809545Y-124577166D01*
X162790455Y-124577445D01*
X162769685Y-124577745D01*
X162747257Y-124578066D01*
X162747251Y-124578066D01*
X162729589Y-124578317D01*
X162729579Y-124578317D01*
X162708575Y-124578612D01*
X162708505Y-124578613D01*
X162274195Y-124584227D01*
X162274070Y-124584228D01*
X162256217Y-124584423D01*
X162255681Y-124584429D01*
X162255678Y-124584429D01*
X162215344Y-124584867D01*
X162215289Y-124584867D01*
X162211564Y-124584908D01*
X162211206Y-124584912D01*
X162211205Y-124584912D01*
X162191958Y-124585121D01*
X162191949Y-124585121D01*
X162183835Y-124585208D01*
X162183815Y-124585207D01*
X162121939Y-124585874D01*
X162121939Y-124585875D01*
X162121793Y-124585876D01*
X162121573Y-124585879D01*
X162121511Y-124585879D01*
X162092371Y-124586191D01*
X162091964Y-124586196D01*
X162091962Y-124586196D01*
X162056466Y-124586575D01*
X162056465Y-124586575D01*
X162041816Y-124586731D01*
X162003797Y-124587136D01*
X162003737Y-124587136D01*
X162003421Y-124587140D01*
X162003419Y-124587140D01*
X162002231Y-124587152D01*
X162002124Y-124587154D01*
X162002123Y-124587153D01*
X161984054Y-124587345D01*
X161983686Y-124587349D01*
X161977098Y-124587418D01*
X161970225Y-124587491D01*
X161970226Y-124587492D01*
X161929018Y-124587927D01*
X161929016Y-124587927D01*
X161890472Y-124588333D01*
X161890471Y-124588332D01*
X161889568Y-124588342D01*
X161889548Y-124588343D01*
X161877463Y-124588470D01*
X161877460Y-124588470D01*
X161837154Y-124588892D01*
X161837153Y-124588892D01*
X161822408Y-124589046D01*
X161822407Y-124589046D01*
X161791936Y-124589364D01*
X161760961Y-124589687D01*
X161760960Y-124589687D01*
X161756087Y-124589738D01*
X161756079Y-124589738D01*
X161751672Y-124589783D01*
X161751669Y-124589784D01*
X161747932Y-124589823D01*
X161746997Y-124589833D01*
X161746991Y-124589833D01*
X161731681Y-124589992D01*
X161731680Y-124589992D01*
X161687924Y-124590445D01*
X161687925Y-124590446D01*
X161660300Y-124590733D01*
X161660293Y-124590733D01*
X161343897Y-124593985D01*
X161343875Y-124593984D01*
X161339373Y-124594030D01*
X161339372Y-124594030D01*
X161333055Y-124594095D01*
X161330652Y-124594120D01*
X161330642Y-124594119D01*
X161296871Y-124594468D01*
X161296843Y-124594466D01*
X161291078Y-124594526D01*
X161270579Y-124594740D01*
X161270571Y-124594740D01*
X161256723Y-124594882D01*
X161256691Y-124594884D01*
X161246618Y-124594989D01*
X161243459Y-124595022D01*
X161243458Y-124595022D01*
X161243374Y-124595023D01*
X161232506Y-124595136D01*
X161231097Y-124595151D01*
X161231096Y-124595151D01*
X161208419Y-124595386D01*
X161208420Y-124595387D01*
X161203601Y-124595437D01*
X161202910Y-124595445D01*
X161202896Y-124595445D01*
X161200743Y-124595467D01*
X161200711Y-124595465D01*
X161196224Y-124595512D01*
X161173167Y-124595754D01*
X161166351Y-124595826D01*
X161166350Y-124595825D01*
X161164223Y-124595848D01*
X161163999Y-124595851D01*
X161163944Y-124595851D01*
X161163622Y-124595855D01*
X161163621Y-124595855D01*
X161158647Y-124595907D01*
X161158095Y-124595913D01*
X161158080Y-124595913D01*
X161154856Y-124595945D01*
X161154857Y-124595946D01*
X161149657Y-124596000D01*
X161149656Y-124596000D01*
X161137668Y-124596126D01*
X161136917Y-124596134D01*
X161136915Y-124596134D01*
X161113583Y-124596377D01*
X161113554Y-124596379D01*
X161111967Y-124596395D01*
X161109898Y-124596417D01*
X161109897Y-124596418D01*
X161085374Y-124596674D01*
X161085371Y-124596674D01*
X161081707Y-124596713D01*
X161081607Y-124596713D01*
X161080475Y-124596726D01*
X161080441Y-124596727D01*
X161069905Y-124596838D01*
X161069904Y-124596837D01*
X161066640Y-124596872D01*
X161066626Y-124596873D01*
X161058222Y-124596960D01*
X161058220Y-124596961D01*
X161058218Y-124596961D01*
X161051739Y-124597029D01*
X161047850Y-124597070D01*
X161047849Y-124597069D01*
X161039762Y-124597155D01*
X161039549Y-124597158D01*
X161039494Y-124597158D01*
X161039172Y-124597162D01*
X161039170Y-124597162D01*
X161038285Y-124597171D01*
X161035690Y-124597198D01*
X161034901Y-124597207D01*
X161028247Y-124597277D01*
X161028246Y-124597277D01*
X161015740Y-124597409D01*
X161015738Y-124597409D01*
X161009069Y-124597480D01*
X161008960Y-124597480D01*
X161003743Y-124597536D01*
X161003730Y-124597535D01*
X161003731Y-124597536D01*
X160989891Y-124597682D01*
X160989864Y-124597680D01*
X160960561Y-124597992D01*
X160960547Y-124597991D01*
X160928038Y-124598339D01*
X160927329Y-124598347D01*
X160927321Y-124598347D01*
X160913910Y-124598488D01*
X160913911Y-124598489D01*
X160901574Y-124598621D01*
X160900784Y-124598630D01*
X160900780Y-124598630D01*
X160874087Y-124598912D01*
X160874088Y-124598913D01*
X160859902Y-124599065D01*
X160859873Y-124599063D01*
X160833604Y-124599348D01*
X160833201Y-124599353D01*
X160833199Y-124599353D01*
X160832385Y-124599361D01*
X160831532Y-124599371D01*
X160831458Y-124599371D01*
X160826763Y-124599422D01*
X160826507Y-124599425D01*
X160826505Y-124599425D01*
X160799571Y-124599713D01*
X160799539Y-124599715D01*
X160785314Y-124599868D01*
X160785279Y-124599870D01*
X160769849Y-124600037D01*
X160769814Y-124600040D01*
X160568951Y-124602222D01*
X160568782Y-124602207D01*
X160556845Y-124602341D01*
X160556823Y-124602339D01*
X160532027Y-124602618D01*
X160532013Y-124602617D01*
X160518675Y-124602767D01*
X160517918Y-124602776D01*
X160517894Y-124602776D01*
X160477223Y-124603217D01*
X160477049Y-124603236D01*
X160467301Y-124603345D01*
X160467282Y-124603347D01*
X160449243Y-124603550D01*
X160449236Y-124603550D01*
X160444111Y-124603607D01*
X160444112Y-124603608D01*
X160442221Y-124603630D01*
X160442190Y-124603630D01*
X160430527Y-124603763D01*
X160430113Y-124603768D01*
X160430088Y-124603768D01*
X160428631Y-124603784D01*
X160428619Y-124603783D01*
X160407503Y-124604024D01*
X160407495Y-124604024D01*
X160393716Y-124604180D01*
X160393712Y-124604181D01*
X160388474Y-124604241D01*
X160388473Y-124604241D01*
X160383618Y-124604297D01*
X160383600Y-124604297D01*
X160361860Y-124604544D01*
X160361840Y-124604546D01*
X160359861Y-124604568D01*
X160359336Y-124604575D01*
X160359326Y-124604575D01*
X160337922Y-124604818D01*
X160337905Y-124604820D01*
X160329586Y-124604916D01*
X160329562Y-124604914D01*
X160297605Y-124605284D01*
X160297594Y-124605284D01*
X160295576Y-124605307D01*
X160295558Y-124605306D01*
X160291564Y-124605352D01*
X160272409Y-124605573D01*
X160270230Y-124605599D01*
X160260273Y-124605714D01*
X160260255Y-124605714D01*
X160259207Y-124605725D01*
X160259196Y-124605726D01*
X160258562Y-124605733D01*
X160254459Y-124605780D01*
X160254449Y-124605781D01*
X160254446Y-124605781D01*
X160248822Y-124605847D01*
X160248420Y-124605852D01*
X160248403Y-124605852D01*
X160225952Y-124606110D01*
X160225942Y-124606109D01*
X160220343Y-124606173D01*
X160220344Y-124606174D01*
X160218511Y-124606195D01*
X160218238Y-124606199D01*
X160218218Y-124606199D01*
X160209809Y-124606297D01*
X160209380Y-124606303D01*
X160209371Y-124606303D01*
X160205242Y-124606350D01*
X160205239Y-124606351D01*
X160191945Y-124606507D01*
X160191941Y-124606507D01*
X160188985Y-124606541D01*
X160180529Y-124606640D01*
X160180528Y-124606640D01*
X160177626Y-124606674D01*
X160177609Y-124606674D01*
X160145662Y-124607046D01*
X160145633Y-124607049D01*
X160135546Y-124607167D01*
X160135508Y-124607170D01*
X160131643Y-124607216D01*
X160129625Y-124607240D01*
X160129624Y-124607240D01*
X160125192Y-124607293D01*
X160124774Y-124607298D01*
X160124757Y-124607298D01*
X160011781Y-124608626D01*
X160011725Y-124608622D01*
X159965358Y-124609173D01*
X159965352Y-124609173D01*
X159921560Y-124609688D01*
X159921509Y-124609693D01*
X159918506Y-124609728D01*
X159917812Y-124609737D01*
X159917809Y-124609737D01*
X159904974Y-124609888D01*
X159904971Y-124609888D01*
X159871582Y-124610279D01*
X159871577Y-124610279D01*
X159857649Y-124610440D01*
X159857649Y-124610441D01*
X159846571Y-124610570D01*
X159846561Y-124610570D01*
X159816614Y-124610914D01*
X159816608Y-124610914D01*
X159803172Y-124611066D01*
X159803172Y-124611067D01*
X159797128Y-124611136D01*
X159797117Y-124611136D01*
X159777802Y-124611353D01*
X159777798Y-124611353D01*
X159765041Y-124611495D01*
X159761851Y-124611531D01*
X159761841Y-124611531D01*
X159751468Y-124611644D01*
X159751469Y-124611645D01*
X159740763Y-124611763D01*
X159740729Y-124611764D01*
X159620420Y-124613025D01*
X159620261Y-124613026D01*
X159615536Y-124613063D01*
X159615093Y-124613067D01*
X159615087Y-124613067D01*
X159606393Y-124613134D01*
X159604943Y-124613146D01*
X159604911Y-124613146D01*
X159592377Y-124613237D01*
X159592343Y-124613238D01*
X159580451Y-124613318D01*
X159580414Y-124613318D01*
X159570406Y-124613379D01*
X159570135Y-124613381D01*
X159570101Y-124613381D01*
X159559799Y-124613438D01*
X159559495Y-124613440D01*
X159559430Y-124613440D01*
X159546114Y-124613500D01*
X159546059Y-124613501D01*
X159534473Y-124613543D01*
X159534394Y-124613543D01*
X159523106Y-124613569D01*
X159522963Y-124613570D01*
X159522870Y-124613570D01*
X159512527Y-124613578D01*
X159512415Y-124613579D01*
X146643133Y-124613579D01*
X146637004Y-124613278D01*
X146635664Y-124613146D01*
X146621630Y-124611763D01*
X146490217Y-124598813D01*
X146478200Y-124596422D01*
X146340007Y-124554494D01*
X146328689Y-124549805D01*
X146201334Y-124481726D01*
X146191146Y-124474918D01*
X146079519Y-124383300D01*
X146070856Y-124374637D01*
X146070305Y-124373966D01*
X145979242Y-124262996D01*
X145972437Y-124252809D01*
X145945762Y-124202900D01*
X145904367Y-124125449D01*
X145899680Y-124114131D01*
X145897828Y-124108025D01*
X145857762Y-123975929D01*
X145855375Y-123963928D01*
X145840842Y-123816318D01*
X145840541Y-123810192D01*
X145840541Y-123796152D01*
X145840542Y-123774195D01*
X145840541Y-123774192D01*
X145840541Y-119080230D01*
X146737601Y-119080230D01*
X146758082Y-119222685D01*
X146758083Y-119222687D01*
X146817411Y-119352596D01*
X146817871Y-119353602D01*
X146817871Y-119353604D01*
X146902535Y-119451311D01*
X146912120Y-119462373D01*
X147033195Y-119540183D01*
X147114522Y-119564062D01*
X147141105Y-119579835D01*
X147302763Y-119741493D01*
X147381985Y-119820715D01*
X147381987Y-119820716D01*
X147381988Y-119820717D01*
X147437564Y-119852804D01*
X147437565Y-119852804D01*
X147479011Y-119876733D01*
X147587229Y-119905730D01*
X147587230Y-119905730D01*
X148841112Y-119905730D01*
X148885306Y-119924036D01*
X151383325Y-122422055D01*
X151401631Y-122466249D01*
X151401631Y-122753709D01*
X151395983Y-122779672D01*
X151366200Y-122844886D01*
X151366199Y-122844889D01*
X151346741Y-122980230D01*
X151366199Y-123115570D01*
X151366200Y-123115573D01*
X151417404Y-123227692D01*
X151423001Y-123239948D01*
X151512542Y-123343285D01*
X151627570Y-123417208D01*
X151627572Y-123417208D01*
X151627573Y-123417209D01*
X151758761Y-123455729D01*
X151758763Y-123455730D01*
X151758764Y-123455730D01*
X151895499Y-123455730D01*
X151895499Y-123455729D01*
X152026692Y-123417208D01*
X152141720Y-123343285D01*
X152231261Y-123239948D01*
X152288062Y-123115572D01*
X152307521Y-122980230D01*
X152288062Y-122844888D01*
X152258279Y-122779672D01*
X152252631Y-122753709D01*
X152252631Y-122208096D01*
X152252629Y-122208088D01*
X152223635Y-122099879D01*
X152223634Y-122099876D01*
X152209984Y-122076234D01*
X152167616Y-122002850D01*
X152088394Y-121923628D01*
X150701667Y-120536901D01*
X149304516Y-119139749D01*
X149304512Y-119139746D01*
X149304511Y-119139745D01*
X149244598Y-119105154D01*
X149207484Y-119083726D01*
X149207481Y-119083725D01*
X149099272Y-119054731D01*
X149099267Y-119054730D01*
X149099266Y-119054730D01*
X149099265Y-119054730D01*
X147845384Y-119054730D01*
X147801190Y-119036424D01*
X147747467Y-118982701D01*
X147729797Y-118947400D01*
X147728774Y-118940286D01*
X147728413Y-118937773D01*
X147668625Y-118806857D01*
X147668624Y-118806855D01*
X147574376Y-118698087D01*
X147543540Y-118678270D01*
X147453301Y-118620277D01*
X147453299Y-118620276D01*
X147453297Y-118620275D01*
X147315211Y-118579730D01*
X147315209Y-118579730D01*
X147171287Y-118579730D01*
X147171285Y-118579730D01*
X147033198Y-118620275D01*
X146912119Y-118698087D01*
X146817871Y-118806855D01*
X146817871Y-118806857D01*
X146758082Y-118937774D01*
X146737601Y-119080230D01*
X145840541Y-119080230D01*
X145840541Y-102750727D01*
X145840884Y-102747085D01*
X145840852Y-102743184D01*
X145840854Y-102743182D01*
X145840559Y-102706371D01*
X145840813Y-102700238D01*
X145854239Y-102552567D01*
X145856553Y-102540485D01*
X145897792Y-102401280D01*
X145902428Y-102389893D01*
X145970160Y-102261478D01*
X145976942Y-102251218D01*
X146068534Y-102138578D01*
X146077197Y-102129845D01*
X146189097Y-102037348D01*
X146199301Y-102030485D01*
X146327167Y-101961724D01*
X146338518Y-101956995D01*
X146477380Y-101914639D01*
X146489449Y-101912225D01*
X146606787Y-101900604D01*
X146636534Y-101897659D01*
X146642693Y-101897355D01*
X157233760Y-101897355D01*
X157247737Y-101897355D01*
X157247780Y-101897372D01*
X157273642Y-101897371D01*
X157273642Y-101897372D01*
X157582612Y-101897361D01*
X158199839Y-101867693D01*
X158814930Y-101808427D01*
X159120698Y-101764063D01*
X159426451Y-101719703D01*
X159426463Y-101719700D01*
X159426467Y-101719700D01*
X160033040Y-101601717D01*
X160633248Y-101454750D01*
X161225709Y-101279137D01*
X161809056Y-101075283D01*
X161907927Y-101035311D01*
X161907951Y-101035309D01*
X161911944Y-101033695D01*
X161923659Y-101031846D01*
X161936090Y-101023933D01*
X161943602Y-101020896D01*
X161948166Y-101019050D01*
X161961601Y-101013619D01*
X161963118Y-101013030D01*
X162469407Y-100824327D01*
X162472652Y-100823218D01*
X162671380Y-100761335D01*
X162987704Y-100662833D01*
X162990992Y-100661907D01*
X163514056Y-100530021D01*
X163517384Y-100529279D01*
X164046917Y-100426283D01*
X164050225Y-100425733D01*
X164584673Y-100351933D01*
X164588016Y-100351565D01*
X165125666Y-100307199D01*
X165129029Y-100307014D01*
X165669008Y-100292192D01*
X165670723Y-100292168D01*
X165709873Y-100292168D01*
X172421910Y-100292168D01*
X172466104Y-100310474D01*
G37*
%TD.AperFunction*%
%TA.AperFunction,Conductor*%
G36*
X166123977Y-119296774D02*
G01*
X166142283Y-119340968D01*
X166136635Y-119366931D01*
X166089357Y-119470456D01*
X166089356Y-119470459D01*
X166069898Y-119605800D01*
X166089356Y-119741140D01*
X166089357Y-119741143D01*
X166141834Y-119856050D01*
X166146158Y-119865518D01*
X166184523Y-119909794D01*
X166199788Y-119950722D01*
X166199788Y-120449083D01*
X166199789Y-120449091D01*
X166223576Y-120537867D01*
X166223577Y-120537867D01*
X166223675Y-120538232D01*
X166269815Y-120618149D01*
X166269822Y-120618158D01*
X166591923Y-120940258D01*
X166610229Y-120984452D01*
X166609280Y-120995305D01*
X166545921Y-121354641D01*
X166544427Y-121379891D01*
X166544427Y-121379894D01*
X166571270Y-121488987D01*
X166635710Y-121581016D01*
X166635711Y-121581017D01*
X166644408Y-121586844D01*
X166729042Y-121643552D01*
X166753280Y-121650786D01*
X167038608Y-121701096D01*
X167063859Y-121702590D01*
X167172952Y-121675746D01*
X167172953Y-121675745D01*
X167172954Y-121675745D01*
X167182229Y-121669250D01*
X167182263Y-121669225D01*
X167228964Y-121658869D01*
X167269309Y-121684568D01*
X167269311Y-121684571D01*
X167275831Y-121693883D01*
X167275834Y-121693885D01*
X167275836Y-121693888D01*
X167369168Y-121756424D01*
X167393406Y-121763658D01*
X167678734Y-121813968D01*
X167703985Y-121815462D01*
X167813078Y-121788618D01*
X167822389Y-121782097D01*
X167869090Y-121771742D01*
X167909435Y-121797442D01*
X167909436Y-121797443D01*
X167915958Y-121806757D01*
X167915960Y-121806759D01*
X167936989Y-121820849D01*
X167963515Y-121860657D01*
X167964700Y-121872772D01*
X167964700Y-121958677D01*
X167946394Y-122002871D01*
X167913165Y-122036100D01*
X167868971Y-122054406D01*
X166592430Y-122054406D01*
X166559724Y-122042191D01*
X166558390Y-122044268D01*
X166554631Y-122041852D01*
X166554630Y-122041851D01*
X166439602Y-121967928D01*
X166439600Y-121967927D01*
X166439598Y-121967926D01*
X166308410Y-121929406D01*
X166308408Y-121929406D01*
X166171674Y-121929406D01*
X166171672Y-121929406D01*
X166040483Y-121967926D01*
X166008752Y-121988318D01*
X165925452Y-122041851D01*
X165835911Y-122145188D01*
X165835910Y-122145189D01*
X165835909Y-122145191D01*
X165779110Y-122269562D01*
X165779109Y-122269565D01*
X165759651Y-122404906D01*
X165779109Y-122540246D01*
X165779110Y-122540249D01*
X165834261Y-122661011D01*
X165835911Y-122664624D01*
X165925452Y-122767961D01*
X166040480Y-122841884D01*
X166040482Y-122841884D01*
X166040483Y-122841885D01*
X166171671Y-122880405D01*
X166171673Y-122880406D01*
X166171674Y-122880406D01*
X166308409Y-122880406D01*
X166308409Y-122880405D01*
X166439602Y-122841884D01*
X166554630Y-122767961D01*
X166554631Y-122767959D01*
X166558390Y-122765544D01*
X166559724Y-122767620D01*
X166592430Y-122755406D01*
X168086184Y-122755406D01*
X168086185Y-122755406D01*
X168175329Y-122731520D01*
X168177404Y-122730321D01*
X168177416Y-122730319D01*
X168177414Y-122730316D01*
X168182520Y-122727368D01*
X168255253Y-122685376D01*
X168595670Y-122344959D01*
X168641814Y-122265035D01*
X168654429Y-122217955D01*
X168665700Y-122175891D01*
X168665700Y-121437413D01*
X168666650Y-121426560D01*
X168684018Y-121328058D01*
X168804229Y-120646306D01*
X168805723Y-120621054D01*
X168805720Y-120621045D01*
X168805295Y-120616376D01*
X168807510Y-120616173D01*
X168813567Y-120576387D01*
X168845202Y-120550167D01*
X169915619Y-120150808D01*
X169919714Y-120149566D01*
X169921298Y-120148964D01*
X169921303Y-120148964D01*
X169963404Y-120132980D01*
X170005792Y-120117166D01*
X170005795Y-120117163D01*
X170005821Y-120117154D01*
X170006391Y-120116848D01*
X170006705Y-120116680D01*
X170007547Y-120116232D01*
X170007577Y-120116210D01*
X170007583Y-120116208D01*
X170044054Y-120089913D01*
X170044261Y-120089766D01*
X170080985Y-120063610D01*
X170081487Y-120063138D01*
X170081751Y-120062891D01*
X170082417Y-120062270D01*
X170082441Y-120062239D01*
X170082444Y-120062238D01*
X170111014Y-120027221D01*
X170139715Y-119992454D01*
X170139716Y-119992451D01*
X170139742Y-119992420D01*
X170140362Y-119991418D01*
X170140541Y-119991131D01*
X170140778Y-119990751D01*
X170140785Y-119990733D01*
X170140788Y-119990731D01*
X170159360Y-119949425D01*
X170178045Y-119908503D01*
X170178044Y-119908503D01*
X170178061Y-119908468D01*
X170178340Y-119907540D01*
X170178441Y-119907209D01*
X170178629Y-119906593D01*
X170178633Y-119906562D01*
X170178635Y-119906560D01*
X170185880Y-119861885D01*
X170193341Y-119817491D01*
X170193340Y-119817486D01*
X170193622Y-119815812D01*
X170194041Y-119811551D01*
X170271685Y-119332743D01*
X170296829Y-119292050D01*
X170343383Y-119281055D01*
X170384078Y-119306199D01*
X170395335Y-119350977D01*
X170395120Y-119352596D01*
X170395114Y-119352643D01*
X170393297Y-119366246D01*
X170391344Y-119380813D01*
X170389445Y-119394912D01*
X170387779Y-119407241D01*
X170385715Y-119422452D01*
X170383835Y-119436244D01*
X170381769Y-119451348D01*
X170381736Y-119451591D01*
X170380008Y-119464161D01*
X170380004Y-119464191D01*
X170378141Y-119477695D01*
X170378136Y-119477726D01*
X170376059Y-119492724D01*
X170376054Y-119492763D01*
X170376054Y-119492764D01*
X170374066Y-119507053D01*
X170372117Y-119521003D01*
X170371854Y-119522875D01*
X170370142Y-119535078D01*
X170370137Y-119535112D01*
X170368164Y-119549115D01*
X170368159Y-119549150D01*
X170366181Y-119563131D01*
X170366175Y-119563173D01*
X170364039Y-119578198D01*
X170364035Y-119578227D01*
X170362283Y-119590509D01*
X170362277Y-119590551D01*
X170361695Y-119594610D01*
X170360164Y-119605292D01*
X170357990Y-119620398D01*
X170356544Y-119630409D01*
X170356096Y-119633507D01*
X170356089Y-119633554D01*
X170353899Y-119648633D01*
X170353894Y-119648668D01*
X170351980Y-119661794D01*
X170351974Y-119661837D01*
X170349851Y-119676326D01*
X170349802Y-119676653D01*
X170303148Y-119983734D01*
X170302967Y-119984857D01*
X170301962Y-119990751D01*
X170300891Y-119997027D01*
X170298443Y-120011292D01*
X170295766Y-120026787D01*
X170293335Y-120040783D01*
X170293183Y-120041656D01*
X170293172Y-120041716D01*
X170291699Y-120050146D01*
X170290666Y-120056058D01*
X170288004Y-120071186D01*
X170285430Y-120085727D01*
X170282719Y-120100945D01*
X170280156Y-120115247D01*
X170277493Y-120130018D01*
X170276687Y-120134461D01*
X170274706Y-120145373D01*
X170274695Y-120145433D01*
X170272841Y-120155588D01*
X170271953Y-120160454D01*
X170271338Y-120163800D01*
X170269321Y-120174779D01*
X170269310Y-120174839D01*
X170266575Y-120189642D01*
X170266562Y-120189710D01*
X170265536Y-120195228D01*
X170263848Y-120204309D01*
X170263014Y-120208765D01*
X170260921Y-120219947D01*
X170260910Y-120220005D01*
X170258372Y-120233492D01*
X170258358Y-120233564D01*
X170255316Y-120249626D01*
X170255302Y-120249700D01*
X170252585Y-120263952D01*
X170252572Y-120264023D01*
X170249643Y-120279291D01*
X170249631Y-120279355D01*
X170246844Y-120293802D01*
X170246831Y-120293867D01*
X170246634Y-120294883D01*
X170243916Y-120308889D01*
X170240869Y-120324485D01*
X170238012Y-120339023D01*
X170235008Y-120354213D01*
X170232069Y-120368992D01*
X170229096Y-120383845D01*
X170226104Y-120398699D01*
X170226090Y-120398769D01*
X170222978Y-120414128D01*
X170222963Y-120414202D01*
X170219891Y-120429270D01*
X170219876Y-120429343D01*
X170216842Y-120444135D01*
X170216827Y-120444209D01*
X170213964Y-120458082D01*
X170213832Y-120458705D01*
X170143927Y-120780827D01*
X170143458Y-120782828D01*
X170140629Y-120794067D01*
X170140629Y-120794069D01*
X170136831Y-120809050D01*
X170133287Y-120822937D01*
X170132944Y-120824282D01*
X170132917Y-120824388D01*
X170129017Y-120839558D01*
X170128991Y-120839656D01*
X170125102Y-120854682D01*
X170125076Y-120854784D01*
X170121122Y-120869956D01*
X170117146Y-120885100D01*
X170113130Y-120900300D01*
X170109003Y-120915800D01*
X170105007Y-120930713D01*
X170100950Y-120945749D01*
X170096771Y-120961131D01*
X170095774Y-120964777D01*
X170092692Y-120976041D01*
X170092662Y-120976150D01*
X170088488Y-120991300D01*
X170088460Y-120991402D01*
X170084270Y-121006510D01*
X170084240Y-121006617D01*
X170080029Y-121021697D01*
X170079999Y-121021803D01*
X170075771Y-121036841D01*
X170075741Y-121036948D01*
X170071502Y-121051923D01*
X170071471Y-121052032D01*
X170069916Y-121057489D01*
X170067059Y-121067511D01*
X170062846Y-121082191D01*
X170062817Y-121082292D01*
X170058484Y-121097294D01*
X170058451Y-121097405D01*
X170054002Y-121112702D01*
X170053971Y-121112811D01*
X170049509Y-121128050D01*
X170049475Y-121128163D01*
X170045199Y-121142665D01*
X170045169Y-121142769D01*
X170040608Y-121158139D01*
X170036155Y-121173041D01*
X170031547Y-121188361D01*
X170026990Y-121203406D01*
X170023209Y-121215812D01*
X170022404Y-121218452D01*
X170022370Y-121218563D01*
X170017649Y-121233946D01*
X170017614Y-121234058D01*
X170013096Y-121248682D01*
X170013061Y-121248794D01*
X170008915Y-121262125D01*
X170008611Y-121263077D01*
X169903188Y-121583876D01*
X169902129Y-121586844D01*
X169898854Y-121595339D01*
X169892908Y-121610656D01*
X169887244Y-121625141D01*
X169881468Y-121639805D01*
X169875490Y-121654879D01*
X169869749Y-121669250D01*
X169863770Y-121684106D01*
X169859808Y-121693883D01*
X169857939Y-121698495D01*
X169857881Y-121698636D01*
X169851838Y-121713443D01*
X169851780Y-121713586D01*
X169845874Y-121727956D01*
X169839814Y-121742596D01*
X169833738Y-121757170D01*
X169827633Y-121771716D01*
X169821431Y-121786385D01*
X169818628Y-121792968D01*
X169815355Y-121800655D01*
X169815294Y-121800797D01*
X169809104Y-121815235D01*
X169809042Y-121815380D01*
X169802768Y-121829912D01*
X169802703Y-121830061D01*
X169796598Y-121844103D01*
X169796532Y-121844254D01*
X169790039Y-121859082D01*
X169784004Y-121872772D01*
X169783829Y-121873168D01*
X169783761Y-121873322D01*
X169777339Y-121887783D01*
X169777274Y-121887927D01*
X169770848Y-121902299D01*
X169770848Y-121902300D01*
X169764322Y-121916795D01*
X169757851Y-121931068D01*
X169751324Y-121945367D01*
X169744657Y-121959867D01*
X169738073Y-121974094D01*
X169731443Y-121988318D01*
X169724687Y-122002714D01*
X169718015Y-122016834D01*
X169717942Y-122016987D01*
X169711290Y-122030966D01*
X169711218Y-122031117D01*
X169705526Y-122042997D01*
X169704897Y-122044272D01*
X169553036Y-122343557D01*
X169550904Y-122347415D01*
X169547478Y-122353129D01*
X169547381Y-122353291D01*
X169539478Y-122366382D01*
X169539368Y-122366563D01*
X169531248Y-122379911D01*
X169531146Y-122380078D01*
X169523147Y-122393135D01*
X169523040Y-122393310D01*
X169514856Y-122406571D01*
X169514747Y-122406746D01*
X169506740Y-122419625D01*
X169506630Y-122419802D01*
X169498261Y-122433164D01*
X169498157Y-122433329D01*
X169490071Y-122446150D01*
X169489963Y-122446322D01*
X169481593Y-122459498D01*
X169481477Y-122459679D01*
X169473211Y-122472593D01*
X169473104Y-122472759D01*
X169464812Y-122485624D01*
X169464699Y-122485800D01*
X169456201Y-122498888D01*
X169447752Y-122511807D01*
X169447691Y-122511900D01*
X169439144Y-122524874D01*
X169439031Y-122525046D01*
X169433196Y-122533838D01*
X169430561Y-122537811D01*
X169430445Y-122537984D01*
X169421734Y-122551017D01*
X169421624Y-122551181D01*
X169413181Y-122563727D01*
X169413059Y-122563908D01*
X169404340Y-122576767D01*
X169404222Y-122576941D01*
X169395633Y-122589517D01*
X169395518Y-122589685D01*
X169386730Y-122602463D01*
X169386609Y-122602637D01*
X169377759Y-122615412D01*
X169377668Y-122615542D01*
X169368904Y-122628102D01*
X169359876Y-122640949D01*
X169350961Y-122653543D01*
X169341809Y-122666380D01*
X169332877Y-122678817D01*
X169332829Y-122678884D01*
X169323817Y-122691347D01*
X169323685Y-122691530D01*
X169314423Y-122704242D01*
X169314300Y-122704410D01*
X169305309Y-122716664D01*
X169305186Y-122716832D01*
X169304332Y-122717988D01*
X169296008Y-122729253D01*
X169286806Y-122741619D01*
X169286673Y-122741796D01*
X169279450Y-122751431D01*
X169278336Y-122752873D01*
X169071600Y-123012521D01*
X169068018Y-123016638D01*
X169064953Y-123019864D01*
X169054171Y-123031126D01*
X169054160Y-123031138D01*
X169043234Y-123042466D01*
X169043089Y-123042615D01*
X169032550Y-123053462D01*
X169021407Y-123064842D01*
X169021245Y-123065006D01*
X169010710Y-123075686D01*
X169010541Y-123075857D01*
X168999507Y-123086957D01*
X168999344Y-123087120D01*
X168988671Y-123097778D01*
X168988499Y-123097950D01*
X168977350Y-123108997D01*
X168977186Y-123109158D01*
X168966395Y-123119772D01*
X168966225Y-123119939D01*
X168954910Y-123130984D01*
X168954742Y-123131148D01*
X168943807Y-123141742D01*
X168943641Y-123141901D01*
X168932698Y-123152425D01*
X168932524Y-123152592D01*
X168921213Y-123163386D01*
X168921041Y-123163550D01*
X168909722Y-123174270D01*
X168909555Y-123174427D01*
X168898461Y-123184857D01*
X168898290Y-123185017D01*
X168887122Y-123195438D01*
X168886949Y-123195600D01*
X168875349Y-123206342D01*
X168863660Y-123217082D01*
X168852202Y-123227534D01*
X168840474Y-123238151D01*
X168828834Y-123248608D01*
X168817013Y-123259149D01*
X168817010Y-123259152D01*
X168805224Y-123269581D01*
X168805054Y-123269731D01*
X168793682Y-123279720D01*
X168793504Y-123279875D01*
X168781607Y-123290246D01*
X168781430Y-123290401D01*
X168769656Y-123300587D01*
X168769480Y-123300738D01*
X168757762Y-123310800D01*
X168757580Y-123310956D01*
X168745646Y-123321124D01*
X168745469Y-123321273D01*
X168733684Y-123331239D01*
X168733504Y-123331391D01*
X168721495Y-123341469D01*
X168721325Y-123341612D01*
X168712202Y-123349213D01*
X168710659Y-123350458D01*
X168443106Y-123559360D01*
X168438534Y-123562610D01*
X168434478Y-123565227D01*
X168434475Y-123565229D01*
X168420808Y-123573976D01*
X168420625Y-123574092D01*
X168406980Y-123582759D01*
X168403081Y-123585216D01*
X168393231Y-123591423D01*
X168393043Y-123591541D01*
X168379327Y-123600116D01*
X168379135Y-123600235D01*
X168365495Y-123608694D01*
X168365349Y-123608784D01*
X168351313Y-123617421D01*
X168337480Y-123625865D01*
X168323360Y-123634416D01*
X168319363Y-123636818D01*
X168309249Y-123642895D01*
X168309064Y-123643005D01*
X168295529Y-123651074D01*
X168295337Y-123651188D01*
X168281054Y-123659634D01*
X168280872Y-123659741D01*
X168266749Y-123668028D01*
X168266557Y-123668141D01*
X168252500Y-123676322D01*
X168252312Y-123676431D01*
X168238213Y-123684571D01*
X168238029Y-123684676D01*
X168223763Y-123692848D01*
X168223662Y-123692906D01*
X168209349Y-123701041D01*
X168194826Y-123709228D01*
X168185067Y-123714684D01*
X168180591Y-123717188D01*
X168180408Y-123717290D01*
X168165825Y-123725380D01*
X168151134Y-123733465D01*
X168136459Y-123741476D01*
X168122022Y-123749293D01*
X168121946Y-123749334D01*
X168107166Y-123757272D01*
X168106982Y-123757371D01*
X168092276Y-123765206D01*
X168092100Y-123765299D01*
X168077502Y-123773017D01*
X168077306Y-123773120D01*
X168062658Y-123780798D01*
X168062479Y-123780892D01*
X168049080Y-123787859D01*
X168047821Y-123788515D01*
X168032831Y-123796248D01*
X168017677Y-123804001D01*
X168017494Y-123804094D01*
X168002794Y-123811554D01*
X168002612Y-123811646D01*
X167990486Y-123817750D01*
X167988932Y-123818505D01*
X167658394Y-123973596D01*
X167654082Y-123975426D01*
X167652740Y-123975937D01*
X167646646Y-123978256D01*
X167629820Y-123984607D01*
X167629652Y-123984670D01*
X167613181Y-123990833D01*
X167613031Y-123990889D01*
X167596456Y-123997039D01*
X167596418Y-123997054D01*
X167579643Y-124003226D01*
X167579487Y-124003283D01*
X167562806Y-124009370D01*
X167562640Y-124009430D01*
X167545944Y-124015469D01*
X167545778Y-124015529D01*
X167529104Y-124021507D01*
X167528956Y-124021560D01*
X167512211Y-124027516D01*
X167512047Y-124027574D01*
X167495213Y-124033509D01*
X167495054Y-124033565D01*
X167478249Y-124039439D01*
X167478120Y-124039484D01*
X167461165Y-124045358D01*
X167461092Y-124045384D01*
X167444075Y-124051230D01*
X167443919Y-124051284D01*
X167426825Y-124057106D01*
X167409591Y-124062925D01*
X167392363Y-124068692D01*
X167392303Y-124068712D01*
X167375316Y-124074348D01*
X167375167Y-124074398D01*
X167357692Y-124080147D01*
X167340443Y-124085771D01*
X167323289Y-124091316D01*
X167323132Y-124091367D01*
X167305398Y-124097048D01*
X167305248Y-124097095D01*
X167288430Y-124102436D01*
X167288298Y-124102478D01*
X167270527Y-124108072D01*
X167265957Y-124109498D01*
X167253114Y-124113505D01*
X167253049Y-124113525D01*
X167235581Y-124118927D01*
X167217809Y-124124374D01*
X167200207Y-124129722D01*
X167182621Y-124135016D01*
X167164672Y-124140372D01*
X167147125Y-124145561D01*
X167146973Y-124145606D01*
X167129190Y-124150816D01*
X167129049Y-124150857D01*
X167113685Y-124155319D01*
X167112456Y-124155663D01*
X166723928Y-124259945D01*
X166720660Y-124260728D01*
X166708253Y-124263353D01*
X166708206Y-124263362D01*
X166708137Y-124263377D01*
X166689335Y-124267317D01*
X166689222Y-124267341D01*
X166669977Y-124271337D01*
X166669865Y-124271360D01*
X166650684Y-124275306D01*
X166650570Y-124275329D01*
X166631608Y-124279193D01*
X166631493Y-124279217D01*
X166612140Y-124283123D01*
X166612027Y-124283145D01*
X166592759Y-124286997D01*
X166592646Y-124287020D01*
X166573191Y-124290872D01*
X166554134Y-124294609D01*
X166554038Y-124294628D01*
X166534573Y-124298409D01*
X166534466Y-124298430D01*
X166514927Y-124302190D01*
X166514814Y-124302211D01*
X166495983Y-124305799D01*
X166495871Y-124305821D01*
X166475876Y-124309593D01*
X166456757Y-124313167D01*
X166456711Y-124313175D01*
X166456642Y-124313188D01*
X166437024Y-124316817D01*
X166436920Y-124316836D01*
X166417404Y-124320412D01*
X166417300Y-124320431D01*
X166397933Y-124323946D01*
X166397824Y-124323966D01*
X166378093Y-124327511D01*
X166377987Y-124327530D01*
X166358700Y-124330961D01*
X166358606Y-124330977D01*
X166338702Y-124334485D01*
X166338648Y-124334494D01*
X166338592Y-124334504D01*
X166318742Y-124337965D01*
X166299008Y-124341373D01*
X166279447Y-124344716D01*
X166279346Y-124344733D01*
X166275209Y-124345432D01*
X166259393Y-124348109D01*
X166242240Y-124350981D01*
X166239623Y-124351420D01*
X166239528Y-124351436D01*
X166219915Y-124354689D01*
X166219809Y-124354706D01*
X166200011Y-124357955D01*
X166199910Y-124357972D01*
X166179691Y-124361256D01*
X166179595Y-124361271D01*
X166159965Y-124364428D01*
X166159860Y-124364445D01*
X166139455Y-124367691D01*
X166139359Y-124367706D01*
X166119878Y-124370774D01*
X166119780Y-124370789D01*
X166101314Y-124373667D01*
X166100486Y-124373791D01*
X165667096Y-124435402D01*
X165664960Y-124435668D01*
X165648457Y-124437437D01*
X165648387Y-124437445D01*
X165627641Y-124439645D01*
X165627574Y-124439652D01*
X165606500Y-124441864D01*
X165606432Y-124441871D01*
X165598614Y-124442682D01*
X165585284Y-124444067D01*
X165585259Y-124444069D01*
X165585214Y-124444074D01*
X165571877Y-124445443D01*
X165564579Y-124446193D01*
X165564556Y-124446195D01*
X165564508Y-124446200D01*
X165543389Y-124448344D01*
X165543326Y-124448351D01*
X165522003Y-124450494D01*
X165521934Y-124450501D01*
X165501850Y-124452497D01*
X165501780Y-124452504D01*
X165479765Y-124454667D01*
X165479703Y-124454673D01*
X165459290Y-124456658D01*
X165459220Y-124456664D01*
X165438182Y-124458686D01*
X165438121Y-124458692D01*
X165416924Y-124460708D01*
X165416852Y-124460715D01*
X165395585Y-124462713D01*
X165395524Y-124462719D01*
X165374976Y-124464629D01*
X165374907Y-124464635D01*
X165353358Y-124466614D01*
X165353297Y-124466620D01*
X165332088Y-124468547D01*
X165332027Y-124468552D01*
X165310908Y-124470450D01*
X165310840Y-124470456D01*
X165290709Y-124472243D01*
X165290644Y-124472249D01*
X165268012Y-124474234D01*
X165267954Y-124474239D01*
X165247718Y-124475995D01*
X165247655Y-124476000D01*
X165226130Y-124477846D01*
X165226066Y-124477852D01*
X165204665Y-124479665D01*
X165204605Y-124479670D01*
X165183517Y-124481436D01*
X165183453Y-124481441D01*
X165162091Y-124483208D01*
X165162034Y-124483213D01*
X165140661Y-124484961D01*
X165140598Y-124484966D01*
X165119628Y-124486660D01*
X165119570Y-124486665D01*
X165098503Y-124488347D01*
X165098443Y-124488352D01*
X165076761Y-124490062D01*
X165076701Y-124490066D01*
X165055660Y-124491705D01*
X165055603Y-124491710D01*
X165034012Y-124493372D01*
X165033955Y-124493376D01*
X165016743Y-124494685D01*
X165012825Y-124494983D01*
X164992071Y-124496541D01*
X164991677Y-124496569D01*
X164532582Y-124527426D01*
X164531365Y-124527496D01*
X164512913Y-124528375D01*
X164512880Y-124528377D01*
X164489656Y-124529471D01*
X164489617Y-124529473D01*
X164469545Y-124530406D01*
X164469511Y-124530407D01*
X164447026Y-124531440D01*
X164446990Y-124531442D01*
X164424194Y-124532476D01*
X164424162Y-124532477D01*
X164403847Y-124533388D01*
X164403811Y-124533390D01*
X164381152Y-124534393D01*
X164381117Y-124534394D01*
X164360709Y-124535286D01*
X164360672Y-124535288D01*
X164337569Y-124536284D01*
X164337539Y-124536285D01*
X164316260Y-124537192D01*
X164316223Y-124537194D01*
X164305780Y-124537633D01*
X164260856Y-124521199D01*
X164240710Y-124477813D01*
X164257144Y-124432889D01*
X164279235Y-124417446D01*
X164340152Y-124392214D01*
X165327350Y-123405016D01*
X165361171Y-123323363D01*
X165367541Y-123307985D01*
X165367541Y-123141127D01*
X165367884Y-123134584D01*
X165368246Y-123131148D01*
X165738521Y-119613528D01*
X165756482Y-119575881D01*
X166035591Y-119296772D01*
X166079783Y-119278468D01*
X166123977Y-119296774D01*
G37*
%TD.AperFunction*%
%TA.AperFunction,Conductor*%
G36*
X170574878Y-114008835D02*
G01*
X170682558Y-114048997D01*
X170742168Y-114055406D01*
X172421910Y-114055405D01*
X172466104Y-114073711D01*
X172484410Y-114117905D01*
X172484410Y-114828665D01*
X172466104Y-114872859D01*
X172421910Y-114891165D01*
X172303881Y-114891165D01*
X172293701Y-114889454D01*
X172293629Y-114889981D01*
X172287534Y-114889143D01*
X172287531Y-114889143D01*
X172259123Y-114890841D01*
X172255559Y-114891054D01*
X172251830Y-114891165D01*
X172234456Y-114891165D01*
X172229930Y-114890582D01*
X172229915Y-114890841D01*
X172223768Y-114890473D01*
X172216881Y-114891421D01*
X172211403Y-114891667D01*
X172201144Y-114893206D01*
X172195785Y-114893510D01*
X172188005Y-114894771D01*
X172181742Y-114895464D01*
X172159832Y-114896775D01*
X172155114Y-114898010D01*
X172146486Y-114900880D01*
X172144609Y-114901241D01*
X172141206Y-114901568D01*
X172138582Y-114902088D01*
X172134976Y-114902694D01*
X172129915Y-114903392D01*
X172128644Y-114903742D01*
X172124475Y-114904609D01*
X172121031Y-114905225D01*
X172115384Y-114906073D01*
X172115263Y-114906083D01*
X172115002Y-114906131D01*
X172114512Y-114906204D01*
X172112216Y-114906862D01*
X172110025Y-114907336D01*
X172106831Y-114907940D01*
X172100374Y-114908989D01*
X172100373Y-114908989D01*
X172094336Y-114909970D01*
X172094283Y-114909646D01*
X172094003Y-114909702D01*
X172094113Y-114910176D01*
X172089426Y-114911262D01*
X172086059Y-114911945D01*
X172081135Y-114912803D01*
X172080627Y-114912962D01*
X172075950Y-114914082D01*
X172072755Y-114914759D01*
X172068211Y-114915598D01*
X172068212Y-114915599D01*
X172063632Y-114916729D01*
X172060493Y-114917419D01*
X172056518Y-114918185D01*
X172053194Y-114919184D01*
X172044845Y-114920856D01*
X172041453Y-114921901D01*
X172039572Y-114922293D01*
X172032298Y-114923368D01*
X172030793Y-114923500D01*
X172014470Y-114928263D01*
X172010673Y-114929243D01*
X172008223Y-114929793D01*
X172004845Y-114930917D01*
X171995466Y-114933097D01*
X171992147Y-114934235D01*
X171990103Y-114934726D01*
X171986481Y-114935598D01*
X171986480Y-114935598D01*
X171982600Y-114936532D01*
X171979318Y-114937685D01*
X171969612Y-114940098D01*
X171966257Y-114941306D01*
X171960165Y-114942871D01*
X171958217Y-114943807D01*
X171948671Y-114947464D01*
X171893246Y-114963638D01*
X171875616Y-114966140D01*
X171873597Y-114966136D01*
X171873596Y-114966136D01*
X171873595Y-114966136D01*
X171873593Y-114966136D01*
X171873591Y-114966137D01*
X171864442Y-114969905D01*
X171858501Y-114971739D01*
X171847003Y-114976660D01*
X171839924Y-114979198D01*
X171818617Y-114985416D01*
X171818449Y-114985504D01*
X171806512Y-114993006D01*
X171796544Y-114997765D01*
X171793430Y-114999148D01*
X171790921Y-115000182D01*
X171788470Y-115001014D01*
X171788121Y-115001186D01*
X171784386Y-115002875D01*
X171783753Y-115003136D01*
X171781221Y-115004596D01*
X171779319Y-115005536D01*
X171776229Y-115006960D01*
X171773354Y-115008191D01*
X171771068Y-115009004D01*
X171770927Y-115009077D01*
X171767153Y-115010847D01*
X171766781Y-115011006D01*
X171764479Y-115012374D01*
X171762192Y-115013543D01*
X171759135Y-115015003D01*
X171755862Y-115016458D01*
X171753799Y-115017221D01*
X171753761Y-115017242D01*
X171750092Y-115019022D01*
X171749880Y-115019116D01*
X171747783Y-115020399D01*
X171745056Y-115021842D01*
X171741985Y-115023360D01*
X171732876Y-115027558D01*
X171730937Y-115028782D01*
X171727850Y-115030468D01*
X171724829Y-115032013D01*
X171720717Y-115033977D01*
X171718905Y-115034707D01*
X171715958Y-115036240D01*
X171714158Y-115037411D01*
X171710708Y-115039357D01*
X171707705Y-115040945D01*
X171703276Y-115043135D01*
X171701571Y-115043846D01*
X171698994Y-115045232D01*
X171697364Y-115046327D01*
X171693492Y-115048582D01*
X171690506Y-115050214D01*
X171685743Y-115052651D01*
X171684191Y-115053323D01*
X171682100Y-115054485D01*
X171680588Y-115055530D01*
X171676356Y-115058072D01*
X171673400Y-115059740D01*
X171668264Y-115062457D01*
X171666834Y-115063099D01*
X171665189Y-115064042D01*
X171663815Y-115065021D01*
X171659228Y-115067863D01*
X171656282Y-115069579D01*
X171650761Y-115072596D01*
X171649478Y-115073194D01*
X171648323Y-115073877D01*
X171647075Y-115074792D01*
X171642169Y-115077925D01*
X171639260Y-115079672D01*
X171633297Y-115083039D01*
X171632163Y-115083586D01*
X171631469Y-115084009D01*
X171630326Y-115084871D01*
X171625031Y-115088354D01*
X171622151Y-115090139D01*
X171615918Y-115093771D01*
X171614877Y-115094291D01*
X171614631Y-115094446D01*
X171613651Y-115095206D01*
X171607999Y-115099036D01*
X171605133Y-115100866D01*
X171598028Y-115105136D01*
X171592889Y-115107328D01*
X171593081Y-115107716D01*
X171587565Y-115110442D01*
X171587564Y-115110443D01*
X171573349Y-115121371D01*
X171571633Y-115122690D01*
X171567195Y-115125804D01*
X171563909Y-115127903D01*
X171559122Y-115131721D01*
X171547261Y-115139525D01*
X171542498Y-115143431D01*
X171532642Y-115150112D01*
X171528319Y-115154493D01*
X171527942Y-115154121D01*
X171520911Y-115161684D01*
X171423959Y-115236219D01*
X171412094Y-115243400D01*
X171402551Y-115247811D01*
X171402548Y-115247814D01*
X171399732Y-115250866D01*
X171397085Y-115253242D01*
X171391627Y-115259251D01*
X171389068Y-115261584D01*
X171388738Y-115261953D01*
X171380279Y-115269800D01*
X171369058Y-115278427D01*
X171369054Y-115278431D01*
X171365195Y-115285130D01*
X171357887Y-115293671D01*
X171358669Y-115294329D01*
X171351912Y-115302353D01*
X171349518Y-115304706D01*
X171345686Y-115309325D01*
X171343529Y-115311790D01*
X171341244Y-115314267D01*
X171340684Y-115314796D01*
X171339989Y-115315596D01*
X171339220Y-115316680D01*
X171338006Y-115318165D01*
X171335899Y-115320611D01*
X171333591Y-115323154D01*
X171333028Y-115323694D01*
X171332357Y-115324478D01*
X171331630Y-115325519D01*
X171330382Y-115327068D01*
X171328302Y-115329517D01*
X171325901Y-115332202D01*
X171325399Y-115332691D01*
X171324784Y-115333420D01*
X171324068Y-115334462D01*
X171322778Y-115336086D01*
X171320744Y-115338517D01*
X171318332Y-115341256D01*
X171317849Y-115341734D01*
X171317264Y-115342438D01*
X171316578Y-115343452D01*
X171315256Y-115345140D01*
X171313269Y-115347549D01*
X171310795Y-115350402D01*
X171310339Y-115350860D01*
X171309787Y-115351533D01*
X171309127Y-115352525D01*
X171307774Y-115354278D01*
X171305821Y-115356683D01*
X171303315Y-115359617D01*
X171302878Y-115360061D01*
X171302401Y-115360654D01*
X171301773Y-115361611D01*
X171300362Y-115363468D01*
X171298419Y-115365896D01*
X171296730Y-115367904D01*
X171295895Y-115368896D01*
X171295458Y-115369346D01*
X171295034Y-115369880D01*
X171294448Y-115370788D01*
X171292895Y-115372860D01*
X171291004Y-115375257D01*
X171288540Y-115378230D01*
X171288126Y-115378663D01*
X171287719Y-115379183D01*
X171287154Y-115380071D01*
X171285628Y-115382135D01*
X171283775Y-115384519D01*
X171281192Y-115387681D01*
X171280824Y-115388072D01*
X171280478Y-115388520D01*
X171279925Y-115389404D01*
X171278385Y-115391518D01*
X171276553Y-115393909D01*
X171273915Y-115397186D01*
X171273560Y-115397568D01*
X171273285Y-115397929D01*
X171272767Y-115398769D01*
X171271161Y-115401005D01*
X171269355Y-115403397D01*
X171266675Y-115406774D01*
X171266362Y-115407116D01*
X171266140Y-115407411D01*
X171265623Y-115408264D01*
X171264049Y-115410486D01*
X171262278Y-115412864D01*
X171259528Y-115416380D01*
X171259220Y-115416721D01*
X171259046Y-115416956D01*
X171258572Y-115417749D01*
X171256859Y-115420201D01*
X171255128Y-115422559D01*
X171252399Y-115426100D01*
X171252117Y-115426416D01*
X171251996Y-115426583D01*
X171251538Y-115427361D01*
X171249844Y-115429819D01*
X171248142Y-115432169D01*
X171245308Y-115435898D01*
X171245081Y-115436156D01*
X171245018Y-115436244D01*
X171244557Y-115437039D01*
X171242813Y-115439604D01*
X171241160Y-115441919D01*
X171238348Y-115445675D01*
X171238092Y-115445970D01*
X171238059Y-115446017D01*
X171237661Y-115446714D01*
X171235839Y-115449433D01*
X171234198Y-115451765D01*
X171231362Y-115455606D01*
X171231155Y-115455848D01*
X171230766Y-115456540D01*
X171228951Y-115459284D01*
X171227359Y-115461579D01*
X171224462Y-115465560D01*
X171224298Y-115465754D01*
X171223985Y-115466320D01*
X171222030Y-115469319D01*
X171220445Y-115471634D01*
X171217573Y-115475635D01*
X171217501Y-115475721D01*
X171217203Y-115476267D01*
X171215367Y-115479121D01*
X171213819Y-115481413D01*
X171210753Y-115485745D01*
X171210729Y-115485773D01*
X171210491Y-115486217D01*
X171208496Y-115489361D01*
X171206985Y-115491632D01*
X171204042Y-115495851D01*
X171204029Y-115495867D01*
X171203824Y-115496254D01*
X171201831Y-115499439D01*
X171200327Y-115501729D01*
X171197396Y-115505984D01*
X171197213Y-115506337D01*
X171195207Y-115509586D01*
X171193731Y-115511865D01*
X171190824Y-115516145D01*
X171190645Y-115516494D01*
X171188562Y-115519912D01*
X171187124Y-115522162D01*
X171184266Y-115526429D01*
X171184129Y-115526701D01*
X171182013Y-115530222D01*
X171180593Y-115532476D01*
X171177783Y-115536728D01*
X171177665Y-115536967D01*
X171175428Y-115540740D01*
X171174039Y-115542974D01*
X171170946Y-115547723D01*
X171167062Y-115553049D01*
X171163740Y-115557132D01*
X171152009Y-115579311D01*
X171149951Y-115582907D01*
X171145637Y-115589898D01*
X171144423Y-115592397D01*
X171139448Y-115600568D01*
X171138261Y-115603050D01*
X171133322Y-115611272D01*
X171132155Y-115613752D01*
X171129507Y-115618219D01*
X171127464Y-115624022D01*
X171126667Y-115623741D01*
X171123715Y-115632799D01*
X171108288Y-115661964D01*
X171071443Y-115692471D01*
X171023818Y-115687988D01*
X170993311Y-115651143D01*
X170990541Y-115632741D01*
X170990541Y-114908763D01*
X170990539Y-114908755D01*
X170989926Y-114906469D01*
X170966655Y-114819618D01*
X170929293Y-114754906D01*
X170920510Y-114739693D01*
X170508847Y-114328030D01*
X170490541Y-114283836D01*
X170490541Y-114067395D01*
X170508847Y-114023201D01*
X170553041Y-114004895D01*
X170574878Y-114008835D01*
G37*
%TD.AperFunction*%
%TA.AperFunction,Conductor*%
G36*
X164331936Y-101794997D02*
G01*
X164349786Y-101831658D01*
X164354899Y-101873770D01*
X164354900Y-101873776D01*
X164415223Y-102032837D01*
X164511852Y-102172828D01*
X164511859Y-102172836D01*
X164642019Y-102288147D01*
X164640867Y-102289446D01*
X164663754Y-102324826D01*
X164656407Y-102367356D01*
X164622019Y-102426916D01*
X164611731Y-102465312D01*
X164586086Y-102501100D01*
X164540917Y-102531282D01*
X164480025Y-102622412D01*
X164464041Y-102702772D01*
X164464041Y-102907036D01*
X164464042Y-102907040D01*
X164480025Y-102987399D01*
X164480027Y-102987403D01*
X164540916Y-103078530D01*
X164632044Y-103139420D01*
X164632046Y-103139421D01*
X164712408Y-103155406D01*
X165091673Y-103155405D01*
X165172036Y-103139421D01*
X165263165Y-103078530D01*
X165324056Y-102987401D01*
X165340041Y-102907039D01*
X165340040Y-102702774D01*
X165324056Y-102622411D01*
X165312063Y-102604462D01*
X165302731Y-102557546D01*
X165309902Y-102538491D01*
X165320062Y-102520895D01*
X165340541Y-102444468D01*
X165340541Y-102376091D01*
X165358847Y-102331897D01*
X165373994Y-102320751D01*
X165440893Y-102285640D01*
X165501655Y-102231808D01*
X165546874Y-102216204D01*
X165589882Y-102237144D01*
X165597228Y-102247341D01*
X165599579Y-102251414D01*
X165599583Y-102251419D01*
X166121735Y-102773571D01*
X166140041Y-102817764D01*
X166140041Y-102907035D01*
X166140042Y-102907041D01*
X166157227Y-102993439D01*
X166154551Y-102993971D01*
X166154549Y-103031678D01*
X166128062Y-103061880D01*
X166123622Y-103064443D01*
X166123622Y-103064444D01*
X166123620Y-103064446D01*
X165856030Y-103332036D01*
X165841881Y-103346185D01*
X165800081Y-103387984D01*
X165800080Y-103387985D01*
X165760606Y-103456356D01*
X165750677Y-103469297D01*
X165733878Y-103486098D01*
X165689685Y-103504406D01*
X165241902Y-103504406D01*
X165207180Y-103493873D01*
X165172036Y-103470391D01*
X165172035Y-103470390D01*
X165091674Y-103454406D01*
X164712410Y-103454406D01*
X164712406Y-103454407D01*
X164632047Y-103470390D01*
X164632043Y-103470392D01*
X164540916Y-103531281D01*
X164480026Y-103622409D01*
X164480025Y-103622411D01*
X164464041Y-103702772D01*
X164464041Y-103907036D01*
X164464042Y-103907040D01*
X164480025Y-103987399D01*
X164480027Y-103987403D01*
X164540916Y-104078530D01*
X164573764Y-104100478D01*
X164600340Y-104140252D01*
X164601541Y-104152445D01*
X164601541Y-104431906D01*
X164583235Y-104476100D01*
X164539041Y-104494406D01*
X164380149Y-104494406D01*
X164380147Y-104494406D01*
X164380141Y-104494407D01*
X164330554Y-104500934D01*
X164330552Y-104500934D01*
X164330551Y-104500935D01*
X164221722Y-104551683D01*
X164137306Y-104636100D01*
X164093112Y-104654406D01*
X163018606Y-104654406D01*
X162974412Y-104636100D01*
X162956106Y-104591906D01*
X162961754Y-104565943D01*
X162974436Y-104538172D01*
X162976738Y-104533132D01*
X162995174Y-104404906D01*
X162976738Y-104276680D01*
X162922923Y-104158843D01*
X162855806Y-104081384D01*
X162840541Y-104040456D01*
X162840541Y-103223893D01*
X162858846Y-103179700D01*
X164243549Y-101794996D01*
X164287742Y-101776691D01*
X164331936Y-101794997D01*
G37*
%TD.AperFunction*%
%TD*%
M02*
