%TF.GenerationSoftware,KiCad,Pcbnew,8.99.0-417-ga763d613e5*%
%TF.CreationDate,2024-07-02T15:16:59-04:00*%
%TF.ProjectId,kawaiiSD,6b617761-6969-4534-942e-6b696361645f,rev?*%
%TF.SameCoordinates,Original*%
%TF.FileFunction,Copper,L1,Top*%
%TF.FilePolarity,Positive*%
%FSLAX46Y46*%
G04 Gerber Fmt 4.6, Leading zero omitted, Abs format (unit mm)*
G04 Created by KiCad (PCBNEW 8.99.0-417-ga763d613e5) date 2024-07-02 15:16:59*
%MOMM*%
%LPD*%
G01*
G04 APERTURE LIST*
G04 Aperture macros list*
%AMRoundRect*
0 Rectangle with rounded corners*
0 $1 Rounding radius*
0 $2 $3 $4 $5 $6 $7 $8 $9 X,Y pos of 4 corners*
0 Add a 4 corners polygon primitive as box body*
4,1,4,$2,$3,$4,$5,$6,$7,$8,$9,$2,$3,0*
0 Add four circle primitives for the rounded corners*
1,1,$1+$1,$2,$3*
1,1,$1+$1,$4,$5*
1,1,$1+$1,$6,$7*
1,1,$1+$1,$8,$9*
0 Add four rect primitives between the rounded corners*
20,1,$1+$1,$2,$3,$4,$5,0*
20,1,$1+$1,$4,$5,$6,$7,0*
20,1,$1+$1,$6,$7,$8,$9,0*
20,1,$1+$1,$8,$9,$2,$3,0*%
%AMHorizOval*
0 Thick line with rounded ends*
0 $1 width*
0 $2 $3 position (X,Y) of the first rounded end (center of the circle)*
0 $4 $5 position (X,Y) of the second rounded end (center of the circle)*
0 Add line between two ends*
20,1,$1,$2,$3,$4,$5,0*
0 Add two circle primitives to create the rounded ends*
1,1,$1,$2,$3*
1,1,$1,$4,$5*%
G04 Aperture macros list end*
%TA.AperFunction,SMDPad,CuDef*%
%ADD10HorizOval,1.000000X-0.176777X0.176777X0.176777X-0.176777X0*%
%TD*%
%TA.AperFunction,SMDPad,CuDef*%
%ADD11O,1.500000X1.000000*%
%TD*%
%TA.AperFunction,SMDPad,CuDef*%
%ADD12C,1.500000*%
%TD*%
%TA.AperFunction,SMDPad,CuDef*%
%ADD13RoundRect,0.100000X0.225000X0.100000X-0.225000X0.100000X-0.225000X-0.100000X0.225000X-0.100000X0*%
%TD*%
%TA.AperFunction,SMDPad,CuDef*%
%ADD14RoundRect,0.175000X0.175000X-0.175000X0.175000X0.175000X-0.175000X0.175000X-0.175000X-0.175000X0*%
%TD*%
%TA.AperFunction,SMDPad,CuDef*%
%ADD15RoundRect,0.137500X0.019427X0.211979X-0.205840X0.054245X-0.019427X-0.211979X0.205840X-0.054245X0*%
%TD*%
%TA.AperFunction,SMDPad,CuDef*%
%ADD16RoundRect,0.145000X0.611522X0.251180X0.445184X0.488734X-0.611522X-0.251180X-0.445184X-0.488734X0*%
%TD*%
%TA.AperFunction,SMDPad,CuDef*%
%ADD17RoundRect,0.125000X0.174091X-0.030697X0.030697X0.174091X-0.174091X0.030697X-0.030697X-0.174091X0*%
%TD*%
%TA.AperFunction,SMDPad,CuDef*%
%ADD18RoundRect,0.150000X-0.150000X-0.250000X0.150000X-0.250000X0.150000X0.250000X-0.150000X0.250000X0*%
%TD*%
%TA.AperFunction,SMDPad,CuDef*%
%ADD19RoundRect,0.140000X0.170000X-0.140000X0.170000X0.140000X-0.170000X0.140000X-0.170000X-0.140000X0*%
%TD*%
%TA.AperFunction,SMDPad,CuDef*%
%ADD20RoundRect,0.225000X0.017678X-0.335876X0.335876X-0.017678X-0.017678X0.335876X-0.335876X0.017678X0*%
%TD*%
%TA.AperFunction,SMDPad,CuDef*%
%ADD21RoundRect,0.300000X-0.950000X-0.450000X0.950000X-0.450000X0.950000X0.450000X-0.950000X0.450000X0*%
%TD*%
%TA.AperFunction,SMDPad,CuDef*%
%ADD22RoundRect,0.101250X0.393750X-0.101250X0.393750X0.101250X-0.393750X0.101250X-0.393750X-0.101250X0*%
%TD*%
%TA.AperFunction,SMDPad,CuDef*%
%ADD23RoundRect,0.101250X0.153750X-0.101250X0.153750X0.101250X-0.153750X0.101250X-0.153750X-0.101250X0*%
%TD*%
%TA.AperFunction,SMDPad,CuDef*%
%ADD24RoundRect,0.095000X-0.855000X-1.022500X0.855000X-1.022500X0.855000X1.022500X-0.855000X1.022500X0*%
%TD*%
%TA.AperFunction,SMDPad,CuDef*%
%ADD25RoundRect,0.140000X-0.219203X-0.021213X-0.021213X-0.219203X0.219203X0.021213X0.021213X0.219203X0*%
%TD*%
%TA.AperFunction,SMDPad,CuDef*%
%ADD26RoundRect,0.175000X0.175000X0.175000X-0.175000X0.175000X-0.175000X-0.175000X0.175000X-0.175000X0*%
%TD*%
%TA.AperFunction,SMDPad,CuDef*%
%ADD27RoundRect,0.140000X-0.091230X-0.200442X0.179229X-0.127973X0.091230X0.200442X-0.179229X0.127973X0*%
%TD*%
%TA.AperFunction,SMDPad,CuDef*%
%ADD28RoundRect,0.062500X-0.220971X-0.309359X0.309359X0.220971X0.220971X0.309359X-0.309359X-0.220971X0*%
%TD*%
%TA.AperFunction,SMDPad,CuDef*%
%ADD29RoundRect,0.062500X0.220971X-0.309359X0.309359X-0.220971X-0.220971X0.309359X-0.309359X0.220971X0*%
%TD*%
%TA.AperFunction,HeatsinkPad*%
%ADD30RoundRect,0.187500X0.000000X-1.502602X1.502602X0.000000X0.000000X1.502602X-1.502602X0.000000X0*%
%TD*%
%TA.AperFunction,SMDPad,CuDef*%
%ADD31RoundRect,0.140000X-0.140000X-0.170000X0.140000X-0.170000X0.140000X0.170000X-0.140000X0.170000X0*%
%TD*%
%TA.AperFunction,SMDPad,CuDef*%
%ADD32RoundRect,0.175000X-0.175000X-0.375000X0.175000X-0.375000X0.175000X0.375000X-0.175000X0.375000X0*%
%TD*%
%TA.AperFunction,SMDPad,CuDef*%
%ADD33RoundRect,0.225000X-0.225000X-0.240000X0.225000X-0.240000X0.225000X0.240000X-0.225000X0.240000X0*%
%TD*%
%TA.AperFunction,SMDPad,CuDef*%
%ADD34RoundRect,0.195000X0.330000X-0.195000X0.330000X0.195000X-0.330000X0.195000X-0.330000X-0.195000X0*%
%TD*%
%TA.AperFunction,SMDPad,CuDef*%
%ADD35RoundRect,0.175000X-0.175000X-1.490000X0.175000X-1.490000X0.175000X1.490000X-0.175000X1.490000X0*%
%TD*%
%TA.AperFunction,SMDPad,CuDef*%
%ADD36RoundRect,0.215000X-0.215000X-1.185000X0.215000X-1.185000X0.215000X1.185000X-0.215000X1.185000X0*%
%TD*%
%TA.AperFunction,SMDPad,CuDef*%
%ADD37RoundRect,0.285000X-0.285000X-0.630000X0.285000X-0.630000X0.285000X0.630000X-0.285000X0.630000X0*%
%TD*%
%TA.AperFunction,SMDPad,CuDef*%
%ADD38RoundRect,0.250000X0.118542X0.523520X-0.364421X0.394110X-0.118542X-0.523520X0.364421X-0.394110X0*%
%TD*%
%TA.AperFunction,SMDPad,CuDef*%
%ADD39RoundRect,0.243750X-0.456250X0.243750X-0.456250X-0.243750X0.456250X-0.243750X0.456250X0.243750X0*%
%TD*%
%TA.AperFunction,SMDPad,CuDef*%
%ADD40RoundRect,0.175000X-0.175000X-0.175000X0.175000X-0.175000X0.175000X0.175000X-0.175000X0.175000X0*%
%TD*%
%TA.AperFunction,SMDPad,CuDef*%
%ADD41RoundRect,0.140000X0.140000X0.170000X-0.140000X0.170000X-0.140000X-0.170000X0.140000X-0.170000X0*%
%TD*%
%TA.AperFunction,SMDPad,CuDef*%
%ADD42RoundRect,0.225000X-0.250000X0.225000X-0.250000X-0.225000X0.250000X-0.225000X0.250000X0.225000X0*%
%TD*%
%TA.AperFunction,SMDPad,CuDef*%
%ADD43RoundRect,0.225000X0.225000X0.250000X-0.225000X0.250000X-0.225000X-0.250000X0.225000X-0.250000X0*%
%TD*%
%TA.AperFunction,SMDPad,CuDef*%
%ADD44RoundRect,0.135000X-0.135000X-0.185000X0.135000X-0.185000X0.135000X0.185000X-0.135000X0.185000X0*%
%TD*%
%TA.AperFunction,ViaPad*%
%ADD45C,0.600000*%
%TD*%
%TA.AperFunction,ViaPad*%
%ADD46C,0.550000*%
%TD*%
%TA.AperFunction,ViaPad*%
%ADD47C,0.500000*%
%TD*%
%TA.AperFunction,ViaPad*%
%ADD48C,1.700000*%
%TD*%
%TA.AperFunction,ViaPad*%
%ADD49C,4.000000*%
%TD*%
%TA.AperFunction,Conductor*%
%ADD50C,0.300000*%
%TD*%
%TA.AperFunction,Conductor*%
%ADD51C,0.200000*%
%TD*%
%TA.AperFunction,Conductor*%
%ADD52C,0.650000*%
%TD*%
%TA.AperFunction,Conductor*%
%ADD53C,0.250000*%
%TD*%
%TA.AperFunction,Conductor*%
%ADD54C,0.400000*%
%TD*%
G04 APERTURE END LIST*
D10*
%TO.P,TP6,1,1*%
%TO.N,Mode*%
X161290041Y-114754906D03*
%TD*%
D11*
%TO.P,TP4,1,1*%
%TO.N,GND*%
X161240041Y-104804906D03*
%TD*%
%TO.P,TP5,1,1*%
%TO.N,+5V*%
X161240041Y-107604906D03*
%TD*%
%TO.P,TP10,1,1*%
%TO.N,RGB_OUT*%
X161240041Y-106204906D03*
%TD*%
D12*
%TO.P,TP19,1,1*%
%TO.N,P1*%
X167840041Y-101304906D03*
%TD*%
D13*
%TO.P,U3,1,VIN*%
%TO.N,+5V*%
X160590041Y-118854906D03*
%TO.P,U3,2,GND*%
%TO.N,GND*%
X160590039Y-118204907D03*
%TO.P,U3,3,EN*%
%TO.N,+5V*%
X160590041Y-117554906D03*
%TO.P,U3,4,NC*%
%TO.N,unconnected-(U3-NC-Pad4)*%
X158690041Y-117554906D03*
%TO.P,U3,5,VOUT*%
%TO.N,+1V8_ALW*%
X158690041Y-118854906D03*
%TD*%
D14*
%TO.P,D9,1,A1*%
%TO.N,GND*%
X168090041Y-111504906D03*
%TO.P,D9,2,A2*%
%TO.N,AUDIO_L*%
X169190041Y-111504906D03*
%TD*%
D12*
%TO.P,TP25,1,1*%
%TO.N,P4*%
X161494403Y-102235145D03*
%TD*%
%TO.P,TP1,1,1*%
%TO.N,D+*%
X146943248Y-123480230D03*
%TD*%
D15*
%TO.P,J5,1,SIGNAL*%
%TO.N,Pr*%
X163838715Y-121945668D03*
D16*
%TO.P,J5,2,GND*%
%TO.N,GND*%
X162489408Y-121718521D03*
D17*
%TO.P,J5,3,GND_2*%
X162220889Y-123078482D03*
D16*
%TO.P,J5,4,GND_3*%
X163590674Y-123291291D03*
%TD*%
D18*
%TO.P,Z1,1,K*%
%TO.N,Net-(Z1-K)*%
X165840041Y-109774906D03*
%TO.P,Z1,2,A*%
%TO.N,Net-(Q1-G)*%
X167240041Y-109774906D03*
%TD*%
D19*
%TO.P,C12,1*%
%TO.N,+5V*%
X160640041Y-116784908D03*
%TO.P,C12,2*%
%TO.N,GND*%
X160640041Y-115824904D03*
%TD*%
D15*
%TO.P,J3,1,SIGNAL*%
%TO.N,CVBS*%
X166856490Y-121988488D03*
D16*
%TO.P,J3,2,GND*%
%TO.N,GND*%
X165507183Y-121761341D03*
D17*
%TO.P,J3,3,GND_2*%
X165238664Y-123121302D03*
D16*
%TO.P,J3,4,GND_3*%
X166608449Y-123334111D03*
%TD*%
D20*
%TO.P,C4,1*%
%TO.N,SD_VCC*%
X153863006Y-123128238D03*
%TO.P,C4,2*%
%TO.N,GND*%
X154959022Y-122032222D03*
%TD*%
D21*
%TO.P,VIN1,1,1*%
%TO.N,VIN*%
X171740041Y-106504906D03*
%TD*%
D22*
%TO.P,Q1,1,S*%
%TO.N,Net-(Z1-K)*%
X166205041Y-106114906D03*
%TO.P,Q1,2,S*%
X166205041Y-106774906D03*
%TO.P,Q1,3,S*%
X166205041Y-107434906D03*
%TO.P,Q1,4,G*%
%TO.N,Net-(Q1-G)*%
X166205041Y-108094906D03*
D23*
%TO.P,Q1,5,D*%
%TO.N,VIN*%
X169315041Y-108094906D03*
%TO.P,Q1,6,D*%
X169315041Y-107434906D03*
%TO.P,Q1,7,D*%
X169315041Y-106774906D03*
%TO.P,Q1,8,D*%
X169315041Y-106114906D03*
D24*
%TO.P,Q1,9,D*%
X168240041Y-107104906D03*
%TD*%
D25*
%TO.P,C5,1*%
%TO.N,Net-(U1-SDREG)*%
X154408568Y-117590559D03*
%TO.P,C5,2*%
%TO.N,GND*%
X155087390Y-118269381D03*
%TD*%
D26*
%TO.P,D7,1,A1*%
%TO.N,P3*%
X169540041Y-102054906D03*
%TO.P,D7,2,A2*%
%TO.N,GND*%
X169540041Y-100954906D03*
%TD*%
D27*
%TO.P,C9,1*%
%TO.N,+5V*%
X166017989Y-111334237D03*
%TO.P,C9,2*%
%TO.N,GND*%
X166945277Y-111085769D03*
%TD*%
D26*
%TO.P,D8,1,A1*%
%TO.N,GND*%
X169940041Y-115654906D03*
%TO.P,D8,2,A2*%
%TO.N,AUDIO_R*%
X169940041Y-114554906D03*
%TD*%
D12*
%TO.P,TP24,1,1*%
%TO.N,P3*%
X163533275Y-101559043D03*
%TD*%
D21*
%TO.P,TP22,1,1*%
%TO.N,AUDIO_R*%
X171740041Y-113104906D03*
%TD*%
D28*
%TO.P,U1,1,VDD*%
%TO.N,Net-(U1-VDD)*%
X150073228Y-120466366D03*
%TO.P,U1,2*%
%TO.N,N/C*%
X150426782Y-120819919D03*
%TO.P,U1,3,D-*%
%TO.N,D-*%
X150780335Y-121173473D03*
%TO.P,U1,4,D+*%
%TO.N,D+*%
X151133888Y-121527026D03*
%TO.P,U1,5,AVDD33*%
%TO.N,+3.3V*%
X151487442Y-121880579D03*
%TO.P,U1,6,DVDD33*%
X151840995Y-122234133D03*
D29*
%TO.P,U1,7,SD_VCC*%
%TO.N,SD_VCC*%
X152813267Y-122234133D03*
%TO.P,U1,8*%
%TO.N,N/C*%
X153166820Y-121880579D03*
%TO.P,U1,9,PIO5*%
%TO.N,GND*%
X153520374Y-121527026D03*
%TO.P,U1,10,SD_CDZ*%
X153873927Y-121173473D03*
%TO.P,U1,11,SD_WP*%
X154227480Y-120819919D03*
%TO.P,U1,12,SD_D1*%
%TO.N,SD_D1*%
X154581034Y-120466366D03*
D28*
%TO.P,U1,13,SD_D0*%
%TO.N,SD_D0*%
X154581034Y-119494094D03*
%TO.P,U1,14,PIO0*%
%TO.N,GND*%
X154227480Y-119140541D03*
%TO.P,U1,15*%
%TO.N,N/C*%
X153873927Y-118786987D03*
%TO.P,U1,16,SDREG*%
%TO.N,Net-(U1-SDREG)*%
X153520374Y-118433434D03*
%TO.P,U1,17*%
%TO.N,N/C*%
X153166820Y-118079881D03*
%TO.P,U1,18,SD_CLK*%
%TO.N,SD_CLK*%
X152813267Y-117726327D03*
D29*
%TO.P,U1,19*%
%TO.N,N/C*%
X151840995Y-117726327D03*
%TO.P,U1,20,SD_CMD*%
%TO.N,SD_CMD*%
X151487442Y-118079881D03*
%TO.P,U1,21*%
%TO.N,N/C*%
X151133888Y-118433434D03*
%TO.P,U1,22,SD_D3*%
%TO.N,SD_D3*%
X150780335Y-118786987D03*
%TO.P,U1,23,SD_D2*%
%TO.N,SD_D2*%
X150426782Y-119140541D03*
%TO.P,U1,24*%
%TO.N,N/C*%
X150073228Y-119494094D03*
D30*
%TO.P,U1,25,EP*%
%TO.N,GND*%
X152327131Y-119980230D03*
%TD*%
D12*
%TO.P,TP2,1,1*%
%TO.N,D-*%
X146943248Y-121280230D03*
%TD*%
D15*
%TO.P,J2,1,SIGNAL*%
%TO.N,Y*%
X167438715Y-118745668D03*
D16*
%TO.P,J2,2,GND*%
%TO.N,GND*%
X166089408Y-118518521D03*
D17*
%TO.P,J2,3,GND_2*%
X165820889Y-119878482D03*
D16*
%TO.P,J2,4,GND_3*%
X167190674Y-120091291D03*
%TD*%
D12*
%TO.P,TP3,1,1*%
%TO.N,+3.3V*%
X146943248Y-118780230D03*
%TD*%
%TO.P,TP23,1,1*%
%TO.N,P2*%
X165640041Y-101314872D03*
%TD*%
D31*
%TO.P,C13,1*%
%TO.N,+1V8_ALW*%
X159160039Y-119704906D03*
%TO.P,C13,2*%
%TO.N,GND*%
X160120043Y-119704906D03*
%TD*%
D21*
%TO.P,TP18,1,1*%
%TO.N,P4*%
X171740041Y-104304906D03*
%TD*%
D15*
%TO.P,J7,1,SIGNAL*%
%TO.N,AUDIO_R*%
X168256489Y-115588489D03*
D16*
%TO.P,J7,2,GND*%
%TO.N,GND*%
X166907183Y-115361340D03*
D17*
%TO.P,J7,3,GND_2*%
X166638664Y-116721302D03*
D16*
%TO.P,J7,4,GND_3*%
X168008449Y-116934112D03*
%TD*%
D21*
%TO.P,TP21,1,1*%
%TO.N,AUDIO_L*%
X171740041Y-110904906D03*
%TD*%
%TO.P,TP17,1,1*%
%TO.N,P3*%
X171740041Y-102104906D03*
%TD*%
D32*
%TO.P,J1,1,DAT2*%
%TO.N,SD_D2*%
X150552131Y-103640230D03*
%TO.P,J1,2,CD/DAT3*%
%TO.N,SD_D3*%
X151652131Y-103640230D03*
%TO.P,J1,3,CMD*%
%TO.N,SD_CMD*%
X152752131Y-103640230D03*
%TO.P,J1,4,VDD*%
%TO.N,SD_VCC*%
X153852131Y-103640230D03*
%TO.P,J1,5,CLK*%
%TO.N,SD_CLK*%
X154952131Y-103640230D03*
%TO.P,J1,6,VSS*%
%TO.N,GND*%
X156052131Y-103640230D03*
%TO.P,J1,7,DAT0*%
%TO.N,SD_D0*%
X157152131Y-103640230D03*
%TO.P,J1,8,DAT1*%
%TO.N,SD_D1*%
X158252131Y-103640230D03*
D33*
%TO.P,J1,9,DETECT_LEVER*%
%TO.N,GND*%
X148762131Y-116105230D03*
D34*
%TO.P,J1,10,DETECT_SWITCH*%
X153027131Y-116180230D03*
D35*
%TO.P,J1,11*%
X159412131Y-114905230D03*
D36*
%TO.P,J1,12*%
X159332131Y-104140230D03*
D37*
%TO.P,J1,13*%
X146672131Y-103655230D03*
D35*
%TO.P,J1,14*%
X146452131Y-114905230D03*
%TD*%
D38*
%TO.P,C14,1*%
%TO.N,+5V*%
X164257670Y-111259028D03*
%TO.P,C14,2*%
%TO.N,GND*%
X162422412Y-111750784D03*
%TD*%
D19*
%TO.P,C1,1*%
%TO.N,Net-(U1-VDD)*%
X148543248Y-119795159D03*
%TO.P,C1,2*%
%TO.N,GND*%
X148543248Y-118835159D03*
%TD*%
D21*
%TO.P,TP20,1,1*%
%TO.N,Mode*%
X171740041Y-108704906D03*
%TD*%
D39*
%TO.P,F1,1*%
%TO.N,Net-(Z1-K)*%
X164040041Y-106167406D03*
%TO.P,F1,2*%
%TO.N,+5V*%
X164040041Y-108042406D03*
%TD*%
D40*
%TO.P,D6,1,A1*%
%TO.N,P4*%
X169540041Y-103054906D03*
%TO.P,D6,2,A2*%
%TO.N,GND*%
X169540041Y-104154906D03*
%TD*%
D15*
%TO.P,J6,1,SIGNAL*%
%TO.N,AUDIO_L*%
X165238714Y-115545669D03*
D16*
%TO.P,J6,2,GND*%
%TO.N,GND*%
X163889408Y-115318520D03*
D17*
%TO.P,J6,3,GND_2*%
X163620889Y-116678482D03*
D16*
%TO.P,J6,4,GND_3*%
X164990674Y-116891292D03*
%TD*%
D41*
%TO.P,C3,1*%
%TO.N,+3.3V*%
X150991014Y-122780230D03*
%TO.P,C3,2*%
%TO.N,GND*%
X150031014Y-122780230D03*
%TD*%
D42*
%TO.P,C6,1*%
%TO.N,SD_VCC*%
X160640041Y-110129906D03*
%TO.P,C6,2*%
%TO.N,GND*%
X160640041Y-111679906D03*
%TD*%
D43*
%TO.P,C2,1*%
%TO.N,+3.3V*%
X151886014Y-123880230D03*
%TO.P,C2,2*%
%TO.N,GND*%
X150336014Y-123880230D03*
%TD*%
D38*
%TO.P,C8,1*%
%TO.N,+5V*%
X163957670Y-109559028D03*
%TO.P,C8,2*%
%TO.N,GND*%
X162122412Y-110050784D03*
%TD*%
D15*
%TO.P,J4,1,SIGNAL*%
%TO.N,Pb*%
X164438715Y-118745668D03*
D16*
%TO.P,J4,2,GND*%
%TO.N,GND*%
X163089408Y-118518521D03*
D17*
%TO.P,J4,3,GND_2*%
X162820889Y-119878482D03*
D16*
%TO.P,J4,4,GND_3*%
X164190674Y-120091291D03*
%TD*%
D44*
%TO.P,R1,1*%
%TO.N,Net-(Q1-G)*%
X168330041Y-109774906D03*
%TO.P,R1,2*%
%TO.N,GND*%
X169350041Y-109774906D03*
%TD*%
D45*
%TO.N,Mode*%
X161290041Y-114754906D03*
X167859301Y-109050532D03*
D46*
%TO.N,GND*%
X162306657Y-101296873D03*
X168771306Y-104827053D03*
X163481281Y-103184043D03*
D47*
%TO.N,RGB_OUT*%
X162540041Y-104404906D03*
D46*
%TO.N,GND*%
X166657244Y-110487942D03*
X162740041Y-114804906D03*
X161513468Y-111985323D03*
X161459772Y-111093969D03*
X158340041Y-113304906D03*
X158340041Y-116204906D03*
D47*
%TO.N,+5V*%
X161640041Y-116954906D03*
%TO.N,+1V8_ALW*%
X159913197Y-120504906D03*
D46*
%TO.N,GND*%
X169287360Y-118714114D03*
X169265260Y-121152064D03*
X165490041Y-124004906D03*
X164077678Y-121020176D03*
X165990041Y-120804906D03*
X169140041Y-116004906D03*
X162340041Y-117604906D03*
X155858677Y-124150822D03*
X152090758Y-105147254D03*
X154550157Y-102376658D03*
X148798601Y-115103058D03*
X160199244Y-103277330D03*
X170419763Y-100769269D03*
X155322786Y-102436862D03*
X155504855Y-117507565D03*
X157427080Y-102510328D03*
X147341614Y-113551637D03*
X159931061Y-121260195D03*
X155252406Y-116661120D03*
X158313732Y-120538545D03*
X159216906Y-120758586D03*
X151943248Y-116480230D03*
X160067758Y-102455542D03*
X166802801Y-102116728D03*
X147044821Y-112877107D03*
X156314648Y-105334532D03*
X153717322Y-102326487D03*
X148097089Y-115332399D03*
X153843248Y-110480230D03*
X157173697Y-107578171D03*
X155695773Y-104786793D03*
X146352256Y-105095912D03*
X155476177Y-120874875D03*
X147777106Y-103801507D03*
X147328124Y-114361074D03*
X147747003Y-103028877D03*
D48*
X163440041Y-113504906D03*
D46*
X156747635Y-102386692D03*
X149492952Y-124174210D03*
X152844351Y-102366623D03*
X152327131Y-119980230D03*
X171260395Y-114562308D03*
X155961333Y-119490374D03*
X154004058Y-115334200D03*
X147301142Y-115858533D03*
X168571211Y-110694697D03*
X156035211Y-102697750D03*
X148812091Y-117072688D03*
D49*
X158127131Y-122980230D03*
D46*
X147395808Y-102376658D03*
X150499573Y-113393167D03*
X169630095Y-112703779D03*
X151921209Y-102356589D03*
X157507760Y-106615629D03*
X158172168Y-102378842D03*
X160432670Y-122016859D03*
X147341614Y-115170511D03*
X148543248Y-118155674D03*
X147757037Y-104624307D03*
X150155199Y-102306419D03*
X150657675Y-104842343D03*
X146302837Y-112742201D03*
X167120281Y-104702042D03*
X151048238Y-102326487D03*
X159114484Y-102236399D03*
X151148941Y-114896808D03*
X158376340Y-109116118D03*
X149608107Y-123433213D03*
X147074715Y-105065810D03*
X171522538Y-100745468D03*
D45*
%TO.N,SD_VCC*%
X153852131Y-105280230D03*
X153852131Y-105971347D03*
D46*
X159343248Y-109080230D03*
X154827131Y-123480230D03*
X154427131Y-123880230D03*
D45*
X153852131Y-104580230D03*
%TO.N,+3.3V*%
X147243248Y-119080230D03*
D46*
X151827131Y-122980230D03*
%TO.N,+5V*%
X166140041Y-104304906D03*
D48*
X166040041Y-113004906D03*
D46*
%TO.N,Pr*%
X163140041Y-122404906D03*
%TO.N,Pb*%
X163840041Y-119204906D03*
D45*
%TO.N,P1*%
X167840041Y-101304906D03*
%TO.N,P2*%
X166592838Y-101221288D03*
D46*
%TO.N,Y*%
X166550288Y-119605800D03*
%TO.N,CVBS*%
X166240041Y-122404906D03*
%TD*%
D50*
%TO.N,+1V8_ALW*%
X159913197Y-120504906D02*
X159160039Y-119751748D01*
X159160039Y-119751748D02*
X159160039Y-119704906D01*
X158690041Y-119234908D02*
X159160039Y-119704906D01*
X158690041Y-118854906D02*
X158690041Y-119234908D01*
%TO.N,+5V*%
X161470043Y-116784908D02*
X160640041Y-116784908D01*
X161640041Y-116954906D02*
X161470043Y-116784908D01*
%TO.N,Y*%
X167410419Y-118745669D02*
X167438715Y-118745669D01*
X166550288Y-119605800D02*
X167410419Y-118745669D01*
D51*
%TO.N,Mode*%
X170144416Y-109050532D02*
X167859301Y-109050532D01*
X170490042Y-108704906D02*
X170144416Y-109050532D01*
X171740041Y-108704906D02*
X170490042Y-108704906D01*
%TO.N,P3*%
X164829138Y-102854906D02*
X163533275Y-101559043D01*
X168696545Y-102854906D02*
X164829138Y-102854906D01*
X169496545Y-102054906D02*
X168696545Y-102854906D01*
X169540041Y-102054906D02*
X169496545Y-102054906D01*
%TO.N,P4*%
X161868301Y-102609043D02*
X161494403Y-102235145D01*
X163844178Y-102609043D02*
X161868301Y-102609043D01*
X164490041Y-103254906D02*
X163844178Y-102609043D01*
X169340041Y-103254906D02*
X164490041Y-103254906D01*
X169540041Y-103054906D02*
X169340041Y-103254906D01*
%TO.N,P2*%
X166499254Y-101314872D02*
X165640041Y-101314872D01*
X166592838Y-101221288D02*
X166499254Y-101314872D01*
%TO.N,RGB_OUT*%
X161389919Y-106204906D02*
X161240041Y-106204906D01*
X162540041Y-105054784D02*
X161389919Y-106204906D01*
X162540041Y-104404906D02*
X162540041Y-105054784D01*
D50*
%TO.N,+5V*%
X162140041Y-108504906D02*
X161240041Y-107604906D01*
X163577541Y-108504906D02*
X162140041Y-108504906D01*
X164040041Y-108042406D02*
X163577541Y-108504906D01*
X161265039Y-118504907D02*
X160915040Y-118854906D01*
X161265039Y-117915739D02*
X161265039Y-118504907D01*
X160904206Y-117554906D02*
X161265039Y-117915739D01*
X160590041Y-117554906D02*
X160904206Y-117554906D01*
X160915040Y-118854906D02*
X160590041Y-118854906D01*
X160590041Y-117554906D02*
X160590041Y-116834908D01*
X160590041Y-116834908D02*
X160640041Y-116784908D01*
D52*
%TO.N,SD_VCC*%
X159590365Y-109080230D02*
X159343248Y-109080230D01*
X160640041Y-110129906D02*
X159590365Y-109080230D01*
D51*
%TO.N,GND*%
X169540041Y-104154906D02*
X169540041Y-104204906D01*
X169590041Y-104204906D02*
X169540041Y-104154906D01*
D53*
%TO.N,Net-(U1-VDD)*%
X149813199Y-120726395D02*
X149381948Y-120726395D01*
X150073228Y-120466366D02*
X149813199Y-120726395D01*
X148543248Y-119887695D02*
X148543248Y-119795159D01*
X149381948Y-120726395D02*
X148543248Y-119887695D01*
D52*
%TO.N,SD_VCC*%
X153852131Y-105280230D02*
X153852131Y-105971347D01*
X153852131Y-105971347D02*
X153843248Y-105980230D01*
X153852131Y-103640230D02*
X153852131Y-105280230D01*
D53*
%TO.N,Net-(U1-SDREG)*%
X153520374Y-118433434D02*
X154363249Y-117590559D01*
X154363249Y-117590559D02*
X154408568Y-117590559D01*
%TO.N,SD_D0*%
X155443248Y-119080230D02*
X156343248Y-118180230D01*
X156343248Y-106580230D02*
X157152131Y-105771347D01*
X154994898Y-119080230D02*
X155443248Y-119080230D01*
X156343248Y-118180230D02*
X156343248Y-106580230D01*
X157152131Y-105771347D02*
X157152131Y-103640230D01*
X154581034Y-119494094D02*
X154994898Y-119080230D01*
%TO.N,SD_D3*%
X151443248Y-104780230D02*
X151652131Y-104571347D01*
X150343248Y-118349900D02*
X150343248Y-114680230D01*
X151443248Y-113580230D02*
X151443248Y-104780230D01*
X151652131Y-104571347D02*
X151652131Y-103640230D01*
X150780335Y-118786987D02*
X150343248Y-118349900D01*
X150343248Y-114680230D02*
X151443248Y-113580230D01*
%TO.N,SD_CLK*%
X154943248Y-115596346D02*
X154943248Y-114080230D01*
X152813267Y-117726327D02*
X154943248Y-115596346D01*
X154952131Y-114071347D02*
X154952131Y-103640230D01*
X154943248Y-114080230D02*
X154952131Y-114071347D01*
%TO.N,SD_D1*%
X154581034Y-120466366D02*
X154601325Y-120466366D01*
X156243248Y-120180230D02*
X157443248Y-118980230D01*
X158252131Y-107871347D02*
X158252131Y-103640230D01*
X157443248Y-108680230D02*
X158252131Y-107871347D01*
X154887461Y-120180230D02*
X156243248Y-120180230D01*
X154601325Y-120466366D02*
X154887461Y-120180230D01*
X157443248Y-118980230D02*
X157443248Y-108680230D01*
%TO.N,SD_D2*%
X150426782Y-119140541D02*
X149743248Y-118457007D01*
X149743248Y-104449113D02*
X150552131Y-103640230D01*
X149743248Y-118457007D02*
X149743248Y-104449113D01*
%TO.N,SD_CMD*%
X151043248Y-117635687D02*
X151487442Y-118079881D01*
X151043248Y-116080230D02*
X151043248Y-117635687D01*
X152752131Y-103640230D02*
X152752131Y-114371347D01*
X152752131Y-114371347D02*
X151043248Y-116080230D01*
D51*
%TO.N,+5V*%
X162683475Y-107121934D02*
X162683475Y-105477036D01*
X164040041Y-108042406D02*
X163603947Y-108042406D01*
X163603947Y-108042406D02*
X162683475Y-107121934D01*
X165463088Y-104981859D02*
X166140041Y-104304906D01*
X162683475Y-105477036D02*
X163178652Y-104981859D01*
X163178652Y-104981859D02*
X165463088Y-104981859D01*
D50*
%TO.N,Pr*%
X163838715Y-121945669D02*
X163379478Y-122404906D01*
X163379478Y-122404906D02*
X163140041Y-122404906D01*
%TO.N,Pb*%
X164299278Y-118745669D02*
X163840041Y-119204906D01*
X164438715Y-118745669D02*
X164299278Y-118745669D01*
D51*
%TO.N,P4*%
X171740041Y-104304906D02*
X171240041Y-103804906D01*
X171240041Y-103804906D02*
X170640041Y-103804906D01*
X170640041Y-103804906D02*
X169890041Y-103054906D01*
X169890041Y-103054906D02*
X169540041Y-103054906D01*
%TO.N,P3*%
X171740041Y-102104906D02*
X169590041Y-102104906D01*
X169590041Y-102104906D02*
X169540041Y-102054906D01*
D54*
%TO.N,AUDIO_R*%
X169940041Y-113404906D02*
X169940041Y-114554906D01*
X170240041Y-113104906D02*
X169940041Y-113404906D01*
D50*
X168256489Y-115588489D02*
X169940041Y-114554906D01*
D54*
X171740041Y-113104906D02*
X170240041Y-113104906D01*
D50*
%TO.N,AUDIO_L*%
X168640041Y-112054906D02*
X169190041Y-111504906D01*
D54*
X169690041Y-111504906D02*
X170290041Y-110904906D01*
X170290041Y-110904906D02*
X171740041Y-110904906D01*
D50*
X168640041Y-113104906D02*
X168640041Y-112054906D01*
X165238714Y-115545669D02*
X168640041Y-113104906D01*
D54*
X169690041Y-111504906D02*
X169190041Y-111504906D01*
D50*
%TO.N,Net-(Z1-K)*%
X165355041Y-106994103D02*
X165363125Y-106986019D01*
X165840041Y-109704906D02*
X165440041Y-109304906D01*
X165440041Y-109304906D02*
X165355041Y-109219906D01*
X165840041Y-109774906D02*
X165840041Y-109704906D01*
X165355041Y-109219906D02*
X165355041Y-106994103D01*
D51*
%TO.N,Net-(Q1-G)*%
X166151021Y-108164906D02*
X166197773Y-108211658D01*
X165992541Y-108352406D02*
X165992541Y-108307406D01*
X165992541Y-108352406D02*
X166197773Y-108557638D01*
X166197773Y-108557638D02*
X167240041Y-109599906D01*
X167240041Y-109599906D02*
X167240041Y-109774906D01*
X165805041Y-108164906D02*
X165992541Y-108352406D01*
D54*
X167240041Y-109774906D02*
X168330041Y-109774906D01*
D51*
X165805041Y-108164906D02*
X166151021Y-108164906D01*
X165992541Y-108307406D02*
X166205041Y-108094906D01*
X166197773Y-108211658D02*
X166197773Y-108557638D01*
D50*
%TO.N,CVBS*%
X166440073Y-122404906D02*
X166240041Y-122404906D01*
X166856490Y-121988489D02*
X166440073Y-122404906D01*
%TD*%
%TA.AperFunction,Conductor*%
%TO.N,Net-(Z1-K)*%
G36*
X164954152Y-105305146D02*
G01*
X164964655Y-105306069D01*
X165033216Y-105312098D01*
X165043978Y-105314006D01*
X165120628Y-105334652D01*
X165125820Y-105336297D01*
X166367398Y-105790670D01*
X166376057Y-105794611D01*
X166496532Y-105860947D01*
X166511579Y-105872525D01*
X166603233Y-105968480D01*
X166614111Y-105984044D01*
X166672723Y-106103093D01*
X166678425Y-106121205D01*
X166699316Y-106257137D01*
X166700041Y-106266631D01*
X166700041Y-107138311D01*
X166699506Y-107146469D01*
X166684248Y-107262361D01*
X166680026Y-107278120D01*
X166636873Y-107382302D01*
X166628715Y-107396432D01*
X166560068Y-107485895D01*
X166548530Y-107497433D01*
X166459067Y-107566080D01*
X166444937Y-107574238D01*
X166340755Y-107617391D01*
X166324996Y-107621613D01*
X166209105Y-107636871D01*
X166200947Y-107637406D01*
X165831192Y-107637406D01*
X165823994Y-107636990D01*
X165805235Y-107634814D01*
X165720359Y-107624972D01*
X165706343Y-107621677D01*
X165608208Y-107586262D01*
X165601578Y-107583427D01*
X165065997Y-107316888D01*
X165056110Y-107310759D01*
X164968723Y-107244579D01*
X164968716Y-107244574D01*
X164953085Y-107233833D01*
X164943331Y-107227773D01*
X164943316Y-107227764D01*
X164926793Y-107218528D01*
X164926791Y-107218527D01*
X164926775Y-107218518D01*
X164840757Y-107175508D01*
X164829975Y-107170501D01*
X164823330Y-107167646D01*
X164823321Y-107167642D01*
X164823313Y-107167639D01*
X164812231Y-107163255D01*
X164713761Y-107127564D01*
X164713735Y-107127555D01*
X164690937Y-107120758D01*
X164690921Y-107120754D01*
X164676889Y-107117441D01*
X164676872Y-107117438D01*
X164653424Y-107113319D01*
X164596748Y-107106720D01*
X164549371Y-107101204D01*
X164543367Y-107100680D01*
X164537477Y-107100167D01*
X164530279Y-107099750D01*
X164520358Y-107099463D01*
X164518376Y-107099406D01*
X164518374Y-107099406D01*
X163502358Y-107099406D01*
X163494201Y-107098871D01*
X163480863Y-107097115D01*
X163418787Y-107088942D01*
X163403028Y-107084719D01*
X163297643Y-107041067D01*
X163283513Y-107032909D01*
X163193015Y-106963467D01*
X163181479Y-106951931D01*
X163112037Y-106861433D01*
X163103879Y-106847303D01*
X163060227Y-106741918D01*
X163056004Y-106726158D01*
X163040576Y-106608969D01*
X163040041Y-106600811D01*
X163040041Y-105809000D01*
X163040576Y-105800842D01*
X163056004Y-105683653D01*
X163060227Y-105667893D01*
X163103879Y-105562508D01*
X163112037Y-105548378D01*
X163181481Y-105457877D01*
X163193012Y-105446346D01*
X163283513Y-105376901D01*
X163297643Y-105368744D01*
X163375965Y-105336302D01*
X163403029Y-105325091D01*
X163418787Y-105320869D01*
X163535977Y-105305440D01*
X163544135Y-105304906D01*
X164948678Y-105304906D01*
X164954152Y-105305146D01*
G37*
%TD.AperFunction*%
%TD*%
%TA.AperFunction,Conductor*%
%TO.N,VIN*%
G36*
X172188974Y-105405441D02*
G01*
X172306162Y-105420869D01*
X172321922Y-105425092D01*
X172427307Y-105468744D01*
X172441435Y-105476901D01*
X172459956Y-105491112D01*
X172483875Y-105532538D01*
X172484410Y-105540697D01*
X172484410Y-107469114D01*
X172466104Y-107513308D01*
X172459958Y-107518698D01*
X172441437Y-107532910D01*
X172427307Y-107541067D01*
X172389068Y-107556907D01*
X172321921Y-107584720D01*
X172306162Y-107588942D01*
X172188974Y-107604371D01*
X172180816Y-107604906D01*
X170547141Y-107604906D01*
X170417745Y-107621941D01*
X170417741Y-107621942D01*
X170417738Y-107621942D01*
X170417738Y-107621943D01*
X170297148Y-107671893D01*
X170193592Y-107751354D01*
X169489389Y-108455557D01*
X169483243Y-108460948D01*
X169389459Y-108532911D01*
X169375329Y-108541068D01*
X169269946Y-108584719D01*
X169254186Y-108588942D01*
X169136998Y-108604371D01*
X169128840Y-108604906D01*
X168109999Y-108604906D01*
X168076208Y-108594984D01*
X168069355Y-108590579D01*
X168069349Y-108590577D01*
X167931264Y-108550032D01*
X167931262Y-108550032D01*
X167787340Y-108550032D01*
X167787338Y-108550032D01*
X167649252Y-108590577D01*
X167649246Y-108590579D01*
X167642394Y-108594984D01*
X167608603Y-108604906D01*
X167444135Y-108604906D01*
X167435977Y-108604371D01*
X167318788Y-108588942D01*
X167303028Y-108584719D01*
X167197643Y-108541067D01*
X167183513Y-108532909D01*
X167093015Y-108463467D01*
X167081479Y-108451931D01*
X167012037Y-108361433D01*
X167003879Y-108347303D01*
X166960227Y-108241918D01*
X166956004Y-108226158D01*
X166940576Y-108108969D01*
X166940041Y-108100811D01*
X166940041Y-105909000D01*
X166940576Y-105900842D01*
X166956004Y-105783653D01*
X166960227Y-105767893D01*
X167003879Y-105662508D01*
X167012037Y-105648378D01*
X167081481Y-105557877D01*
X167093012Y-105546346D01*
X167183513Y-105476901D01*
X167197643Y-105468744D01*
X167303029Y-105425091D01*
X167318787Y-105420869D01*
X167435977Y-105405440D01*
X167444135Y-105404906D01*
X172180816Y-105404906D01*
X172188974Y-105405441D01*
G37*
%TD.AperFunction*%
%TD*%
%TA.AperFunction,Conductor*%
%TO.N,SD_VCC*%
G36*
X152639149Y-121900794D02*
G01*
X152673559Y-121920660D01*
X152686504Y-121930593D01*
X153048118Y-122292207D01*
X153163028Y-122378028D01*
X153229560Y-122402589D01*
X153242630Y-122409251D01*
X153267563Y-122425911D01*
X153285171Y-122437677D01*
X153285172Y-122437677D01*
X153285173Y-122437678D01*
X153336482Y-122447884D01*
X153387790Y-122458090D01*
X153387791Y-122458090D01*
X153387792Y-122458090D01*
X153421996Y-122451286D01*
X153490408Y-122437678D01*
X153490411Y-122437675D01*
X153494460Y-122435999D01*
X153513499Y-122431431D01*
X153993329Y-122393878D01*
X154002290Y-122393823D01*
X154131890Y-122402364D01*
X154149419Y-122406096D01*
X154266968Y-122449492D01*
X154282722Y-122458048D01*
X154386771Y-122535757D01*
X154393566Y-122541639D01*
X155068027Y-123216100D01*
X155073418Y-123222246D01*
X155145381Y-123316030D01*
X155153538Y-123330160D01*
X155197189Y-123435543D01*
X155201412Y-123451303D01*
X155216301Y-123564398D01*
X155216301Y-123580714D01*
X155201412Y-123693808D01*
X155197189Y-123709568D01*
X155153537Y-123814953D01*
X155145380Y-123829083D01*
X155073423Y-123922859D01*
X155068032Y-123929005D01*
X154720276Y-124276761D01*
X154714130Y-124282152D01*
X154620347Y-124354114D01*
X154606217Y-124362271D01*
X154500834Y-124405922D01*
X154485074Y-124410145D01*
X154371980Y-124425034D01*
X154355664Y-124425034D01*
X154242573Y-124410146D01*
X154226813Y-124405923D01*
X154121423Y-124362269D01*
X154107293Y-124354112D01*
X154013513Y-124282152D01*
X154007367Y-124276761D01*
X153561220Y-123830614D01*
X153555829Y-123824467D01*
X153546207Y-123811927D01*
X153537662Y-123801516D01*
X153532271Y-123795370D01*
X153523092Y-123785571D01*
X152633248Y-122895727D01*
X152626768Y-122888117D01*
X152560257Y-122795990D01*
X152551318Y-122778182D01*
X152511799Y-122652714D01*
X152509235Y-122640283D01*
X152461772Y-122174671D01*
X152459245Y-122157289D01*
X152457260Y-122146803D01*
X152456133Y-122141989D01*
X152453263Y-122129715D01*
X152446087Y-122104041D01*
X152441826Y-122088797D01*
X152439759Y-122066521D01*
X152442331Y-122037224D01*
X152451397Y-122009885D01*
X152495627Y-121938194D01*
X152517562Y-121916890D01*
X152545443Y-121900793D01*
X152576690Y-121892421D01*
X152607900Y-121892421D01*
X152639149Y-121900794D01*
G37*
%TD.AperFunction*%
%TD*%
%TA.AperFunction,Conductor*%
%TO.N,D-*%
G36*
X147592612Y-120080936D02*
G01*
X147726887Y-120101309D01*
X147744788Y-120106869D01*
X147821460Y-120144068D01*
X147866974Y-120166150D01*
X147875100Y-120170878D01*
X147940763Y-120216021D01*
X149215278Y-121092251D01*
X149293558Y-121130230D01*
X149350237Y-121157729D01*
X149498543Y-121180230D01*
X149860813Y-121180230D01*
X149905007Y-121198536D01*
X149912777Y-121208003D01*
X149913135Y-121208539D01*
X149913138Y-121208542D01*
X149913139Y-121208544D01*
X150038157Y-121333561D01*
X150038160Y-121333563D01*
X150103191Y-121377016D01*
X150103194Y-121377018D01*
X150205810Y-121397430D01*
X150205811Y-121397430D01*
X150205812Y-121397430D01*
X150240017Y-121390626D01*
X150308429Y-121377018D01*
X150373465Y-121333562D01*
X150907521Y-120799504D01*
X150951712Y-120781200D01*
X150961339Y-120781947D01*
X150981365Y-120785073D01*
X151005724Y-120794382D01*
X151050204Y-120823221D01*
X151068170Y-120840940D01*
X151100091Y-120888714D01*
X151109423Y-120911244D01*
X151120720Y-120968037D01*
X151120720Y-120992424D01*
X151109423Y-121049216D01*
X151100091Y-121071745D01*
X151064433Y-121125112D01*
X151056660Y-121134583D01*
X150660362Y-121530881D01*
X150654216Y-121536272D01*
X150560432Y-121608235D01*
X150546302Y-121616392D01*
X150440919Y-121660043D01*
X150425159Y-121664266D01*
X150307971Y-121679695D01*
X150299813Y-121680230D01*
X149262397Y-121680230D01*
X149117512Y-121701683D01*
X149117505Y-121701685D01*
X148985053Y-121764204D01*
X148985046Y-121764208D01*
X148340804Y-122193702D01*
X148332813Y-122198219D01*
X148212887Y-122254825D01*
X148195364Y-122260131D01*
X148099824Y-122274277D01*
X148064176Y-122279556D01*
X148055024Y-122280230D01*
X146144135Y-122280230D01*
X146135977Y-122279695D01*
X146018788Y-122264266D01*
X146003029Y-122260044D01*
X145985234Y-122252673D01*
X145897639Y-122216390D01*
X145883512Y-122208233D01*
X145864992Y-122194021D01*
X145841075Y-122152594D01*
X145840541Y-122144438D01*
X145840541Y-120216021D01*
X145858847Y-120171827D01*
X145864993Y-120166437D01*
X145883513Y-120152226D01*
X145897643Y-120144068D01*
X145987447Y-120106870D01*
X146003029Y-120100415D01*
X146018787Y-120096193D01*
X146135977Y-120080764D01*
X146144135Y-120080230D01*
X147583238Y-120080230D01*
X147592612Y-120080936D01*
G37*
%TD.AperFunction*%
%TD*%
%TA.AperFunction,Conductor*%
%TO.N,+3.3V*%
G36*
X151753097Y-121635507D02*
G01*
X151771273Y-121639017D01*
X151867583Y-121673023D01*
X151883929Y-121681702D01*
X151942150Y-121724756D01*
X151969835Y-121745229D01*
X151976868Y-121751287D01*
X152109132Y-121883551D01*
X152116006Y-121891713D01*
X152204775Y-122017527D01*
X152213900Y-122036735D01*
X152255346Y-122185025D01*
X152257331Y-122195511D01*
X152309085Y-122703209D01*
X152354877Y-122867047D01*
X152354878Y-122867048D01*
X152452953Y-123006052D01*
X153377782Y-123930881D01*
X153383173Y-123937027D01*
X153455136Y-124030811D01*
X153463293Y-124044941D01*
X153506944Y-124150324D01*
X153511167Y-124166084D01*
X153526596Y-124283273D01*
X153527131Y-124291431D01*
X153527131Y-124442239D01*
X153526361Y-124452017D01*
X153510720Y-124550762D01*
X153504682Y-124569351D01*
X153504044Y-124570604D01*
X153499538Y-124579447D01*
X153463169Y-124610518D01*
X153443848Y-124613579D01*
X151262922Y-124613579D01*
X151218728Y-124595273D01*
X151213337Y-124589125D01*
X151199126Y-124570604D01*
X151190969Y-124556476D01*
X151147317Y-124451091D01*
X151143094Y-124435331D01*
X151127666Y-124318142D01*
X151127131Y-124309984D01*
X151127131Y-123814424D01*
X151127131Y-123814417D01*
X151105963Y-123670474D01*
X151044254Y-123538722D01*
X151044249Y-123538715D01*
X150947221Y-123430305D01*
X150945148Y-123428578D01*
X150938784Y-123423274D01*
X150923109Y-123403636D01*
X150909542Y-123377010D01*
X150814234Y-123281702D01*
X150814233Y-123281701D01*
X150712396Y-123229813D01*
X150694198Y-123215806D01*
X150616138Y-123128588D01*
X150606111Y-123113417D01*
X150555824Y-123006053D01*
X150552195Y-122998305D01*
X150546962Y-122980898D01*
X150527796Y-122850565D01*
X150527131Y-122841472D01*
X150527131Y-122716991D01*
X150527786Y-122707965D01*
X150546672Y-122578566D01*
X150551830Y-122561270D01*
X150604986Y-122446819D01*
X150614872Y-122431722D01*
X150701566Y-122333802D01*
X150708019Y-122327499D01*
X150978009Y-122099536D01*
X151006132Y-122085995D01*
X151015535Y-122084125D01*
X151080571Y-122040669D01*
X151256850Y-121864388D01*
X151260694Y-121860855D01*
X151418336Y-121727753D01*
X151425835Y-121722320D01*
X151516795Y-121666234D01*
X151533808Y-121658963D01*
X151632647Y-121633176D01*
X151651043Y-121631208D01*
X151753097Y-121635507D01*
G37*
%TD.AperFunction*%
%TD*%
%TA.AperFunction,Conductor*%
%TO.N,+5V*%
G36*
X164525604Y-107305325D02*
G01*
X164548184Y-107307954D01*
X164629662Y-107317441D01*
X164643721Y-107320760D01*
X164742208Y-107356457D01*
X164748853Y-107359312D01*
X164834871Y-107402322D01*
X164844653Y-107408399D01*
X164936580Y-107478017D01*
X164952013Y-107494983D01*
X164995207Y-107564872D01*
X165004541Y-107597730D01*
X165004541Y-109266054D01*
X165018161Y-109316883D01*
X165021567Y-109329592D01*
X165028427Y-109355194D01*
X165028428Y-109355197D01*
X165047044Y-109387441D01*
X165054882Y-109410530D01*
X165057078Y-109427209D01*
X165107028Y-109547799D01*
X165186488Y-109651353D01*
X165186489Y-109651354D01*
X165321235Y-109786100D01*
X165339541Y-109830294D01*
X165339541Y-110058165D01*
X165349467Y-110126296D01*
X165349467Y-110126297D01*
X165349468Y-110126299D01*
X165400843Y-110231389D01*
X165483558Y-110314104D01*
X165588648Y-110365479D01*
X165656781Y-110375406D01*
X165656782Y-110375406D01*
X165884653Y-110375406D01*
X165928847Y-110393712D01*
X166148975Y-110613840D01*
X166154042Y-110619568D01*
X166222124Y-110706757D01*
X166229980Y-110719848D01*
X166274886Y-110820929D01*
X166277558Y-110828095D01*
X166708589Y-112243408D01*
X166710490Y-112251584D01*
X166729970Y-112371364D01*
X166730419Y-112388109D01*
X166717841Y-112504535D01*
X166713828Y-112520794D01*
X166670777Y-112629703D01*
X166662587Y-112644315D01*
X166592160Y-112737873D01*
X166580383Y-112749785D01*
X166484268Y-112823875D01*
X166477290Y-112828542D01*
X165602164Y-113332277D01*
X165594171Y-113336150D01*
X165474972Y-113383769D01*
X165457750Y-113387944D01*
X165334452Y-113399764D01*
X165316752Y-113398937D01*
X165195099Y-113375679D01*
X165178341Y-113369918D01*
X165064098Y-113311399D01*
X165056500Y-113306798D01*
X164373751Y-112823875D01*
X163792230Y-112412553D01*
X163783965Y-112405557D01*
X163673818Y-112294554D01*
X163661485Y-112276827D01*
X163649778Y-112251584D01*
X163595699Y-112134976D01*
X163592009Y-112124786D01*
X163245249Y-110824437D01*
X162857445Y-109370171D01*
X162856527Y-109366211D01*
X162854346Y-109355197D01*
X162845070Y-109308344D01*
X162844014Y-109300278D01*
X162840174Y-109241422D01*
X162840041Y-109237353D01*
X162840041Y-107392337D01*
X162844797Y-107368423D01*
X162852101Y-107350789D01*
X162885924Y-107316966D01*
X162903558Y-107309662D01*
X162927472Y-107304906D01*
X164518376Y-107304906D01*
X164525604Y-107305325D01*
G37*
%TD.AperFunction*%
%TD*%
%TA.AperFunction,Conductor*%
%TO.N,D+*%
G36*
X151381512Y-121092655D02*
G01*
X151401788Y-121106203D01*
X151496660Y-121201075D01*
X151513765Y-121233074D01*
X151520720Y-121268035D01*
X151520720Y-121292424D01*
X151509423Y-121349216D01*
X151500091Y-121371745D01*
X151464433Y-121425112D01*
X151456660Y-121434584D01*
X151390613Y-121500630D01*
X151379223Y-121509634D01*
X151317990Y-121547392D01*
X151317979Y-121547399D01*
X151306459Y-121555107D01*
X151305253Y-121555915D01*
X151297768Y-121561337D01*
X151285767Y-121570731D01*
X151128118Y-121703838D01*
X151121662Y-121709526D01*
X151117775Y-121713099D01*
X151111520Y-121719095D01*
X150953924Y-121876692D01*
X150944455Y-121884464D01*
X150929849Y-121894224D01*
X150918651Y-121900161D01*
X150916981Y-121900839D01*
X150888863Y-121914378D01*
X150888859Y-121914380D01*
X150845438Y-121942516D01*
X150575453Y-122170474D01*
X150564433Y-122180484D01*
X150557967Y-122186800D01*
X150547694Y-122197589D01*
X150499326Y-122252219D01*
X150460691Y-122272753D01*
X150407970Y-122279695D01*
X150399811Y-122280230D01*
X150282875Y-122280230D01*
X150265449Y-122276369D01*
X150265092Y-122277596D01*
X150260500Y-122276257D01*
X150210915Y-122269730D01*
X149851122Y-122269730D01*
X149851120Y-122269730D01*
X149851114Y-122269731D01*
X149801527Y-122276258D01*
X149801525Y-122276258D01*
X149801524Y-122276259D01*
X149796934Y-122277597D01*
X149796576Y-122276369D01*
X149779153Y-122280230D01*
X149717583Y-122280230D01*
X149717579Y-122280230D01*
X149717571Y-122280231D01*
X149582735Y-122298756D01*
X149457879Y-122352966D01*
X149457878Y-122352966D01*
X149352269Y-122438841D01*
X149273734Y-122550016D01*
X149273733Y-122550017D01*
X149228090Y-122678260D01*
X148842494Y-124529120D01*
X148839897Y-124538135D01*
X148833821Y-124554494D01*
X148827004Y-124572842D01*
X148794458Y-124607896D01*
X148768417Y-124613579D01*
X146643133Y-124613579D01*
X146637004Y-124613278D01*
X146490217Y-124598813D01*
X146478200Y-124596422D01*
X146340007Y-124554494D01*
X146328689Y-124549805D01*
X146201334Y-124481726D01*
X146191146Y-124474918D01*
X146079519Y-124383300D01*
X146070856Y-124374637D01*
X146053196Y-124353117D01*
X145979242Y-124262996D01*
X145972437Y-124252809D01*
X145904368Y-124125450D01*
X145899680Y-124114131D01*
X145894525Y-124097135D01*
X145857762Y-123975929D01*
X145855375Y-123963928D01*
X145840842Y-123816318D01*
X145840541Y-123810192D01*
X145840541Y-123795370D01*
X145840542Y-123774195D01*
X145840541Y-123774192D01*
X145840541Y-122516021D01*
X145858847Y-122471827D01*
X145864989Y-122466440D01*
X145871644Y-122461333D01*
X145917846Y-122448949D01*
X145929782Y-122451732D01*
X145949849Y-122458544D01*
X145965608Y-122462766D01*
X145991964Y-122468008D01*
X146020971Y-122471827D01*
X146109142Y-122483436D01*
X146115298Y-122484042D01*
X146122529Y-122484755D01*
X146130687Y-122485290D01*
X146144135Y-122485730D01*
X146144149Y-122485730D01*
X148055021Y-122485730D01*
X148055024Y-122485730D01*
X148060055Y-122485545D01*
X148070123Y-122485175D01*
X148075820Y-122484755D01*
X148079269Y-122484501D01*
X148094276Y-122482840D01*
X148225464Y-122463415D01*
X148254919Y-122456812D01*
X148272442Y-122451506D01*
X148291285Y-122444250D01*
X148300589Y-122440669D01*
X148300592Y-122440667D01*
X148300604Y-122440663D01*
X148420530Y-122384057D01*
X148433937Y-122377116D01*
X148441928Y-122372599D01*
X148454795Y-122364688D01*
X149082622Y-121946136D01*
X149090593Y-121941630D01*
X149169343Y-121904458D01*
X149186861Y-121899154D01*
X149252374Y-121889454D01*
X149272975Y-121886404D01*
X149282129Y-121885730D01*
X150299799Y-121885730D01*
X150299813Y-121885730D01*
X150313261Y-121885290D01*
X150321419Y-121884755D01*
X150334796Y-121883437D01*
X150364093Y-121879579D01*
X150451963Y-121868011D01*
X150451969Y-121868010D01*
X150451969Y-121868009D01*
X150451984Y-121868008D01*
X150478348Y-121862763D01*
X150494108Y-121858540D01*
X150519560Y-121849900D01*
X150624943Y-121806249D01*
X150649043Y-121794365D01*
X150663173Y-121786208D01*
X150685532Y-121771269D01*
X150779316Y-121699306D01*
X150789727Y-121690761D01*
X150795873Y-121685370D01*
X150805672Y-121676191D01*
X151201970Y-121279893D01*
X151215511Y-121264954D01*
X151223284Y-121255483D01*
X151235301Y-121239280D01*
X151270959Y-121185913D01*
X151289948Y-121150388D01*
X151299280Y-121127859D01*
X151299852Y-121126479D01*
X151333677Y-121092654D01*
X151381512Y-121092655D01*
G37*
%TD.AperFunction*%
%TD*%
%TA.AperFunction,Conductor*%
%TO.N,GND*%
G36*
X150201515Y-122475765D02*
G01*
X150233035Y-122479914D01*
X150238400Y-122480859D01*
X150238421Y-122480864D01*
X150246713Y-122481771D01*
X150250538Y-122482311D01*
X150253028Y-122482742D01*
X150253030Y-122482741D01*
X150253351Y-122482797D01*
X150258949Y-122483110D01*
X150282875Y-122485730D01*
X150282902Y-122485730D01*
X150283663Y-122485772D01*
X150283781Y-122485828D01*
X150284569Y-122485915D01*
X150284538Y-122486191D01*
X150326797Y-122506453D01*
X150342675Y-122551576D01*
X150342112Y-122557202D01*
X150325927Y-122668102D01*
X150324438Y-122678301D01*
X150322825Y-122693081D01*
X150322169Y-122702118D01*
X150321631Y-122716990D01*
X150321631Y-122841484D01*
X150322177Y-122856457D01*
X150322843Y-122865556D01*
X150324480Y-122880451D01*
X150343648Y-123010793D01*
X150343649Y-123010798D01*
X150347584Y-123028476D01*
X150350163Y-123040061D01*
X150355396Y-123057468D01*
X150355398Y-123057475D01*
X150355399Y-123057476D01*
X150366089Y-123085450D01*
X150366102Y-123085482D01*
X150420004Y-123200565D01*
X150420008Y-123200572D01*
X150434670Y-123226724D01*
X150434676Y-123226734D01*
X150444691Y-123241886D01*
X150444707Y-123241908D01*
X150452110Y-123251504D01*
X150463011Y-123265637D01*
X150541071Y-123352855D01*
X150568854Y-123378653D01*
X150587052Y-123392660D01*
X150619102Y-123412915D01*
X150669568Y-123438628D01*
X150683118Y-123445532D01*
X150698938Y-123457026D01*
X150737390Y-123495478D01*
X150745731Y-123505815D01*
X150762498Y-123531832D01*
X150762505Y-123531842D01*
X150777862Y-123551082D01*
X150778174Y-123551472D01*
X150796784Y-123570479D01*
X150797058Y-123570759D01*
X150798966Y-123572798D01*
X150817344Y-123593331D01*
X150864838Y-123646397D01*
X150874865Y-123661567D01*
X150902530Y-123720631D01*
X150903148Y-123721949D01*
X150908384Y-123739366D01*
X150920966Y-123824921D01*
X150921631Y-123834015D01*
X150921631Y-124309970D01*
X150922071Y-124323446D01*
X150922605Y-124331588D01*
X150923924Y-124344975D01*
X150939348Y-124462132D01*
X150939350Y-124462145D01*
X150941359Y-124472243D01*
X150942836Y-124479670D01*
X150944600Y-124488534D01*
X150948812Y-124504254D01*
X150948819Y-124504277D01*
X150948820Y-124504280D01*
X150957460Y-124529733D01*
X150957464Y-124529742D01*
X150957789Y-124530700D01*
X150957174Y-124530908D01*
X150955612Y-124576942D01*
X150920659Y-124609600D01*
X150898714Y-124613579D01*
X149111673Y-124613579D01*
X149067479Y-124595273D01*
X149049173Y-124551079D01*
X149050487Y-124538332D01*
X149201879Y-123811646D01*
X149425533Y-122738103D01*
X149427831Y-122729914D01*
X149454989Y-122653610D01*
X149462818Y-122638515D01*
X149498873Y-122587476D01*
X149510483Y-122575052D01*
X149558955Y-122535637D01*
X149573492Y-122526803D01*
X149625486Y-122504228D01*
X149630802Y-122501919D01*
X149647179Y-122497332D01*
X149727390Y-122486311D01*
X149735897Y-122485730D01*
X149779149Y-122485730D01*
X149779156Y-122485730D01*
X149803800Y-122483032D01*
X149804286Y-122483168D01*
X149812159Y-122482131D01*
X149813468Y-122481973D01*
X149823614Y-122480863D01*
X149823620Y-122480861D01*
X149823728Y-122480843D01*
X149828967Y-122479919D01*
X149849131Y-122477264D01*
X149860519Y-122475765D01*
X149868676Y-122475230D01*
X150193358Y-122475230D01*
X150201515Y-122475765D01*
G37*
%TD.AperFunction*%
%TA.AperFunction,Conductor*%
G36*
X157736445Y-104193391D02*
G01*
X157754407Y-104211374D01*
X157754789Y-104211957D01*
X157758660Y-104218759D01*
X157767303Y-104236438D01*
X157767307Y-104236443D01*
X157772498Y-104241634D01*
X157783251Y-104256045D01*
X157815375Y-104315311D01*
X157817162Y-104318874D01*
X157853100Y-104396636D01*
X157854339Y-104399504D01*
X157892170Y-104493422D01*
X157893056Y-104495753D01*
X157922993Y-104579623D01*
X157922994Y-104579624D01*
X157926631Y-104600635D01*
X157926631Y-107710631D01*
X157908325Y-107754825D01*
X157182787Y-108480362D01*
X157182780Y-108480371D01*
X157139932Y-108554585D01*
X157139928Y-108554594D01*
X157130297Y-108590541D01*
X157128513Y-108597200D01*
X157126718Y-108603896D01*
X157117748Y-108637372D01*
X157117748Y-118819515D01*
X157099442Y-118863709D01*
X156126727Y-119836424D01*
X156082533Y-119854730D01*
X154844608Y-119854730D01*
X154844607Y-119854730D01*
X154840544Y-119855265D01*
X154840324Y-119853598D01*
X154798594Y-119848085D01*
X154769491Y-119810122D01*
X154775757Y-119762698D01*
X154785671Y-119749783D01*
X155111419Y-119424036D01*
X155155613Y-119405730D01*
X155486100Y-119405730D01*
X155486101Y-119405730D01*
X155568887Y-119383548D01*
X155643110Y-119340695D01*
X156603713Y-118380092D01*
X156646566Y-118305869D01*
X156668748Y-118223083D01*
X156668748Y-118137377D01*
X156668748Y-106740945D01*
X156687054Y-106696751D01*
X157412591Y-105971214D01*
X157412596Y-105971209D01*
X157426329Y-105947423D01*
X157439342Y-105924885D01*
X157448069Y-105909766D01*
X157455449Y-105896985D01*
X157477631Y-105814200D01*
X157477631Y-104600632D01*
X157481268Y-104579623D01*
X157486623Y-104564620D01*
X157511209Y-104495733D01*
X157512080Y-104493443D01*
X157512089Y-104493422D01*
X157533971Y-104439097D01*
X157549921Y-104399500D01*
X157551155Y-104396643D01*
X157587098Y-104318870D01*
X157588851Y-104315373D01*
X157621008Y-104256044D01*
X157631763Y-104241634D01*
X157636957Y-104236441D01*
X157645604Y-104218750D01*
X157649505Y-104211904D01*
X157649893Y-104211312D01*
X157689457Y-104184426D01*
X157736445Y-104193391D01*
G37*
%TD.AperFunction*%
%TA.AperFunction,Conductor*%
G36*
X160875696Y-101401977D02*
G01*
X160905807Y-101439147D01*
X160900816Y-101486721D01*
X160885534Y-101505222D01*
X160819046Y-101559788D01*
X160700267Y-101704519D01*
X160700263Y-101704525D01*
X160612009Y-101869638D01*
X160557655Y-102048815D01*
X160539304Y-102235144D01*
X160539304Y-102235145D01*
X160557655Y-102421474D01*
X160571740Y-102467906D01*
X160593755Y-102540479D01*
X160612009Y-102600651D01*
X160700263Y-102765764D01*
X160700267Y-102765770D01*
X160819046Y-102910502D01*
X160963778Y-103029281D01*
X160963780Y-103029282D01*
X160963783Y-103029284D01*
X161085127Y-103094143D01*
X161128902Y-103117541D01*
X161308072Y-103171892D01*
X161494403Y-103190244D01*
X161680734Y-103171892D01*
X161859904Y-103117541D01*
X162025028Y-103029281D01*
X162153642Y-102923729D01*
X162193291Y-102909543D01*
X163693819Y-102909543D01*
X163738013Y-102927849D01*
X164249581Y-103439417D01*
X164305530Y-103495366D01*
X164374052Y-103534927D01*
X164391984Y-103539732D01*
X164450473Y-103555405D01*
X164450479Y-103555406D01*
X169161433Y-103555406D01*
X169188883Y-103561757D01*
X169256416Y-103594772D01*
X169329405Y-103605406D01*
X169750677Y-103605406D01*
X169823666Y-103594772D01*
X169905328Y-103554849D01*
X169953068Y-103551885D01*
X169976969Y-103566805D01*
X170271235Y-103861071D01*
X170289541Y-103905265D01*
X170289541Y-104802770D01*
X170289542Y-104802787D01*
X170295950Y-104862392D01*
X170346244Y-104997237D01*
X170346247Y-104997242D01*
X170422762Y-105099451D01*
X170434593Y-105145800D01*
X170410184Y-105186939D01*
X170372729Y-105199406D01*
X167444135Y-105199406D01*
X167435410Y-105199691D01*
X167430705Y-105199845D01*
X167422537Y-105200380D01*
X167409152Y-105201697D01*
X167291968Y-105217125D01*
X167291957Y-105217127D01*
X167265617Y-105222366D01*
X167249858Y-105226588D01*
X167249838Y-105226594D01*
X167224399Y-105235228D01*
X167224372Y-105235239D01*
X167119002Y-105278885D01*
X167094902Y-105290770D01*
X167080783Y-105298921D01*
X167080781Y-105298922D01*
X167058407Y-105313870D01*
X166967929Y-105383297D01*
X166967901Y-105383320D01*
X166947713Y-105401025D01*
X166947695Y-105401042D01*
X166936173Y-105412564D01*
X166923646Y-105426847D01*
X166918447Y-105432776D01*
X166849003Y-105523277D01*
X166848999Y-105523283D01*
X166834066Y-105545632D01*
X166825910Y-105559759D01*
X166825902Y-105559774D01*
X166814020Y-105583867D01*
X166770226Y-105689597D01*
X166736402Y-105723422D01*
X166688566Y-105723421D01*
X166687240Y-105722854D01*
X166669074Y-105714833D01*
X166669069Y-105714831D01*
X166656294Y-105713349D01*
X166625387Y-105700800D01*
X166621868Y-105698093D01*
X166621840Y-105698072D01*
X166595658Y-105680935D01*
X166595637Y-105680922D01*
X166475189Y-105614602D01*
X166474539Y-105614276D01*
X166461185Y-105607572D01*
X166452526Y-105603631D01*
X166438023Y-105597687D01*
X166438015Y-105597684D01*
X166438010Y-105597682D01*
X165676516Y-105319002D01*
X165641305Y-105286623D01*
X165639303Y-105238829D01*
X165653798Y-105216119D01*
X165703548Y-105166370D01*
X166071206Y-104798712D01*
X166115400Y-104780406D01*
X166208409Y-104780406D01*
X166208409Y-104780405D01*
X166339602Y-104741884D01*
X166454630Y-104667961D01*
X166544171Y-104564624D01*
X166600972Y-104440248D01*
X166620431Y-104304906D01*
X166600972Y-104169564D01*
X166544171Y-104045188D01*
X166454630Y-103941851D01*
X166339602Y-103867928D01*
X166339600Y-103867927D01*
X166339598Y-103867926D01*
X166208410Y-103829406D01*
X166208408Y-103829406D01*
X166071674Y-103829406D01*
X166071672Y-103829406D01*
X165940483Y-103867926D01*
X165940480Y-103867928D01*
X165825452Y-103941851D01*
X165735911Y-104045188D01*
X165735910Y-104045189D01*
X165735909Y-104045191D01*
X165679110Y-104169562D01*
X165679109Y-104169565D01*
X165659651Y-104304906D01*
X165662165Y-104322392D01*
X165650335Y-104368741D01*
X165644495Y-104375480D01*
X165356923Y-104663053D01*
X165312729Y-104681359D01*
X163139084Y-104681359D01*
X163062665Y-104701837D01*
X163062663Y-104701838D01*
X163013736Y-104730086D01*
X163013722Y-104730094D01*
X163010644Y-104731870D01*
X162963216Y-104738101D01*
X162925273Y-104708971D01*
X162919042Y-104661543D01*
X162922556Y-104651771D01*
X162922921Y-104650970D01*
X162922923Y-104650969D01*
X162976738Y-104533132D01*
X162995174Y-104404906D01*
X162976738Y-104276680D01*
X162922923Y-104158843D01*
X162838090Y-104060939D01*
X162838089Y-104060938D01*
X162789559Y-104029750D01*
X162729110Y-103990902D01*
X162729108Y-103990901D01*
X162729106Y-103990900D01*
X162604815Y-103954406D01*
X162604813Y-103954406D01*
X162475269Y-103954406D01*
X162475267Y-103954406D01*
X162350975Y-103990900D01*
X162241992Y-104060938D01*
X162157159Y-104158842D01*
X162157159Y-104158843D01*
X162103343Y-104276681D01*
X162084908Y-104404906D01*
X162103343Y-104533130D01*
X162126548Y-104583940D01*
X162157159Y-104650969D01*
X162224276Y-104728427D01*
X162239541Y-104769355D01*
X162239541Y-104904424D01*
X162221235Y-104948618D01*
X161671414Y-105498438D01*
X161627220Y-105516744D01*
X161615027Y-105515543D01*
X161559035Y-105504406D01*
X161559034Y-105504406D01*
X160921048Y-105504406D01*
X160785714Y-105531325D01*
X160785713Y-105531325D01*
X160658229Y-105584131D01*
X160658227Y-105584132D01*
X160543499Y-105660791D01*
X160445926Y-105758364D01*
X160369267Y-105873092D01*
X160369266Y-105873094D01*
X160316460Y-106000578D01*
X160316460Y-106000579D01*
X160289541Y-106135912D01*
X160289541Y-106273899D01*
X160316460Y-106409232D01*
X160316460Y-106409233D01*
X160369266Y-106536717D01*
X160369267Y-106536719D01*
X160369707Y-106537377D01*
X160445927Y-106651448D01*
X160543499Y-106749020D01*
X160658230Y-106825681D01*
X160710095Y-106847164D01*
X160743920Y-106880988D01*
X160743919Y-106928824D01*
X160710095Y-106962647D01*
X160699203Y-106967159D01*
X160658229Y-106984131D01*
X160658227Y-106984132D01*
X160543499Y-107060791D01*
X160445926Y-107158364D01*
X160369267Y-107273092D01*
X160369266Y-107273094D01*
X160316460Y-107400578D01*
X160316460Y-107400579D01*
X160289541Y-107535912D01*
X160289541Y-107673899D01*
X160316460Y-107809232D01*
X160316460Y-107809233D01*
X160369266Y-107936717D01*
X160369267Y-107936719D01*
X160424351Y-108019158D01*
X160445927Y-108051448D01*
X160543499Y-108149020D01*
X160658230Y-108225681D01*
X160785713Y-108278486D01*
X160921048Y-108305406D01*
X161418971Y-108305406D01*
X161463165Y-108323712D01*
X161924823Y-108785371D01*
X161924832Y-108785378D01*
X161986348Y-108820895D01*
X161986349Y-108820895D01*
X162004749Y-108831518D01*
X162004751Y-108831518D01*
X162004753Y-108831520D01*
X162004754Y-108831520D01*
X162004756Y-108831521D01*
X162059305Y-108846137D01*
X162093897Y-108855406D01*
X162572041Y-108855406D01*
X162616235Y-108873712D01*
X162634541Y-108917906D01*
X162634541Y-109237326D01*
X162634651Y-109244073D01*
X162634784Y-109248131D01*
X162635112Y-109254848D01*
X162638949Y-109313650D01*
X162640253Y-109326961D01*
X162641308Y-109335023D01*
X162643479Y-109348236D01*
X162643483Y-109348256D01*
X162653180Y-109397235D01*
X162654948Y-109406162D01*
X162656332Y-109412605D01*
X162657247Y-109416554D01*
X162658882Y-109423115D01*
X163393448Y-112177738D01*
X163396614Y-112187827D01*
X163398788Y-112194755D01*
X163402478Y-112204945D01*
X163402519Y-112205045D01*
X163409275Y-112221443D01*
X163475051Y-112363273D01*
X163475059Y-112363289D01*
X163484938Y-112380501D01*
X163492794Y-112394188D01*
X163501373Y-112406520D01*
X163505126Y-112411914D01*
X163527947Y-112439302D01*
X163638095Y-112550306D01*
X163651199Y-112562412D01*
X163658301Y-112568423D01*
X163659461Y-112569405D01*
X163673561Y-112580326D01*
X164937831Y-113474571D01*
X164950054Y-113482581D01*
X164954248Y-113485120D01*
X164957641Y-113487176D01*
X164957652Y-113487182D01*
X164970410Y-113494300D01*
X164970416Y-113494303D01*
X165084646Y-113552816D01*
X165084652Y-113552818D01*
X165084653Y-113552819D01*
X165111533Y-113564255D01*
X165128291Y-113570016D01*
X165129989Y-113570467D01*
X165162244Y-113591220D01*
X165256338Y-113705874D01*
X165293631Y-113751316D01*
X165453591Y-113882591D01*
X165453594Y-113882592D01*
X165453596Y-113882594D01*
X165520663Y-113918442D01*
X165636087Y-113980138D01*
X165834107Y-114040206D01*
X166040041Y-114060489D01*
X166245975Y-114040206D01*
X166443995Y-113980138D01*
X166626491Y-113882591D01*
X166786451Y-113751316D01*
X166917726Y-113591356D01*
X167015273Y-113408860D01*
X167075341Y-113210840D01*
X167095624Y-113004906D01*
X167075341Y-112798972D01*
X167015273Y-112600952D01*
X166940215Y-112460531D01*
X166933198Y-112424355D01*
X166934730Y-112410182D01*
X166935845Y-112382601D01*
X166935396Y-112365856D01*
X166935152Y-112363273D01*
X166934863Y-112360209D01*
X166932805Y-112338377D01*
X166913325Y-112218597D01*
X166910651Y-112205045D01*
X166908750Y-112196869D01*
X166905175Y-112183538D01*
X166474144Y-110768225D01*
X166470108Y-110756299D01*
X166467436Y-110749133D01*
X166462687Y-110737497D01*
X166417781Y-110636416D01*
X166406186Y-110614105D01*
X166398330Y-110601014D01*
X166384094Y-110580282D01*
X166316012Y-110493093D01*
X166311800Y-110488026D01*
X166307967Y-110483415D01*
X166305590Y-110480728D01*
X166302895Y-110477682D01*
X166294285Y-110468530D01*
X166212385Y-110386630D01*
X166194079Y-110342436D01*
X166212384Y-110298243D01*
X166279239Y-110231389D01*
X166330614Y-110126299D01*
X166340541Y-110058166D01*
X166340541Y-109491646D01*
X166330614Y-109423513D01*
X166279239Y-109318423D01*
X166196524Y-109235708D01*
X166091434Y-109184333D01*
X166091432Y-109184332D01*
X166091431Y-109184332D01*
X166037308Y-109176446D01*
X166023301Y-109174406D01*
X166023300Y-109174406D01*
X165831111Y-109174406D01*
X165786917Y-109156100D01*
X165723847Y-109093030D01*
X165705541Y-109048836D01*
X165705541Y-108641265D01*
X165723847Y-108597071D01*
X165768041Y-108578765D01*
X165812235Y-108597071D01*
X166721235Y-109506071D01*
X166739541Y-109550265D01*
X166739541Y-110058165D01*
X166749467Y-110126296D01*
X166749467Y-110126297D01*
X166749468Y-110126299D01*
X166800843Y-110231389D01*
X166883558Y-110314104D01*
X166988648Y-110365479D01*
X167056781Y-110375406D01*
X167056782Y-110375406D01*
X167423300Y-110375406D01*
X167423301Y-110375406D01*
X167491434Y-110365479D01*
X167596524Y-110314104D01*
X167679239Y-110231389D01*
X167683565Y-110222539D01*
X167689473Y-110210456D01*
X167725329Y-110178792D01*
X167745622Y-110175406D01*
X167910184Y-110175406D01*
X167954378Y-110193712D01*
X167999637Y-110238971D01*
X168106868Y-110288974D01*
X168155725Y-110295406D01*
X168155731Y-110295406D01*
X168504351Y-110295406D01*
X168504357Y-110295406D01*
X168553214Y-110288974D01*
X168660445Y-110238971D01*
X168744106Y-110155310D01*
X168794109Y-110048079D01*
X168800541Y-109999222D01*
X168800541Y-109550590D01*
X168794109Y-109501733D01*
X168765296Y-109439945D01*
X168763210Y-109392156D01*
X168795527Y-109356888D01*
X168821941Y-109351032D01*
X170183978Y-109351032D01*
X170183983Y-109351031D01*
X170218019Y-109341910D01*
X170260405Y-109330553D01*
X170260406Y-109330552D01*
X170260952Y-109330406D01*
X170308378Y-109336649D01*
X170335688Y-109368934D01*
X170346245Y-109397237D01*
X170432495Y-109512452D01*
X170432496Y-109512452D01*
X170432497Y-109512454D01*
X170547704Y-109598699D01*
X170547709Y-109598702D01*
X170682555Y-109648996D01*
X170682556Y-109648996D01*
X170682558Y-109648997D01*
X170742168Y-109655406D01*
X172421910Y-109655405D01*
X172466104Y-109673711D01*
X172484410Y-109717905D01*
X172484410Y-109891906D01*
X172466104Y-109936100D01*
X172421910Y-109954406D01*
X170742176Y-109954406D01*
X170742159Y-109954407D01*
X170682554Y-109960815D01*
X170547709Y-110011109D01*
X170547704Y-110011112D01*
X170432497Y-110097357D01*
X170432492Y-110097362D01*
X170346247Y-110212569D01*
X170346244Y-110212574D01*
X170295950Y-110347419D01*
X170289541Y-110407025D01*
X170289541Y-110442718D01*
X170271235Y-110486912D01*
X170240880Y-110501888D01*
X170241271Y-110503345D01*
X170135456Y-110531697D01*
X170135447Y-110531701D01*
X170044131Y-110584423D01*
X170044122Y-110584430D01*
X169632731Y-110995822D01*
X169588537Y-111014128D01*
X169561088Y-111007778D01*
X169473666Y-110965040D01*
X169473664Y-110965039D01*
X169473663Y-110965039D01*
X169400677Y-110954406D01*
X168979405Y-110954406D01*
X168906415Y-110965040D01*
X168906414Y-110965040D01*
X168793831Y-111020078D01*
X168705213Y-111108696D01*
X168650175Y-111221279D01*
X168650175Y-111221280D01*
X168639541Y-111294270D01*
X168639541Y-111533836D01*
X168621235Y-111578030D01*
X168359570Y-111839694D01*
X168324110Y-111901115D01*
X168324110Y-111901116D01*
X168313425Y-111919621D01*
X168289542Y-112008755D01*
X168289541Y-112008763D01*
X168289541Y-112892938D01*
X168271235Y-112937132D01*
X168263479Y-112943717D01*
X165402400Y-114996803D01*
X165355822Y-115007696D01*
X165355137Y-115007579D01*
X165258141Y-114990477D01*
X165258139Y-114990477D01*
X165258138Y-114990477D01*
X165140760Y-115011173D01*
X165140755Y-115011175D01*
X165096716Y-115034099D01*
X165096713Y-115034100D01*
X165096713Y-115034101D01*
X165070221Y-115052651D01*
X164806565Y-115237266D01*
X164806560Y-115237271D01*
X164769956Y-115270811D01*
X164769955Y-115270812D01*
X164710361Y-115374031D01*
X164710359Y-115374035D01*
X164700523Y-115429819D01*
X164690658Y-115485773D01*
X164689661Y-115491426D01*
X164710358Y-115608808D01*
X164710358Y-115608809D01*
X164710359Y-115608810D01*
X164733286Y-115652852D01*
X164965129Y-115983956D01*
X164998673Y-116020565D01*
X165101901Y-116080163D01*
X165219287Y-116100861D01*
X165336673Y-116080163D01*
X165380715Y-116057237D01*
X165670862Y-115854072D01*
X165707470Y-115820528D01*
X165712453Y-115811897D01*
X165767066Y-115717306D01*
X165767068Y-115717302D01*
X165767068Y-115717301D01*
X165767069Y-115717300D01*
X165786744Y-115605715D01*
X165811855Y-115565791D01*
X168827803Y-113401573D01*
X168832980Y-113398233D01*
X168855253Y-113385375D01*
X168864031Y-113376595D01*
X168871779Y-113370016D01*
X168881878Y-113362771D01*
X168898200Y-113342854D01*
X168902316Y-113338310D01*
X168920510Y-113320118D01*
X168926718Y-113309363D01*
X168932502Y-113301001D01*
X168940378Y-113291392D01*
X168950978Y-113267953D01*
X168953795Y-113262466D01*
X168966655Y-113240194D01*
X168969869Y-113228194D01*
X168973295Y-113218612D01*
X168978409Y-113207307D01*
X168978410Y-113207305D01*
X168982583Y-113181922D01*
X168983878Y-113175915D01*
X168990541Y-113151050D01*
X168990541Y-113138629D01*
X168991369Y-113128487D01*
X168993383Y-113116240D01*
X168990846Y-113090652D01*
X168990541Y-113084486D01*
X168990541Y-112225976D01*
X169008847Y-112181782D01*
X169116917Y-112073712D01*
X169161111Y-112055406D01*
X169400677Y-112055406D01*
X169473666Y-112044772D01*
X169586252Y-111989732D01*
X169652272Y-111923712D01*
X169696466Y-111905406D01*
X169742767Y-111905406D01*
X169742768Y-111905406D01*
X169844629Y-111878113D01*
X169935954Y-111825386D01*
X170227999Y-111533340D01*
X170272191Y-111515035D01*
X170316385Y-111533341D01*
X170330750Y-111555694D01*
X170346244Y-111597237D01*
X170346247Y-111597242D01*
X170432492Y-111712449D01*
X170432497Y-111712454D01*
X170547704Y-111798699D01*
X170547709Y-111798702D01*
X170682555Y-111848996D01*
X170682556Y-111848996D01*
X170682558Y-111848997D01*
X170742168Y-111855406D01*
X172421910Y-111855405D01*
X172466104Y-111873711D01*
X172484410Y-111917905D01*
X172484410Y-112091906D01*
X172466104Y-112136100D01*
X172421910Y-112154406D01*
X170742176Y-112154406D01*
X170742159Y-112154407D01*
X170682554Y-112160815D01*
X170547709Y-112211109D01*
X170547704Y-112211112D01*
X170432497Y-112297357D01*
X170432492Y-112297362D01*
X170346247Y-112412569D01*
X170346244Y-112412574D01*
X170295950Y-112547419D01*
X170289541Y-112607025D01*
X170289541Y-112641906D01*
X170271235Y-112686100D01*
X170227041Y-112704406D01*
X170187314Y-112704406D01*
X170187313Y-112704406D01*
X170187307Y-112704407D01*
X170085456Y-112731697D01*
X170085447Y-112731701D01*
X169994131Y-112784423D01*
X169994122Y-112784430D01*
X169619565Y-113158987D01*
X169619558Y-113158996D01*
X169566836Y-113250312D01*
X169566832Y-113250321D01*
X169548226Y-113319765D01*
X169546778Y-113325167D01*
X169539541Y-113352174D01*
X169539541Y-114048481D01*
X169521235Y-114092675D01*
X169455215Y-114158694D01*
X169455213Y-114158696D01*
X169400175Y-114271279D01*
X169400175Y-114271280D01*
X169389541Y-114344270D01*
X169389541Y-114446623D01*
X169371235Y-114490817D01*
X169359741Y-114499886D01*
X168457939Y-115053528D01*
X168410698Y-115061050D01*
X168393989Y-115054391D01*
X168393304Y-115053995D01*
X168343604Y-115045232D01*
X168275916Y-115033297D01*
X168275914Y-115033297D01*
X168275913Y-115033297D01*
X168158535Y-115053993D01*
X168158530Y-115053995D01*
X168114491Y-115076919D01*
X168114488Y-115076920D01*
X168114488Y-115076921D01*
X168104365Y-115084009D01*
X167824340Y-115280086D01*
X167824335Y-115280091D01*
X167787731Y-115313631D01*
X167787730Y-115313632D01*
X167728136Y-115416851D01*
X167728134Y-115416855D01*
X167717031Y-115479825D01*
X167707495Y-115533913D01*
X167707436Y-115534246D01*
X167728133Y-115651628D01*
X167728133Y-115651629D01*
X167728134Y-115651630D01*
X167751061Y-115695672D01*
X167982904Y-116026776D01*
X167992617Y-116037377D01*
X168006975Y-116053047D01*
X168016448Y-116063385D01*
X168119676Y-116122983D01*
X168237062Y-116143681D01*
X168354448Y-116122983D01*
X168398490Y-116100057D01*
X168688637Y-115896892D01*
X168725245Y-115863348D01*
X168784844Y-115760120D01*
X168796712Y-115692808D01*
X168822413Y-115652466D01*
X168825539Y-115650413D01*
X169498495Y-115237266D01*
X169698230Y-115114643D01*
X169730930Y-115105406D01*
X170150677Y-115105406D01*
X170223666Y-115094772D01*
X170336252Y-115039732D01*
X170424867Y-114951117D01*
X170479907Y-114838531D01*
X170490541Y-114765542D01*
X170490541Y-114344270D01*
X170479907Y-114271281D01*
X170467702Y-114246316D01*
X170424868Y-114158696D01*
X170358847Y-114092675D01*
X170340541Y-114048481D01*
X170340541Y-113968475D01*
X170358847Y-113924281D01*
X170403041Y-113905975D01*
X170440496Y-113918442D01*
X170547704Y-113998699D01*
X170547709Y-113998702D01*
X170682555Y-114048996D01*
X170682556Y-114048996D01*
X170682558Y-114048997D01*
X170742168Y-114055406D01*
X172421910Y-114055405D01*
X172466104Y-114073711D01*
X172484410Y-114117905D01*
X172484410Y-114828665D01*
X172466104Y-114872859D01*
X172421910Y-114891165D01*
X172303881Y-114891165D01*
X172293701Y-114889454D01*
X172293629Y-114889981D01*
X172287534Y-114889143D01*
X172287531Y-114889143D01*
X172259123Y-114890841D01*
X172255559Y-114891054D01*
X172251830Y-114891165D01*
X172234456Y-114891165D01*
X172229930Y-114890582D01*
X172229915Y-114890841D01*
X172223768Y-114890473D01*
X172216881Y-114891421D01*
X172211403Y-114891667D01*
X172201144Y-114893206D01*
X172195785Y-114893510D01*
X172188005Y-114894771D01*
X172181742Y-114895464D01*
X172159832Y-114896775D01*
X172155114Y-114898010D01*
X172146486Y-114900880D01*
X172144609Y-114901241D01*
X172141206Y-114901568D01*
X172138582Y-114902088D01*
X172134976Y-114902694D01*
X172129915Y-114903392D01*
X172128644Y-114903742D01*
X172124475Y-114904609D01*
X172121031Y-114905225D01*
X172115384Y-114906073D01*
X172115263Y-114906083D01*
X172115002Y-114906131D01*
X172114512Y-114906204D01*
X172112216Y-114906862D01*
X172110025Y-114907336D01*
X172106831Y-114907940D01*
X172100374Y-114908989D01*
X172100373Y-114908989D01*
X172094336Y-114909970D01*
X172094283Y-114909646D01*
X172094003Y-114909702D01*
X172094113Y-114910176D01*
X172089426Y-114911262D01*
X172086059Y-114911945D01*
X172081135Y-114912803D01*
X172080627Y-114912962D01*
X172075950Y-114914082D01*
X172072755Y-114914759D01*
X172068211Y-114915598D01*
X172068212Y-114915599D01*
X172063632Y-114916729D01*
X172060493Y-114917419D01*
X172056518Y-114918185D01*
X172053194Y-114919184D01*
X172044845Y-114920856D01*
X172041453Y-114921901D01*
X172039572Y-114922293D01*
X172032298Y-114923368D01*
X172030793Y-114923500D01*
X172014470Y-114928263D01*
X172010673Y-114929243D01*
X172008223Y-114929793D01*
X172004845Y-114930917D01*
X171995466Y-114933097D01*
X171992147Y-114934235D01*
X171990103Y-114934726D01*
X171986481Y-114935598D01*
X171986480Y-114935598D01*
X171982600Y-114936532D01*
X171979318Y-114937685D01*
X171969612Y-114940098D01*
X171966257Y-114941306D01*
X171960165Y-114942871D01*
X171958217Y-114943807D01*
X171948671Y-114947464D01*
X171893246Y-114963638D01*
X171875616Y-114966140D01*
X171873597Y-114966136D01*
X171873596Y-114966136D01*
X171873595Y-114966136D01*
X171873593Y-114966136D01*
X171873591Y-114966137D01*
X171864442Y-114969905D01*
X171858501Y-114971739D01*
X171847003Y-114976660D01*
X171839924Y-114979198D01*
X171818617Y-114985416D01*
X171818449Y-114985504D01*
X171806512Y-114993006D01*
X171796544Y-114997765D01*
X171793430Y-114999148D01*
X171790921Y-115000182D01*
X171788470Y-115001014D01*
X171788121Y-115001186D01*
X171784386Y-115002875D01*
X171783753Y-115003136D01*
X171781221Y-115004596D01*
X171779319Y-115005536D01*
X171776229Y-115006960D01*
X171773354Y-115008191D01*
X171771068Y-115009004D01*
X171770927Y-115009077D01*
X171767153Y-115010847D01*
X171766781Y-115011006D01*
X171764479Y-115012374D01*
X171762192Y-115013543D01*
X171759135Y-115015003D01*
X171755862Y-115016458D01*
X171753799Y-115017221D01*
X171753761Y-115017242D01*
X171750092Y-115019022D01*
X171749880Y-115019116D01*
X171747783Y-115020399D01*
X171745056Y-115021842D01*
X171741985Y-115023360D01*
X171732876Y-115027558D01*
X171730937Y-115028782D01*
X171727850Y-115030468D01*
X171724829Y-115032013D01*
X171720717Y-115033977D01*
X171718905Y-115034707D01*
X171715958Y-115036240D01*
X171714158Y-115037411D01*
X171710708Y-115039357D01*
X171707705Y-115040945D01*
X171703276Y-115043135D01*
X171701571Y-115043846D01*
X171698994Y-115045232D01*
X171697364Y-115046327D01*
X171693492Y-115048582D01*
X171690506Y-115050214D01*
X171685743Y-115052651D01*
X171684191Y-115053323D01*
X171682100Y-115054485D01*
X171680588Y-115055530D01*
X171676356Y-115058072D01*
X171673400Y-115059740D01*
X171668264Y-115062457D01*
X171666834Y-115063099D01*
X171665189Y-115064042D01*
X171663815Y-115065021D01*
X171659228Y-115067863D01*
X171656282Y-115069579D01*
X171650761Y-115072596D01*
X171649478Y-115073194D01*
X171648323Y-115073877D01*
X171647075Y-115074792D01*
X171642169Y-115077925D01*
X171639260Y-115079672D01*
X171633297Y-115083039D01*
X171632163Y-115083586D01*
X171631469Y-115084009D01*
X171630326Y-115084871D01*
X171625031Y-115088354D01*
X171622151Y-115090139D01*
X171615918Y-115093771D01*
X171614877Y-115094291D01*
X171614631Y-115094446D01*
X171613651Y-115095206D01*
X171607999Y-115099036D01*
X171605133Y-115100866D01*
X171598028Y-115105136D01*
X171592889Y-115107328D01*
X171593081Y-115107716D01*
X171587565Y-115110442D01*
X171571633Y-115122690D01*
X171567195Y-115125804D01*
X171563909Y-115127903D01*
X171559122Y-115131721D01*
X171547261Y-115139525D01*
X171542498Y-115143431D01*
X171532642Y-115150112D01*
X171528319Y-115154493D01*
X171527942Y-115154121D01*
X171520911Y-115161684D01*
X171423959Y-115236219D01*
X171412094Y-115243400D01*
X171402551Y-115247811D01*
X171402548Y-115247814D01*
X171399732Y-115250866D01*
X171397085Y-115253242D01*
X171391627Y-115259251D01*
X171389068Y-115261584D01*
X171388738Y-115261953D01*
X171380279Y-115269800D01*
X171369058Y-115278427D01*
X171369054Y-115278431D01*
X171365195Y-115285130D01*
X171357887Y-115293671D01*
X171358669Y-115294329D01*
X171351912Y-115302353D01*
X171349518Y-115304706D01*
X171345686Y-115309325D01*
X171343529Y-115311790D01*
X171341244Y-115314267D01*
X171340684Y-115314796D01*
X171339989Y-115315596D01*
X171339220Y-115316680D01*
X171338006Y-115318165D01*
X171335899Y-115320611D01*
X171333591Y-115323154D01*
X171333028Y-115323694D01*
X171332357Y-115324478D01*
X171331630Y-115325519D01*
X171330382Y-115327068D01*
X171328302Y-115329517D01*
X171325901Y-115332202D01*
X171325399Y-115332691D01*
X171324784Y-115333420D01*
X171324068Y-115334462D01*
X171322778Y-115336086D01*
X171320744Y-115338517D01*
X171318332Y-115341256D01*
X171317849Y-115341734D01*
X171317264Y-115342438D01*
X171316578Y-115343452D01*
X171315256Y-115345140D01*
X171313269Y-115347549D01*
X171310795Y-115350402D01*
X171310339Y-115350860D01*
X171309787Y-115351533D01*
X171309127Y-115352525D01*
X171307774Y-115354278D01*
X171305821Y-115356683D01*
X171303315Y-115359617D01*
X171302878Y-115360061D01*
X171302401Y-115360654D01*
X171301773Y-115361611D01*
X171300362Y-115363468D01*
X171298419Y-115365896D01*
X171296730Y-115367904D01*
X171295895Y-115368896D01*
X171295458Y-115369346D01*
X171295034Y-115369880D01*
X171294448Y-115370788D01*
X171292895Y-115372860D01*
X171291004Y-115375257D01*
X171288540Y-115378230D01*
X171288126Y-115378663D01*
X171287719Y-115379183D01*
X171287154Y-115380071D01*
X171285628Y-115382135D01*
X171283775Y-115384519D01*
X171281192Y-115387681D01*
X171280824Y-115388072D01*
X171280478Y-115388520D01*
X171279925Y-115389404D01*
X171278385Y-115391518D01*
X171276553Y-115393909D01*
X171273915Y-115397186D01*
X171273560Y-115397568D01*
X171273285Y-115397929D01*
X171272767Y-115398769D01*
X171271161Y-115401005D01*
X171269355Y-115403397D01*
X171266675Y-115406774D01*
X171266362Y-115407116D01*
X171266140Y-115407411D01*
X171265623Y-115408264D01*
X171264049Y-115410486D01*
X171262278Y-115412864D01*
X171259528Y-115416380D01*
X171259220Y-115416721D01*
X171259046Y-115416956D01*
X171258572Y-115417749D01*
X171256859Y-115420201D01*
X171255128Y-115422559D01*
X171252399Y-115426100D01*
X171252117Y-115426416D01*
X171251996Y-115426583D01*
X171251538Y-115427361D01*
X171249844Y-115429819D01*
X171248142Y-115432169D01*
X171245308Y-115435898D01*
X171245081Y-115436156D01*
X171245018Y-115436244D01*
X171244557Y-115437039D01*
X171242813Y-115439604D01*
X171241160Y-115441919D01*
X171238348Y-115445675D01*
X171238092Y-115445970D01*
X171238059Y-115446017D01*
X171237661Y-115446714D01*
X171235839Y-115449433D01*
X171234198Y-115451765D01*
X171231362Y-115455606D01*
X171231155Y-115455848D01*
X171230766Y-115456540D01*
X171228951Y-115459284D01*
X171227359Y-115461579D01*
X171224462Y-115465560D01*
X171224298Y-115465754D01*
X171223985Y-115466320D01*
X171222030Y-115469319D01*
X171220445Y-115471634D01*
X171217573Y-115475635D01*
X171217501Y-115475721D01*
X171217203Y-115476267D01*
X171215367Y-115479121D01*
X171213819Y-115481413D01*
X171210753Y-115485745D01*
X171210729Y-115485773D01*
X171210491Y-115486217D01*
X171208496Y-115489361D01*
X171206985Y-115491632D01*
X171204042Y-115495851D01*
X171204029Y-115495867D01*
X171203824Y-115496254D01*
X171201831Y-115499439D01*
X171200327Y-115501729D01*
X171197396Y-115505984D01*
X171197213Y-115506337D01*
X171195207Y-115509586D01*
X171193731Y-115511865D01*
X171190824Y-115516145D01*
X171190645Y-115516494D01*
X171188562Y-115519912D01*
X171187124Y-115522162D01*
X171184266Y-115526429D01*
X171184129Y-115526701D01*
X171182013Y-115530222D01*
X171180593Y-115532476D01*
X171177783Y-115536728D01*
X171177665Y-115536967D01*
X171175428Y-115540740D01*
X171174039Y-115542974D01*
X171170946Y-115547723D01*
X171167063Y-115553049D01*
X171163739Y-115557135D01*
X171151999Y-115579329D01*
X171149942Y-115582923D01*
X171145632Y-115589907D01*
X171144424Y-115592393D01*
X171139451Y-115600561D01*
X171138261Y-115603050D01*
X171133322Y-115611272D01*
X171132155Y-115613752D01*
X171129507Y-115618219D01*
X171127464Y-115624022D01*
X171126667Y-115623741D01*
X171123715Y-115632799D01*
X171047305Y-115777253D01*
X171037420Y-115791024D01*
X171034755Y-115793835D01*
X171034752Y-115793839D01*
X171032482Y-115799764D01*
X171031822Y-115801088D01*
X171027719Y-115811897D01*
X171027082Y-115813185D01*
X171025480Y-115817443D01*
X171022236Y-115824646D01*
X171011821Y-115844336D01*
X171011522Y-115847519D01*
X171008059Y-115862950D01*
X171004640Y-115872385D01*
X171004242Y-115873453D01*
X170999987Y-115884557D01*
X170999586Y-115886009D01*
X170995493Y-115896796D01*
X170995106Y-115898215D01*
X170991056Y-115908990D01*
X170990661Y-115910453D01*
X170986594Y-115921374D01*
X170986234Y-115922724D01*
X170983062Y-115931315D01*
X170983030Y-115931455D01*
X170983027Y-115931465D01*
X170981867Y-115934957D01*
X170977768Y-115946172D01*
X170977428Y-115947498D01*
X170973711Y-115957762D01*
X170973400Y-115958992D01*
X170973392Y-115959015D01*
X170973188Y-115959593D01*
X170969159Y-115970817D01*
X170968827Y-115972138D01*
X170964857Y-115983303D01*
X170964536Y-115984599D01*
X170962966Y-115989051D01*
X170960691Y-115995506D01*
X170960369Y-115996806D01*
X170956635Y-116007499D01*
X170956361Y-116008659D01*
X170956331Y-116008749D01*
X170956105Y-116009414D01*
X170952247Y-116020567D01*
X170951954Y-116021791D01*
X170948458Y-116031984D01*
X170948241Y-116032947D01*
X170948223Y-116033004D01*
X170947800Y-116034295D01*
X170943998Y-116045480D01*
X170943713Y-116046697D01*
X170940300Y-116056829D01*
X170940072Y-116057824D01*
X170939867Y-116058474D01*
X170939545Y-116059466D01*
X170935832Y-116070587D01*
X170935567Y-116071746D01*
X170931797Y-116083135D01*
X170931523Y-116084357D01*
X170927762Y-116095824D01*
X170927512Y-116096956D01*
X170926836Y-116099033D01*
X170926559Y-116099713D01*
X170925802Y-116102185D01*
X170925486Y-116103186D01*
X170924128Y-116107362D01*
X170923918Y-116108337D01*
X170923744Y-116108905D01*
X170923470Y-116109775D01*
X170922882Y-116111599D01*
X170922625Y-116112232D01*
X170921896Y-116114633D01*
X170921587Y-116115618D01*
X170919908Y-116120826D01*
X170919660Y-116121962D01*
X170919190Y-116123433D01*
X170918902Y-116124124D01*
X170917943Y-116127308D01*
X170917636Y-116128296D01*
X170916169Y-116132885D01*
X170915968Y-116133863D01*
X170915877Y-116134165D01*
X170915629Y-116134970D01*
X170915299Y-116136014D01*
X170914994Y-116136747D01*
X170913955Y-116140227D01*
X170913655Y-116141199D01*
X170912365Y-116145271D01*
X170912186Y-116146145D01*
X170912113Y-116146392D01*
X170911796Y-116147432D01*
X170911366Y-116148799D01*
X170911092Y-116149465D01*
X170910159Y-116152612D01*
X170909869Y-116153564D01*
X170908443Y-116158103D01*
X170908249Y-116159061D01*
X170908200Y-116159226D01*
X170907951Y-116160042D01*
X170907534Y-116161379D01*
X170907270Y-116162023D01*
X170906326Y-116165235D01*
X170906037Y-116166189D01*
X170904622Y-116170731D01*
X170904435Y-116171670D01*
X170904348Y-116171967D01*
X170904081Y-116172853D01*
X170903737Y-116173966D01*
X170903453Y-116174660D01*
X170902424Y-116178191D01*
X170902142Y-116179131D01*
X170900745Y-116183657D01*
X170900562Y-116184586D01*
X170900454Y-116184954D01*
X170900250Y-116185635D01*
X170899849Y-116186946D01*
X170897123Y-116193793D01*
X170889026Y-116223645D01*
X170888597Y-116225153D01*
X170885621Y-116235124D01*
X170885421Y-116236160D01*
X170881946Y-116247897D01*
X170881754Y-116248907D01*
X170878315Y-116260616D01*
X170878117Y-116261666D01*
X170875856Y-116269430D01*
X170874420Y-116277504D01*
X170826213Y-116455268D01*
X170822964Y-116464387D01*
X170821056Y-116468660D01*
X170819512Y-116475449D01*
X170819324Y-116476014D01*
X170816520Y-116488413D01*
X170816356Y-116488911D01*
X170813089Y-116503436D01*
X170812434Y-116506076D01*
X170803769Y-116538028D01*
X170803449Y-116542692D01*
X170802042Y-116552258D01*
X170799866Y-116561829D01*
X170799789Y-116562300D01*
X170799056Y-116565653D01*
X170798961Y-116566082D01*
X170796997Y-116574768D01*
X170796924Y-116575215D01*
X170796387Y-116577687D01*
X170796289Y-116578126D01*
X170793617Y-116590009D01*
X170793545Y-116590585D01*
X170793491Y-116590832D01*
X170793426Y-116591125D01*
X170792751Y-116594143D01*
X170792619Y-116594604D01*
X170790511Y-116604417D01*
X170790417Y-116604847D01*
X170788059Y-116615452D01*
X170787995Y-116615956D01*
X170787871Y-116616539D01*
X170787766Y-116617023D01*
X170785686Y-116626434D01*
X170785654Y-116626631D01*
X170785646Y-116626667D01*
X170785601Y-116626949D01*
X170785047Y-116629553D01*
X170784958Y-116629962D01*
X170782487Y-116641204D01*
X170782423Y-116641703D01*
X170782115Y-116643159D01*
X170782029Y-116643559D01*
X170779498Y-116655147D01*
X170779435Y-116655670D01*
X170777326Y-116665369D01*
X170777316Y-116665430D01*
X170777015Y-116666821D01*
X170776989Y-116667067D01*
X170776985Y-116667088D01*
X170776678Y-116668596D01*
X170774058Y-116680717D01*
X170773997Y-116681255D01*
X170773906Y-116681691D01*
X170773830Y-116682049D01*
X170773387Y-116684111D01*
X170773377Y-116684149D01*
X170772549Y-116688010D01*
X170772542Y-116688046D01*
X170772464Y-116688412D01*
X170772464Y-116688413D01*
X170771316Y-116693802D01*
X170771261Y-116693790D01*
X170771226Y-116694066D01*
X170771292Y-116694081D01*
X170768652Y-116706438D01*
X170768601Y-116706905D01*
X170768540Y-116707206D01*
X170768421Y-116707778D01*
X170766153Y-116718452D01*
X170766095Y-116718916D01*
X170765778Y-116720467D01*
X170765695Y-116720868D01*
X170763840Y-116729650D01*
X170763826Y-116729739D01*
X170763464Y-116731462D01*
X170763415Y-116731856D01*
X170763304Y-116732402D01*
X170763222Y-116732799D01*
X170760720Y-116744707D01*
X170760662Y-116745207D01*
X170760465Y-116746180D01*
X170760388Y-116746553D01*
X170758079Y-116757608D01*
X170758022Y-116758100D01*
X170757946Y-116758478D01*
X170757864Y-116758879D01*
X170756905Y-116763492D01*
X170756859Y-116763684D01*
X170756553Y-116765185D01*
X170756545Y-116765227D01*
X170756544Y-116765230D01*
X170756521Y-116765338D01*
X170756514Y-116765376D01*
X170755576Y-116769915D01*
X170755525Y-116770321D01*
X170755295Y-116771474D01*
X170755232Y-116771783D01*
X170753969Y-116777896D01*
X170752766Y-116783715D01*
X170752713Y-116784203D01*
X170752574Y-116784903D01*
X170752491Y-116785316D01*
X170751689Y-116789217D01*
X170751623Y-116789498D01*
X170751365Y-116790793D01*
X170751303Y-116791097D01*
X170750114Y-116796898D01*
X170750067Y-116797350D01*
X170750032Y-116797527D01*
X170749955Y-116797911D01*
X170749552Y-116799884D01*
X170749447Y-116800271D01*
X170748751Y-116803798D01*
X170748681Y-116804147D01*
X170747699Y-116808973D01*
X170747652Y-116809378D01*
X170747507Y-116810115D01*
X170747432Y-116810490D01*
X170744876Y-116823074D01*
X170744822Y-116823595D01*
X170744665Y-116824373D01*
X170744546Y-116824783D01*
X170743531Y-116829986D01*
X170743473Y-116830281D01*
X170742948Y-116832899D01*
X170742902Y-116833219D01*
X170742362Y-116835997D01*
X170742287Y-116836376D01*
X170739886Y-116848332D01*
X170739830Y-116848857D01*
X170739816Y-116848928D01*
X170739789Y-116849067D01*
X170739357Y-116851224D01*
X170739254Y-116851610D01*
X170738523Y-116855392D01*
X170738459Y-116855720D01*
X170737273Y-116861676D01*
X170737230Y-116862123D01*
X170737187Y-116862348D01*
X170737183Y-116862347D01*
X170737060Y-116862776D01*
X170735930Y-116868669D01*
X170735897Y-116868843D01*
X170735352Y-116871638D01*
X170735322Y-116871849D01*
X170734744Y-116874875D01*
X170734686Y-116875175D01*
X170734676Y-116875226D01*
X170733605Y-116878884D01*
X170727308Y-116913450D01*
X170727174Y-116914160D01*
X170724847Y-116926143D01*
X170724805Y-116926587D01*
X170722413Y-116938967D01*
X170722365Y-116939475D01*
X170719972Y-116951935D01*
X170719928Y-116952415D01*
X170717953Y-116962753D01*
X170717613Y-116966679D01*
X170684931Y-117146110D01*
X170682425Y-117155254D01*
X170681272Y-117162465D01*
X170681206Y-117162722D01*
X170679233Y-117175095D01*
X170679158Y-117175385D01*
X170677195Y-117187750D01*
X170677138Y-117187972D01*
X170676105Y-117194475D01*
X170675868Y-117195865D01*
X170669169Y-117232649D01*
X170668186Y-117240101D01*
X170668822Y-117240201D01*
X170668074Y-117244969D01*
X170668050Y-117245122D01*
X170666792Y-117253007D01*
X170666787Y-117253107D01*
X170666162Y-117257103D01*
X170666137Y-117257266D01*
X170664848Y-117265363D01*
X170664838Y-117265524D01*
X170664164Y-117269847D01*
X170664140Y-117269997D01*
X170662825Y-117278292D01*
X170662820Y-117278384D01*
X170662119Y-117282904D01*
X170662094Y-117283063D01*
X170661140Y-117289111D01*
X170661126Y-117289165D01*
X170661021Y-117289859D01*
X170660982Y-117290112D01*
X170660891Y-117290687D01*
X170660890Y-117290709D01*
X170660000Y-117296518D01*
X170659961Y-117296769D01*
X170659114Y-117302149D01*
X170659084Y-117302334D01*
X170659085Y-117302335D01*
X170658992Y-117302928D01*
X170658990Y-117302960D01*
X170658163Y-117308362D01*
X170658131Y-117308573D01*
X170656955Y-117316077D01*
X170656953Y-117316126D01*
X170656214Y-117320964D01*
X170656182Y-117321173D01*
X170655213Y-117327372D01*
X170655203Y-117327443D01*
X170655090Y-117328165D01*
X170655089Y-117328187D01*
X170654146Y-117334382D01*
X170654122Y-117334543D01*
X170653393Y-117339250D01*
X170653382Y-117339293D01*
X170652528Y-117344924D01*
X170652528Y-117344926D01*
X170652328Y-117346239D01*
X170652325Y-117346264D01*
X170651184Y-117353624D01*
X170651169Y-117353861D01*
X170649268Y-117366152D01*
X170649262Y-117366254D01*
X170648692Y-117370043D01*
X170648692Y-117370045D01*
X170648441Y-117371714D01*
X170648441Y-117371715D01*
X170647577Y-117377334D01*
X170647562Y-117377393D01*
X170646446Y-117384860D01*
X170646412Y-117385087D01*
X170645496Y-117391057D01*
X170645481Y-117391292D01*
X170645454Y-117391472D01*
X170645394Y-117391758D01*
X170644893Y-117395131D01*
X170644823Y-117395602D01*
X170644375Y-117398533D01*
X170644375Y-117398534D01*
X170643840Y-117402035D01*
X170643829Y-117402078D01*
X170643713Y-117402859D01*
X170643688Y-117403024D01*
X170643545Y-117403960D01*
X170643542Y-117404009D01*
X170642835Y-117408784D01*
X170642795Y-117409049D01*
X170641682Y-117416347D01*
X170641678Y-117416420D01*
X170641117Y-117420215D01*
X170641116Y-117420218D01*
X170640845Y-117422050D01*
X170640845Y-117422052D01*
X170639784Y-117429052D01*
X170639781Y-117429101D01*
X170639242Y-117432745D01*
X170639242Y-117432746D01*
X170639042Y-117434096D01*
X170638717Y-117436251D01*
X170637824Y-117442172D01*
X170637820Y-117442252D01*
X170637239Y-117446174D01*
X170637220Y-117446304D01*
X170635988Y-117454494D01*
X170635984Y-117454574D01*
X170635347Y-117458927D01*
X170635315Y-117459148D01*
X170634508Y-117464528D01*
X170634498Y-117464568D01*
X170634387Y-117465332D01*
X170634355Y-117465550D01*
X170634106Y-117467205D01*
X170634103Y-117467273D01*
X170633659Y-117470312D01*
X170633659Y-117470313D01*
X170633355Y-117472392D01*
X170633125Y-117473934D01*
X170632504Y-117478095D01*
X170632491Y-117478154D01*
X170632365Y-117479021D01*
X170632364Y-117479030D01*
X170632330Y-117479256D01*
X170632330Y-117479269D01*
X170631697Y-117483627D01*
X170631664Y-117483851D01*
X170630771Y-117489846D01*
X170630767Y-117489863D01*
X170630739Y-117490056D01*
X170630721Y-117490183D01*
X170630477Y-117491820D01*
X170630474Y-117491881D01*
X170629719Y-117497081D01*
X170629694Y-117497255D01*
X170628566Y-117504872D01*
X170628562Y-117504955D01*
X170627971Y-117509031D01*
X170627947Y-117509198D01*
X170627154Y-117514565D01*
X170627144Y-117514605D01*
X170626985Y-117515713D01*
X170626958Y-117515897D01*
X170626764Y-117517208D01*
X170626762Y-117517259D01*
X170626318Y-117520337D01*
X170626318Y-117520339D01*
X170626103Y-117521831D01*
X170625963Y-117522782D01*
X170625243Y-117527668D01*
X170625236Y-117527697D01*
X170625200Y-117527953D01*
X170625173Y-117528141D01*
X170624914Y-117529896D01*
X170624911Y-117529961D01*
X170624232Y-117534688D01*
X170624205Y-117534876D01*
X170623455Y-117539987D01*
X170623449Y-117540016D01*
X170623407Y-117540312D01*
X170623387Y-117540453D01*
X170623129Y-117542212D01*
X170623126Y-117542273D01*
X170622526Y-117546468D01*
X170622497Y-117546673D01*
X170621708Y-117552062D01*
X170621319Y-117553654D01*
X170616209Y-117590452D01*
X170616162Y-117590779D01*
X170614113Y-117604976D01*
X170614101Y-117605225D01*
X170612336Y-117617492D01*
X170612326Y-117617713D01*
X170610555Y-117630068D01*
X170610546Y-117630282D01*
X170608924Y-117641629D01*
X170608847Y-117643470D01*
X170584820Y-117816492D01*
X170583859Y-117820572D01*
X170582566Y-117830560D01*
X170582544Y-117830656D01*
X170580968Y-117842840D01*
X170580931Y-117843006D01*
X170579317Y-117855517D01*
X170579289Y-117855642D01*
X170578133Y-117864626D01*
X170578051Y-117865238D01*
X170572551Y-117904847D01*
X170572410Y-117908930D01*
X170571805Y-117913665D01*
X170571795Y-117913745D01*
X170570817Y-117921319D01*
X170570815Y-117921386D01*
X170569242Y-117933557D01*
X170569240Y-117933625D01*
X170568655Y-117938223D01*
X170568643Y-117938321D01*
X170567659Y-117945954D01*
X170567657Y-117946011D01*
X170567121Y-117950235D01*
X170567108Y-117950333D01*
X170566164Y-117957678D01*
X170566159Y-117957775D01*
X170564473Y-117970907D01*
X170564470Y-117970985D01*
X170564008Y-117974628D01*
X170564001Y-117974688D01*
X170562921Y-117983131D01*
X170562920Y-117983178D01*
X170562393Y-117987344D01*
X170562385Y-117987404D01*
X170561444Y-117994779D01*
X170561442Y-117994822D01*
X170560753Y-118000280D01*
X170560746Y-118000332D01*
X170559703Y-118008539D01*
X170559702Y-118008538D01*
X170559700Y-118008561D01*
X170559518Y-118009995D01*
X170559518Y-118009997D01*
X170559466Y-118010404D01*
X170559463Y-118010431D01*
X170558159Y-118020670D01*
X170558157Y-118020751D01*
X170557579Y-118025346D01*
X170557572Y-118025407D01*
X170557043Y-118029578D01*
X170557043Y-118029581D01*
X170556963Y-118030216D01*
X170556959Y-118030244D01*
X170556800Y-118031499D01*
X170556799Y-118031520D01*
X170556381Y-118034835D01*
X170556381Y-118034837D01*
X170556181Y-118036425D01*
X170556181Y-118036426D01*
X170555073Y-118045171D01*
X170555071Y-118045246D01*
X170553483Y-118057778D01*
X170553481Y-118057852D01*
X170553000Y-118061706D01*
X170552988Y-118061799D01*
X170552016Y-118069488D01*
X170552014Y-118069530D01*
X170551479Y-118073816D01*
X170551470Y-118073882D01*
X170550499Y-118081588D01*
X170550497Y-118081633D01*
X170550129Y-118084578D01*
X170550129Y-118084579D01*
X170549948Y-118086025D01*
X170549751Y-118087586D01*
X170549218Y-118091829D01*
X170549213Y-118091852D01*
X170549046Y-118093199D01*
X170549042Y-118093235D01*
X170548854Y-118094728D01*
X170548854Y-118094744D01*
X170548184Y-118100147D01*
X170548171Y-118100251D01*
X170547307Y-118107117D01*
X170547306Y-118107164D01*
X170547021Y-118109468D01*
X170547021Y-118109469D01*
X170546963Y-118109937D01*
X170546461Y-118113940D01*
X170545789Y-118119294D01*
X170545788Y-118119317D01*
X170545213Y-118123964D01*
X170545202Y-118124054D01*
X170544197Y-118132072D01*
X170544195Y-118132136D01*
X170542712Y-118143985D01*
X170542710Y-118144043D01*
X170542133Y-118148723D01*
X170542122Y-118148812D01*
X170541119Y-118156850D01*
X170541116Y-118156920D01*
X170540674Y-118160506D01*
X170540664Y-118160586D01*
X170539666Y-118168593D01*
X170539665Y-118168618D01*
X170538982Y-118174161D01*
X170538974Y-118174221D01*
X170538188Y-118180541D01*
X170538187Y-118180574D01*
X170537537Y-118185857D01*
X170537528Y-118185932D01*
X170536828Y-118191565D01*
X170536824Y-118191583D01*
X170536581Y-118193563D01*
X170536576Y-118193602D01*
X170536495Y-118194253D01*
X170536495Y-118194260D01*
X170536031Y-118198034D01*
X170536023Y-118198095D01*
X170535052Y-118205929D01*
X170535050Y-118205962D01*
X170534346Y-118211701D01*
X170534338Y-118211762D01*
X170533825Y-118215910D01*
X170533694Y-118216504D01*
X170533023Y-118222051D01*
X170529589Y-118250424D01*
X170529525Y-118250946D01*
X170529317Y-118252635D01*
X170529306Y-118252758D01*
X170529088Y-118254563D01*
X170529088Y-118254564D01*
X170527333Y-118268825D01*
X170527331Y-118268883D01*
X170525754Y-118281718D01*
X170525751Y-118281834D01*
X170524271Y-118293904D01*
X170524268Y-118294002D01*
X170522725Y-118306607D01*
X170522710Y-118307261D01*
X170501401Y-118483330D01*
X170501132Y-118484557D01*
X170495869Y-118529054D01*
X170495849Y-118529223D01*
X170490447Y-118573848D01*
X170490422Y-118575070D01*
X170488986Y-118587196D01*
X170488986Y-118587198D01*
X170488330Y-118592732D01*
X170488112Y-118594576D01*
X170488112Y-118594577D01*
X170485836Y-118613781D01*
X170485835Y-118613783D01*
X170483803Y-118630922D01*
X170483803Y-118630928D01*
X170481951Y-118646537D01*
X170481950Y-118646540D01*
X170481158Y-118653212D01*
X170481158Y-118653218D01*
X170478986Y-118671501D01*
X170478986Y-118671502D01*
X170478985Y-118671501D01*
X170478525Y-118675380D01*
X170478523Y-118675399D01*
X170475365Y-118701933D01*
X170474400Y-118710042D01*
X170473518Y-118717454D01*
X170473516Y-118717474D01*
X170471218Y-118736734D01*
X170471219Y-118736735D01*
X170471217Y-118736752D01*
X170470988Y-118738674D01*
X170468745Y-118757459D01*
X170466960Y-118772388D01*
X170466419Y-118776910D01*
X170465408Y-118785367D01*
X170465407Y-118785375D01*
X170463665Y-118799924D01*
X170463664Y-118799930D01*
X170462835Y-118806848D01*
X170462834Y-118806858D01*
X170461011Y-118822055D01*
X170460413Y-118827036D01*
X170458633Y-118841851D01*
X170455771Y-118865623D01*
X170454417Y-118876856D01*
X170452912Y-118889326D01*
X170451555Y-118900560D01*
X170451029Y-118904910D01*
X170451028Y-118904917D01*
X170449779Y-118915244D01*
X170449777Y-118915257D01*
X170448351Y-118927028D01*
X170448350Y-118927040D01*
X170446200Y-118944758D01*
X170446189Y-118944843D01*
X170411270Y-119229338D01*
X170411223Y-119229715D01*
X170409581Y-119242434D01*
X170407689Y-119257044D01*
X170407664Y-119257237D01*
X170405918Y-119270663D01*
X170405915Y-119270688D01*
X170404404Y-119282267D01*
X170404400Y-119282298D01*
X170402504Y-119296772D01*
X170402500Y-119296802D01*
X170400656Y-119310825D01*
X170400652Y-119310855D01*
X170398851Y-119324500D01*
X170398847Y-119324530D01*
X170396991Y-119338540D01*
X170396986Y-119338577D01*
X170395118Y-119352613D01*
X170395114Y-119352643D01*
X170393301Y-119366216D01*
X170393297Y-119366246D01*
X170391349Y-119380775D01*
X170391344Y-119380811D01*
X170390975Y-119383549D01*
X170389445Y-119394912D01*
X170387779Y-119407241D01*
X170385715Y-119422452D01*
X170383835Y-119436244D01*
X170381784Y-119451241D01*
X170380013Y-119464127D01*
X170380013Y-119464129D01*
X170378145Y-119477666D01*
X170378141Y-119477697D01*
X170376187Y-119491805D01*
X170376182Y-119491841D01*
X170374071Y-119507016D01*
X170374066Y-119507053D01*
X170372202Y-119520398D01*
X170372117Y-119521003D01*
X170370780Y-119530532D01*
X170370201Y-119534658D01*
X170370196Y-119534693D01*
X170368164Y-119549115D01*
X170368159Y-119549150D01*
X170366181Y-119563131D01*
X170366175Y-119563173D01*
X170364039Y-119578198D01*
X170364035Y-119578227D01*
X170362283Y-119590509D01*
X170362277Y-119590551D01*
X170361695Y-119594610D01*
X170360164Y-119605292D01*
X170357990Y-119620398D01*
X170356544Y-119630409D01*
X170356096Y-119633507D01*
X170356089Y-119633554D01*
X170353899Y-119648633D01*
X170353894Y-119648668D01*
X170351980Y-119661794D01*
X170351974Y-119661837D01*
X170349851Y-119676326D01*
X170349802Y-119676653D01*
X170303148Y-119983734D01*
X170302968Y-119984848D01*
X170300891Y-119997027D01*
X170298443Y-120011292D01*
X170295766Y-120026787D01*
X170293335Y-120040783D01*
X170293183Y-120041656D01*
X170293172Y-120041716D01*
X170292986Y-120042779D01*
X170290666Y-120056058D01*
X170288004Y-120071186D01*
X170285430Y-120085727D01*
X170282719Y-120100945D01*
X170280156Y-120115247D01*
X170277493Y-120130018D01*
X170276687Y-120134461D01*
X170274706Y-120145373D01*
X170274695Y-120145433D01*
X170272841Y-120155588D01*
X170271953Y-120160454D01*
X170271337Y-120163807D01*
X170269321Y-120174779D01*
X170269310Y-120174839D01*
X170266575Y-120189642D01*
X170266562Y-120189710D01*
X170265536Y-120195228D01*
X170263848Y-120204309D01*
X170262993Y-120208878D01*
X170260921Y-120219947D01*
X170260910Y-120220005D01*
X170258372Y-120233492D01*
X170258358Y-120233564D01*
X170255316Y-120249626D01*
X170255302Y-120249700D01*
X170252585Y-120263952D01*
X170252572Y-120264023D01*
X170249643Y-120279291D01*
X170249631Y-120279355D01*
X170246844Y-120293802D01*
X170246831Y-120293867D01*
X170245531Y-120300565D01*
X170243916Y-120308889D01*
X170240869Y-120324485D01*
X170238012Y-120339023D01*
X170235008Y-120354213D01*
X170232069Y-120368992D01*
X170229096Y-120383845D01*
X170226104Y-120398699D01*
X170226090Y-120398769D01*
X170222978Y-120414128D01*
X170222963Y-120414202D01*
X170219891Y-120429270D01*
X170219876Y-120429343D01*
X170216842Y-120444135D01*
X170216827Y-120444209D01*
X170213964Y-120458082D01*
X170213832Y-120458705D01*
X170143927Y-120780827D01*
X170143458Y-120782828D01*
X170140629Y-120794067D01*
X170140629Y-120794069D01*
X170136831Y-120809050D01*
X170133287Y-120822937D01*
X170132944Y-120824282D01*
X170132917Y-120824388D01*
X170129017Y-120839558D01*
X170128991Y-120839656D01*
X170125102Y-120854682D01*
X170125076Y-120854784D01*
X170121122Y-120869956D01*
X170117146Y-120885100D01*
X170113130Y-120900300D01*
X170109003Y-120915800D01*
X170105007Y-120930713D01*
X170103760Y-120935334D01*
X170100978Y-120945646D01*
X170100950Y-120945747D01*
X170096866Y-120960782D01*
X170096836Y-120960893D01*
X170092662Y-120976149D01*
X170091471Y-120980472D01*
X170088488Y-120991300D01*
X170088460Y-120991402D01*
X170084270Y-121006510D01*
X170084240Y-121006617D01*
X170080029Y-121021697D01*
X170079999Y-121021803D01*
X170075770Y-121036845D01*
X170075741Y-121036947D01*
X170074409Y-121041654D01*
X170071511Y-121051895D01*
X170067059Y-121067511D01*
X170062846Y-121082191D01*
X170062817Y-121082292D01*
X170058484Y-121097294D01*
X170058451Y-121097405D01*
X170054002Y-121112702D01*
X170053971Y-121112811D01*
X170049509Y-121128050D01*
X170049475Y-121128163D01*
X170045199Y-121142665D01*
X170045169Y-121142769D01*
X170040608Y-121158139D01*
X170036155Y-121173041D01*
X170031547Y-121188361D01*
X170026990Y-121203406D01*
X170023209Y-121215812D01*
X170022404Y-121218452D01*
X170022370Y-121218563D01*
X170017649Y-121233946D01*
X170017614Y-121234058D01*
X170013096Y-121248682D01*
X170013061Y-121248794D01*
X170008915Y-121262125D01*
X170008611Y-121263077D01*
X169903187Y-121583877D01*
X169902131Y-121586836D01*
X169898922Y-121595164D01*
X169898920Y-121595170D01*
X169892908Y-121610656D01*
X169887244Y-121625141D01*
X169881468Y-121639805D01*
X169875490Y-121654879D01*
X169869749Y-121669250D01*
X169863770Y-121684106D01*
X169857939Y-121698495D01*
X169857881Y-121698636D01*
X169851838Y-121713443D01*
X169851780Y-121713586D01*
X169845874Y-121727956D01*
X169839814Y-121742596D01*
X169833738Y-121757170D01*
X169827633Y-121771716D01*
X169823446Y-121781620D01*
X169821567Y-121786064D01*
X169821506Y-121786207D01*
X169815356Y-121800652D01*
X169815294Y-121800797D01*
X169809104Y-121815235D01*
X169809042Y-121815380D01*
X169802768Y-121829912D01*
X169802703Y-121830061D01*
X169796596Y-121844106D01*
X169796532Y-121844253D01*
X169790102Y-121858938D01*
X169790039Y-121859082D01*
X169783829Y-121873168D01*
X169783761Y-121873322D01*
X169777339Y-121887783D01*
X169777274Y-121887927D01*
X169770848Y-121902299D01*
X169770848Y-121902300D01*
X169764322Y-121916795D01*
X169759327Y-121927812D01*
X169757916Y-121930925D01*
X169757851Y-121931066D01*
X169752337Y-121943148D01*
X169751400Y-121945202D01*
X169744657Y-121959867D01*
X169738073Y-121974094D01*
X169731443Y-121988318D01*
X169724687Y-122002714D01*
X169718015Y-122016834D01*
X169717942Y-122016987D01*
X169711290Y-122030966D01*
X169711218Y-122031117D01*
X169705526Y-122042997D01*
X169704897Y-122044272D01*
X169553036Y-122343557D01*
X169550904Y-122347415D01*
X169547478Y-122353129D01*
X169547381Y-122353291D01*
X169539478Y-122366382D01*
X169539370Y-122366560D01*
X169531354Y-122379739D01*
X169531251Y-122379909D01*
X169523118Y-122393185D01*
X169523008Y-122393362D01*
X169514856Y-122406570D01*
X169514799Y-122406661D01*
X169506740Y-122419626D01*
X169506630Y-122419802D01*
X169498261Y-122433164D01*
X169498157Y-122433329D01*
X169490071Y-122446150D01*
X169489963Y-122446322D01*
X169481593Y-122459498D01*
X169481479Y-122459676D01*
X169473182Y-122472640D01*
X169473073Y-122472809D01*
X169464859Y-122485553D01*
X169464743Y-122485732D01*
X169456223Y-122498852D01*
X169456117Y-122499016D01*
X169447739Y-122511827D01*
X169447691Y-122511900D01*
X169440390Y-122522983D01*
X169439031Y-122525046D01*
X169437865Y-122526803D01*
X169430561Y-122537811D01*
X169430445Y-122537984D01*
X169421734Y-122551017D01*
X169421624Y-122551181D01*
X169413181Y-122563727D01*
X169413059Y-122563908D01*
X169404340Y-122576767D01*
X169404222Y-122576941D01*
X169395633Y-122589517D01*
X169395518Y-122589685D01*
X169386730Y-122602463D01*
X169386609Y-122602637D01*
X169377759Y-122615412D01*
X169377668Y-122615542D01*
X169368904Y-122628102D01*
X169359876Y-122640949D01*
X169350961Y-122653543D01*
X169341809Y-122666380D01*
X169332877Y-122678817D01*
X169332829Y-122678884D01*
X169323817Y-122691347D01*
X169323685Y-122691530D01*
X169314423Y-122704242D01*
X169314300Y-122704410D01*
X169305309Y-122716664D01*
X169305186Y-122716832D01*
X169305069Y-122716991D01*
X169296008Y-122729253D01*
X169286806Y-122741619D01*
X169286673Y-122741796D01*
X169279450Y-122751431D01*
X169278336Y-122752873D01*
X169071600Y-123012521D01*
X169068018Y-123016638D01*
X169064953Y-123019864D01*
X169054171Y-123031126D01*
X169054160Y-123031138D01*
X169043234Y-123042466D01*
X169043089Y-123042615D01*
X169032550Y-123053462D01*
X169021407Y-123064842D01*
X169015540Y-123070790D01*
X169010710Y-123075686D01*
X169010541Y-123075857D01*
X168999507Y-123086957D01*
X168999344Y-123087120D01*
X168988671Y-123097778D01*
X168988498Y-123097951D01*
X168977286Y-123109060D01*
X168977123Y-123109220D01*
X168966395Y-123119772D01*
X168966225Y-123119939D01*
X168954910Y-123130984D01*
X168954742Y-123131148D01*
X168943807Y-123141742D01*
X168943641Y-123141901D01*
X168934296Y-123150887D01*
X168932523Y-123152593D01*
X168921042Y-123163549D01*
X168909700Y-123174291D01*
X168898390Y-123184923D01*
X168898290Y-123185017D01*
X168887122Y-123195438D01*
X168886949Y-123195600D01*
X168875349Y-123206342D01*
X168863660Y-123217082D01*
X168852202Y-123227534D01*
X168840474Y-123238151D01*
X168828834Y-123248608D01*
X168817013Y-123259149D01*
X168817010Y-123259152D01*
X168805224Y-123269581D01*
X168805054Y-123269731D01*
X168793682Y-123279720D01*
X168793504Y-123279875D01*
X168781607Y-123290246D01*
X168781430Y-123290401D01*
X168769656Y-123300587D01*
X168769480Y-123300738D01*
X168757762Y-123310800D01*
X168757580Y-123310956D01*
X168745646Y-123321124D01*
X168745466Y-123321276D01*
X168733605Y-123331305D01*
X168733436Y-123331448D01*
X168721555Y-123341422D01*
X168721371Y-123341575D01*
X168712205Y-123349210D01*
X168710668Y-123350451D01*
X168443106Y-123559360D01*
X168438534Y-123562610D01*
X168434478Y-123565227D01*
X168434475Y-123565229D01*
X168420808Y-123573976D01*
X168420625Y-123574092D01*
X168406980Y-123582759D01*
X168403081Y-123585216D01*
X168393231Y-123591423D01*
X168393043Y-123591541D01*
X168379327Y-123600116D01*
X168379135Y-123600235D01*
X168365495Y-123608694D01*
X168365349Y-123608784D01*
X168351313Y-123617421D01*
X168337480Y-123625865D01*
X168323360Y-123634416D01*
X168319363Y-123636818D01*
X168309249Y-123642895D01*
X168309064Y-123643005D01*
X168295529Y-123651074D01*
X168295337Y-123651188D01*
X168281054Y-123659634D01*
X168280872Y-123659741D01*
X168266749Y-123668028D01*
X168266557Y-123668141D01*
X168252500Y-123676322D01*
X168252312Y-123676431D01*
X168238213Y-123684571D01*
X168238029Y-123684676D01*
X168223763Y-123692848D01*
X168223662Y-123692906D01*
X168209349Y-123701041D01*
X168194826Y-123709228D01*
X168185067Y-123714684D01*
X168180591Y-123717188D01*
X168180408Y-123717290D01*
X168165825Y-123725380D01*
X168151134Y-123733465D01*
X168136459Y-123741476D01*
X168122022Y-123749293D01*
X168121946Y-123749334D01*
X168107166Y-123757272D01*
X168106982Y-123757371D01*
X168092276Y-123765206D01*
X168092100Y-123765299D01*
X168077502Y-123773017D01*
X168077306Y-123773120D01*
X168062658Y-123780798D01*
X168062479Y-123780892D01*
X168049080Y-123787859D01*
X168047821Y-123788515D01*
X168032831Y-123796248D01*
X168017677Y-123804001D01*
X168017494Y-123804094D01*
X168002794Y-123811554D01*
X168002612Y-123811646D01*
X167990486Y-123817750D01*
X167988932Y-123818505D01*
X167658394Y-123973596D01*
X167654082Y-123975426D01*
X167652616Y-123975984D01*
X167646646Y-123978256D01*
X167629820Y-123984607D01*
X167629652Y-123984670D01*
X167613181Y-123990833D01*
X167613031Y-123990889D01*
X167596456Y-123997039D01*
X167596418Y-123997054D01*
X167579643Y-124003226D01*
X167579487Y-124003283D01*
X167562806Y-124009370D01*
X167562640Y-124009430D01*
X167545944Y-124015469D01*
X167545778Y-124015529D01*
X167529104Y-124021507D01*
X167528956Y-124021560D01*
X167512211Y-124027516D01*
X167512047Y-124027574D01*
X167495213Y-124033509D01*
X167495054Y-124033565D01*
X167478249Y-124039439D01*
X167478120Y-124039484D01*
X167461165Y-124045358D01*
X167461092Y-124045384D01*
X167444075Y-124051230D01*
X167443919Y-124051284D01*
X167426825Y-124057106D01*
X167409591Y-124062925D01*
X167392363Y-124068692D01*
X167392303Y-124068712D01*
X167375316Y-124074348D01*
X167375167Y-124074398D01*
X167357692Y-124080147D01*
X167340443Y-124085771D01*
X167323289Y-124091316D01*
X167323132Y-124091367D01*
X167305398Y-124097048D01*
X167305248Y-124097095D01*
X167288430Y-124102436D01*
X167288298Y-124102478D01*
X167270527Y-124108072D01*
X167265957Y-124109498D01*
X167253114Y-124113505D01*
X167253049Y-124113525D01*
X167235581Y-124118927D01*
X167217809Y-124124374D01*
X167200207Y-124129722D01*
X167182621Y-124135016D01*
X167164672Y-124140372D01*
X167147125Y-124145561D01*
X167146973Y-124145606D01*
X167129190Y-124150816D01*
X167129049Y-124150857D01*
X167113685Y-124155319D01*
X167112456Y-124155663D01*
X166723928Y-124259945D01*
X166720660Y-124260728D01*
X166708253Y-124263353D01*
X166708206Y-124263362D01*
X166708137Y-124263377D01*
X166689335Y-124267317D01*
X166689222Y-124267341D01*
X166669977Y-124271337D01*
X166669865Y-124271360D01*
X166650684Y-124275306D01*
X166650570Y-124275329D01*
X166631608Y-124279193D01*
X166631493Y-124279217D01*
X166612140Y-124283123D01*
X166612027Y-124283145D01*
X166592759Y-124286997D01*
X166592646Y-124287020D01*
X166573191Y-124290872D01*
X166554134Y-124294609D01*
X166554038Y-124294628D01*
X166534573Y-124298409D01*
X166534466Y-124298430D01*
X166514927Y-124302190D01*
X166514814Y-124302211D01*
X166495983Y-124305799D01*
X166495871Y-124305821D01*
X166475876Y-124309593D01*
X166456757Y-124313167D01*
X166456711Y-124313175D01*
X166456642Y-124313188D01*
X166437024Y-124316817D01*
X166436920Y-124316836D01*
X166417404Y-124320412D01*
X166417300Y-124320431D01*
X166397933Y-124323946D01*
X166397824Y-124323966D01*
X166378093Y-124327511D01*
X166377987Y-124327530D01*
X166358700Y-124330961D01*
X166358606Y-124330977D01*
X166338702Y-124334485D01*
X166338648Y-124334494D01*
X166338592Y-124334504D01*
X166318742Y-124337965D01*
X166299008Y-124341373D01*
X166279447Y-124344716D01*
X166279346Y-124344733D01*
X166277975Y-124344965D01*
X166259393Y-124348109D01*
X166242240Y-124350981D01*
X166239623Y-124351420D01*
X166239528Y-124351436D01*
X166219915Y-124354689D01*
X166219809Y-124354706D01*
X166200011Y-124357955D01*
X166199910Y-124357972D01*
X166179691Y-124361256D01*
X166179595Y-124361271D01*
X166159965Y-124364428D01*
X166159860Y-124364445D01*
X166139455Y-124367691D01*
X166139359Y-124367706D01*
X166119878Y-124370774D01*
X166119780Y-124370789D01*
X166101314Y-124373667D01*
X166100486Y-124373791D01*
X165667096Y-124435402D01*
X165664960Y-124435668D01*
X165648457Y-124437437D01*
X165648387Y-124437445D01*
X165627641Y-124439645D01*
X165627574Y-124439652D01*
X165606500Y-124441864D01*
X165606432Y-124441871D01*
X165598614Y-124442682D01*
X165585284Y-124444067D01*
X165585259Y-124444069D01*
X165585214Y-124444074D01*
X165571877Y-124445443D01*
X165564579Y-124446193D01*
X165564556Y-124446195D01*
X165564508Y-124446200D01*
X165543389Y-124448344D01*
X165543326Y-124448351D01*
X165522003Y-124450494D01*
X165521934Y-124450501D01*
X165501850Y-124452497D01*
X165501780Y-124452504D01*
X165479765Y-124454667D01*
X165479703Y-124454673D01*
X165459290Y-124456658D01*
X165459220Y-124456664D01*
X165438182Y-124458686D01*
X165438121Y-124458692D01*
X165416924Y-124460708D01*
X165416852Y-124460715D01*
X165395585Y-124462713D01*
X165395524Y-124462719D01*
X165374976Y-124464629D01*
X165374907Y-124464635D01*
X165353358Y-124466614D01*
X165353297Y-124466620D01*
X165332088Y-124468547D01*
X165332027Y-124468552D01*
X165310908Y-124470450D01*
X165310840Y-124470456D01*
X165290709Y-124472243D01*
X165290644Y-124472249D01*
X165268012Y-124474234D01*
X165267954Y-124474239D01*
X165247718Y-124475995D01*
X165247655Y-124476000D01*
X165226130Y-124477846D01*
X165226066Y-124477852D01*
X165204665Y-124479665D01*
X165204605Y-124479670D01*
X165183517Y-124481436D01*
X165183453Y-124481441D01*
X165162091Y-124483208D01*
X165162034Y-124483213D01*
X165140661Y-124484961D01*
X165140598Y-124484966D01*
X165119628Y-124486660D01*
X165119570Y-124486665D01*
X165098503Y-124488347D01*
X165098443Y-124488352D01*
X165076761Y-124490062D01*
X165076701Y-124490066D01*
X165055660Y-124491705D01*
X165055603Y-124491710D01*
X165034012Y-124493372D01*
X165033955Y-124493376D01*
X165016743Y-124494685D01*
X165012825Y-124494983D01*
X164992071Y-124496541D01*
X164991677Y-124496569D01*
X164532582Y-124527426D01*
X164531365Y-124527496D01*
X164512913Y-124528375D01*
X164512880Y-124528377D01*
X164489656Y-124529471D01*
X164489617Y-124529473D01*
X164469545Y-124530406D01*
X164469511Y-124530407D01*
X164447026Y-124531440D01*
X164446990Y-124531442D01*
X164424194Y-124532476D01*
X164424162Y-124532477D01*
X164403847Y-124533388D01*
X164403811Y-124533390D01*
X164381152Y-124534393D01*
X164381117Y-124534394D01*
X164360709Y-124535286D01*
X164360672Y-124535288D01*
X164337569Y-124536284D01*
X164337539Y-124536285D01*
X164316260Y-124537192D01*
X164316224Y-124537194D01*
X164295492Y-124538066D01*
X164295460Y-124538067D01*
X164273218Y-124538991D01*
X164273185Y-124538993D01*
X164249947Y-124539946D01*
X164249914Y-124539947D01*
X164231972Y-124540673D01*
X164229806Y-124540761D01*
X164229802Y-124540761D01*
X164229774Y-124540762D01*
X164211455Y-124541494D01*
X164207875Y-124541637D01*
X164207871Y-124541637D01*
X164207843Y-124541638D01*
X164186410Y-124542483D01*
X164186379Y-124542485D01*
X164164566Y-124543334D01*
X164164537Y-124543335D01*
X164142411Y-124544186D01*
X164142378Y-124544187D01*
X164123317Y-124544909D01*
X164120438Y-124545019D01*
X164120431Y-124545019D01*
X164120408Y-124545020D01*
X164100320Y-124545772D01*
X164100283Y-124545774D01*
X164077078Y-124546629D01*
X164077053Y-124546630D01*
X164055262Y-124547424D01*
X164055233Y-124547425D01*
X164035304Y-124548142D01*
X164035271Y-124548143D01*
X164012084Y-124548965D01*
X164012057Y-124548966D01*
X163990953Y-124549705D01*
X163990920Y-124549706D01*
X163972854Y-124550328D01*
X163968324Y-124550485D01*
X163968312Y-124550485D01*
X163968293Y-124550486D01*
X163948100Y-124551172D01*
X163948077Y-124551173D01*
X163926200Y-124551908D01*
X163926170Y-124551909D01*
X163903589Y-124552657D01*
X163903557Y-124552658D01*
X163883375Y-124553316D01*
X163883348Y-124553317D01*
X163860105Y-124554065D01*
X163860082Y-124554065D01*
X163839710Y-124554713D01*
X163839467Y-124554721D01*
X163378662Y-124567586D01*
X163378114Y-124567599D01*
X163361191Y-124567923D01*
X163361178Y-124567923D01*
X163334784Y-124568422D01*
X163332753Y-124568461D01*
X163332743Y-124568461D01*
X163315920Y-124568776D01*
X163314237Y-124568808D01*
X163314229Y-124568808D01*
X163299280Y-124569086D01*
X163297411Y-124569121D01*
X163297395Y-124569121D01*
X163269210Y-124569638D01*
X163269201Y-124569639D01*
X163254807Y-124569901D01*
X163254794Y-124569901D01*
X163230005Y-124570347D01*
X163229995Y-124570347D01*
X163205879Y-124570777D01*
X163205867Y-124570777D01*
X163191348Y-124571033D01*
X163189986Y-124571057D01*
X163189976Y-124571057D01*
X163166031Y-124571475D01*
X163166022Y-124571476D01*
X163144767Y-124571844D01*
X163144752Y-124571844D01*
X163128387Y-124572123D01*
X163127296Y-124572142D01*
X163127289Y-124572142D01*
X163103323Y-124572548D01*
X163099899Y-124572606D01*
X163099890Y-124572606D01*
X163083211Y-124572886D01*
X163083196Y-124572886D01*
X163061490Y-124573245D01*
X163061485Y-124573246D01*
X163039675Y-124573605D01*
X163039661Y-124573605D01*
X163021274Y-124573903D01*
X163019960Y-124573925D01*
X163019952Y-124573925D01*
X163000232Y-124574242D01*
X162997767Y-124574282D01*
X162997758Y-124574282D01*
X162979194Y-124574578D01*
X162979188Y-124574578D01*
X162956033Y-124574945D01*
X162956016Y-124574945D01*
X162940177Y-124575191D01*
X162939245Y-124575206D01*
X162939243Y-124575206D01*
X162914896Y-124575584D01*
X162914880Y-124575585D01*
X162895743Y-124575877D01*
X162895740Y-124575877D01*
X162873657Y-124576213D01*
X162873643Y-124576213D01*
X162857457Y-124576455D01*
X162856300Y-124576473D01*
X162856296Y-124576473D01*
X162831278Y-124576846D01*
X162831267Y-124576846D01*
X162811362Y-124577139D01*
X162809552Y-124577166D01*
X162809545Y-124577166D01*
X162790455Y-124577445D01*
X162769685Y-124577745D01*
X162747257Y-124578066D01*
X162747251Y-124578066D01*
X162729589Y-124578317D01*
X162729579Y-124578317D01*
X162708575Y-124578612D01*
X162708505Y-124578613D01*
X162274195Y-124584227D01*
X162274070Y-124584228D01*
X162256217Y-124584423D01*
X162255681Y-124584429D01*
X162255678Y-124584429D01*
X162215344Y-124584867D01*
X162215289Y-124584867D01*
X162211564Y-124584908D01*
X162211206Y-124584912D01*
X162211205Y-124584912D01*
X162191958Y-124585121D01*
X162191949Y-124585121D01*
X162183835Y-124585208D01*
X162183815Y-124585207D01*
X162121939Y-124585874D01*
X162121939Y-124585875D01*
X162121793Y-124585876D01*
X162121573Y-124585879D01*
X162121511Y-124585879D01*
X162092371Y-124586191D01*
X162091964Y-124586196D01*
X162091962Y-124586196D01*
X162056466Y-124586575D01*
X162056465Y-124586575D01*
X162041816Y-124586731D01*
X162003797Y-124587136D01*
X162003737Y-124587136D01*
X162003421Y-124587140D01*
X162003419Y-124587140D01*
X162002231Y-124587152D01*
X162002124Y-124587154D01*
X162002123Y-124587153D01*
X161984054Y-124587345D01*
X161983686Y-124587349D01*
X161977098Y-124587418D01*
X161970225Y-124587491D01*
X161970226Y-124587492D01*
X161929018Y-124587927D01*
X161929016Y-124587927D01*
X161890472Y-124588333D01*
X161890471Y-124588332D01*
X161889568Y-124588342D01*
X161889548Y-124588343D01*
X161877463Y-124588470D01*
X161877460Y-124588470D01*
X161837154Y-124588892D01*
X161837153Y-124588892D01*
X161822408Y-124589046D01*
X161822407Y-124589046D01*
X161791936Y-124589364D01*
X161760961Y-124589687D01*
X161760960Y-124589687D01*
X161756087Y-124589738D01*
X161756079Y-124589738D01*
X161751672Y-124589783D01*
X161751669Y-124589784D01*
X161747932Y-124589823D01*
X161746997Y-124589833D01*
X161746991Y-124589833D01*
X161731681Y-124589992D01*
X161731680Y-124589992D01*
X161687924Y-124590445D01*
X161687925Y-124590446D01*
X161660300Y-124590733D01*
X161660293Y-124590733D01*
X161343897Y-124593985D01*
X161343875Y-124593984D01*
X161339373Y-124594030D01*
X161339372Y-124594030D01*
X161333055Y-124594095D01*
X161330652Y-124594120D01*
X161330642Y-124594119D01*
X161296871Y-124594468D01*
X161296843Y-124594466D01*
X161291078Y-124594526D01*
X161270579Y-124594740D01*
X161270571Y-124594740D01*
X161256723Y-124594882D01*
X161256691Y-124594884D01*
X161246618Y-124594989D01*
X161243459Y-124595022D01*
X161243458Y-124595022D01*
X161243374Y-124595023D01*
X161232506Y-124595136D01*
X161231097Y-124595151D01*
X161231096Y-124595151D01*
X161208419Y-124595386D01*
X161208420Y-124595387D01*
X161203601Y-124595437D01*
X161202910Y-124595445D01*
X161202896Y-124595445D01*
X161200743Y-124595467D01*
X161200711Y-124595465D01*
X161196224Y-124595512D01*
X161173167Y-124595754D01*
X161166351Y-124595826D01*
X161166350Y-124595825D01*
X161164223Y-124595848D01*
X161163999Y-124595851D01*
X161163944Y-124595851D01*
X161163622Y-124595855D01*
X161163621Y-124595855D01*
X161158647Y-124595907D01*
X161158095Y-124595913D01*
X161158080Y-124595913D01*
X161154856Y-124595945D01*
X161154857Y-124595946D01*
X161149657Y-124596000D01*
X161149656Y-124596000D01*
X161137668Y-124596126D01*
X161136917Y-124596134D01*
X161136915Y-124596134D01*
X161113583Y-124596377D01*
X161113554Y-124596379D01*
X161111967Y-124596395D01*
X161109898Y-124596417D01*
X161109897Y-124596418D01*
X161085374Y-124596674D01*
X161085371Y-124596674D01*
X161081707Y-124596713D01*
X161081607Y-124596713D01*
X161080475Y-124596726D01*
X161080441Y-124596727D01*
X161069905Y-124596838D01*
X161069904Y-124596837D01*
X161066640Y-124596872D01*
X161066626Y-124596873D01*
X161058222Y-124596960D01*
X161058220Y-124596961D01*
X161058218Y-124596961D01*
X161051739Y-124597029D01*
X161047850Y-124597070D01*
X161047849Y-124597069D01*
X161039762Y-124597155D01*
X161039549Y-124597158D01*
X161039494Y-124597158D01*
X161039172Y-124597162D01*
X161039170Y-124597162D01*
X161038285Y-124597171D01*
X161035690Y-124597198D01*
X161034901Y-124597207D01*
X161028247Y-124597277D01*
X161028246Y-124597277D01*
X161015740Y-124597409D01*
X161015738Y-124597409D01*
X161009069Y-124597480D01*
X161008960Y-124597480D01*
X161003743Y-124597536D01*
X161003730Y-124597535D01*
X161003731Y-124597536D01*
X160989891Y-124597682D01*
X160989864Y-124597680D01*
X160960561Y-124597992D01*
X160960547Y-124597991D01*
X160928038Y-124598339D01*
X160927329Y-124598347D01*
X160927321Y-124598347D01*
X160913910Y-124598488D01*
X160913911Y-124598489D01*
X160901574Y-124598621D01*
X160900784Y-124598630D01*
X160900780Y-124598630D01*
X160874087Y-124598912D01*
X160874088Y-124598913D01*
X160859902Y-124599065D01*
X160859873Y-124599063D01*
X160833604Y-124599348D01*
X160833201Y-124599353D01*
X160833199Y-124599353D01*
X160832385Y-124599361D01*
X160831532Y-124599371D01*
X160831458Y-124599371D01*
X160826763Y-124599422D01*
X160826507Y-124599425D01*
X160826505Y-124599425D01*
X160799571Y-124599713D01*
X160799539Y-124599715D01*
X160785314Y-124599868D01*
X160785279Y-124599870D01*
X160769849Y-124600037D01*
X160769814Y-124600040D01*
X160568951Y-124602222D01*
X160568782Y-124602207D01*
X160556845Y-124602341D01*
X160556823Y-124602339D01*
X160532027Y-124602618D01*
X160532013Y-124602617D01*
X160518675Y-124602767D01*
X160517918Y-124602776D01*
X160517894Y-124602776D01*
X160477223Y-124603217D01*
X160477049Y-124603236D01*
X160467301Y-124603345D01*
X160467282Y-124603347D01*
X160449243Y-124603550D01*
X160449236Y-124603550D01*
X160444111Y-124603607D01*
X160444112Y-124603608D01*
X160442221Y-124603630D01*
X160442190Y-124603630D01*
X160430527Y-124603763D01*
X160430113Y-124603768D01*
X160430088Y-124603768D01*
X160428631Y-124603784D01*
X160428619Y-124603783D01*
X160407503Y-124604024D01*
X160407495Y-124604024D01*
X160393716Y-124604180D01*
X160393712Y-124604181D01*
X160388474Y-124604241D01*
X160388473Y-124604241D01*
X160383618Y-124604297D01*
X160383600Y-124604297D01*
X160361860Y-124604544D01*
X160361840Y-124604546D01*
X160359861Y-124604568D01*
X160359336Y-124604575D01*
X160359326Y-124604575D01*
X160337922Y-124604818D01*
X160337905Y-124604820D01*
X160329586Y-124604916D01*
X160329562Y-124604914D01*
X160297605Y-124605284D01*
X160297594Y-124605284D01*
X160295576Y-124605307D01*
X160295558Y-124605306D01*
X160291564Y-124605352D01*
X160272409Y-124605573D01*
X160270230Y-124605599D01*
X160260273Y-124605714D01*
X160260255Y-124605714D01*
X160259207Y-124605725D01*
X160259196Y-124605726D01*
X160258562Y-124605733D01*
X160254459Y-124605780D01*
X160254449Y-124605781D01*
X160254446Y-124605781D01*
X160248822Y-124605847D01*
X160248420Y-124605852D01*
X160248403Y-124605852D01*
X160225952Y-124606110D01*
X160225942Y-124606109D01*
X160220343Y-124606173D01*
X160220344Y-124606174D01*
X160218511Y-124606195D01*
X160218238Y-124606199D01*
X160218218Y-124606199D01*
X160209809Y-124606297D01*
X160209380Y-124606303D01*
X160209371Y-124606303D01*
X160205242Y-124606350D01*
X160205239Y-124606351D01*
X160191945Y-124606507D01*
X160191941Y-124606507D01*
X160188985Y-124606541D01*
X160180529Y-124606640D01*
X160180528Y-124606640D01*
X160177626Y-124606674D01*
X160177609Y-124606674D01*
X160145662Y-124607046D01*
X160145633Y-124607049D01*
X160135546Y-124607167D01*
X160135508Y-124607170D01*
X160131643Y-124607216D01*
X160129625Y-124607240D01*
X160129624Y-124607240D01*
X160125192Y-124607293D01*
X160124774Y-124607298D01*
X160124757Y-124607298D01*
X160011781Y-124608626D01*
X160011725Y-124608622D01*
X159965358Y-124609173D01*
X159965352Y-124609173D01*
X159921560Y-124609688D01*
X159921509Y-124609693D01*
X159918506Y-124609728D01*
X159917812Y-124609737D01*
X159917809Y-124609737D01*
X159904974Y-124609888D01*
X159904971Y-124609888D01*
X159871582Y-124610279D01*
X159871577Y-124610279D01*
X159857649Y-124610440D01*
X159857649Y-124610441D01*
X159846571Y-124610570D01*
X159846561Y-124610570D01*
X159816614Y-124610914D01*
X159816608Y-124610914D01*
X159803172Y-124611066D01*
X159803172Y-124611067D01*
X159797128Y-124611136D01*
X159797117Y-124611136D01*
X159777802Y-124611353D01*
X159777798Y-124611353D01*
X159765041Y-124611495D01*
X159761851Y-124611531D01*
X159761841Y-124611531D01*
X159751468Y-124611644D01*
X159751469Y-124611645D01*
X159740763Y-124611763D01*
X159740729Y-124611764D01*
X159620420Y-124613025D01*
X159620261Y-124613026D01*
X159615536Y-124613063D01*
X159615093Y-124613067D01*
X159615087Y-124613067D01*
X159606393Y-124613134D01*
X159604943Y-124613146D01*
X159604911Y-124613146D01*
X159592377Y-124613237D01*
X159592343Y-124613238D01*
X159580451Y-124613318D01*
X159580414Y-124613318D01*
X159570406Y-124613379D01*
X159570135Y-124613381D01*
X159570101Y-124613381D01*
X159559799Y-124613438D01*
X159559495Y-124613440D01*
X159559430Y-124613440D01*
X159546114Y-124613500D01*
X159546059Y-124613501D01*
X159534473Y-124613543D01*
X159534394Y-124613543D01*
X159523106Y-124613569D01*
X159522963Y-124613570D01*
X159522870Y-124613570D01*
X159512527Y-124613578D01*
X159512415Y-124613579D01*
X154803894Y-124613579D01*
X154759700Y-124595273D01*
X154741394Y-124551079D01*
X154759700Y-124506885D01*
X154765846Y-124501495D01*
X154839230Y-124445186D01*
X154849641Y-124436641D01*
X154855787Y-124431250D01*
X154865586Y-124422071D01*
X155213342Y-124074315D01*
X155222521Y-124064516D01*
X155227912Y-124058370D01*
X155236457Y-124047960D01*
X155308414Y-123954184D01*
X155323353Y-123931824D01*
X155331510Y-123917694D01*
X155343394Y-123893595D01*
X155374810Y-123817750D01*
X155387037Y-123788232D01*
X155387041Y-123788222D01*
X155387040Y-123788222D01*
X155387046Y-123788210D01*
X155395686Y-123762757D01*
X155399909Y-123746997D01*
X155405154Y-123720631D01*
X155420043Y-123607537D01*
X155421801Y-123580714D01*
X155421801Y-123564398D01*
X155420043Y-123537575D01*
X155411098Y-123469633D01*
X155405157Y-123424501D01*
X155405155Y-123424488D01*
X155405154Y-123424480D01*
X155399909Y-123398114D01*
X155396653Y-123385964D01*
X155395687Y-123382357D01*
X155395686Y-123382356D01*
X155395686Y-123382354D01*
X155387046Y-123356902D01*
X155385952Y-123354262D01*
X155343396Y-123251521D01*
X155336803Y-123238151D01*
X155331511Y-123227419D01*
X155323354Y-123213289D01*
X155308415Y-123190930D01*
X155236452Y-123097146D01*
X155228223Y-123087120D01*
X155227913Y-123086742D01*
X155226808Y-123085482D01*
X155222516Y-123080589D01*
X155213337Y-123070790D01*
X154876473Y-122733926D01*
X154547454Y-122404906D01*
X162659651Y-122404906D01*
X162679109Y-122540246D01*
X162679110Y-122540249D01*
X162734261Y-122661011D01*
X162735911Y-122664624D01*
X162825452Y-122767961D01*
X162940480Y-122841884D01*
X162940482Y-122841884D01*
X162940483Y-122841885D01*
X162979710Y-122853403D01*
X163021099Y-122865556D01*
X163071671Y-122880405D01*
X163071673Y-122880406D01*
X163071674Y-122880406D01*
X163208409Y-122880406D01*
X163208409Y-122880405D01*
X163339602Y-122841884D01*
X163454630Y-122767961D01*
X163465020Y-122755969D01*
X163496078Y-122736526D01*
X163514766Y-122731520D01*
X163516845Y-122730319D01*
X163516852Y-122730318D01*
X163516851Y-122730316D01*
X163521957Y-122727368D01*
X163594690Y-122685376D01*
X163762209Y-122517855D01*
X163806400Y-122499551D01*
X163817253Y-122500501D01*
X163819288Y-122500860D01*
X163936674Y-122480162D01*
X163980716Y-122457236D01*
X164055450Y-122404906D01*
X165759651Y-122404906D01*
X165779109Y-122540246D01*
X165779110Y-122540249D01*
X165834261Y-122661011D01*
X165835911Y-122664624D01*
X165925452Y-122767961D01*
X166040480Y-122841884D01*
X166040482Y-122841884D01*
X166040483Y-122841885D01*
X166079710Y-122853403D01*
X166121099Y-122865556D01*
X166171671Y-122880405D01*
X166171673Y-122880406D01*
X166171674Y-122880406D01*
X166308409Y-122880406D01*
X166308409Y-122880405D01*
X166439602Y-122841884D01*
X166554630Y-122767961D01*
X166590180Y-122726931D01*
X166606162Y-122713735D01*
X166655285Y-122685376D01*
X166779984Y-122560675D01*
X166824175Y-122542371D01*
X166835028Y-122543321D01*
X166837063Y-122543680D01*
X166954449Y-122522982D01*
X166998491Y-122500056D01*
X167288638Y-122296891D01*
X167325246Y-122263347D01*
X167347623Y-122224589D01*
X167384842Y-122160125D01*
X167384844Y-122160121D01*
X167384844Y-122160120D01*
X167384845Y-122160119D01*
X167405543Y-122042733D01*
X167405542Y-122042731D01*
X167405543Y-122042730D01*
X167389309Y-121950663D01*
X167384845Y-121925347D01*
X167361918Y-121881305D01*
X167130075Y-121550201D01*
X167096531Y-121513592D01*
X166993303Y-121453994D01*
X166875917Y-121433296D01*
X166875915Y-121433296D01*
X166875914Y-121433296D01*
X166758536Y-121453992D01*
X166758531Y-121453994D01*
X166714492Y-121476918D01*
X166424341Y-121680085D01*
X166424336Y-121680090D01*
X166387732Y-121713630D01*
X166387731Y-121713631D01*
X166328137Y-121816850D01*
X166328135Y-121816854D01*
X166325833Y-121829912D01*
X166317805Y-121875447D01*
X166317397Y-121877759D01*
X166291695Y-121918103D01*
X166255846Y-121929406D01*
X166171672Y-121929406D01*
X166040483Y-121967926D01*
X166008752Y-121988318D01*
X165925452Y-122041851D01*
X165835911Y-122145188D01*
X165835910Y-122145189D01*
X165835909Y-122145191D01*
X165779110Y-122269562D01*
X165779109Y-122269565D01*
X165759651Y-122404906D01*
X164055450Y-122404906D01*
X164270863Y-122254071D01*
X164307471Y-122220527D01*
X164311635Y-122213315D01*
X164367067Y-122117305D01*
X164367069Y-122117301D01*
X164367069Y-122117300D01*
X164367070Y-122117299D01*
X164387768Y-121999913D01*
X164387767Y-121999911D01*
X164387768Y-121999910D01*
X164369589Y-121896814D01*
X164367070Y-121882527D01*
X164344143Y-121838485D01*
X164112300Y-121507381D01*
X164078756Y-121470772D01*
X163975528Y-121411174D01*
X163858142Y-121390476D01*
X163858140Y-121390476D01*
X163858139Y-121390476D01*
X163740761Y-121411172D01*
X163740756Y-121411174D01*
X163696717Y-121434098D01*
X163406566Y-121637265D01*
X163406561Y-121637270D01*
X163369957Y-121670810D01*
X163369956Y-121670811D01*
X163310362Y-121774030D01*
X163310358Y-121774040D01*
X163291424Y-121881423D01*
X163265722Y-121921767D01*
X163219021Y-121932120D01*
X163212267Y-121930539D01*
X163208408Y-121929406D01*
X163071674Y-121929406D01*
X163071672Y-121929406D01*
X162940483Y-121967926D01*
X162908752Y-121988318D01*
X162825452Y-122041851D01*
X162735911Y-122145188D01*
X162735910Y-122145189D01*
X162735909Y-122145191D01*
X162679110Y-122269562D01*
X162679109Y-122269565D01*
X162659651Y-122404906D01*
X154547454Y-122404906D01*
X154538876Y-122396328D01*
X154528072Y-122386273D01*
X154521266Y-122380382D01*
X154509744Y-122371111D01*
X154405691Y-122293399D01*
X154380801Y-122277464D01*
X154380785Y-122277454D01*
X154365043Y-122268905D01*
X154365040Y-122268904D01*
X154338146Y-122256713D01*
X154338114Y-122256700D01*
X154220592Y-122213315D01*
X154220568Y-122213307D01*
X154192212Y-122205100D01*
X154174692Y-122201371D01*
X154174684Y-122201369D01*
X154145398Y-122197308D01*
X154015790Y-122188767D01*
X154001040Y-122188326D01*
X153992469Y-122188379D01*
X153992068Y-122188382D01*
X153979511Y-122188910D01*
X153977270Y-122189005D01*
X153805251Y-122202468D01*
X153759764Y-122187667D01*
X153738066Y-122145035D01*
X153739075Y-122127969D01*
X153744331Y-122101550D01*
X153738468Y-122072077D01*
X153728197Y-122020441D01*
X153723919Y-121998932D01*
X153680463Y-121933896D01*
X153113503Y-121366937D01*
X153113502Y-121366936D01*
X153113500Y-121366934D01*
X153048468Y-121323481D01*
X153048467Y-121323480D01*
X153048466Y-121323479D01*
X153048465Y-121323479D01*
X152945850Y-121303068D01*
X152945848Y-121303068D01*
X152843232Y-121323479D01*
X152843230Y-121323480D01*
X152778195Y-121366935D01*
X152778193Y-121366937D01*
X152653179Y-121491952D01*
X152653175Y-121491957D01*
X152609722Y-121556988D01*
X152609721Y-121556991D01*
X152597951Y-121616159D01*
X152571374Y-121655932D01*
X152548846Y-121665264D01*
X152489679Y-121677034D01*
X152489677Y-121677034D01*
X152424639Y-121720491D01*
X152424636Y-121720493D01*
X152382640Y-121762489D01*
X152376150Y-121768141D01*
X152374389Y-121769472D01*
X152374372Y-121769487D01*
X152371247Y-121772522D01*
X152326789Y-121790176D01*
X152282869Y-121771222D01*
X152278226Y-121765864D01*
X152273187Y-121759333D01*
X152268070Y-121753258D01*
X152266314Y-121751173D01*
X152254442Y-121738241D01*
X152122178Y-121605977D01*
X152110984Y-121595585D01*
X152110965Y-121595567D01*
X152103965Y-121589538D01*
X152092013Y-121579994D01*
X152037312Y-121539543D01*
X152022506Y-121524013D01*
X152001088Y-121491958D01*
X152001083Y-121491952D01*
X151876068Y-121366938D01*
X151876063Y-121366934D01*
X151811032Y-121323481D01*
X151811029Y-121323479D01*
X151775556Y-121316423D01*
X151735782Y-121289846D01*
X151725551Y-121261253D01*
X151722270Y-121227939D01*
X151715315Y-121192978D01*
X151694997Y-121136197D01*
X151677892Y-121104198D01*
X151666643Y-121089031D01*
X151641970Y-121055764D01*
X151641966Y-121055760D01*
X151547104Y-120960899D01*
X151547098Y-120960893D01*
X151515958Y-120935336D01*
X151515957Y-120935335D01*
X151515956Y-120935334D01*
X151495691Y-120921793D01*
X151495669Y-120921780D01*
X151470681Y-120907509D01*
X151470679Y-120907508D01*
X151439102Y-120900300D01*
X151381516Y-120887155D01*
X151381515Y-120887154D01*
X151381358Y-120887119D01*
X151342346Y-120859437D01*
X151337523Y-120850101D01*
X151337434Y-120849888D01*
X151337434Y-120849885D01*
X151293978Y-120784848D01*
X151249706Y-120740576D01*
X151241934Y-120731106D01*
X151239036Y-120726769D01*
X151212471Y-120694627D01*
X151205078Y-120687336D01*
X151194505Y-120676908D01*
X151162000Y-120650792D01*
X151161995Y-120650788D01*
X151117532Y-120621960D01*
X151117509Y-120621947D01*
X151079085Y-120602423D01*
X151079083Y-120602422D01*
X151054716Y-120593110D01*
X151037887Y-120588635D01*
X150999883Y-120559586D01*
X150992652Y-120540428D01*
X150992080Y-120537553D01*
X150983881Y-120496331D01*
X150940425Y-120431294D01*
X150815407Y-120306277D01*
X150815403Y-120306274D01*
X150750372Y-120262821D01*
X150750370Y-120262820D01*
X150691200Y-120251050D01*
X150682737Y-120245395D01*
X154003523Y-120245395D01*
X154023934Y-120348011D01*
X154023934Y-120348012D01*
X154023935Y-120348013D01*
X154067391Y-120413049D01*
X154067392Y-120413050D01*
X154067393Y-120413051D01*
X154316998Y-120662655D01*
X154317009Y-120662668D01*
X154320568Y-120666227D01*
X154320569Y-120666228D01*
X154381172Y-120726831D01*
X154381174Y-120726832D01*
X154383355Y-120729013D01*
X154383354Y-120729013D01*
X154383360Y-120729018D01*
X154634351Y-120980008D01*
X154634353Y-120980010D01*
X154656696Y-120994939D01*
X154699387Y-121023465D01*
X154723388Y-121028239D01*
X154802004Y-121043877D01*
X154802005Y-121043877D01*
X154802006Y-121043877D01*
X154853313Y-121033671D01*
X154904622Y-121023465D01*
X154969659Y-120980009D01*
X155094676Y-120854991D01*
X155138133Y-120789954D01*
X155158545Y-120687337D01*
X155154346Y-120666228D01*
X155137279Y-120580423D01*
X155146611Y-120533507D01*
X155186385Y-120506931D01*
X155198578Y-120505730D01*
X156286100Y-120505730D01*
X156286101Y-120505730D01*
X156368887Y-120483548D01*
X156443110Y-120440695D01*
X157703713Y-119180092D01*
X157746566Y-119105869D01*
X157768748Y-119023083D01*
X157768748Y-118999770D01*
X158164541Y-118999770D01*
X158167456Y-119024898D01*
X158187177Y-119069562D01*
X158212835Y-119127671D01*
X158212836Y-119127672D01*
X158292275Y-119207111D01*
X158292279Y-119207114D01*
X158302282Y-119211530D01*
X158335319Y-119246125D01*
X158339541Y-119268706D01*
X158339541Y-119281050D01*
X158339542Y-119281058D01*
X158359584Y-119355854D01*
X158361900Y-119364498D01*
X158362494Y-119366713D01*
X158363427Y-119370197D01*
X158363428Y-119370199D01*
X158409568Y-119450116D01*
X158409575Y-119450125D01*
X158661233Y-119701782D01*
X158679539Y-119745976D01*
X158679539Y-119914797D01*
X158679539Y-119914798D01*
X158679540Y-119914806D01*
X158686067Y-119964393D01*
X158722124Y-120041716D01*
X158736816Y-120073224D01*
X158821720Y-120158128D01*
X158821721Y-120158128D01*
X158821723Y-120158130D01*
X158930552Y-120208878D01*
X158980138Y-120215406D01*
X159102125Y-120215405D01*
X159146318Y-120233709D01*
X159146320Y-120233711D01*
X159450162Y-120537553D01*
X159467832Y-120572852D01*
X159476499Y-120633131D01*
X159530314Y-120750968D01*
X159530315Y-120750969D01*
X159615148Y-120848873D01*
X159724128Y-120918910D01*
X159724130Y-120918910D01*
X159724131Y-120918911D01*
X159780064Y-120935334D01*
X159825698Y-120948733D01*
X159848422Y-120955405D01*
X159848424Y-120955406D01*
X159848425Y-120955406D01*
X159977970Y-120955406D01*
X159977970Y-120955405D01*
X160102266Y-120918910D01*
X160211246Y-120848873D01*
X160296079Y-120750969D01*
X160349894Y-120633132D01*
X160368330Y-120504906D01*
X160349894Y-120376680D01*
X160296079Y-120258843D01*
X160211246Y-120160939D01*
X160211245Y-120160938D01*
X160163017Y-120129944D01*
X160102266Y-120090902D01*
X160102264Y-120090901D01*
X160102262Y-120090900D01*
X159977967Y-120054404D01*
X159975674Y-120054075D01*
X159974014Y-120053244D01*
X159973680Y-120053146D01*
X159973697Y-120053085D01*
X159940378Y-120036406D01*
X159658844Y-119754871D01*
X159640538Y-119710677D01*
X159640538Y-119495014D01*
X159640538Y-119495006D01*
X159634011Y-119445419D01*
X159583263Y-119336590D01*
X159583261Y-119336588D01*
X159583261Y-119336587D01*
X159498357Y-119251683D01*
X159389525Y-119200933D01*
X159339946Y-119194406D01*
X159339940Y-119194406D01*
X159233698Y-119194406D01*
X159189504Y-119176100D01*
X159171198Y-119131906D01*
X159176522Y-119106664D01*
X159212626Y-119024897D01*
X159215541Y-118999771D01*
X159215541Y-118999770D01*
X160064541Y-118999770D01*
X160067456Y-119024898D01*
X160087177Y-119069562D01*
X160112835Y-119127671D01*
X160192276Y-119207112D01*
X160295050Y-119252491D01*
X160320176Y-119255406D01*
X160859905Y-119255405D01*
X160885032Y-119252491D01*
X160987806Y-119207112D01*
X160988034Y-119206884D01*
X160988699Y-119206499D01*
X160991025Y-119204906D01*
X163359651Y-119204906D01*
X163379109Y-119340246D01*
X163379110Y-119340249D01*
X163435667Y-119464090D01*
X163435911Y-119464624D01*
X163525452Y-119567961D01*
X163640480Y-119641884D01*
X163640482Y-119641884D01*
X163640483Y-119641885D01*
X163682363Y-119654182D01*
X163763156Y-119677905D01*
X163771671Y-119680405D01*
X163771673Y-119680406D01*
X163771674Y-119680406D01*
X163908409Y-119680406D01*
X163908409Y-119680405D01*
X164039602Y-119641884D01*
X164095751Y-119605800D01*
X166069898Y-119605800D01*
X166089356Y-119741140D01*
X166089357Y-119741143D01*
X166146156Y-119865514D01*
X166146158Y-119865518D01*
X166235699Y-119968855D01*
X166350727Y-120042778D01*
X166350729Y-120042778D01*
X166350730Y-120042779D01*
X166481918Y-120081299D01*
X166481920Y-120081300D01*
X166481921Y-120081300D01*
X166618656Y-120081300D01*
X166618656Y-120081299D01*
X166749849Y-120042778D01*
X166864877Y-119968855D01*
X166954418Y-119865518D01*
X167011219Y-119741142D01*
X167025149Y-119644247D01*
X167042817Y-119608951D01*
X167338153Y-119313615D01*
X167382346Y-119295310D01*
X167393200Y-119296260D01*
X167419287Y-119300860D01*
X167419288Y-119300860D01*
X167419291Y-119300860D01*
X167536668Y-119280163D01*
X167536667Y-119280163D01*
X167536674Y-119280162D01*
X167580716Y-119257236D01*
X167870863Y-119054071D01*
X167907471Y-119020527D01*
X167908090Y-119019455D01*
X167967067Y-118917305D01*
X167967069Y-118917301D01*
X167967069Y-118917300D01*
X167967070Y-118917299D01*
X167987768Y-118799913D01*
X167987767Y-118799911D01*
X167987768Y-118799910D01*
X167970492Y-118701933D01*
X167967070Y-118682527D01*
X167944143Y-118638485D01*
X167712300Y-118307381D01*
X167678756Y-118270772D01*
X167575528Y-118211174D01*
X167458142Y-118190476D01*
X167458140Y-118190476D01*
X167458139Y-118190476D01*
X167340761Y-118211172D01*
X167340756Y-118211174D01*
X167296717Y-118234098D01*
X167296714Y-118234099D01*
X167296714Y-118234100D01*
X167275893Y-118248679D01*
X167006566Y-118437265D01*
X167006561Y-118437270D01*
X166969957Y-118470810D01*
X166969956Y-118470811D01*
X166910362Y-118574030D01*
X166910360Y-118574034D01*
X166890809Y-118684916D01*
X166889662Y-118691423D01*
X166894722Y-118720124D01*
X166895902Y-118726813D01*
X166885547Y-118773514D01*
X166878545Y-118781859D01*
X166548412Y-119111994D01*
X166504218Y-119130300D01*
X166481919Y-119130300D01*
X166350730Y-119168820D01*
X166330970Y-119181519D01*
X166235699Y-119242745D01*
X166146158Y-119346082D01*
X166146157Y-119346083D01*
X166146156Y-119346085D01*
X166089357Y-119470456D01*
X166089356Y-119470459D01*
X166069898Y-119605800D01*
X164095751Y-119605800D01*
X164154630Y-119567961D01*
X164244171Y-119464624D01*
X164300972Y-119340248D01*
X164300973Y-119340235D01*
X164302038Y-119336615D01*
X164332053Y-119299368D01*
X164372859Y-119292673D01*
X164407817Y-119298837D01*
X164419287Y-119300860D01*
X164419288Y-119300860D01*
X164419291Y-119300860D01*
X164536668Y-119280163D01*
X164536667Y-119280163D01*
X164536674Y-119280162D01*
X164580716Y-119257236D01*
X164870863Y-119054071D01*
X164907471Y-119020527D01*
X164908090Y-119019455D01*
X164967067Y-118917305D01*
X164967069Y-118917301D01*
X164967069Y-118917300D01*
X164967070Y-118917299D01*
X164987768Y-118799913D01*
X164987767Y-118799911D01*
X164987768Y-118799910D01*
X164970492Y-118701933D01*
X164967070Y-118682527D01*
X164944143Y-118638485D01*
X164712300Y-118307381D01*
X164678756Y-118270772D01*
X164575528Y-118211174D01*
X164458142Y-118190476D01*
X164458140Y-118190476D01*
X164458139Y-118190476D01*
X164340761Y-118211172D01*
X164340756Y-118211174D01*
X164296717Y-118234098D01*
X164296714Y-118234099D01*
X164296714Y-118234100D01*
X164275893Y-118248679D01*
X164006566Y-118437265D01*
X164006561Y-118437270D01*
X163969957Y-118470810D01*
X163969956Y-118470811D01*
X163910362Y-118574030D01*
X163910359Y-118574039D01*
X163899894Y-118633385D01*
X163882539Y-118666724D01*
X163838166Y-118711099D01*
X163793972Y-118729406D01*
X163771672Y-118729406D01*
X163640483Y-118767926D01*
X163613330Y-118785376D01*
X163525452Y-118841851D01*
X163435911Y-118945188D01*
X163435910Y-118945189D01*
X163435909Y-118945191D01*
X163379110Y-119069562D01*
X163379109Y-119069565D01*
X163359651Y-119204906D01*
X160991025Y-119204906D01*
X160992585Y-119203838D01*
X160992790Y-119204137D01*
X161016057Y-119190703D01*
X161050324Y-119181521D01*
X161050323Y-119181521D01*
X161050328Y-119181520D01*
X161066402Y-119172239D01*
X161066404Y-119172239D01*
X161112316Y-119145731D01*
X161130252Y-119135376D01*
X161545508Y-118720119D01*
X161581326Y-118658081D01*
X161591652Y-118640197D01*
X161592515Y-118636978D01*
X161593463Y-118633439D01*
X161615539Y-118551051D01*
X161615539Y-117869595D01*
X161591653Y-117780451D01*
X161591650Y-117780445D01*
X161590103Y-117777765D01*
X161590103Y-117777764D01*
X161545511Y-117700530D01*
X161545504Y-117700521D01*
X161119420Y-117274437D01*
X161103703Y-117265363D01*
X161080616Y-117252033D01*
X161051497Y-117214084D01*
X161057740Y-117166658D01*
X161095691Y-117137538D01*
X161111867Y-117135408D01*
X161187052Y-117135408D01*
X161231246Y-117153714D01*
X161243904Y-117171945D01*
X161257157Y-117200966D01*
X161257159Y-117200969D01*
X161341992Y-117298873D01*
X161450972Y-117368910D01*
X161450974Y-117368910D01*
X161450975Y-117368911D01*
X161505481Y-117384915D01*
X161570511Y-117404009D01*
X161575266Y-117405405D01*
X161575268Y-117405406D01*
X161575269Y-117405406D01*
X161704814Y-117405406D01*
X161704814Y-117405405D01*
X161829110Y-117368910D01*
X161938090Y-117298873D01*
X162022923Y-117200969D01*
X162076738Y-117083132D01*
X162095174Y-116954906D01*
X162076738Y-116826680D01*
X162022923Y-116708843D01*
X161938090Y-116610939D01*
X161938089Y-116610938D01*
X161882502Y-116575215D01*
X161829110Y-116540902D01*
X161829108Y-116540901D01*
X161829106Y-116540900D01*
X161704815Y-116504406D01*
X161704813Y-116504406D01*
X161701947Y-116504406D01*
X161670697Y-116496033D01*
X161668007Y-116494480D01*
X161635045Y-116475449D01*
X161605330Y-116458293D01*
X161605327Y-116458292D01*
X161516193Y-116434409D01*
X161516188Y-116434408D01*
X161516187Y-116434408D01*
X161516186Y-116434408D01*
X161106969Y-116434408D01*
X161062775Y-116416102D01*
X161008357Y-116361684D01*
X160899527Y-116310935D01*
X160849942Y-116304408D01*
X160430149Y-116304408D01*
X160430147Y-116304408D01*
X160430141Y-116304409D01*
X160380554Y-116310936D01*
X160380552Y-116310936D01*
X160380551Y-116310937D01*
X160271722Y-116361685D01*
X160186818Y-116446589D01*
X160136068Y-116555421D01*
X160129541Y-116605000D01*
X160129541Y-116964799D01*
X160129541Y-116964800D01*
X160129542Y-116964808D01*
X160136069Y-117014395D01*
X160136070Y-117014397D01*
X160186818Y-117123226D01*
X160189956Y-117127708D01*
X160188175Y-117128954D01*
X160203396Y-117165676D01*
X160185101Y-117209875D01*
X160185090Y-117209885D01*
X160112836Y-117282139D01*
X160112835Y-117282140D01*
X160112835Y-117282141D01*
X160067456Y-117384915D01*
X160065247Y-117403960D01*
X160064541Y-117410042D01*
X160064541Y-117699770D01*
X160067456Y-117724898D01*
X160081319Y-117756293D01*
X160112835Y-117827671D01*
X160192276Y-117907112D01*
X160295050Y-117952491D01*
X160320176Y-117955406D01*
X160783135Y-117955405D01*
X160827329Y-117973711D01*
X160896233Y-118042615D01*
X160914539Y-118086809D01*
X160914539Y-118333837D01*
X160896233Y-118378031D01*
X160860110Y-118414154D01*
X160838163Y-118436101D01*
X160793969Y-118454406D01*
X160320177Y-118454406D01*
X160295048Y-118457321D01*
X160221983Y-118489583D01*
X160198695Y-118499866D01*
X160192274Y-118502701D01*
X160112836Y-118582139D01*
X160112835Y-118582140D01*
X160112835Y-118582141D01*
X160068511Y-118682527D01*
X160067456Y-118684916D01*
X160064541Y-118710039D01*
X160064541Y-118999770D01*
X159215541Y-118999770D01*
X159215540Y-118710042D01*
X159214859Y-118704174D01*
X159214203Y-118698512D01*
X159212626Y-118684915D01*
X159167247Y-118582141D01*
X159087806Y-118502700D01*
X158985032Y-118457321D01*
X158959906Y-118454406D01*
X158959904Y-118454406D01*
X158420177Y-118454406D01*
X158395048Y-118457321D01*
X158321983Y-118489583D01*
X158298695Y-118499866D01*
X158292274Y-118502701D01*
X158212836Y-118582139D01*
X158212835Y-118582140D01*
X158212835Y-118582141D01*
X158168511Y-118682527D01*
X158167456Y-118684916D01*
X158164541Y-118710039D01*
X158164541Y-118999770D01*
X157768748Y-118999770D01*
X157768748Y-118937377D01*
X157768748Y-117699770D01*
X158164541Y-117699770D01*
X158167456Y-117724898D01*
X158181319Y-117756293D01*
X158212835Y-117827671D01*
X158292276Y-117907112D01*
X158395050Y-117952491D01*
X158420176Y-117955406D01*
X158959905Y-117955405D01*
X158985032Y-117952491D01*
X159087806Y-117907112D01*
X159167247Y-117827671D01*
X159212626Y-117724897D01*
X159215541Y-117699771D01*
X159215540Y-117410042D01*
X159212626Y-117384915D01*
X159167247Y-117282141D01*
X159087806Y-117202700D01*
X158985032Y-117157321D01*
X158959906Y-117154406D01*
X158959904Y-117154406D01*
X158420177Y-117154406D01*
X158395048Y-117157321D01*
X158307756Y-117195865D01*
X158296197Y-117200969D01*
X158292274Y-117202701D01*
X158212836Y-117282139D01*
X158212835Y-117282140D01*
X158212835Y-117282141D01*
X158167456Y-117384915D01*
X158165247Y-117403960D01*
X158164541Y-117410042D01*
X158164541Y-117699770D01*
X157768748Y-117699770D01*
X157768748Y-114647123D01*
X160412764Y-114647123D01*
X160439684Y-114782457D01*
X160472917Y-114862688D01*
X160492488Y-114909938D01*
X160492489Y-114909941D01*
X160569149Y-115024671D01*
X161020275Y-115475797D01*
X161135005Y-115552457D01*
X161135006Y-115552457D01*
X161135007Y-115552458D01*
X161262490Y-115605263D01*
X161397824Y-115632183D01*
X161535812Y-115632183D01*
X161671147Y-115605263D01*
X161798629Y-115552458D01*
X161913361Y-115475797D01*
X162010932Y-115378226D01*
X162087593Y-115263494D01*
X162140398Y-115136012D01*
X162167318Y-115000677D01*
X162167318Y-114862689D01*
X162140398Y-114727355D01*
X162087593Y-114599872D01*
X162010932Y-114485140D01*
X161559807Y-114034015D01*
X161559806Y-114034014D01*
X161445076Y-113957354D01*
X161445073Y-113957353D01*
X161365229Y-113924281D01*
X161317592Y-113904549D01*
X161317588Y-113904548D01*
X161182258Y-113877629D01*
X161044270Y-113877629D01*
X160908939Y-113904548D01*
X160908937Y-113904548D01*
X160908936Y-113904549D01*
X160875395Y-113918442D01*
X160781454Y-113957353D01*
X160781451Y-113957354D01*
X160666721Y-114034014D01*
X160569149Y-114131586D01*
X160492489Y-114246316D01*
X160492488Y-114246319D01*
X160439683Y-114373804D01*
X160418486Y-114480368D01*
X160412764Y-114509135D01*
X160412764Y-114647123D01*
X157768748Y-114647123D01*
X157768748Y-109149411D01*
X158817748Y-109149411D01*
X158817749Y-109149419D01*
X158853558Y-109283062D01*
X158853559Y-109283065D01*
X158883557Y-109335023D01*
X158919476Y-109397237D01*
X158922744Y-109402896D01*
X158922747Y-109402900D01*
X159020577Y-109500730D01*
X159020581Y-109500733D01*
X159020583Y-109500735D01*
X159116958Y-109556377D01*
X159140412Y-109569918D01*
X159140415Y-109569919D01*
X159222203Y-109591833D01*
X159274065Y-109605730D01*
X159346808Y-109605730D01*
X159391002Y-109624036D01*
X159946235Y-110179269D01*
X159964541Y-110223463D01*
X159964541Y-110388391D01*
X159964542Y-110388407D01*
X159980320Y-110488026D01*
X159980323Y-110488036D01*
X160041512Y-110608125D01*
X160136821Y-110703434D01*
X160256910Y-110764623D01*
X160256912Y-110764623D01*
X160256915Y-110764625D01*
X160256918Y-110764625D01*
X160256920Y-110764626D01*
X160356539Y-110780404D01*
X160356545Y-110780404D01*
X160356553Y-110780406D01*
X160356555Y-110780406D01*
X160923527Y-110780406D01*
X160923529Y-110780406D01*
X161000438Y-110768225D01*
X161023161Y-110764626D01*
X161023161Y-110764625D01*
X161023167Y-110764625D01*
X161143261Y-110703434D01*
X161238569Y-110608126D01*
X161299760Y-110488032D01*
X161315541Y-110388394D01*
X161315541Y-109871418D01*
X161299760Y-109771780D01*
X161299758Y-109771777D01*
X161299758Y-109771775D01*
X161238569Y-109651686D01*
X161143260Y-109556377D01*
X161023171Y-109495188D01*
X161023161Y-109495185D01*
X160923542Y-109479407D01*
X160923530Y-109479406D01*
X160923529Y-109479406D01*
X160923527Y-109479406D01*
X160758598Y-109479406D01*
X160714404Y-109461100D01*
X160014438Y-108761134D01*
X160014426Y-108761120D01*
X159913035Y-108659729D01*
X159913031Y-108659726D01*
X159913030Y-108659725D01*
X159826983Y-108610046D01*
X159793200Y-108590541D01*
X159793197Y-108590540D01*
X159742781Y-108577032D01*
X159659553Y-108554729D01*
X159659548Y-108554729D01*
X159521182Y-108554729D01*
X159517357Y-108554729D01*
X159517341Y-108554730D01*
X159274065Y-108554730D01*
X159274064Y-108554730D01*
X159274058Y-108554731D01*
X159140415Y-108590540D01*
X159140412Y-108590541D01*
X159020581Y-108659726D01*
X159020577Y-108659729D01*
X158922747Y-108757559D01*
X158922744Y-108757563D01*
X158853559Y-108877394D01*
X158853558Y-108877397D01*
X158817749Y-109011040D01*
X158817748Y-109011048D01*
X158817748Y-109149411D01*
X157768748Y-109149411D01*
X157768748Y-108840945D01*
X157787054Y-108796751D01*
X158512594Y-108071211D01*
X158512596Y-108071209D01*
X158521756Y-108055344D01*
X158555449Y-107996985D01*
X158577631Y-107914200D01*
X158577631Y-104600632D01*
X158581268Y-104579623D01*
X158586623Y-104564620D01*
X158611209Y-104495733D01*
X158612080Y-104493443D01*
X158612089Y-104493422D01*
X158633971Y-104439097D01*
X158649921Y-104399500D01*
X158651155Y-104396643D01*
X158687098Y-104318870D01*
X158688851Y-104315373D01*
X158721008Y-104256044D01*
X158731763Y-104241634D01*
X158736957Y-104236441D01*
X158745604Y-104218750D01*
X158749471Y-104211955D01*
X158756162Y-104201748D01*
X158776765Y-104161081D01*
X158778572Y-104156248D01*
X158780323Y-104150031D01*
X158784331Y-104139535D01*
X158791997Y-104123855D01*
X158802631Y-104050866D01*
X158802631Y-103229594D01*
X158791997Y-103156605D01*
X158742524Y-103055406D01*
X158736958Y-103044020D01*
X158648340Y-102955402D01*
X158535756Y-102900364D01*
X158462767Y-102889730D01*
X158041495Y-102889730D01*
X157968505Y-102900364D01*
X157968504Y-102900364D01*
X157855921Y-102955402D01*
X157767305Y-103044018D01*
X157767303Y-103044021D01*
X157758280Y-103062479D01*
X157722424Y-103094143D01*
X157674681Y-103091178D01*
X157645982Y-103062479D01*
X157636958Y-103044021D01*
X157636956Y-103044018D01*
X157548340Y-102955402D01*
X157435756Y-102900364D01*
X157362767Y-102889730D01*
X156941495Y-102889730D01*
X156868505Y-102900364D01*
X156868504Y-102900364D01*
X156755921Y-102955402D01*
X156667303Y-103044020D01*
X156612265Y-103156603D01*
X156612265Y-103156604D01*
X156612265Y-103156605D01*
X156601631Y-103229594D01*
X156601631Y-104050866D01*
X156612265Y-104123855D01*
X156634611Y-104169565D01*
X156636478Y-104173384D01*
X156638273Y-104177413D01*
X156644725Y-104193391D01*
X156648098Y-104201745D01*
X156654790Y-104211958D01*
X156658660Y-104218759D01*
X156667303Y-104236438D01*
X156667307Y-104236443D01*
X156672498Y-104241634D01*
X156683251Y-104256045D01*
X156715375Y-104315311D01*
X156717162Y-104318874D01*
X156753100Y-104396636D01*
X156754339Y-104399504D01*
X156792170Y-104493422D01*
X156793056Y-104495753D01*
X156822993Y-104579623D01*
X156822994Y-104579624D01*
X156826631Y-104600635D01*
X156826631Y-105610631D01*
X156808325Y-105654825D01*
X156082787Y-106380362D01*
X156082782Y-106380368D01*
X156039930Y-106454588D01*
X156039929Y-106454591D01*
X156026227Y-106505731D01*
X156026227Y-106505732D01*
X156017748Y-106537372D01*
X156017748Y-118019515D01*
X155999442Y-118063709D01*
X155326727Y-118736424D01*
X155282533Y-118754730D01*
X155037751Y-118754730D01*
X154952045Y-118754730D01*
X154952044Y-118754730D01*
X154952038Y-118754731D01*
X154869262Y-118776910D01*
X154869253Y-118776914D01*
X154795039Y-118819762D01*
X154795030Y-118819769D01*
X154320569Y-119294232D01*
X154320566Y-119294235D01*
X154067391Y-119547411D01*
X154067389Y-119547413D01*
X154023934Y-119612448D01*
X154003523Y-119715064D01*
X154003523Y-119715065D01*
X154023934Y-119817681D01*
X154023935Y-119817683D01*
X154067390Y-119882718D01*
X154120707Y-119936035D01*
X154139013Y-119980229D01*
X154120708Y-120024422D01*
X154067395Y-120077736D01*
X154067391Y-120077741D01*
X154023936Y-120142775D01*
X154023934Y-120142778D01*
X154003523Y-120245394D01*
X154003523Y-120245395D01*
X150682737Y-120245395D01*
X150651427Y-120224474D01*
X150642096Y-120201947D01*
X150630327Y-120142778D01*
X150586871Y-120077741D01*
X150539289Y-120030159D01*
X150533553Y-120024423D01*
X150515247Y-119980229D01*
X150533552Y-119936036D01*
X150586870Y-119882719D01*
X150630327Y-119817682D01*
X150642096Y-119758513D01*
X150668670Y-119718741D01*
X150691197Y-119709409D01*
X150750370Y-119697640D01*
X150815407Y-119654184D01*
X150940424Y-119529166D01*
X150983881Y-119464129D01*
X150995650Y-119404958D01*
X151022224Y-119365187D01*
X151044751Y-119355855D01*
X151103923Y-119344086D01*
X151168960Y-119300630D01*
X151293977Y-119175612D01*
X151337434Y-119110575D01*
X151349203Y-119051406D01*
X151375777Y-119011634D01*
X151398304Y-119002302D01*
X151457476Y-118990533D01*
X151522513Y-118947077D01*
X151647530Y-118822059D01*
X151690987Y-118757022D01*
X151702756Y-118697853D01*
X151729330Y-118658081D01*
X151751857Y-118648749D01*
X151811030Y-118636980D01*
X151876067Y-118593524D01*
X152001084Y-118468506D01*
X152044541Y-118403469D01*
X152056310Y-118344298D01*
X152082884Y-118304527D01*
X152105411Y-118295195D01*
X152164583Y-118283426D01*
X152229620Y-118239970D01*
X152282936Y-118186652D01*
X152327129Y-118168346D01*
X152371323Y-118186651D01*
X152424642Y-118239969D01*
X152489679Y-118283426D01*
X152548845Y-118295194D01*
X152588618Y-118321769D01*
X152597951Y-118344299D01*
X152609721Y-118403469D01*
X152609721Y-118403470D01*
X152653174Y-118468502D01*
X152653177Y-118468506D01*
X152778195Y-118593523D01*
X152843232Y-118636980D01*
X152902399Y-118648748D01*
X152942172Y-118675323D01*
X152951505Y-118697853D01*
X152963275Y-118757022D01*
X152963275Y-118757023D01*
X153006728Y-118822055D01*
X153006731Y-118822059D01*
X153131749Y-118947076D01*
X153196786Y-118990533D01*
X153255952Y-119002301D01*
X153295725Y-119028876D01*
X153305058Y-119051406D01*
X153316828Y-119110575D01*
X153316828Y-119110576D01*
X153358030Y-119172239D01*
X153360284Y-119175612D01*
X153485302Y-119300629D01*
X153485305Y-119300631D01*
X153550336Y-119344084D01*
X153550339Y-119344086D01*
X153652955Y-119364498D01*
X153652956Y-119364498D01*
X153652957Y-119364498D01*
X153696412Y-119355854D01*
X153755574Y-119344086D01*
X153820610Y-119300630D01*
X154387569Y-118733670D01*
X154431026Y-118668634D01*
X154451438Y-118566016D01*
X154431026Y-118463399D01*
X154387570Y-118398362D01*
X154272057Y-118282850D01*
X154253752Y-118238657D01*
X154272058Y-118194463D01*
X154295554Y-118179683D01*
X154339959Y-118164100D01*
X154346688Y-118162156D01*
X154391706Y-118151841D01*
X154405665Y-118150262D01*
X154447391Y-118150262D01*
X154447394Y-118150262D01*
X154560232Y-118109193D01*
X154599910Y-118078746D01*
X154896754Y-117781901D01*
X154927202Y-117742223D01*
X154968271Y-117629385D01*
X154968271Y-117509307D01*
X154927202Y-117396469D01*
X154896755Y-117356790D01*
X154896752Y-117356786D01*
X154642349Y-117102384D01*
X154642341Y-117102377D01*
X154642337Y-117102373D01*
X154602658Y-117071925D01*
X154489822Y-117030856D01*
X154489820Y-117030856D01*
X154369742Y-117030856D01*
X154369739Y-117030856D01*
X154256903Y-117071925D01*
X154256901Y-117071926D01*
X154217223Y-117102373D01*
X153920383Y-117399214D01*
X153889934Y-117438894D01*
X153881340Y-117462503D01*
X153874513Y-117475942D01*
X153867014Y-117487120D01*
X153867009Y-117487128D01*
X153836549Y-117560275D01*
X153835487Y-117562682D01*
X153804838Y-117628348D01*
X153803407Y-117631219D01*
X153779586Y-117676092D01*
X153742695Y-117706544D01*
X153695077Y-117701991D01*
X153680188Y-117690981D01*
X153555446Y-117566240D01*
X153555441Y-117566236D01*
X153545773Y-117559776D01*
X153519198Y-117520003D01*
X153528531Y-117473086D01*
X153536298Y-117463621D01*
X155203713Y-115796208D01*
X155246566Y-115721985D01*
X155268748Y-115639199D01*
X155268748Y-115553493D01*
X155268748Y-114155579D01*
X155270878Y-114139402D01*
X155277630Y-114114204D01*
X155277631Y-114114198D01*
X155277631Y-104600632D01*
X155281268Y-104579623D01*
X155286623Y-104564620D01*
X155311209Y-104495733D01*
X155312080Y-104493443D01*
X155312089Y-104493422D01*
X155333971Y-104439097D01*
X155349921Y-104399500D01*
X155351155Y-104396643D01*
X155387098Y-104318870D01*
X155388851Y-104315373D01*
X155421008Y-104256044D01*
X155431763Y-104241634D01*
X155436957Y-104236441D01*
X155445604Y-104218750D01*
X155449471Y-104211955D01*
X155456162Y-104201748D01*
X155476765Y-104161081D01*
X155478572Y-104156248D01*
X155480323Y-104150031D01*
X155484331Y-104139535D01*
X155491997Y-104123855D01*
X155502631Y-104050866D01*
X155502631Y-103229594D01*
X155491997Y-103156605D01*
X155442524Y-103055406D01*
X155436958Y-103044020D01*
X155348340Y-102955402D01*
X155235756Y-102900364D01*
X155162767Y-102889730D01*
X154741495Y-102889730D01*
X154668505Y-102900364D01*
X154668504Y-102900364D01*
X154555921Y-102955402D01*
X154467305Y-103044018D01*
X154467303Y-103044021D01*
X154458280Y-103062479D01*
X154422424Y-103094143D01*
X154374681Y-103091178D01*
X154345982Y-103062479D01*
X154336958Y-103044021D01*
X154336956Y-103044018D01*
X154248340Y-102955402D01*
X154135756Y-102900364D01*
X154062767Y-102889730D01*
X153641495Y-102889730D01*
X153568505Y-102900364D01*
X153568504Y-102900364D01*
X153455921Y-102955402D01*
X153367305Y-103044018D01*
X153367303Y-103044021D01*
X153358280Y-103062479D01*
X153322424Y-103094143D01*
X153274681Y-103091178D01*
X153245982Y-103062479D01*
X153236958Y-103044021D01*
X153236956Y-103044018D01*
X153148340Y-102955402D01*
X153035756Y-102900364D01*
X152962767Y-102889730D01*
X152541495Y-102889730D01*
X152468505Y-102900364D01*
X152468504Y-102900364D01*
X152355921Y-102955402D01*
X152267305Y-103044018D01*
X152267303Y-103044021D01*
X152258280Y-103062479D01*
X152222424Y-103094143D01*
X152174681Y-103091178D01*
X152145982Y-103062479D01*
X152136958Y-103044021D01*
X152136956Y-103044018D01*
X152048340Y-102955402D01*
X151935756Y-102900364D01*
X151862767Y-102889730D01*
X151441495Y-102889730D01*
X151368505Y-102900364D01*
X151368504Y-102900364D01*
X151255921Y-102955402D01*
X151167305Y-103044018D01*
X151167303Y-103044021D01*
X151158280Y-103062479D01*
X151122424Y-103094143D01*
X151074681Y-103091178D01*
X151045982Y-103062479D01*
X151036958Y-103044021D01*
X151036956Y-103044018D01*
X150948340Y-102955402D01*
X150835756Y-102900364D01*
X150762767Y-102889730D01*
X150341495Y-102889730D01*
X150268505Y-102900364D01*
X150268504Y-102900364D01*
X150155921Y-102955402D01*
X150067303Y-103044020D01*
X150012265Y-103156603D01*
X150012265Y-103156604D01*
X150001631Y-103229594D01*
X150001631Y-103428844D01*
X149996638Y-103453321D01*
X149978742Y-103495366D01*
X149947627Y-103568463D01*
X149946782Y-103570359D01*
X149883665Y-103705956D01*
X149882601Y-103708132D01*
X149820595Y-103828879D01*
X149819235Y-103831385D01*
X149758706Y-103937094D01*
X149756945Y-103939983D01*
X149698862Y-104029750D01*
X149698858Y-104029757D01*
X149697645Y-104031633D01*
X149697486Y-104031530D01*
X149688395Y-104043638D01*
X149482781Y-104249252D01*
X149439932Y-104323468D01*
X149439929Y-104323476D01*
X149421908Y-104390728D01*
X149421909Y-104390729D01*
X149417748Y-104406258D01*
X149417748Y-118499858D01*
X149417749Y-118499866D01*
X149439928Y-118582642D01*
X149439932Y-118582651D01*
X149482780Y-118656865D01*
X149482787Y-118656874D01*
X149703743Y-118877829D01*
X149722049Y-118922023D01*
X149703743Y-118966217D01*
X149694274Y-118973989D01*
X149684602Y-118980451D01*
X149684601Y-118980452D01*
X149559587Y-119105467D01*
X149559583Y-119105472D01*
X149516130Y-119170503D01*
X149516128Y-119170506D01*
X149495717Y-119273122D01*
X149495717Y-119273123D01*
X149516128Y-119375739D01*
X149516128Y-119375740D01*
X149516129Y-119375741D01*
X149559585Y-119440777D01*
X149828216Y-119709408D01*
X150054844Y-119936035D01*
X150073150Y-119980229D01*
X150054844Y-120024423D01*
X149873368Y-120205900D01*
X149873367Y-120205901D01*
X149696678Y-120382589D01*
X149652484Y-120400895D01*
X149542663Y-120400895D01*
X149498469Y-120382589D01*
X149199828Y-120083948D01*
X149187098Y-120065559D01*
X149171609Y-120031390D01*
X149170543Y-120028894D01*
X149142379Y-119958629D01*
X149141578Y-119956520D01*
X149134219Y-119936035D01*
X149112398Y-119875290D01*
X149111788Y-119873507D01*
X149081887Y-119781629D01*
X149081413Y-119780107D01*
X149056341Y-119695820D01*
X149053747Y-119678000D01*
X149053747Y-119615267D01*
X149053747Y-119615259D01*
X149047220Y-119565672D01*
X148996472Y-119456843D01*
X148996470Y-119456841D01*
X148996470Y-119456840D01*
X148911566Y-119371936D01*
X148802734Y-119321186D01*
X148753149Y-119314659D01*
X148333356Y-119314659D01*
X148333354Y-119314659D01*
X148333348Y-119314660D01*
X148283761Y-119321187D01*
X148283759Y-119321187D01*
X148283758Y-119321188D01*
X148174929Y-119371936D01*
X148090025Y-119456840D01*
X148039275Y-119565672D01*
X148032748Y-119615251D01*
X148032748Y-119918379D01*
X148014442Y-119962573D01*
X147970248Y-119980879D01*
X147942966Y-119974610D01*
X147834496Y-119921983D01*
X147805750Y-119910619D01*
X147805728Y-119910612D01*
X147787852Y-119905060D01*
X147787850Y-119905059D01*
X147787842Y-119905057D01*
X147757714Y-119898134D01*
X147741655Y-119895697D01*
X147623420Y-119877757D01*
X147608046Y-119876015D01*
X147598682Y-119875310D01*
X147584524Y-119874778D01*
X147583238Y-119874730D01*
X146144135Y-119874730D01*
X146135410Y-119875015D01*
X146130705Y-119875169D01*
X146122537Y-119875704D01*
X146109152Y-119877021D01*
X145991968Y-119892449D01*
X145991957Y-119892451D01*
X145965617Y-119897690D01*
X145949858Y-119901912D01*
X145949838Y-119901918D01*
X145923415Y-119910887D01*
X145923197Y-119910245D01*
X145877243Y-119908738D01*
X145844546Y-119873823D01*
X145840541Y-119851811D01*
X145840541Y-118780230D01*
X145988149Y-118780230D01*
X146006500Y-118966559D01*
X146024197Y-119024897D01*
X146057711Y-119135378D01*
X146060854Y-119145736D01*
X146149108Y-119310849D01*
X146149112Y-119310855D01*
X146267891Y-119455587D01*
X146412623Y-119574366D01*
X146412625Y-119574367D01*
X146412628Y-119574369D01*
X146577741Y-119662623D01*
X146577747Y-119662626D01*
X146756917Y-119716977D01*
X146943248Y-119735329D01*
X147129579Y-119716977D01*
X147308749Y-119662626D01*
X147473873Y-119574366D01*
X147618605Y-119455587D01*
X147737384Y-119310855D01*
X147825644Y-119145731D01*
X147879995Y-118966561D01*
X147898347Y-118780230D01*
X147895835Y-118754730D01*
X147884238Y-118636978D01*
X147879995Y-118593899D01*
X147825644Y-118414729D01*
X147819626Y-118403470D01*
X147737387Y-118249610D01*
X147737383Y-118249604D01*
X147736624Y-118248679D01*
X147618605Y-118104873D01*
X147473873Y-117986094D01*
X147473867Y-117986090D01*
X147308754Y-117897836D01*
X147308751Y-117897835D01*
X147308749Y-117897834D01*
X147169250Y-117855517D01*
X147129577Y-117843482D01*
X146943248Y-117825131D01*
X146756918Y-117843482D01*
X146655878Y-117874133D01*
X146577747Y-117897834D01*
X146577746Y-117897834D01*
X146577741Y-117897836D01*
X146412628Y-117986090D01*
X146412622Y-117986094D01*
X146267891Y-118104873D01*
X146149112Y-118249604D01*
X146149108Y-118249610D01*
X146060854Y-118414723D01*
X146006500Y-118593900D01*
X145988149Y-118780229D01*
X145988149Y-118780230D01*
X145840541Y-118780230D01*
X145840541Y-102750727D01*
X145840884Y-102747085D01*
X145840852Y-102743184D01*
X145840854Y-102743182D01*
X145840559Y-102706371D01*
X145840813Y-102700238D01*
X145854239Y-102552567D01*
X145856553Y-102540485D01*
X145897792Y-102401280D01*
X145902428Y-102389893D01*
X145970160Y-102261478D01*
X145976942Y-102251218D01*
X146068534Y-102138578D01*
X146077197Y-102129845D01*
X146189097Y-102037348D01*
X146199301Y-102030485D01*
X146327167Y-101961724D01*
X146338518Y-101956995D01*
X146477380Y-101914639D01*
X146489449Y-101912225D01*
X146606787Y-101900604D01*
X146636534Y-101897659D01*
X146642693Y-101897355D01*
X157233760Y-101897355D01*
X157247737Y-101897355D01*
X157247780Y-101897372D01*
X157273642Y-101897371D01*
X157273642Y-101897372D01*
X157582612Y-101897361D01*
X158199839Y-101867693D01*
X158814930Y-101808427D01*
X159120698Y-101764063D01*
X159426451Y-101719703D01*
X159426463Y-101719700D01*
X159426467Y-101719700D01*
X160033040Y-101601717D01*
X160633248Y-101454750D01*
X160828124Y-101396986D01*
X160875696Y-101401977D01*
G37*
%TD.AperFunction*%
%TA.AperFunction,Conductor*%
G36*
X154484325Y-104263453D02*
G01*
X154495074Y-104277858D01*
X154515386Y-104315332D01*
X154517162Y-104318874D01*
X154553100Y-104396636D01*
X154554339Y-104399504D01*
X154592170Y-104493422D01*
X154593056Y-104495753D01*
X154622993Y-104579623D01*
X154622994Y-104579624D01*
X154626631Y-104600635D01*
X154626631Y-113995994D01*
X154624502Y-114012169D01*
X154617748Y-114037375D01*
X154617748Y-115435631D01*
X154599442Y-115479825D01*
X152552799Y-117526468D01*
X152371324Y-117707942D01*
X152327130Y-117726248D01*
X152282936Y-117707942D01*
X151787677Y-117212684D01*
X151787675Y-117212682D01*
X151726708Y-117171945D01*
X151722642Y-117169228D01*
X151722641Y-117169227D01*
X151722640Y-117169227D01*
X151620025Y-117148816D01*
X151620023Y-117148816D01*
X151517407Y-117169227D01*
X151517405Y-117169228D01*
X151465971Y-117203596D01*
X151419055Y-117212928D01*
X151379281Y-117186352D01*
X151368748Y-117151629D01*
X151368748Y-116240943D01*
X151387053Y-116196750D01*
X152946846Y-114636956D01*
X152946851Y-114636953D01*
X152951991Y-114631812D01*
X152951993Y-114631812D01*
X153012596Y-114571209D01*
X153055449Y-114496985D01*
X153059589Y-114481533D01*
X153077632Y-114414199D01*
X153077632Y-114328494D01*
X153077632Y-114324670D01*
X153077631Y-114324652D01*
X153077631Y-104600632D01*
X153081268Y-104579623D01*
X153086623Y-104564620D01*
X153111209Y-104495733D01*
X153112080Y-104493443D01*
X153112089Y-104493422D01*
X153133971Y-104439097D01*
X153149921Y-104399500D01*
X153151155Y-104396643D01*
X153187098Y-104318870D01*
X153188864Y-104315348D01*
X153209184Y-104277860D01*
X153246337Y-104247729D01*
X153293914Y-104252696D01*
X153324045Y-104289849D01*
X153326631Y-104307643D01*
X153326631Y-105869664D01*
X153324501Y-105885841D01*
X153317747Y-105911042D01*
X153317747Y-106049418D01*
X153353559Y-106183062D01*
X153353559Y-106183064D01*
X153353560Y-106183065D01*
X153417618Y-106294017D01*
X153422745Y-106302896D01*
X153422748Y-106302900D01*
X153520577Y-106400729D01*
X153520581Y-106400732D01*
X153520583Y-106400734D01*
X153640413Y-106469918D01*
X153681308Y-106480876D01*
X153774059Y-106505730D01*
X153774065Y-106505731D01*
X153912431Y-106505731D01*
X153912436Y-106505730D01*
X153952142Y-106495090D01*
X154046083Y-106469918D01*
X154165913Y-106400734D01*
X154169644Y-106397002D01*
X154169651Y-106396999D01*
X154169650Y-106396998D01*
X154272631Y-106294017D01*
X154272636Y-106294012D01*
X154341819Y-106174183D01*
X154377631Y-106040530D01*
X154377631Y-105211047D01*
X154377631Y-104307647D01*
X154395937Y-104263453D01*
X154440131Y-104245147D01*
X154484325Y-104263453D01*
G37*
%TD.AperFunction*%
%TA.AperFunction,Conductor*%
G36*
X152236445Y-104193391D02*
G01*
X152254407Y-104211374D01*
X152254789Y-104211957D01*
X152258660Y-104218759D01*
X152267303Y-104236438D01*
X152267307Y-104236443D01*
X152272498Y-104241634D01*
X152283251Y-104256045D01*
X152315375Y-104315311D01*
X152317162Y-104318874D01*
X152353100Y-104396636D01*
X152354339Y-104399504D01*
X152392170Y-104493422D01*
X152393056Y-104495753D01*
X152422993Y-104579623D01*
X152422994Y-104579624D01*
X152426631Y-104600635D01*
X152426631Y-114210631D01*
X152408325Y-114254825D01*
X150782785Y-115880364D01*
X150780834Y-115882908D01*
X150739408Y-115906827D01*
X150693202Y-115894448D01*
X150669283Y-115853022D01*
X150668748Y-115844862D01*
X150668748Y-114840945D01*
X150687054Y-114796751D01*
X151703708Y-113780097D01*
X151703713Y-113780092D01*
X151746566Y-113705869D01*
X151768748Y-113623083D01*
X151768748Y-113537377D01*
X151768748Y-104940945D01*
X151787054Y-104896751D01*
X151912591Y-104771214D01*
X151912596Y-104771209D01*
X151955449Y-104696986D01*
X151977631Y-104614200D01*
X151977631Y-104600632D01*
X151981268Y-104579623D01*
X151986623Y-104564620D01*
X152011209Y-104495733D01*
X152012080Y-104493443D01*
X152012089Y-104493422D01*
X152033971Y-104439097D01*
X152049921Y-104399500D01*
X152051155Y-104396643D01*
X152087098Y-104318870D01*
X152088851Y-104315373D01*
X152121008Y-104256044D01*
X152131763Y-104241634D01*
X152136957Y-104236441D01*
X152145604Y-104218750D01*
X152149505Y-104211904D01*
X152149893Y-104211312D01*
X152189457Y-104184426D01*
X152236445Y-104193391D01*
G37*
%TD.AperFunction*%
%TA.AperFunction,Conductor*%
G36*
X151129524Y-104189394D02*
G01*
X151154353Y-104211291D01*
X151154790Y-104211958D01*
X151154791Y-104211959D01*
X151158660Y-104218759D01*
X151167303Y-104236438D01*
X151167307Y-104236443D01*
X151172498Y-104241634D01*
X151183251Y-104256045D01*
X151215375Y-104315311D01*
X151217162Y-104318874D01*
X151250800Y-104391659D01*
X151253104Y-104396643D01*
X151254339Y-104399500D01*
X151256604Y-104405123D01*
X151270288Y-104439097D01*
X151269819Y-104486930D01*
X151256508Y-104506642D01*
X151182781Y-104580369D01*
X151139932Y-104654585D01*
X151139928Y-104654594D01*
X151126280Y-104705534D01*
X151126280Y-104705535D01*
X151117748Y-104737372D01*
X151117748Y-113419514D01*
X151099442Y-113463708D01*
X150175442Y-114387708D01*
X150131248Y-114406014D01*
X150087054Y-114387708D01*
X150068748Y-114343514D01*
X150068748Y-104609827D01*
X150087051Y-104565636D01*
X150147253Y-104505433D01*
X150159413Y-104495964D01*
X150225676Y-104456433D01*
X150232123Y-104453081D01*
X150292705Y-104425947D01*
X150300316Y-104423117D01*
X150356231Y-104406386D01*
X150364820Y-104404465D01*
X150417300Y-104396563D01*
X150426483Y-104395866D01*
X150486089Y-104395751D01*
X150486947Y-104395750D01*
X150496767Y-104394037D01*
X150510412Y-104391658D01*
X150521146Y-104390730D01*
X150762767Y-104390730D01*
X150835756Y-104380096D01*
X150948342Y-104325056D01*
X151036957Y-104236441D01*
X151045926Y-104218093D01*
X151081780Y-104186431D01*
X151129524Y-104189394D01*
G37*
%TD.AperFunction*%
%TA.AperFunction,Conductor*%
G36*
X172466104Y-100310474D02*
G01*
X172484410Y-100354668D01*
X172484410Y-101091906D01*
X172466104Y-101136100D01*
X172421910Y-101154406D01*
X170742176Y-101154406D01*
X170742159Y-101154407D01*
X170682554Y-101160815D01*
X170547709Y-101211109D01*
X170547704Y-101211112D01*
X170432497Y-101297357D01*
X170432492Y-101297362D01*
X170346247Y-101412569D01*
X170346244Y-101412574D01*
X170295950Y-101547419D01*
X170289541Y-101607025D01*
X170289541Y-101741906D01*
X170271235Y-101786100D01*
X170227041Y-101804406D01*
X170135115Y-101804406D01*
X170090921Y-101786100D01*
X170078966Y-101769356D01*
X170024868Y-101658696D01*
X169936250Y-101570078D01*
X169823666Y-101515040D01*
X169750677Y-101504406D01*
X169329405Y-101504406D01*
X169256415Y-101515040D01*
X169256414Y-101515040D01*
X169143831Y-101570078D01*
X169055213Y-101658696D01*
X169000175Y-101771279D01*
X169000175Y-101771280D01*
X168989541Y-101844270D01*
X168989541Y-102111051D01*
X168971235Y-102155245D01*
X168590380Y-102536100D01*
X168546186Y-102554406D01*
X164979497Y-102554406D01*
X164935303Y-102536100D01*
X164416427Y-102017224D01*
X164398121Y-101973030D01*
X164405502Y-101943568D01*
X164415671Y-101924544D01*
X164470022Y-101745374D01*
X164488374Y-101559043D01*
X164481695Y-101491235D01*
X164470022Y-101372713D01*
X164470022Y-101372712D01*
X164415671Y-101193542D01*
X164380928Y-101128542D01*
X164327414Y-101028423D01*
X164327410Y-101028417D01*
X164323221Y-101023313D01*
X164208632Y-100883686D01*
X164063900Y-100764907D01*
X164063894Y-100764903D01*
X163898781Y-100676649D01*
X163898778Y-100676648D01*
X163898776Y-100676647D01*
X163825395Y-100654387D01*
X163719605Y-100622295D01*
X163693423Y-100619717D01*
X163651236Y-100597167D01*
X163637351Y-100551391D01*
X163659901Y-100509204D01*
X163687615Y-100496168D01*
X164046917Y-100426283D01*
X164050225Y-100425733D01*
X164584673Y-100351933D01*
X164588016Y-100351565D01*
X165125666Y-100307199D01*
X165129029Y-100307014D01*
X165278698Y-100302906D01*
X165323378Y-100319992D01*
X165342889Y-100363667D01*
X165325803Y-100408347D01*
X165298557Y-100425190D01*
X165274537Y-100432476D01*
X165109421Y-100520732D01*
X165109415Y-100520736D01*
X164964684Y-100639515D01*
X164845905Y-100784246D01*
X164845901Y-100784252D01*
X164757647Y-100949365D01*
X164703293Y-101128542D01*
X164684942Y-101314871D01*
X164684942Y-101314872D01*
X164703293Y-101501201D01*
X164717315Y-101547423D01*
X164754623Y-101670412D01*
X164757647Y-101680378D01*
X164845901Y-101845491D01*
X164845905Y-101845497D01*
X164964684Y-101990229D01*
X165109416Y-102109008D01*
X165109418Y-102109009D01*
X165109421Y-102109011D01*
X165274534Y-102197265D01*
X165274540Y-102197268D01*
X165453710Y-102251619D01*
X165640041Y-102269971D01*
X165826372Y-102251619D01*
X166005542Y-102197268D01*
X166170666Y-102109008D01*
X166315398Y-101990229D01*
X166434177Y-101845497D01*
X166453991Y-101808427D01*
X166482641Y-101754826D01*
X166519618Y-101724479D01*
X166537761Y-101721788D01*
X166664800Y-101721788D01*
X166664800Y-101721787D01*
X166802891Y-101681241D01*
X166865741Y-101640850D01*
X166912817Y-101632356D01*
X166952109Y-101659638D01*
X166957275Y-101669514D01*
X166957646Y-101670410D01*
X167045901Y-101835525D01*
X167045905Y-101835531D01*
X167164684Y-101980263D01*
X167309416Y-102099042D01*
X167309418Y-102099043D01*
X167309421Y-102099045D01*
X167414565Y-102155245D01*
X167474540Y-102187302D01*
X167653710Y-102241653D01*
X167840041Y-102260005D01*
X168026372Y-102241653D01*
X168205542Y-102187302D01*
X168370666Y-102099042D01*
X168515398Y-101980263D01*
X168634177Y-101835531D01*
X168722437Y-101670407D01*
X168776788Y-101491237D01*
X168795140Y-101304906D01*
X168794396Y-101297357D01*
X168777770Y-101128542D01*
X168776788Y-101118575D01*
X168722437Y-100939405D01*
X168669073Y-100839567D01*
X168634180Y-100774286D01*
X168634176Y-100774280D01*
X168626484Y-100764907D01*
X168515398Y-100629549D01*
X168370666Y-100510770D01*
X168370660Y-100510766D01*
X168205547Y-100422512D01*
X168205544Y-100422511D01*
X168205542Y-100422510D01*
X168179057Y-100414476D01*
X168142082Y-100384130D01*
X168137393Y-100336525D01*
X168167740Y-100299548D01*
X168197202Y-100292168D01*
X172421910Y-100292168D01*
X172466104Y-100310474D01*
G37*
%TD.AperFunction*%
%TA.AperFunction,Conductor*%
G36*
X162953979Y-100692508D02*
G01*
X162984597Y-100729261D01*
X162980258Y-100776899D01*
X162964573Y-100796156D01*
X162857918Y-100883686D01*
X162739139Y-101028417D01*
X162739135Y-101028423D01*
X162650881Y-101193536D01*
X162596527Y-101372713D01*
X162578176Y-101559042D01*
X162578176Y-101559043D01*
X162596527Y-101745372D01*
X162608882Y-101786100D01*
X162647327Y-101912835D01*
X162650881Y-101924549D01*
X162739135Y-102089662D01*
X162739139Y-102089668D01*
X162834934Y-102206394D01*
X162848820Y-102252169D01*
X162826271Y-102294356D01*
X162786621Y-102308543D01*
X162511231Y-102308543D01*
X162467037Y-102290237D01*
X162448731Y-102246043D01*
X162449032Y-102239917D01*
X162449502Y-102235145D01*
X162449502Y-102235144D01*
X162431150Y-102048815D01*
X162431150Y-102048814D01*
X162376799Y-101869644D01*
X162363889Y-101845491D01*
X162288542Y-101704525D01*
X162288538Y-101704519D01*
X162268722Y-101680373D01*
X162169760Y-101559788D01*
X162025028Y-101441009D01*
X162025022Y-101441005D01*
X161859909Y-101352751D01*
X161859906Y-101352750D01*
X161859904Y-101352749D01*
X161761126Y-101322785D01*
X161680732Y-101298397D01*
X161564632Y-101286963D01*
X161522445Y-101264414D01*
X161508559Y-101218638D01*
X161531108Y-101176451D01*
X161550140Y-101165763D01*
X161627442Y-101138749D01*
X161809056Y-101075283D01*
X161907926Y-101035311D01*
X161907954Y-101035309D01*
X161911940Y-101033697D01*
X161923654Y-101031848D01*
X161936069Y-101023941D01*
X161936713Y-101023680D01*
X161937602Y-101023321D01*
X161937626Y-101023321D01*
X161937623Y-101023313D01*
X161961587Y-101013625D01*
X161963142Y-101013021D01*
X162469407Y-100824327D01*
X162472652Y-100823218D01*
X162551491Y-100798668D01*
X162906341Y-100688169D01*
X162953979Y-100692508D01*
G37*
%TD.AperFunction*%
%TD*%
%TA.AperFunction,Conductor*%
%TO.N,Net-(U1-VDD)*%
G36*
X148851598Y-119737639D02*
G01*
X148856276Y-119744007D01*
X148885427Y-119842006D01*
X148917628Y-119940949D01*
X148949816Y-120030552D01*
X148982007Y-120110863D01*
X149010848Y-120174487D01*
X149011143Y-120183437D01*
X149008465Y-120187590D01*
X148845173Y-120350882D01*
X148836900Y-120354309D01*
X148829176Y-120351397D01*
X148751762Y-120283349D01*
X148751754Y-120283342D01*
X148733573Y-120269335D01*
X148666094Y-120217347D01*
X148580434Y-120160651D01*
X148580419Y-120160642D01*
X148494798Y-120113267D01*
X148494755Y-120113246D01*
X148420077Y-120080035D01*
X148413910Y-120073542D01*
X148414141Y-120064591D01*
X148414264Y-120064322D01*
X148430318Y-120030548D01*
X148540008Y-119799779D01*
X148546654Y-119793780D01*
X148548322Y-119793323D01*
X148842822Y-119735860D01*
X148851598Y-119737639D01*
G37*
%TD.AperFunction*%
%TD*%
%TA.AperFunction,Conductor*%
%TO.N,Net-(U1-SDREG)*%
G36*
X154399498Y-117588965D02*
G01*
X154407427Y-117593124D01*
X154410100Y-117599633D01*
X154437838Y-117928131D01*
X154435119Y-117936663D01*
X154427427Y-117940748D01*
X154362455Y-117947718D01*
X154286129Y-117965206D01*
X154286116Y-117965210D01*
X154209778Y-117992000D01*
X154133448Y-118028087D01*
X154064922Y-118068831D01*
X154056060Y-118070113D01*
X154050670Y-118067047D01*
X153887417Y-117903794D01*
X153883990Y-117895521D01*
X153886247Y-117888614D01*
X153916265Y-117847602D01*
X153952204Y-117789201D01*
X153988144Y-117721499D01*
X154024083Y-117644498D01*
X154056720Y-117566124D01*
X154063063Y-117559806D01*
X154068574Y-117558972D01*
X154399498Y-117588965D01*
G37*
%TD.AperFunction*%
%TD*%
%TA.AperFunction,Conductor*%
%TO.N,SD_D0*%
G36*
X157159211Y-103649250D02*
G01*
X157161443Y-103651482D01*
X157292068Y-103823345D01*
X157483808Y-104075620D01*
X157486086Y-104084280D01*
X157484279Y-104089113D01*
X157446472Y-104146807D01*
X157404149Y-104224890D01*
X157404134Y-104224920D01*
X157361806Y-104316506D01*
X157361800Y-104316521D01*
X157319463Y-104421629D01*
X157279903Y-104532463D01*
X157273895Y-104539103D01*
X157268884Y-104540230D01*
X157035378Y-104540230D01*
X157027105Y-104536803D01*
X157024359Y-104532463D01*
X156984797Y-104421629D01*
X156984795Y-104421623D01*
X156942459Y-104316517D01*
X156900123Y-104224912D01*
X156857787Y-104146806D01*
X156819982Y-104089113D01*
X156818314Y-104080315D01*
X156820453Y-104075620D01*
X157142817Y-103651484D01*
X157150551Y-103646972D01*
X157159211Y-103649250D01*
G37*
%TD.AperFunction*%
%TD*%
%TA.AperFunction,Conductor*%
%TO.N,SD_D3*%
G36*
X151659211Y-103649250D02*
G01*
X151661443Y-103651482D01*
X151792068Y-103823345D01*
X151983808Y-104075620D01*
X151986086Y-104084280D01*
X151984279Y-104089113D01*
X151946472Y-104146807D01*
X151904149Y-104224890D01*
X151904134Y-104224920D01*
X151861806Y-104316506D01*
X151861800Y-104316521D01*
X151819463Y-104421629D01*
X151779903Y-104532463D01*
X151773895Y-104539103D01*
X151768884Y-104540230D01*
X151535378Y-104540230D01*
X151527105Y-104536803D01*
X151524359Y-104532463D01*
X151484797Y-104421629D01*
X151484795Y-104421623D01*
X151442459Y-104316517D01*
X151400123Y-104224912D01*
X151357787Y-104146806D01*
X151319982Y-104089113D01*
X151318314Y-104080315D01*
X151320453Y-104075620D01*
X151642817Y-103651484D01*
X151650551Y-103646972D01*
X151659211Y-103649250D01*
G37*
%TD.AperFunction*%
%TD*%
%TA.AperFunction,Conductor*%
%TO.N,SD_CLK*%
G36*
X154959211Y-103649250D02*
G01*
X154961443Y-103651482D01*
X155092068Y-103823345D01*
X155283808Y-104075620D01*
X155286086Y-104084280D01*
X155284279Y-104089113D01*
X155246472Y-104146807D01*
X155204149Y-104224890D01*
X155204134Y-104224920D01*
X155161806Y-104316506D01*
X155161800Y-104316521D01*
X155119463Y-104421629D01*
X155079903Y-104532463D01*
X155073895Y-104539103D01*
X155068884Y-104540230D01*
X154835378Y-104540230D01*
X154827105Y-104536803D01*
X154824359Y-104532463D01*
X154784797Y-104421629D01*
X154784795Y-104421623D01*
X154742459Y-104316517D01*
X154700123Y-104224912D01*
X154657787Y-104146806D01*
X154619982Y-104089113D01*
X154618314Y-104080315D01*
X154620453Y-104075620D01*
X154942817Y-103651484D01*
X154950551Y-103646972D01*
X154959211Y-103649250D01*
G37*
%TD.AperFunction*%
%TD*%
%TA.AperFunction,Conductor*%
%TO.N,SD_D1*%
G36*
X158259211Y-103649250D02*
G01*
X158261443Y-103651482D01*
X158392068Y-103823345D01*
X158583808Y-104075620D01*
X158586086Y-104084280D01*
X158584279Y-104089113D01*
X158546472Y-104146807D01*
X158504149Y-104224890D01*
X158504134Y-104224920D01*
X158461806Y-104316506D01*
X158461800Y-104316521D01*
X158419463Y-104421629D01*
X158379903Y-104532463D01*
X158373895Y-104539103D01*
X158368884Y-104540230D01*
X158135378Y-104540230D01*
X158127105Y-104536803D01*
X158124359Y-104532463D01*
X158084797Y-104421629D01*
X158084795Y-104421623D01*
X158042459Y-104316517D01*
X158000123Y-104224912D01*
X157957787Y-104146806D01*
X157919982Y-104089113D01*
X157918314Y-104080315D01*
X157920453Y-104075620D01*
X158242817Y-103651484D01*
X158250551Y-103646972D01*
X158259211Y-103649250D01*
G37*
%TD.AperFunction*%
%TD*%
%TA.AperFunction,Conductor*%
%TO.N,SD_D2*%
G36*
X150212820Y-103499653D02*
G01*
X150544769Y-103636204D01*
X150551116Y-103642520D01*
X150551959Y-103648202D01*
X150498167Y-104179728D01*
X150493924Y-104187614D01*
X150486549Y-104190250D01*
X150406290Y-104190405D01*
X150315475Y-104204080D01*
X150224668Y-104231251D01*
X150224661Y-104231254D01*
X150133839Y-104271932D01*
X150050856Y-104321437D01*
X150041996Y-104322732D01*
X150036589Y-104319662D01*
X149872944Y-104156017D01*
X149869517Y-104147744D01*
X149871394Y-104141388D01*
X149933430Y-104045514D01*
X150000605Y-103928199D01*
X150067781Y-103797385D01*
X150134956Y-103653070D01*
X150197604Y-103505890D01*
X150203997Y-103499621D01*
X150212820Y-103499653D01*
G37*
%TD.AperFunction*%
%TD*%
%TA.AperFunction,Conductor*%
%TO.N,SD_CMD*%
G36*
X152759211Y-103649250D02*
G01*
X152761443Y-103651482D01*
X152892068Y-103823345D01*
X153083808Y-104075620D01*
X153086086Y-104084280D01*
X153084279Y-104089113D01*
X153046472Y-104146807D01*
X153004149Y-104224890D01*
X153004134Y-104224920D01*
X152961806Y-104316506D01*
X152961800Y-104316521D01*
X152919463Y-104421629D01*
X152879903Y-104532463D01*
X152873895Y-104539103D01*
X152868884Y-104540230D01*
X152635378Y-104540230D01*
X152627105Y-104536803D01*
X152624359Y-104532463D01*
X152584797Y-104421629D01*
X152584795Y-104421623D01*
X152542459Y-104316517D01*
X152500123Y-104224912D01*
X152457787Y-104146806D01*
X152419982Y-104089113D01*
X152418314Y-104080315D01*
X152420453Y-104075620D01*
X152742817Y-103651484D01*
X152750551Y-103646972D01*
X152759211Y-103649250D01*
G37*
%TD.AperFunction*%
%TD*%
M02*
