%TF.GenerationSoftware,KiCad,Pcbnew,8.99.0-417-ga763d613e5*%
%TF.CreationDate,2024-07-02T15:16:59-04:00*%
%TF.ProjectId,kawaiiSD,6b617761-6969-4534-942e-6b696361645f,rev?*%
%TF.SameCoordinates,Original*%
%TF.FileFunction,Soldermask,Top*%
%TF.FilePolarity,Negative*%
%FSLAX46Y46*%
G04 Gerber Fmt 4.6, Leading zero omitted, Abs format (unit mm)*
G04 Created by KiCad (PCBNEW 8.99.0-417-ga763d613e5) date 2024-07-02 15:16:59*
%MOMM*%
%LPD*%
G01*
G04 APERTURE LIST*
G04 Aperture macros list*
%AMRoundRect*
0 Rectangle with rounded corners*
0 $1 Rounding radius*
0 $2 $3 $4 $5 $6 $7 $8 $9 X,Y pos of 4 corners*
0 Add a 4 corners polygon primitive as box body*
4,1,4,$2,$3,$4,$5,$6,$7,$8,$9,$2,$3,0*
0 Add four circle primitives for the rounded corners*
1,1,$1+$1,$2,$3*
1,1,$1+$1,$4,$5*
1,1,$1+$1,$6,$7*
1,1,$1+$1,$8,$9*
0 Add four rect primitives between the rounded corners*
20,1,$1+$1,$2,$3,$4,$5,0*
20,1,$1+$1,$4,$5,$6,$7,0*
20,1,$1+$1,$6,$7,$8,$9,0*
20,1,$1+$1,$8,$9,$2,$3,0*%
%AMHorizOval*
0 Thick line with rounded ends*
0 $1 width*
0 $2 $3 position (X,Y) of the first rounded end (center of the circle)*
0 $4 $5 position (X,Y) of the second rounded end (center of the circle)*
0 Add line between two ends*
20,1,$1,$2,$3,$4,$5,0*
0 Add two circle primitives to create the rounded ends*
1,1,$1,$2,$3*
1,1,$1,$4,$5*%
G04 Aperture macros list end*
%ADD10C,1.900000*%
%ADD11C,0.855000*%
%ADD12C,0.880000*%
%ADD13C,0.125000*%
%ADD14HorizOval,1.000000X-0.176777X0.176777X0.176777X-0.176777X0*%
%ADD15O,1.500000X1.000000*%
%ADD16C,1.500000*%
%ADD17RoundRect,0.100000X0.225000X0.100000X-0.225000X0.100000X-0.225000X-0.100000X0.225000X-0.100000X0*%
%ADD18RoundRect,0.175000X0.175000X-0.175000X0.175000X0.175000X-0.175000X0.175000X-0.175000X-0.175000X0*%
%ADD19RoundRect,0.137500X0.019427X0.211979X-0.205840X0.054245X-0.019427X-0.211979X0.205840X-0.054245X0*%
%ADD20RoundRect,0.145000X0.611522X0.251180X0.445184X0.488734X-0.611522X-0.251180X-0.445184X-0.488734X0*%
%ADD21RoundRect,0.125000X0.174091X-0.030697X0.030697X0.174091X-0.174091X0.030697X-0.030697X-0.174091X0*%
%ADD22RoundRect,0.150000X-0.150000X-0.250000X0.150000X-0.250000X0.150000X0.250000X-0.150000X0.250000X0*%
%ADD23RoundRect,0.140000X0.170000X-0.140000X0.170000X0.140000X-0.170000X0.140000X-0.170000X-0.140000X0*%
%ADD24RoundRect,0.225000X0.017678X-0.335876X0.335876X-0.017678X-0.017678X0.335876X-0.335876X0.017678X0*%
%ADD25RoundRect,0.300000X-0.950000X-0.450000X0.950000X-0.450000X0.950000X0.450000X-0.950000X0.450000X0*%
%ADD26RoundRect,0.101250X0.393750X-0.101250X0.393750X0.101250X-0.393750X0.101250X-0.393750X-0.101250X0*%
%ADD27RoundRect,0.101250X0.153750X-0.101250X0.153750X0.101250X-0.153750X0.101250X-0.153750X-0.101250X0*%
%ADD28RoundRect,0.095000X-0.855000X-1.022500X0.855000X-1.022500X0.855000X1.022500X-0.855000X1.022500X0*%
%ADD29RoundRect,0.140000X-0.219203X-0.021213X-0.021213X-0.219203X0.219203X0.021213X0.021213X0.219203X0*%
%ADD30RoundRect,0.175000X0.175000X0.175000X-0.175000X0.175000X-0.175000X-0.175000X0.175000X-0.175000X0*%
%ADD31RoundRect,0.140000X-0.091230X-0.200442X0.179229X-0.127973X0.091230X0.200442X-0.179229X0.127973X0*%
%ADD32RoundRect,0.062500X-0.220971X-0.309359X0.309359X0.220971X0.220971X0.309359X-0.309359X-0.220971X0*%
%ADD33RoundRect,0.062500X0.220971X-0.309359X0.309359X-0.220971X-0.220971X0.309359X-0.309359X0.220971X0*%
%ADD34RoundRect,0.187500X0.000000X-1.502602X1.502602X0.000000X0.000000X1.502602X-1.502602X0.000000X0*%
%ADD35RoundRect,0.140000X-0.140000X-0.170000X0.140000X-0.170000X0.140000X0.170000X-0.140000X0.170000X0*%
%ADD36RoundRect,0.175000X-0.175000X-0.375000X0.175000X-0.375000X0.175000X0.375000X-0.175000X0.375000X0*%
%ADD37RoundRect,0.225000X-0.225000X-0.240000X0.225000X-0.240000X0.225000X0.240000X-0.225000X0.240000X0*%
%ADD38RoundRect,0.195000X0.330000X-0.195000X0.330000X0.195000X-0.330000X0.195000X-0.330000X-0.195000X0*%
%ADD39RoundRect,0.175000X-0.175000X-1.490000X0.175000X-1.490000X0.175000X1.490000X-0.175000X1.490000X0*%
%ADD40RoundRect,0.215000X-0.215000X-1.185000X0.215000X-1.185000X0.215000X1.185000X-0.215000X1.185000X0*%
%ADD41RoundRect,0.285000X-0.285000X-0.630000X0.285000X-0.630000X0.285000X0.630000X-0.285000X0.630000X0*%
%ADD42RoundRect,0.250000X0.118542X0.523520X-0.364421X0.394110X-0.118542X-0.523520X0.364421X-0.394110X0*%
%ADD43RoundRect,0.243750X-0.456250X0.243750X-0.456250X-0.243750X0.456250X-0.243750X0.456250X0.243750X0*%
%ADD44RoundRect,0.175000X-0.175000X-0.175000X0.175000X-0.175000X0.175000X0.175000X-0.175000X0.175000X0*%
%ADD45RoundRect,0.140000X0.140000X0.170000X-0.140000X0.170000X-0.140000X-0.170000X0.140000X-0.170000X0*%
%ADD46RoundRect,0.225000X-0.250000X0.225000X-0.250000X-0.225000X0.250000X-0.225000X0.250000X0.225000X0*%
%ADD47RoundRect,0.225000X0.225000X0.250000X-0.225000X0.250000X-0.225000X-0.250000X0.225000X-0.250000X0*%
%ADD48RoundRect,0.135000X-0.135000X-0.185000X0.135000X-0.185000X0.135000X0.185000X-0.135000X0.185000X0*%
G04 APERTURE END LIST*
D10*
X159077131Y-122980230D02*
G75*
G02*
X157177131Y-122980230I-950000J0D01*
G01*
X157177131Y-122980230D02*
G75*
G02*
X159077131Y-122980230I950000J0D01*
G01*
D11*
X166467541Y-113004906D02*
G75*
G02*
X165612541Y-113004906I-427500J0D01*
G01*
X165612541Y-113004906D02*
G75*
G02*
X166467541Y-113004906I427500J0D01*
G01*
D12*
X163880041Y-113504906D02*
G75*
G02*
X163000041Y-113504906I-440000J0D01*
G01*
X163000041Y-113504906D02*
G75*
G02*
X163880041Y-113504906I440000J0D01*
G01*
D13*
G36*
X148241307Y-122729855D02*
G01*
X148275492Y-122732049D01*
X148308027Y-122736483D01*
X148338822Y-122743208D01*
X148367788Y-122752270D01*
X148394835Y-122763720D01*
X148431609Y-122785479D01*
X148463558Y-122812886D01*
X148490379Y-122846104D01*
X148505261Y-122871561D01*
X148517639Y-122899723D01*
X148527422Y-122930639D01*
X148534522Y-122964360D01*
X148538848Y-123000932D01*
X148540310Y-123040407D01*
X148538850Y-123079947D01*
X148534539Y-123116705D01*
X148527478Y-123150715D01*
X148517772Y-123182006D01*
X148505520Y-123210612D01*
X148490827Y-123236564D01*
X148464434Y-123270584D01*
X148433122Y-123298812D01*
X148397237Y-123321353D01*
X148357125Y-123338316D01*
X148328207Y-123346578D01*
X148297665Y-123352440D01*
X148265604Y-123355934D01*
X148232124Y-123357092D01*
X148085872Y-123357092D01*
X148078637Y-123356697D01*
X148052258Y-123343338D01*
X148043813Y-123315033D01*
X148043813Y-122849751D01*
X148194315Y-122849751D01*
X148194315Y-123236045D01*
X148214392Y-123236045D01*
X148241938Y-123234777D01*
X148275890Y-123228804D01*
X148306222Y-123217326D01*
X148332442Y-123199678D01*
X148354058Y-123175197D01*
X148370580Y-123143218D01*
X148379333Y-123113913D01*
X148384736Y-123079736D01*
X148386583Y-123040407D01*
X148385757Y-123013657D01*
X148381516Y-122978064D01*
X148373857Y-122947618D01*
X148358685Y-122914458D01*
X148338297Y-122889080D01*
X148313182Y-122870701D01*
X148283832Y-122858541D01*
X148250738Y-122851818D01*
X148214392Y-122849751D01*
X148194315Y-122849751D01*
X148043813Y-122849751D01*
X148043813Y-122771642D01*
X148044212Y-122764408D01*
X148057628Y-122738028D01*
X148085872Y-122729583D01*
X148223625Y-122729583D01*
X148241307Y-122729855D01*
G37*
G36*
X148658426Y-123087887D02*
G01*
X148784455Y-123087887D01*
X148784455Y-123221537D01*
X148792840Y-123249721D01*
X148819136Y-123263054D01*
X148826367Y-123263449D01*
X148851573Y-123263449D01*
X148879878Y-123255064D01*
X148893236Y-123228768D01*
X148893632Y-123221537D01*
X148893632Y-123087887D01*
X149020394Y-123087887D01*
X149048698Y-123079490D01*
X149062057Y-123053097D01*
X149062452Y-123045829D01*
X149062452Y-123024873D01*
X149054055Y-122996629D01*
X149027662Y-122983213D01*
X149020394Y-122982814D01*
X148893632Y-122982814D01*
X148893632Y-122848432D01*
X148885234Y-122820248D01*
X148858841Y-122806915D01*
X148851573Y-122806520D01*
X148826367Y-122806520D01*
X148798183Y-122814905D01*
X148784850Y-122841201D01*
X148784455Y-122848432D01*
X148784455Y-122982814D01*
X148658426Y-122982814D01*
X148630121Y-122991259D01*
X148616762Y-123017639D01*
X148616367Y-123024873D01*
X148616367Y-123045829D01*
X148624764Y-123074134D01*
X148651158Y-123087492D01*
X148658426Y-123087887D01*
G37*
G36*
X148293988Y-121132240D02*
G01*
X148328173Y-121134434D01*
X148360708Y-121138868D01*
X148391503Y-121145593D01*
X148420469Y-121154655D01*
X148447516Y-121166105D01*
X148484290Y-121187864D01*
X148516239Y-121215271D01*
X148543060Y-121248489D01*
X148557942Y-121273946D01*
X148570320Y-121302108D01*
X148580103Y-121333024D01*
X148587203Y-121366745D01*
X148591529Y-121403317D01*
X148592991Y-121442792D01*
X148591531Y-121482332D01*
X148587220Y-121519090D01*
X148580159Y-121553100D01*
X148570453Y-121584391D01*
X148558201Y-121612997D01*
X148543508Y-121638949D01*
X148517115Y-121672969D01*
X148485803Y-121701197D01*
X148449918Y-121723738D01*
X148409806Y-121740701D01*
X148380888Y-121748963D01*
X148350346Y-121754825D01*
X148318285Y-121758319D01*
X148284805Y-121759477D01*
X148138553Y-121759477D01*
X148131318Y-121759082D01*
X148104939Y-121745723D01*
X148096494Y-121717418D01*
X148096494Y-121252136D01*
X148246996Y-121252136D01*
X148246996Y-121638430D01*
X148267073Y-121638430D01*
X148294619Y-121637162D01*
X148328571Y-121631189D01*
X148358903Y-121619711D01*
X148385123Y-121602063D01*
X148406739Y-121577582D01*
X148423261Y-121545603D01*
X148432014Y-121516298D01*
X148437417Y-121482121D01*
X148439264Y-121442792D01*
X148438438Y-121416042D01*
X148434197Y-121380449D01*
X148426538Y-121350003D01*
X148411366Y-121316843D01*
X148390978Y-121291465D01*
X148365863Y-121273086D01*
X148336513Y-121260926D01*
X148303419Y-121254203D01*
X148267073Y-121252136D01*
X148246996Y-121252136D01*
X148096494Y-121252136D01*
X148096494Y-121174027D01*
X148096893Y-121166793D01*
X148110309Y-121140413D01*
X148138553Y-121131968D01*
X148276306Y-121131968D01*
X148293988Y-121132240D01*
G37*
G36*
X148678280Y-121502289D02*
G01*
X148678280Y-121523245D01*
X148686678Y-121551550D01*
X148713071Y-121564909D01*
X148720339Y-121565304D01*
X148874066Y-121565304D01*
X148902250Y-121556906D01*
X148915582Y-121530513D01*
X148915978Y-121523245D01*
X148915978Y-121502289D01*
X148907592Y-121474045D01*
X148881296Y-121460629D01*
X148874066Y-121460231D01*
X148720339Y-121460231D01*
X148692034Y-121468675D01*
X148678676Y-121495055D01*
X148678280Y-121502289D01*
G37*
G36*
X146377574Y-117524245D02*
G01*
X146411988Y-117522529D01*
X146445034Y-117517428D01*
X146476272Y-117509010D01*
X146505261Y-117497344D01*
X146531561Y-117482499D01*
X146554731Y-117464543D01*
X146579994Y-117435883D01*
X146597865Y-117401980D01*
X146605791Y-117373209D01*
X146608530Y-117341649D01*
X146604912Y-117305890D01*
X146594566Y-117274573D01*
X146578258Y-117247674D01*
X146556753Y-117225169D01*
X146530814Y-117207036D01*
X146501208Y-117193250D01*
X146488509Y-117188948D01*
X146488509Y-117184698D01*
X146517171Y-117170481D01*
X146541041Y-117153239D01*
X146563321Y-117128828D01*
X146578614Y-117100677D01*
X146586876Y-117069121D01*
X146588453Y-117046359D01*
X146586249Y-117016200D01*
X146576695Y-116980305D01*
X146560012Y-116949438D01*
X146536673Y-116923698D01*
X146507150Y-116903189D01*
X146471916Y-116888010D01*
X146442027Y-116880186D01*
X146409389Y-116875460D01*
X146374204Y-116873875D01*
X146341434Y-116875794D01*
X146310133Y-116881441D01*
X146280162Y-116890646D01*
X146251380Y-116903241D01*
X146223649Y-116919060D01*
X146214615Y-116925019D01*
X146196395Y-116948562D01*
X146203415Y-116977813D01*
X146207874Y-116983931D01*
X146229709Y-117010895D01*
X146255075Y-117027521D01*
X146284256Y-117019555D01*
X146288474Y-117016757D01*
X146314400Y-117002104D01*
X146343693Y-116992709D01*
X146367462Y-116990525D01*
X146398088Y-116994906D01*
X146424712Y-117012252D01*
X146437657Y-117042011D01*
X146438830Y-117057204D01*
X146433887Y-117086359D01*
X146414564Y-117112501D01*
X146387454Y-117127250D01*
X146354523Y-117135551D01*
X146341377Y-117137364D01*
X146312470Y-117147274D01*
X146298762Y-117175550D01*
X146298586Y-117180449D01*
X146298586Y-117204042D01*
X146308370Y-117233455D01*
X146337057Y-117246530D01*
X146342257Y-117247127D01*
X146374249Y-117250754D01*
X146405616Y-117258292D01*
X146432128Y-117271531D01*
X146451871Y-117295844D01*
X146458109Y-117327163D01*
X146458174Y-117331537D01*
X146451362Y-117362642D01*
X146432034Y-117385063D01*
X146401853Y-117398637D01*
X146367847Y-117403126D01*
X146362480Y-117403198D01*
X146330330Y-117399631D01*
X146299995Y-117389431D01*
X146274111Y-117375200D01*
X146265760Y-117369493D01*
X146237645Y-117358858D01*
X146210039Y-117373229D01*
X146206995Y-117377113D01*
X146186039Y-117405836D01*
X146175276Y-117434536D01*
X146189198Y-117462145D01*
X146191021Y-117463721D01*
X146217874Y-117483347D01*
X146248373Y-117499487D01*
X146276643Y-117510057D01*
X146307564Y-117517823D01*
X146341190Y-117522610D01*
X146377574Y-117524245D01*
G37*
G36*
X146802117Y-117523219D02*
G01*
X146833587Y-117517625D01*
X146859658Y-117502113D01*
X146878802Y-117478589D01*
X146889492Y-117448957D01*
X146891217Y-117430016D01*
X146886044Y-117397840D01*
X146871543Y-117370800D01*
X146849243Y-117350711D01*
X146820672Y-117339385D01*
X146802117Y-117337546D01*
X146770372Y-117343050D01*
X146744332Y-117358353D01*
X146725368Y-117381643D01*
X146714852Y-117411106D01*
X146713164Y-117430016D01*
X146718237Y-117462282D01*
X146732541Y-117489530D01*
X146754705Y-117509853D01*
X146783358Y-117521348D01*
X146802117Y-117523219D01*
G37*
G36*
X147183575Y-117524245D02*
G01*
X147217990Y-117522529D01*
X147251036Y-117517428D01*
X147282274Y-117509010D01*
X147311263Y-117497344D01*
X147337562Y-117482499D01*
X147360732Y-117464543D01*
X147385995Y-117435883D01*
X147403867Y-117401980D01*
X147411792Y-117373209D01*
X147414532Y-117341649D01*
X147410913Y-117305890D01*
X147400567Y-117274573D01*
X147384260Y-117247674D01*
X147362754Y-117225169D01*
X147336816Y-117207036D01*
X147307209Y-117193250D01*
X147294511Y-117188948D01*
X147294511Y-117184698D01*
X147323173Y-117170481D01*
X147347042Y-117153239D01*
X147369322Y-117128828D01*
X147384616Y-117100677D01*
X147392877Y-117069121D01*
X147394455Y-117046359D01*
X147392251Y-117016200D01*
X147382696Y-116980305D01*
X147366013Y-116949438D01*
X147342674Y-116923698D01*
X147313152Y-116903189D01*
X147277918Y-116888010D01*
X147248028Y-116880186D01*
X147215391Y-116875460D01*
X147180205Y-116873875D01*
X147147436Y-116875794D01*
X147116135Y-116881441D01*
X147086163Y-116890646D01*
X147057381Y-116903241D01*
X147029651Y-116919060D01*
X147020617Y-116925019D01*
X147002397Y-116948562D01*
X147009416Y-116977813D01*
X147013876Y-116983931D01*
X147035711Y-117010895D01*
X147061076Y-117027521D01*
X147090258Y-117019555D01*
X147094476Y-117016757D01*
X147120402Y-117002104D01*
X147149694Y-116992709D01*
X147173464Y-116990525D01*
X147204090Y-116994906D01*
X147230714Y-117012252D01*
X147243658Y-117042011D01*
X147244832Y-117057204D01*
X147239888Y-117086359D01*
X147220565Y-117112501D01*
X147193456Y-117127250D01*
X147160524Y-117135551D01*
X147147379Y-117137364D01*
X147118472Y-117147274D01*
X147104764Y-117175550D01*
X147104587Y-117180449D01*
X147104587Y-117204042D01*
X147114371Y-117233455D01*
X147143058Y-117246530D01*
X147148258Y-117247127D01*
X147180251Y-117250754D01*
X147211617Y-117258292D01*
X147238130Y-117271531D01*
X147257872Y-117295844D01*
X147264110Y-117327163D01*
X147264176Y-117331537D01*
X147257364Y-117362642D01*
X147238036Y-117385063D01*
X147207854Y-117398637D01*
X147173849Y-117403126D01*
X147168481Y-117403198D01*
X147136332Y-117399631D01*
X147105996Y-117389431D01*
X147080112Y-117375200D01*
X147071761Y-117369493D01*
X147043646Y-117358858D01*
X147016041Y-117373229D01*
X147012996Y-117377113D01*
X146992040Y-117405836D01*
X146981277Y-117434536D01*
X146995199Y-117462145D01*
X146997023Y-117463721D01*
X147023875Y-117483347D01*
X147054375Y-117499487D01*
X147082645Y-117510057D01*
X147113566Y-117517823D01*
X147147191Y-117522610D01*
X147183575Y-117524245D01*
G37*
G36*
X147466995Y-116934545D02*
G01*
X147629221Y-117480135D01*
X147645028Y-117505504D01*
X147674737Y-117515418D01*
X147676995Y-117515452D01*
X147783680Y-117515452D01*
X147812749Y-117507709D01*
X147830939Y-117482312D01*
X147831601Y-117480135D01*
X147993827Y-116936597D01*
X147992681Y-116905596D01*
X147966555Y-116890035D01*
X147958509Y-116889555D01*
X147893003Y-116889555D01*
X147863734Y-116897132D01*
X147846541Y-116923431D01*
X147845962Y-116925752D01*
X147784559Y-117175173D01*
X147776640Y-117206479D01*
X147769202Y-117237467D01*
X147761997Y-117268336D01*
X147754778Y-117299283D01*
X147747296Y-117330507D01*
X147739302Y-117362205D01*
X147735906Y-117375061D01*
X147731656Y-117375061D01*
X147723737Y-117343118D01*
X147716299Y-117311728D01*
X147709094Y-117280694D01*
X147701875Y-117249818D01*
X147694393Y-117218901D01*
X147686399Y-117187746D01*
X147683003Y-117175173D01*
X147620721Y-116925752D01*
X147605903Y-116899635D01*
X147578298Y-116889693D01*
X147573680Y-116889555D01*
X147502312Y-116889555D01*
X147472713Y-116897711D01*
X147465217Y-116926779D01*
X147466995Y-116934545D01*
G37*
D14*
%TO.C,TP6*%
X161290041Y-114754906D03*
%TD*%
D15*
%TO.C,TP4*%
X161240041Y-104804906D03*
%TD*%
%TO.C,TP5*%
X161240041Y-107604906D03*
%TD*%
%TO.C,TP10*%
X161240041Y-106204906D03*
%TD*%
D16*
%TO.C,TP19*%
X167840041Y-101304906D03*
%TD*%
D17*
%TO.C,U3*%
X160590041Y-118854906D03*
X160590039Y-118204907D03*
X160590041Y-117554906D03*
X158690041Y-117554906D03*
X158690041Y-118854906D03*
%TD*%
D18*
%TO.C,D9*%
X168090041Y-111504906D03*
X169190041Y-111504906D03*
%TD*%
D16*
%TO.C,TP25*%
X161494403Y-102235145D03*
%TD*%
%TO.C,TP1*%
X146943248Y-123480230D03*
%TD*%
D19*
%TO.C,J5*%
X163838715Y-121945668D03*
D20*
X162489408Y-121718521D03*
D21*
X162220889Y-123078482D03*
D20*
X163590674Y-123291291D03*
%TD*%
D22*
%TO.C,Z1*%
X165840041Y-109774906D03*
X167240041Y-109774906D03*
%TD*%
D23*
%TO.C,C12*%
X160640041Y-116784908D03*
X160640041Y-115824904D03*
%TD*%
D19*
%TO.C,J3*%
X166856490Y-121988488D03*
D20*
X165507183Y-121761341D03*
D21*
X165238664Y-123121302D03*
D20*
X166608449Y-123334111D03*
%TD*%
D24*
%TO.C,C4*%
X153863006Y-123128238D03*
X154959022Y-122032222D03*
%TD*%
D25*
%TO.C,VIN1*%
X171740041Y-106504906D03*
%TD*%
D26*
%TO.C,Q1*%
X166205041Y-106114906D03*
X166205041Y-106774906D03*
X166205041Y-107434906D03*
X166205041Y-108094906D03*
D27*
X169315041Y-108094906D03*
X169315041Y-107434906D03*
X169315041Y-106774906D03*
X169315041Y-106114906D03*
D28*
X168240041Y-107104906D03*
%TD*%
D29*
%TO.C,C5*%
X154408568Y-117590559D03*
X155087390Y-118269381D03*
%TD*%
D30*
%TO.C,D7*%
X169540041Y-102054906D03*
X169540041Y-100954906D03*
%TD*%
D31*
%TO.C,C9*%
X166017989Y-111334237D03*
X166945277Y-111085769D03*
%TD*%
D30*
%TO.C,D8*%
X169940041Y-115654906D03*
X169940041Y-114554906D03*
%TD*%
D16*
%TO.C,TP24*%
X163533275Y-101559043D03*
%TD*%
D25*
%TO.C,TP22*%
X171740041Y-113104906D03*
%TD*%
D32*
%TO.C,U1*%
X150073228Y-120466366D03*
X150426782Y-120819919D03*
X150780335Y-121173473D03*
X151133888Y-121527026D03*
X151487442Y-121880579D03*
X151840995Y-122234133D03*
D33*
X152813267Y-122234133D03*
X153166820Y-121880579D03*
X153520374Y-121527026D03*
X153873927Y-121173473D03*
X154227480Y-120819919D03*
X154581034Y-120466366D03*
D32*
X154581034Y-119494094D03*
X154227480Y-119140541D03*
X153873927Y-118786987D03*
X153520374Y-118433434D03*
X153166820Y-118079881D03*
X152813267Y-117726327D03*
D33*
X151840995Y-117726327D03*
X151487442Y-118079881D03*
X151133888Y-118433434D03*
X150780335Y-118786987D03*
X150426782Y-119140541D03*
X150073228Y-119494094D03*
D34*
X152327131Y-119980230D03*
%TD*%
D16*
%TO.C,TP2*%
X146943248Y-121280230D03*
%TD*%
D19*
%TO.C,J2*%
X167438715Y-118745668D03*
D20*
X166089408Y-118518521D03*
D21*
X165820889Y-119878482D03*
D20*
X167190674Y-120091291D03*
%TD*%
D16*
%TO.C,TP3*%
X146943248Y-118780230D03*
%TD*%
%TO.C,TP23*%
X165640041Y-101314872D03*
%TD*%
D35*
%TO.C,C13*%
X159160039Y-119704906D03*
X160120043Y-119704906D03*
%TD*%
D25*
%TO.C,TP18*%
X171740041Y-104304906D03*
%TD*%
D19*
%TO.C,J7*%
X168256489Y-115588489D03*
D20*
X166907183Y-115361340D03*
D21*
X166638664Y-116721302D03*
D20*
X168008449Y-116934112D03*
%TD*%
D25*
%TO.C,TP21*%
X171740041Y-110904906D03*
%TD*%
%TO.C,TP17*%
X171740041Y-102104906D03*
%TD*%
D36*
%TO.C,J1*%
X150552131Y-103640230D03*
X151652131Y-103640230D03*
X152752131Y-103640230D03*
X153852131Y-103640230D03*
X154952131Y-103640230D03*
X156052131Y-103640230D03*
X157152131Y-103640230D03*
X158252131Y-103640230D03*
D37*
X148762131Y-116105230D03*
D38*
X153027131Y-116180230D03*
D39*
X159412131Y-114905230D03*
D40*
X159332131Y-104140230D03*
D41*
X146672131Y-103655230D03*
D39*
X146452131Y-114905230D03*
%TD*%
D42*
%TO.C,C14*%
X164257670Y-111259028D03*
X162422412Y-111750784D03*
%TD*%
D23*
%TO.C,C1*%
X148543248Y-119795159D03*
X148543248Y-118835159D03*
%TD*%
D25*
%TO.C,TP20*%
X171740041Y-108704906D03*
%TD*%
D43*
%TO.C,F1*%
X164040041Y-106167406D03*
X164040041Y-108042406D03*
%TD*%
D44*
%TO.C,D6*%
X169540041Y-103054906D03*
X169540041Y-104154906D03*
%TD*%
D19*
%TO.C,J6*%
X165238714Y-115545669D03*
D20*
X163889408Y-115318520D03*
D21*
X163620889Y-116678482D03*
D20*
X164990674Y-116891292D03*
%TD*%
D45*
%TO.C,C3*%
X150991014Y-122780230D03*
X150031014Y-122780230D03*
%TD*%
D46*
%TO.C,C6*%
X160640041Y-110129906D03*
X160640041Y-111679906D03*
%TD*%
D47*
%TO.C,C2*%
X151886014Y-123880230D03*
X150336014Y-123880230D03*
%TD*%
D42*
%TO.C,C8*%
X163957670Y-109559028D03*
X162122412Y-110050784D03*
%TD*%
D19*
%TO.C,J4*%
X164438715Y-118745668D03*
D20*
X163089408Y-118518521D03*
D21*
X162820889Y-119878482D03*
D20*
X164190674Y-120091291D03*
%TD*%
D48*
%TO.C,R1*%
X168330041Y-109774906D03*
X169350041Y-109774906D03*
%TD*%
M02*
