M48
; DRILL file {KiCad 9.0.0-rc3} date 2025-06-04T22:51:28-0400
; FORMAT={-:-/ absolute / metric / decimal}
; #@! TF.CreationDate,2025-06-04T22:51:28-04:00
; #@! TF.GenerationSoftware,Kicad,Pcbnew,9.0.0-rc3
; #@! TF.FileFunction,Plated,1,2,PTH
FMAT,2
METRIC
; #@! TA.AperFunction,Plated,PTH,ViaDrill
T1C0.254
; #@! TA.AperFunction,Plated,PTH,ComponentDrill
T2C0.680
; #@! TA.AperFunction,Plated,PTH,ComponentDrill
T3C0.700
; #@! TA.AperFunction,Plated,PTH,ComponentDrill
T4C1.000
; #@! TA.AperFunction,Plated,PTH,ComponentDrill
T5C1.100
%
G90
G05
T1
X119.0Y-123.7
X119.0Y-130.7
X119.75Y-95.45
X121.0Y-92.7
X123.059Y-129.051
X123.157Y-125.745
X123.6Y-99.7
X125.0Y-89.7
X126.0Y-124.7
X126.0Y-130.7
X129.0Y-92.7
X130.0Y-129.7
X130.5Y-125.5
X132.0Y-89.7
X133.55Y-97.95
X134.0Y-130.7
X134.764Y-124.381
X135.35Y-129.0
X136.0Y-92.7
X139.0Y-130.8
X140.0Y-89.7
X140.15Y-125.7
X142.05Y-128.7
X142.15Y-130.85
X143.48Y-125.55
X144.0Y-92.7
X144.559Y-123.88
X144.7Y-127.85
X145.18Y-126.46
X146.25Y-130.85
X147.05Y-126.1
X147.068Y-124.622
X148.0Y-89.7
X148.05Y-122.75
X148.1Y-105.0
X148.2Y-108.2
X148.2Y-111.4
X148.2Y-115.2
X148.704Y-101.466
X148.8Y-119.55
X149.09Y-127.85
X149.09Y-129.05
X149.55Y-100.092
X149.75Y-130.65
X149.8Y-124.85
X150.194Y-125.586
X150.4Y-124.4
X150.6Y-118.9
X150.862Y-115.139
X150.89Y-107.176
X150.931Y-111.219
X150.958Y-103.925
X151.0Y-119.3
X152.0Y-92.7
X152.16Y-101.534
X152.18Y-126.05
X152.3Y-120.7
X152.85Y-120.7
X152.98Y-126.05
X153.4Y-120.7
X153.524Y-129.369
X153.8Y-120.25
X153.9Y-119.65
X154.4Y-97.45
X154.6Y-119.8
X155.0Y-89.7
X155.2Y-119.8
X155.524Y-129.369
X155.8Y-119.8
X155.95Y-121.3
X155.95Y-122.05
X156.05Y-118.0
X156.55Y-127.3
X156.682Y-122.149
X156.98Y-105.1
X157.52Y-100.526
X157.524Y-129.369
X157.66Y-104.807
X157.75Y-122.55
X158.2Y-120.0
X158.35Y-123.2
X158.37Y-104.463
X158.78Y-126.05
X158.95Y-123.85
X159.0Y-92.7
X159.08Y-104.2
X159.88Y-123.95
X160.08Y-123.25
X160.252Y-100.595
X160.58Y-123.85
X160.7Y-106.35
X160.796Y-113.019
X160.9Y-125.1
X160.9Y-126.0
X161.004Y-104.118
X161.3Y-106.35
X161.6Y-128.0
X161.807Y-113.1
X162.2Y-102.7
X162.475Y-113.785
X162.631Y-130.481
X162.7Y-117.4
X162.75Y-123.55
X162.788Y-112.931
X163.0Y-89.7
X163.217Y-105.145
X163.885Y-107.908
X163.98Y-122.25
X164.1Y-114.3
X164.18Y-119.75
X164.263Y-125.388
X164.55Y-116.4
X164.571Y-112.843
X164.58Y-122.25
X164.78Y-119.75
X164.9Y-114.891
X165.28Y-122.25
X165.4Y-102.6
X165.48Y-119.75
X165.7Y-114.7
X165.88Y-122.25
X166.08Y-119.75
X166.348Y-115.333
X166.439Y-130.011
X166.482Y-107.101
X166.55Y-124.55
X166.68Y-119.75
X166.75Y-100.5
X166.831Y-112.799
X166.85Y-97.9
X167.0Y-92.7
X167.176Y-120.296
X167.176Y-120.952
X167.2Y-127.65
X167.31Y-126.579
X167.8Y-114.0
X168.648Y-103.332
X168.7Y-128.162
X168.812Y-115.212
X168.991Y-122.508
X169.053Y-116.687
X169.18Y-110.45
X169.254Y-120.171
X169.387Y-112.045
X169.5Y-105.5
X169.5Y-115.8
X169.684Y-108.813
X169.718Y-109.971
X169.75Y-121.75
X169.75Y-126.5
X169.885Y-112.634
X170.03Y-108.1
X170.2Y-114.9
X170.28Y-110.55
X170.357Y-107.213
X170.54Y-119.048
X170.6Y-116.4
X170.77Y-109.985
X170.832Y-130.306
X170.88Y-125.25
X171.0Y-89.7
X171.234Y-127.131
X171.5Y-97.7
X171.9Y-112.0
X172.0Y-115.7
X172.054Y-120.37
X172.192Y-110.404
X172.374Y-108.524
X172.6Y-112.7
X172.678Y-123.147
X172.997Y-114.085
X173.971Y-105.797
X174.365Y-115.459
X174.39Y-120.908
X174.6Y-103.4
X175.0Y-92.7
X175.072Y-123.96
X175.2Y-109.6
X175.2Y-125.4
X175.727Y-116.868
X175.808Y-127.465
X176.0Y-101.0
X176.176Y-112.26
X176.45Y-129.857
X176.522Y-114.738
X176.625Y-121.267
X176.949Y-116.155
X177.3Y-126.1
X177.406Y-122.963
X177.6Y-128.3
X177.818Y-120.196
X177.9Y-105.6
X178.0Y-89.7
X178.365Y-102.189
X179.2Y-126.6
X179.2Y-129.2
X179.357Y-118.481
X179.6Y-121.4
X180.571Y-115.231
X180.9Y-120.4
X181.0Y-123.3
X181.041Y-130.431
X181.83Y-105.476
X181.85Y-126.7
X181.949Y-119.239
X182.0Y-92.7
X182.3Y-100.9
T4
X120.75Y-125.1
X120.75Y-129.6
X122.05Y-96.3
X123.05Y-98.0
X124.05Y-96.3
X125.05Y-98.0
X126.05Y-96.3
X127.05Y-98.0
X128.05Y-96.3
X139.0Y-96.3
X140.0Y-98.0
X141.0Y-96.3
X142.0Y-98.0
X143.0Y-96.3
X144.0Y-98.0
X145.0Y-96.3
X155.9Y-96.3
X156.9Y-98.0
X157.9Y-96.3
X158.9Y-98.0
X159.9Y-96.3
X160.9Y-98.0
X161.9Y-96.3
X172.8Y-96.3
X173.8Y-98.0
X174.8Y-96.3
X175.8Y-98.0
X176.8Y-96.3
X177.8Y-98.0
X178.8Y-96.3
T5
X156.87Y-109.413
X156.87Y-111.613
X159.07Y-109.413
X159.07Y-111.613
X161.27Y-109.413
X161.27Y-111.613
X163.47Y-109.413
X163.47Y-111.613
X165.67Y-109.413
X165.67Y-111.613
X167.87Y-109.413
X167.87Y-111.613
T2
X151.18Y-125.872G85X151.18Y-125.072
G05
X151.18Y-130.072G85X151.18Y-128.872
G05
X159.82Y-125.872G85X159.82Y-125.072
G05
X159.82Y-130.072G85X159.82Y-128.872
G05
T3
X172.623Y-121.6G85X171.873Y-121.6
G05
X172.623Y-129.1G85X171.873Y-129.1
G05
X173.623Y-117.2G85X172.873Y-117.2
G05
X173.623Y-124.7G85X172.873Y-124.7
G05
X174.823Y-122.4G85X174.073Y-122.4
G05
X174.823Y-129.9G85X174.073Y-129.9
G05
X178.623Y-117.2G85X177.873Y-117.2
G05
X178.623Y-124.7G85X177.873Y-124.7
G05
X182.623Y-122.1G85X181.873Y-122.1
G05
X182.623Y-129.6G85X181.873Y-129.6
G05
X182.823Y-116.9G85X182.073Y-116.9
G05
X182.823Y-124.4G85X182.073Y-124.4
G05
T4
X118.55Y-97.3G85X118.55Y-98.8
G05
X120.1Y-99.3G85X121.6Y-99.3
G05
X123.0Y-123.85G85X123.5Y-123.85
G05
X123.0Y-130.85G85X123.5Y-130.85
G05
X128.45Y-99.3G85X129.95Y-99.3
G05
X131.55Y-97.3G85X131.55Y-98.8
G05
X135.5Y-97.3G85X135.5Y-98.8
G05
X137.05Y-99.3G85X138.55Y-99.3
G05
X145.4Y-99.3G85X146.9Y-99.3
G05
X148.5Y-97.3G85X148.5Y-98.8
G05
X152.4Y-97.3G85X152.4Y-98.8
G05
X153.95Y-99.3G85X155.45Y-99.3
G05
X162.3Y-99.3G85X163.8Y-99.3
G05
X165.4Y-97.3G85X165.4Y-98.8
G05
X169.3Y-97.3G85X169.3Y-98.8
G05
X170.85Y-99.3G85X172.35Y-99.3
G05
X179.2Y-99.3G85X180.7Y-99.3
G05
X182.3Y-97.3G85X182.3Y-98.8
G05
M30
