%TF.GenerationSoftware,KiCad,Pcbnew,9.0.0-rc3*%
%TF.CreationDate,2025-06-04T22:51:28-04:00*%
%TF.ProjectId,dock,646f636b-2e6b-4696-9361-645f70636258,rev?*%
%TF.SameCoordinates,Original*%
%TF.FileFunction,Copper,L2,Bot*%
%TF.FilePolarity,Positive*%
%FSLAX46Y46*%
G04 Gerber Fmt 4.6, Leading zero omitted, Abs format (unit mm)*
G04 Created by KiCad (PCBNEW 9.0.0-rc3) date 2025-06-04 22:51:28*
%MOMM*%
%LPD*%
G01*
G04 APERTURE LIST*
%TA.AperFunction,ComponentPad*%
%ADD10C,1.500000*%
%TD*%
%TA.AperFunction,ComponentPad*%
%ADD11O,1.750000X3.250000*%
%TD*%
%TA.AperFunction,ComponentPad*%
%ADD12O,3.250000X1.750000*%
%TD*%
%TA.AperFunction,ComponentPad*%
%ADD13O,1.750000X1.000000*%
%TD*%
%TA.AperFunction,ComponentPad*%
%ADD14C,1.800000*%
%TD*%
%TA.AperFunction,ComponentPad*%
%ADD15C,1.350000*%
%TD*%
%TA.AperFunction,ComponentPad*%
%ADD16O,2.000000X1.500000*%
%TD*%
%TA.AperFunction,ViaPad*%
%ADD17C,0.508000*%
%TD*%
%TA.AperFunction,Conductor*%
%ADD18C,0.600000*%
%TD*%
%TA.AperFunction,Conductor*%
%ADD19C,0.300000*%
%TD*%
%TA.AperFunction,Conductor*%
%ADD20C,0.500000*%
%TD*%
%TA.AperFunction,Conductor*%
%ADD21C,0.200000*%
%TD*%
%TA.AperFunction,Conductor*%
%ADD22C,0.127000*%
%TD*%
%TA.AperFunction,Conductor*%
%ADD23C,0.508000*%
%TD*%
G04 APERTURE END LIST*
D10*
X172800000Y-96300000D03*
X174800000Y-96300000D03*
X176800000Y-96300000D03*
X178800000Y-96300000D03*
X173800000Y-98000000D03*
X175800000Y-98000000D03*
X177800000Y-98000000D03*
D11*
X169300000Y-98050000D03*
D12*
X171600000Y-99300000D03*
X179950000Y-99300000D03*
D11*
X182300000Y-98050000D03*
D13*
X182448350Y-124400001D03*
X182248350Y-129600001D03*
X178248351Y-124700000D03*
X174448351Y-129900000D03*
X172248350Y-129099999D03*
X173248351Y-124700000D03*
D10*
X122050000Y-96300000D03*
X124050000Y-96300000D03*
X126050000Y-96300000D03*
X128050000Y-96300000D03*
X123050000Y-98000000D03*
X125050000Y-98000000D03*
X127050000Y-98000000D03*
D11*
X118550000Y-98050000D03*
D12*
X120850000Y-99300000D03*
X129200000Y-99300000D03*
D11*
X131550000Y-98050000D03*
D14*
X156870000Y-109413086D03*
X159070000Y-109413086D03*
X161270000Y-109413086D03*
X163470000Y-109413086D03*
X165670000Y-109413086D03*
X167870000Y-109413086D03*
X167870000Y-111613086D03*
X165670000Y-111613086D03*
X163470000Y-111613086D03*
X161270000Y-111613086D03*
X159070000Y-111613086D03*
X156870000Y-111613086D03*
D15*
X120750000Y-129600000D03*
X120750000Y-125100000D03*
D16*
X123250000Y-130850000D03*
X123250000Y-123850000D03*
D13*
X182448350Y-116900001D03*
X182248350Y-122100001D03*
X178248351Y-117200000D03*
X174448351Y-122400000D03*
X172248350Y-121599999D03*
X173248351Y-117200000D03*
%TA.AperFunction,ComponentPad*%
G36*
G01*
X151180000Y-130576700D02*
X151180000Y-130576700D01*
G75*
G02*
X150684700Y-130081400I0J495300D01*
G01*
X150684700Y-128862200D01*
G75*
G02*
X151180000Y-128366900I495300J0D01*
G01*
X151180000Y-128366900D01*
G75*
G02*
X151675300Y-128862200I0J-495300D01*
G01*
X151675300Y-130081400D01*
G75*
G02*
X151180000Y-130576700I-495300J0D01*
G01*
G37*
%TD.AperFunction*%
%TA.AperFunction,ComponentPad*%
G36*
G01*
X159820000Y-130576700D02*
X159820000Y-130576700D01*
G75*
G02*
X159324700Y-130081400I0J495300D01*
G01*
X159324700Y-128862200D01*
G75*
G02*
X159820000Y-128366900I495300J0D01*
G01*
X159820000Y-128366900D01*
G75*
G02*
X160315300Y-128862200I0J-495300D01*
G01*
X160315300Y-130081400D01*
G75*
G02*
X159820000Y-130576700I-495300J0D01*
G01*
G37*
%TD.AperFunction*%
%TA.AperFunction,ComponentPad*%
G36*
G01*
X151180000Y-126373500D02*
X151180000Y-126373500D01*
G75*
G02*
X150684700Y-125878200I0J495300D01*
G01*
X150684700Y-125065400D01*
G75*
G02*
X151180000Y-124570100I495300J0D01*
G01*
X151180000Y-124570100D01*
G75*
G02*
X151675300Y-125065400I0J-495300D01*
G01*
X151675300Y-125878200D01*
G75*
G02*
X151180000Y-126373500I-495300J0D01*
G01*
G37*
%TD.AperFunction*%
%TA.AperFunction,ComponentPad*%
G36*
G01*
X159820000Y-126373500D02*
X159820000Y-126373500D01*
G75*
G02*
X159324700Y-125878200I0J495300D01*
G01*
X159324700Y-125065400D01*
G75*
G02*
X159820000Y-124570100I495300J0D01*
G01*
X159820000Y-124570100D01*
G75*
G02*
X160315300Y-125065400I0J-495300D01*
G01*
X160315300Y-125878200D01*
G75*
G02*
X159820000Y-126373500I-495300J0D01*
G01*
G37*
%TD.AperFunction*%
D10*
X139000000Y-96300000D03*
X141000000Y-96300000D03*
X143000000Y-96300000D03*
X145000000Y-96300000D03*
X140000000Y-98000000D03*
X142000000Y-98000000D03*
X144000000Y-98000000D03*
D11*
X135500000Y-98050000D03*
D12*
X137800000Y-99300000D03*
X146150000Y-99300000D03*
D11*
X148500000Y-98050000D03*
D10*
X155900000Y-96300000D03*
X157900000Y-96300000D03*
X159900000Y-96300000D03*
X161900000Y-96300000D03*
X156900000Y-98000000D03*
X158900000Y-98000000D03*
X160900000Y-98000000D03*
D11*
X152400000Y-98050000D03*
D12*
X154700000Y-99300000D03*
X163050000Y-99300000D03*
D11*
X165400000Y-98050000D03*
%TA.AperFunction,SMDPad,CuDef*%
G36*
G01*
X120300000Y-127075000D02*
X120300000Y-127625000D01*
G75*
G02*
X120125000Y-127800000I-175000J0D01*
G01*
X119775000Y-127800000D01*
G75*
G02*
X119600000Y-127625000I0J175000D01*
G01*
X119600000Y-127075000D01*
G75*
G02*
X119775000Y-126900000I175000J0D01*
G01*
X120125000Y-126900000D01*
G75*
G02*
X120300000Y-127075000I0J-175000D01*
G01*
G37*
%TD.AperFunction*%
%TA.AperFunction,SMDPad,CuDef*%
G36*
G01*
X119900000Y-128425000D02*
X119900000Y-129275000D01*
G75*
G02*
X119725000Y-129450000I-175000J0D01*
G01*
X119375000Y-129450000D01*
G75*
G02*
X119200000Y-129275000I0J175000D01*
G01*
X119200000Y-128425000D01*
G75*
G02*
X119375000Y-128250000I175000J0D01*
G01*
X119725000Y-128250000D01*
G75*
G02*
X119900000Y-128425000I0J-175000D01*
G01*
G37*
%TD.AperFunction*%
%TA.AperFunction,SMDPad,CuDef*%
G36*
G01*
X119900000Y-125425000D02*
X119900000Y-126275000D01*
G75*
G02*
X119725000Y-126450000I-175000J0D01*
G01*
X119375000Y-126450000D01*
G75*
G02*
X119200000Y-126275000I0J175000D01*
G01*
X119200000Y-125425000D01*
G75*
G02*
X119375000Y-125250000I175000J0D01*
G01*
X119725000Y-125250000D01*
G75*
G02*
X119900000Y-125425000I0J-175000D01*
G01*
G37*
%TD.AperFunction*%
D17*
X163216978Y-105144960D03*
X144559484Y-123879741D03*
X134764223Y-124381227D03*
X160251677Y-100595000D03*
X157519915Y-100526017D03*
X150862419Y-115139036D03*
X150930716Y-111218759D03*
X150889738Y-107175547D03*
X150958035Y-103924586D03*
X152160071Y-101534174D03*
X148704218Y-101465876D03*
X151000000Y-119300000D03*
X150600000Y-118900000D03*
X145180000Y-126460000D03*
X169387310Y-112045118D03*
X144700000Y-127850000D03*
X166750000Y-100500000D03*
X157524155Y-129369409D03*
X179200000Y-129200000D03*
X123156618Y-125745070D03*
X129000000Y-92700000D03*
X174365325Y-115458751D03*
X172373841Y-108524080D03*
X156681561Y-122148984D03*
X171000000Y-89700000D03*
X160795942Y-113019203D03*
X126000000Y-124700000D03*
X170770351Y-109985301D03*
X152180000Y-126050000D03*
X182000000Y-92700000D03*
X130500000Y-125500000D03*
X163000000Y-89700000D03*
X176000000Y-101000000D03*
X173970816Y-105797228D03*
X178364544Y-102189371D03*
X162787951Y-112930939D03*
X165480000Y-119750000D03*
X164180000Y-119750000D03*
X147050000Y-126100000D03*
X142150000Y-130850000D03*
X165280000Y-122250000D03*
X146250000Y-130850000D03*
X166831339Y-112798612D03*
X119000000Y-130700000D03*
X160900000Y-126000000D03*
X154400000Y-97450000D03*
X172192200Y-110404261D03*
X162750000Y-123550000D03*
X164550000Y-116400000D03*
X171500000Y-97700000D03*
X160900000Y-125100000D03*
X165400000Y-102600000D03*
X178000000Y-89700000D03*
X161600000Y-128000000D03*
X152850000Y-120700000D03*
X166680000Y-119750000D03*
X164263134Y-125388207D03*
X164570855Y-112842935D03*
X171900000Y-112000000D03*
X158950000Y-123850000D03*
X169500000Y-105500000D03*
X162200000Y-102700000D03*
X177406020Y-122963278D03*
X172054089Y-120370493D03*
X155800000Y-119800000D03*
X154600000Y-119800000D03*
X163980000Y-122250000D03*
X166850000Y-97900000D03*
X181850000Y-126700000D03*
X172000000Y-115700000D03*
X123600000Y-99700000D03*
X161806627Y-113100000D03*
X170832366Y-130305532D03*
X144000000Y-92700000D03*
X175807514Y-127464971D03*
X142050000Y-128700000D03*
X167200000Y-127650000D03*
X148800000Y-119550000D03*
X148100000Y-105000000D03*
X175000000Y-92700000D03*
X177818352Y-120196412D03*
X179357441Y-118481091D03*
X180571291Y-115230613D03*
X166080000Y-119750000D03*
X149800000Y-124850000D03*
X172997492Y-114084971D03*
X149750000Y-130650000D03*
X119000000Y-123700000D03*
X157750000Y-122550000D03*
X148000000Y-89700000D03*
X159000000Y-92700000D03*
X170600000Y-116400000D03*
X177300000Y-126100000D03*
X170357106Y-107212652D03*
X168699814Y-128162209D03*
X170539713Y-119048184D03*
X125000000Y-89700000D03*
X167800000Y-114000000D03*
X148200000Y-115200000D03*
X168811881Y-115212403D03*
X132000000Y-89700000D03*
X174600000Y-103400000D03*
X159880000Y-123950000D03*
X176948943Y-116154834D03*
X143480000Y-125550000D03*
X180900000Y-120400000D03*
X181000000Y-123300000D03*
X179600000Y-121400000D03*
X126000000Y-130700000D03*
X168990616Y-122507715D03*
X160080000Y-123250000D03*
X140150000Y-125700000D03*
X130000000Y-129700000D03*
X152300000Y-120700000D03*
X163884537Y-107908045D03*
X134000000Y-130700000D03*
X139000000Y-130800000D03*
X119750000Y-95450000D03*
X121000000Y-92700000D03*
X169884738Y-112634110D03*
X181041424Y-130431315D03*
X161003963Y-104118324D03*
X148200000Y-108200000D03*
X147068137Y-124622368D03*
X158350000Y-123200000D03*
X153900000Y-119650000D03*
X175200000Y-125400000D03*
X177900000Y-105600000D03*
X160580000Y-123850000D03*
X172678083Y-123147090D03*
X167000000Y-92700000D03*
X166347747Y-115333342D03*
X155524155Y-129369409D03*
X181948513Y-119239121D03*
X148050000Y-122750000D03*
X162631392Y-130481221D03*
X155000000Y-89700000D03*
X136000000Y-92700000D03*
X176175882Y-112259999D03*
X182300000Y-100900000D03*
X148200000Y-111400000D03*
X165880000Y-122250000D03*
X150193625Y-125585630D03*
X176521921Y-114738410D03*
X169254340Y-120171038D03*
X167310424Y-126578951D03*
X153524155Y-129369409D03*
X164900000Y-114891287D03*
X171234441Y-127130797D03*
X150400000Y-124400000D03*
X166482025Y-107101371D03*
X167176000Y-120952320D03*
X169684395Y-108812599D03*
X169053011Y-116687138D03*
X176449888Y-129857053D03*
X176625197Y-121267297D03*
X167176000Y-120295817D03*
X155950000Y-121300000D03*
X123059378Y-129051246D03*
X152980000Y-126050000D03*
X168648334Y-103332455D03*
X162475123Y-113784577D03*
X164780000Y-119750000D03*
X170200000Y-114900000D03*
X135350000Y-129000000D03*
X174390379Y-120907820D03*
X153400000Y-120700000D03*
X177600000Y-128300000D03*
X153800000Y-120250000D03*
X175200000Y-109600000D03*
X152000000Y-92700000D03*
X181829516Y-105475736D03*
X155200000Y-119800000D03*
X133550000Y-97950000D03*
X166438791Y-130011477D03*
X158780000Y-126050000D03*
X175071943Y-123960042D03*
X169718110Y-109970570D03*
X140000000Y-89700000D03*
X172600000Y-112700000D03*
X164580000Y-122250000D03*
X175726831Y-116867822D03*
X179200000Y-126600000D03*
X149090000Y-129050000D03*
X149090000Y-127850000D03*
X169180000Y-110450000D03*
X165700000Y-114700000D03*
X158369533Y-104462602D03*
X149550000Y-100092000D03*
X157660052Y-104807208D03*
X170280000Y-110550000D03*
X170030053Y-108100053D03*
X164100000Y-114300000D03*
X159080000Y-104200000D03*
X156980000Y-105100000D03*
X170880000Y-125250000D03*
X169500000Y-115800000D03*
X169750000Y-126500000D03*
X169750000Y-121750000D03*
X160700000Y-106350000D03*
X166550000Y-124550000D03*
X162700000Y-117400000D03*
X161300000Y-106350000D03*
X155950000Y-122050000D03*
X156050000Y-118000000D03*
X158200000Y-120000000D03*
X156550000Y-127300000D03*
D18*
X151000000Y-119300000D02*
X150600000Y-118900000D01*
X149500000Y-117800000D02*
X150600000Y-118900000D01*
X149500000Y-102800000D02*
X149500000Y-108200000D01*
X149500000Y-108200000D02*
X149500000Y-117800000D01*
X149700000Y-102600000D02*
X149500000Y-102800000D01*
X150550000Y-101750000D02*
X149700000Y-102600000D01*
X150550000Y-101075000D02*
X150550000Y-101750000D01*
X150550000Y-94800000D02*
X163650000Y-94800000D01*
D19*
X121240000Y-127800000D02*
X119550000Y-128850000D01*
D18*
X179350000Y-94800000D02*
X180280000Y-95730000D01*
D19*
X143840000Y-127800000D02*
X121240000Y-127800000D01*
D18*
X161100000Y-97800000D02*
X160900000Y-98000000D01*
X163650000Y-96800000D02*
X162650000Y-97800000D01*
X127050000Y-98000000D02*
X128230000Y-98000000D01*
X146680000Y-94800000D02*
X146680000Y-96450000D01*
X131430000Y-94800000D02*
X146680000Y-94800000D01*
X144266795Y-97733205D02*
X145905502Y-97733205D01*
X180280000Y-96550000D02*
X178830000Y-98000000D01*
X162650000Y-97800000D02*
X161100000Y-97800000D01*
X178830000Y-98000000D02*
X177800000Y-98000000D01*
X146680000Y-96958707D02*
X146680000Y-96450000D01*
X180280000Y-95730000D02*
X180280000Y-96550000D01*
X163650000Y-94800000D02*
X163650000Y-96800000D01*
X128230000Y-98000000D02*
X131430000Y-94800000D01*
D19*
X145180000Y-126434908D02*
X145180000Y-126460000D01*
D18*
X145905502Y-97733205D02*
X146680000Y-96958707D01*
D19*
X145180000Y-126460000D02*
X143840000Y-127800000D01*
D18*
X144000000Y-98000000D02*
X144266795Y-97733205D01*
X146680000Y-94800000D02*
X150550000Y-94800000D01*
X163650000Y-94800000D02*
X179350000Y-94800000D01*
X150550000Y-101075000D02*
X150550000Y-94800000D01*
D20*
X171412417Y-99082417D02*
X171412417Y-98687583D01*
D21*
X145680908Y-125480908D02*
X146190000Y-125990000D01*
X149100000Y-129050000D02*
X149090000Y-129050000D01*
X149644000Y-127620525D02*
X149644000Y-128506000D01*
X149644000Y-128506000D02*
X149100000Y-129050000D01*
X121190000Y-126850000D02*
X143390000Y-126850000D01*
X119550000Y-125850000D02*
X121190000Y-126850000D01*
X143390000Y-126850000D02*
X144759092Y-125480908D01*
X149273475Y-127250000D02*
X149644000Y-127620525D01*
X144759092Y-125480908D02*
X145680908Y-125480908D01*
X146190000Y-125990000D02*
X146190000Y-126984314D01*
X146190000Y-126984314D02*
X146455686Y-127250000D01*
X146455686Y-127250000D02*
X149273475Y-127250000D01*
X148690000Y-127850000D02*
X148490000Y-127650000D01*
X144934809Y-125880908D02*
X143465717Y-127350000D01*
X145470908Y-125880908D02*
X144934809Y-125880908D01*
X145790000Y-126200000D02*
X145470908Y-125880908D01*
X143465717Y-127350000D02*
X119950000Y-127350000D01*
X145790000Y-127150000D02*
X145790000Y-126200000D01*
X149090000Y-127850000D02*
X148690000Y-127850000D01*
X148490000Y-127650000D02*
X146290000Y-127650000D01*
X146290000Y-127650000D02*
X145790000Y-127150000D01*
X168499336Y-108160000D02*
X164723086Y-108160000D01*
X169180000Y-110450000D02*
X169093379Y-110363379D01*
X169093379Y-108754043D02*
X168499336Y-108160000D01*
X164723086Y-108160000D02*
X163470000Y-109413086D01*
X169093379Y-110363379D02*
X169093379Y-108754043D01*
X176800000Y-124700000D02*
X178248351Y-124700000D01*
X176300000Y-124200000D02*
X176800000Y-124700000D01*
X172230000Y-114200000D02*
X175300000Y-117270000D01*
X176300000Y-121800000D02*
X176300000Y-124200000D01*
X168481000Y-114700000D02*
X168981000Y-114200000D01*
X175300000Y-117270000D02*
X175300000Y-120800000D01*
X175300000Y-120800000D02*
X176300000Y-121800000D01*
X168981000Y-114200000D02*
X172230000Y-114200000D01*
X165700000Y-114700000D02*
X168481000Y-114700000D01*
D22*
X158371997Y-107911089D02*
X156870000Y-109413086D01*
X149113500Y-100536500D02*
X143086500Y-100536500D01*
X149550000Y-100100000D02*
X149113500Y-100536500D01*
X149550000Y-100092000D02*
X149550000Y-100100000D01*
X158369533Y-104462602D02*
X158371997Y-104465066D01*
X158371997Y-104465066D02*
X158371997Y-107911089D01*
X143086500Y-100536500D02*
X142000000Y-99450000D01*
X142000000Y-99450000D02*
X142000000Y-98000000D01*
D21*
X156870000Y-109413086D02*
X156870000Y-109392843D01*
D22*
X155380000Y-108691907D02*
X157180000Y-106891907D01*
D21*
X159070000Y-111613086D02*
X158813086Y-111613086D01*
D22*
X159070000Y-111613086D02*
X157906500Y-112776586D01*
X157906500Y-112776586D02*
X156388062Y-112776586D01*
X155380000Y-111768524D02*
X155380000Y-108691907D01*
D21*
X158813086Y-111613086D02*
X158600000Y-111400000D01*
D22*
X156462500Y-105362500D02*
X156462500Y-104885644D01*
X156848144Y-104500000D02*
X157352844Y-104500000D01*
X156388062Y-112776586D02*
X155380000Y-111768524D01*
X157352844Y-104500000D02*
X157660052Y-104807208D01*
X157180000Y-106891907D02*
X157180000Y-106080000D01*
X157180000Y-106080000D02*
X156462500Y-105362500D01*
X156462500Y-104885644D02*
X156848144Y-104500000D01*
D21*
X170030053Y-108100053D02*
X170280000Y-108350000D01*
X170280000Y-108350000D02*
X170280000Y-110550000D01*
X180100000Y-123700000D02*
X180100000Y-128700000D01*
X180100000Y-128700000D02*
X181000001Y-129600001D01*
X173130000Y-113400000D02*
X176380000Y-116650000D01*
X164100000Y-114300000D02*
X165000000Y-113400000D01*
X165000000Y-113400000D02*
X173130000Y-113400000D01*
X176380000Y-116650000D02*
X176380000Y-119980000D01*
X176380000Y-119980000D02*
X180100000Y-123700000D01*
X181000001Y-129600001D02*
X182248350Y-129600001D01*
D22*
X159070000Y-109413086D02*
X159070000Y-104210000D01*
X159070000Y-104210000D02*
X159080000Y-104200000D01*
X157650000Y-106884355D02*
X157650000Y-105770000D01*
X156870000Y-111613086D02*
X155706500Y-110449586D01*
X155706500Y-108827855D02*
X157650000Y-106884355D01*
X157650000Y-105770000D02*
X156980000Y-105100000D01*
X155706500Y-110449586D02*
X155706500Y-108827855D01*
D21*
X169500000Y-115800000D02*
X169900000Y-116200000D01*
X169900000Y-119400000D02*
X170880000Y-120380000D01*
X169900000Y-116200000D02*
X169900000Y-119400000D01*
X170880000Y-120380000D02*
X170880000Y-125250000D01*
X169750000Y-126500000D02*
X169750000Y-121750000D01*
D23*
X170750000Y-95800000D02*
X168550000Y-95800000D01*
X172800000Y-96300000D02*
X171250000Y-96300000D01*
D21*
X166550000Y-124050000D02*
X167800000Y-122800000D01*
D23*
X167750000Y-102350000D02*
X163750000Y-106350000D01*
D21*
X167800000Y-118800000D02*
X166400000Y-117400000D01*
D23*
X168550000Y-95800000D02*
X167750000Y-96600000D01*
D21*
X167800000Y-122800000D02*
X167800000Y-118800000D01*
D23*
X163750000Y-106350000D02*
X160700000Y-106350000D01*
D21*
X166400000Y-117400000D02*
X162700000Y-117400000D01*
X166550000Y-124550000D02*
X166550000Y-124050000D01*
D23*
X167750000Y-96600000D02*
X167750000Y-102350000D01*
X171250000Y-96300000D02*
X170750000Y-95800000D01*
D22*
X156400000Y-121600000D02*
X155950000Y-122050000D01*
X156400000Y-118350000D02*
X156400000Y-121600000D01*
X156050000Y-118000000D02*
X156400000Y-118350000D01*
X157200000Y-121000000D02*
X157200000Y-122900000D01*
X158200000Y-120000000D02*
X157200000Y-121000000D01*
X156550000Y-123550000D02*
X156550000Y-127300000D01*
X157200000Y-122900000D02*
X156550000Y-123550000D01*
%TA.AperFunction,Conductor*%
G36*
X182703056Y-87100801D02*
G01*
X182840096Y-87114297D01*
X182852105Y-87116686D01*
X182980937Y-87155767D01*
X182992247Y-87160452D01*
X183110976Y-87223915D01*
X183121155Y-87230716D01*
X183225220Y-87316119D01*
X183233880Y-87324779D01*
X183248737Y-87342883D01*
X183319280Y-87428840D01*
X183326087Y-87439027D01*
X183389545Y-87557748D01*
X183394234Y-87569067D01*
X183433312Y-87697890D01*
X183435702Y-87709907D01*
X183449199Y-87846943D01*
X183449500Y-87853069D01*
X183449500Y-106346930D01*
X183449199Y-106353056D01*
X183435702Y-106490092D01*
X183433312Y-106502109D01*
X183394234Y-106630932D01*
X183389545Y-106642251D01*
X183326087Y-106760972D01*
X183319280Y-106771159D01*
X183233882Y-106875218D01*
X183225218Y-106883882D01*
X183121159Y-106969280D01*
X183110972Y-106976087D01*
X182992251Y-107039545D01*
X182980932Y-107044234D01*
X182852109Y-107083312D01*
X182840092Y-107085702D01*
X182703056Y-107099199D01*
X182696930Y-107099500D01*
X178044170Y-107099500D01*
X178000000Y-107099500D01*
X177901583Y-107099500D01*
X177901581Y-107099500D01*
X177901569Y-107099501D01*
X177707179Y-107130290D01*
X177707170Y-107130292D01*
X177519976Y-107191115D01*
X177519968Y-107191119D01*
X177344592Y-107280477D01*
X177185354Y-107396171D01*
X177185346Y-107396178D01*
X177046178Y-107535346D01*
X177046171Y-107535354D01*
X176930477Y-107694592D01*
X176841119Y-107869968D01*
X176841115Y-107869976D01*
X176780292Y-108057170D01*
X176780290Y-108057179D01*
X176749501Y-108251569D01*
X176749500Y-108251585D01*
X176749500Y-112757464D01*
X176749520Y-112757672D01*
X176749520Y-112800191D01*
X176780307Y-112994598D01*
X176780307Y-112994601D01*
X176841124Y-113181791D01*
X176841126Y-113181796D01*
X176914073Y-113324965D01*
X176930486Y-113357178D01*
X176988389Y-113436877D01*
X177046174Y-113516414D01*
X177046176Y-113516416D01*
X177046179Y-113516420D01*
X177185359Y-113655603D01*
X177185362Y-113655605D01*
X177185365Y-113655608D01*
X177312456Y-113747947D01*
X177344598Y-113771300D01*
X177519977Y-113860661D01*
X177707175Y-113921486D01*
X177901584Y-113952278D01*
X177950172Y-113952278D01*
X182655830Y-113952278D01*
X182696930Y-113952278D01*
X182703056Y-113952579D01*
X182840100Y-113966076D01*
X182852105Y-113968463D01*
X182980938Y-114007544D01*
X182992255Y-114012232D01*
X183110976Y-114075689D01*
X183121163Y-114082496D01*
X183225227Y-114167898D01*
X183233890Y-114176561D01*
X183319292Y-114280620D01*
X183326100Y-114290807D01*
X183389562Y-114409533D01*
X183394250Y-114420852D01*
X183433329Y-114549668D01*
X183435720Y-114561684D01*
X183449199Y-114698503D01*
X183449500Y-114704631D01*
X183449500Y-116501595D01*
X183431194Y-116545789D01*
X183387000Y-116564095D01*
X183342806Y-116545789D01*
X183335033Y-116536319D01*
X183310761Y-116499993D01*
X183223358Y-116412590D01*
X183223357Y-116412589D01*
X183120584Y-116343918D01*
X183120581Y-116343917D01*
X183096928Y-116334120D01*
X183006385Y-116296616D01*
X183006381Y-116296615D01*
X182885153Y-116272501D01*
X182011547Y-116272501D01*
X181890318Y-116296615D01*
X181890316Y-116296615D01*
X181890315Y-116296616D01*
X181856870Y-116310469D01*
X181776118Y-116343917D01*
X181776115Y-116343918D01*
X181673342Y-116412589D01*
X181585938Y-116499993D01*
X181517267Y-116602766D01*
X181517266Y-116602769D01*
X181483818Y-116683521D01*
X181471779Y-116712588D01*
X181469964Y-116716969D01*
X181453450Y-116799992D01*
X181445850Y-116838198D01*
X181445850Y-116961804D01*
X181469965Y-117083036D01*
X181504226Y-117165751D01*
X181517266Y-117197232D01*
X181517267Y-117197235D01*
X181585938Y-117300008D01*
X181673342Y-117387412D01*
X181776115Y-117456083D01*
X181776116Y-117456083D01*
X181776117Y-117456084D01*
X181890315Y-117503386D01*
X182011547Y-117527501D01*
X182885153Y-117527501D01*
X183006385Y-117503386D01*
X183120583Y-117456084D01*
X183223358Y-117387412D01*
X183310761Y-117300009D01*
X183335033Y-117263682D01*
X183374807Y-117237107D01*
X183421723Y-117246439D01*
X183448299Y-117286213D01*
X183449500Y-117298406D01*
X183449500Y-117445078D01*
X183448730Y-117454855D01*
X183438836Y-117517322D01*
X183432794Y-117535919D01*
X183406343Y-117587832D01*
X183394849Y-117603652D01*
X183353652Y-117644849D01*
X183337832Y-117656343D01*
X183285919Y-117682794D01*
X183267322Y-117688836D01*
X183204855Y-117698730D01*
X183195078Y-117699500D01*
X182593607Y-117699500D01*
X182483651Y-117724596D01*
X182382035Y-117773531D01*
X182382028Y-117773536D01*
X182293855Y-117843852D01*
X182293852Y-117843855D01*
X182223536Y-117932028D01*
X182223531Y-117932035D01*
X182174596Y-118033651D01*
X182159804Y-118098460D01*
X182149500Y-118143607D01*
X182149500Y-118150172D01*
X182149500Y-121649828D01*
X182187636Y-121741897D01*
X182258103Y-121812364D01*
X182350172Y-121850500D01*
X182449828Y-121850500D01*
X183155830Y-121850500D01*
X183195078Y-121850500D01*
X183204854Y-121851269D01*
X183237159Y-121856385D01*
X183267322Y-121861162D01*
X183285919Y-121867205D01*
X183337832Y-121893656D01*
X183353652Y-121905150D01*
X183394849Y-121946347D01*
X183406343Y-121962167D01*
X183432794Y-122014080D01*
X183438836Y-122032677D01*
X183448730Y-122095144D01*
X183449500Y-122104921D01*
X183449500Y-124945078D01*
X183448730Y-124954855D01*
X183438836Y-125017322D01*
X183432794Y-125035919D01*
X183406343Y-125087832D01*
X183394849Y-125103652D01*
X183353652Y-125144849D01*
X183337832Y-125156343D01*
X183285919Y-125182794D01*
X183267322Y-125188836D01*
X183204855Y-125198730D01*
X183195078Y-125199500D01*
X182593607Y-125199500D01*
X182483651Y-125224596D01*
X182382035Y-125273531D01*
X182382028Y-125273536D01*
X182293855Y-125343852D01*
X182293852Y-125343855D01*
X182223536Y-125432028D01*
X182223531Y-125432035D01*
X182174596Y-125533651D01*
X182149500Y-125643607D01*
X182149500Y-128910001D01*
X182131194Y-128954195D01*
X182087000Y-128972501D01*
X181811547Y-128972501D01*
X181690318Y-128996615D01*
X181690316Y-128996615D01*
X181690315Y-128996616D01*
X181681583Y-129000233D01*
X181576118Y-129043917D01*
X181576115Y-129043918D01*
X181473342Y-129112589D01*
X181385938Y-129199993D01*
X181317267Y-129302766D01*
X181317263Y-129302774D01*
X181304363Y-129333919D01*
X181295572Y-129342709D01*
X181290815Y-129354195D01*
X181279330Y-129358952D01*
X181270539Y-129367744D01*
X181246621Y-129372501D01*
X181120123Y-129372501D01*
X181075929Y-129354195D01*
X180345806Y-128624072D01*
X180327500Y-128579878D01*
X180327500Y-123654747D01*
X180327499Y-123654744D01*
X180292867Y-123571135D01*
X180292863Y-123571130D01*
X176625806Y-119904073D01*
X176607500Y-119859879D01*
X176607500Y-117138196D01*
X177245851Y-117138196D01*
X177245851Y-117261803D01*
X177262584Y-117345927D01*
X177269966Y-117383035D01*
X177299715Y-117454855D01*
X177317267Y-117497231D01*
X177317268Y-117497234D01*
X177385939Y-117600007D01*
X177473343Y-117687411D01*
X177576116Y-117756082D01*
X177576117Y-117756082D01*
X177576118Y-117756083D01*
X177690316Y-117803385D01*
X177811548Y-117827500D01*
X178685154Y-117827500D01*
X178806386Y-117803385D01*
X178920584Y-117756083D01*
X179023359Y-117687411D01*
X179110762Y-117600008D01*
X179179434Y-117497233D01*
X179226736Y-117383035D01*
X179250851Y-117261803D01*
X179250851Y-117138197D01*
X179226736Y-117016965D01*
X179179434Y-116902767D01*
X179136290Y-116838198D01*
X179110762Y-116799992D01*
X179023358Y-116712588D01*
X178920585Y-116643917D01*
X178920582Y-116643916D01*
X178896929Y-116634119D01*
X178806386Y-116596615D01*
X178806382Y-116596614D01*
X178685154Y-116572500D01*
X177811548Y-116572500D01*
X177690319Y-116596614D01*
X177690317Y-116596614D01*
X177690316Y-116596615D01*
X177656871Y-116610468D01*
X177576119Y-116643916D01*
X177576116Y-116643917D01*
X177473343Y-116712588D01*
X177385939Y-116799992D01*
X177317268Y-116902765D01*
X177317267Y-116902768D01*
X177269965Y-117016968D01*
X177245851Y-117138196D01*
X176607500Y-117138196D01*
X176607500Y-116604747D01*
X176607499Y-116604744D01*
X176572867Y-116521135D01*
X176572863Y-116521130D01*
X173258869Y-113207136D01*
X173258864Y-113207132D01*
X173175255Y-113172500D01*
X173175253Y-113172500D01*
X164954747Y-113172500D01*
X164954744Y-113172500D01*
X164871135Y-113207132D01*
X164871130Y-113207136D01*
X164178072Y-113900194D01*
X164133878Y-113918500D01*
X164049770Y-113918500D01*
X163952748Y-113944498D01*
X163952746Y-113944498D01*
X163865751Y-113994725D01*
X163794725Y-114065751D01*
X163744498Y-114152746D01*
X163744498Y-114152748D01*
X163718500Y-114249770D01*
X163718500Y-114350229D01*
X163744498Y-114447251D01*
X163744498Y-114447253D01*
X163769611Y-114490750D01*
X163794724Y-114534247D01*
X163865753Y-114605276D01*
X163952746Y-114655501D01*
X163995526Y-114666964D01*
X164049770Y-114681499D01*
X164049773Y-114681499D01*
X164049775Y-114681500D01*
X164049776Y-114681500D01*
X164150224Y-114681500D01*
X164150225Y-114681500D01*
X164247254Y-114655501D01*
X164257180Y-114649770D01*
X165318500Y-114649770D01*
X165318500Y-114750229D01*
X165344498Y-114847251D01*
X165344498Y-114847253D01*
X165344499Y-114847254D01*
X165394724Y-114934247D01*
X165465753Y-115005276D01*
X165552746Y-115055501D01*
X165595526Y-115066964D01*
X165649770Y-115081499D01*
X165649773Y-115081499D01*
X165649775Y-115081500D01*
X165649776Y-115081500D01*
X165750224Y-115081500D01*
X165750225Y-115081500D01*
X165847254Y-115055501D01*
X165934247Y-115005276D01*
X165993717Y-114945806D01*
X166037911Y-114927500D01*
X168526253Y-114927500D01*
X168554124Y-114915955D01*
X168609864Y-114892867D01*
X168609864Y-114892866D01*
X168609868Y-114892865D01*
X169056928Y-114445806D01*
X169101122Y-114427500D01*
X172109879Y-114427500D01*
X172154073Y-114445806D01*
X175054194Y-117345927D01*
X175072500Y-117390121D01*
X175072500Y-120845255D01*
X175107132Y-120928864D01*
X175107136Y-120928869D01*
X176054194Y-121875927D01*
X176072500Y-121920121D01*
X176072500Y-124245255D01*
X176107132Y-124328864D01*
X176107134Y-124328867D01*
X176107135Y-124328868D01*
X176671132Y-124892866D01*
X176754747Y-124927500D01*
X176845253Y-124927500D01*
X177246622Y-124927500D01*
X177290816Y-124945806D01*
X177304364Y-124966082D01*
X177317264Y-124997226D01*
X177317268Y-124997234D01*
X177385939Y-125100007D01*
X177473343Y-125187411D01*
X177576116Y-125256082D01*
X177576117Y-125256082D01*
X177576118Y-125256083D01*
X177690316Y-125303385D01*
X177811548Y-125327500D01*
X178685154Y-125327500D01*
X178806386Y-125303385D01*
X178920584Y-125256083D01*
X179023359Y-125187411D01*
X179110762Y-125100008D01*
X179179434Y-124997233D01*
X179226736Y-124883035D01*
X179250851Y-124761803D01*
X179250851Y-124638197D01*
X179226736Y-124516965D01*
X179179434Y-124402767D01*
X179179421Y-124402748D01*
X179110762Y-124299992D01*
X179023358Y-124212588D01*
X178920585Y-124143917D01*
X178920582Y-124143916D01*
X178877152Y-124125927D01*
X178806386Y-124096615D01*
X178806382Y-124096614D01*
X178685154Y-124072500D01*
X177811548Y-124072500D01*
X177690319Y-124096614D01*
X177690317Y-124096614D01*
X177690316Y-124096615D01*
X177667767Y-124105955D01*
X177576119Y-124143916D01*
X177576116Y-124143917D01*
X177473343Y-124212588D01*
X177385939Y-124299992D01*
X177317268Y-124402765D01*
X177317264Y-124402773D01*
X177304364Y-124433918D01*
X177270540Y-124467743D01*
X177246622Y-124472500D01*
X176920122Y-124472500D01*
X176875928Y-124454194D01*
X176545806Y-124124072D01*
X176527500Y-124079878D01*
X176527500Y-121754747D01*
X176527499Y-121754745D01*
X176514274Y-121722817D01*
X176514273Y-121722816D01*
X176508216Y-121708193D01*
X176492866Y-121671132D01*
X175545806Y-120724072D01*
X175527500Y-120679878D01*
X175527500Y-117224749D01*
X175527499Y-117224745D01*
X175514430Y-117193191D01*
X175514430Y-117193190D01*
X175492868Y-117141135D01*
X175492864Y-117141130D01*
X172358869Y-114007136D01*
X172358864Y-114007132D01*
X172275255Y-113972500D01*
X172275253Y-113972500D01*
X169026253Y-113972500D01*
X168935747Y-113972500D01*
X168852133Y-114007133D01*
X168852131Y-114007134D01*
X168405073Y-114454194D01*
X168360879Y-114472500D01*
X166037911Y-114472500D01*
X165993717Y-114454194D01*
X165934248Y-114394725D01*
X165934247Y-114394724D01*
X165847254Y-114344499D01*
X165847253Y-114344498D01*
X165847252Y-114344498D01*
X165750229Y-114318500D01*
X165750225Y-114318500D01*
X165649775Y-114318500D01*
X165649770Y-114318500D01*
X165552748Y-114344498D01*
X165552746Y-114344498D01*
X165465751Y-114394725D01*
X165394725Y-114465751D01*
X165344498Y-114552746D01*
X165344498Y-114552748D01*
X165318500Y-114649770D01*
X164257180Y-114649770D01*
X164334247Y-114605276D01*
X164405276Y-114534247D01*
X164455501Y-114447254D01*
X164481500Y-114350225D01*
X164481500Y-114266120D01*
X164499806Y-114221926D01*
X165075927Y-113645806D01*
X165120121Y-113627500D01*
X173009879Y-113627500D01*
X173054073Y-113645806D01*
X176134194Y-116725927D01*
X176152500Y-116770121D01*
X176152500Y-120025255D01*
X176187132Y-120108864D01*
X176187136Y-120108869D01*
X179854194Y-123775927D01*
X179872500Y-123820121D01*
X179872500Y-128745255D01*
X179907132Y-128828864D01*
X179907134Y-128828867D01*
X179907135Y-128828868D01*
X180871133Y-129792867D01*
X180930254Y-129817354D01*
X180930256Y-129817356D01*
X180930257Y-129817356D01*
X180954748Y-129827501D01*
X180954749Y-129827501D01*
X181045254Y-129827501D01*
X181246621Y-129827501D01*
X181290815Y-129845807D01*
X181304363Y-129866083D01*
X181317263Y-129897227D01*
X181317267Y-129897235D01*
X181385938Y-130000008D01*
X181473342Y-130087412D01*
X181576115Y-130156083D01*
X181576116Y-130156083D01*
X181576117Y-130156084D01*
X181690315Y-130203386D01*
X181811547Y-130227501D01*
X182685153Y-130227501D01*
X182806385Y-130203386D01*
X182920583Y-130156084D01*
X183023358Y-130087412D01*
X183110761Y-130000009D01*
X183179433Y-129897234D01*
X183226735Y-129783036D01*
X183250850Y-129661804D01*
X183250850Y-129538198D01*
X183234184Y-129454415D01*
X183238185Y-129434299D01*
X183239794Y-129413852D01*
X183242755Y-129411322D01*
X183243516Y-129407501D01*
X183260572Y-129396103D01*
X183276167Y-129382784D01*
X183280049Y-129383089D01*
X183283289Y-129380925D01*
X183323855Y-129386535D01*
X183337830Y-129393655D01*
X183353652Y-129405150D01*
X183394849Y-129446347D01*
X183406343Y-129462167D01*
X183432794Y-129514080D01*
X183438836Y-129532677D01*
X183448730Y-129595144D01*
X183449500Y-129604921D01*
X183449500Y-130696930D01*
X183449199Y-130703056D01*
X183435702Y-130840092D01*
X183433312Y-130852109D01*
X183394234Y-130980932D01*
X183389545Y-130992251D01*
X183326087Y-131110972D01*
X183319280Y-131121159D01*
X183233882Y-131225218D01*
X183225218Y-131233882D01*
X183121159Y-131319280D01*
X183110972Y-131326087D01*
X182992251Y-131389545D01*
X182980932Y-131394234D01*
X182852109Y-131433312D01*
X182840092Y-131435702D01*
X182703056Y-131449199D01*
X182696930Y-131449500D01*
X124271717Y-131449500D01*
X124227523Y-131431194D01*
X124209217Y-131387000D01*
X124219750Y-131352277D01*
X124277631Y-131265652D01*
X124343778Y-131105957D01*
X124377500Y-130936426D01*
X124377500Y-130763574D01*
X124343778Y-130594043D01*
X124277631Y-130434348D01*
X124181599Y-130290626D01*
X124059374Y-130168401D01*
X124040940Y-130156084D01*
X123938165Y-130087412D01*
X123915652Y-130072369D01*
X123755957Y-130006222D01*
X123755955Y-130006221D01*
X123586426Y-129972500D01*
X122913574Y-129972500D01*
X122744044Y-130006221D01*
X122584346Y-130072370D01*
X122440626Y-130168400D01*
X122318400Y-130290626D01*
X122222370Y-130434346D01*
X122156221Y-130594044D01*
X122122500Y-130763573D01*
X122122500Y-130936426D01*
X122156221Y-131105955D01*
X122162519Y-131121159D01*
X122222369Y-131265652D01*
X122222370Y-131265653D01*
X122280250Y-131352277D01*
X122289582Y-131399193D01*
X122263006Y-131438967D01*
X122228283Y-131449500D01*
X119003070Y-131449500D01*
X118996944Y-131449199D01*
X118859907Y-131435702D01*
X118847890Y-131433312D01*
X118719067Y-131394234D01*
X118707748Y-131389545D01*
X118589027Y-131326087D01*
X118578840Y-131319280D01*
X118513493Y-131265652D01*
X118474779Y-131233880D01*
X118466117Y-131225218D01*
X118429029Y-131180025D01*
X118380716Y-131121155D01*
X118373915Y-131110976D01*
X118310452Y-130992247D01*
X118305767Y-130980937D01*
X118266686Y-130852105D01*
X118264297Y-130840092D01*
X118250801Y-130703056D01*
X118250500Y-130696930D01*
X118250500Y-129838196D01*
X173445851Y-129838196D01*
X173445851Y-129961803D01*
X173467844Y-130072370D01*
X173469966Y-130083035D01*
X173507470Y-130173578D01*
X173517267Y-130197231D01*
X173517268Y-130197234D01*
X173585939Y-130300007D01*
X173673343Y-130387411D01*
X173776116Y-130456082D01*
X173776117Y-130456082D01*
X173776118Y-130456083D01*
X173890316Y-130503385D01*
X174011548Y-130527500D01*
X174885154Y-130527500D01*
X175006386Y-130503385D01*
X175120584Y-130456083D01*
X175223359Y-130387411D01*
X175310762Y-130300008D01*
X175379434Y-130197233D01*
X175426736Y-130083035D01*
X175450851Y-129961803D01*
X175450851Y-129838197D01*
X175426736Y-129716965D01*
X175379434Y-129602767D01*
X175374340Y-129595144D01*
X175310762Y-129499992D01*
X175223358Y-129412588D01*
X175120585Y-129343917D01*
X175120582Y-129343916D01*
X175096447Y-129333919D01*
X175006386Y-129296615D01*
X175006382Y-129296614D01*
X174885154Y-129272500D01*
X174011548Y-129272500D01*
X173890319Y-129296614D01*
X173890317Y-129296614D01*
X173890316Y-129296615D01*
X173875447Y-129302774D01*
X173776119Y-129343916D01*
X173776116Y-129343917D01*
X173673343Y-129412588D01*
X173585939Y-129499992D01*
X173517268Y-129602765D01*
X173517267Y-129602768D01*
X173495185Y-129656081D01*
X173475592Y-129703384D01*
X173469965Y-129716968D01*
X173445851Y-129838196D01*
X118250500Y-129838196D01*
X118250500Y-125379834D01*
X119072500Y-125379834D01*
X119072500Y-126320165D01*
X119075434Y-126345458D01*
X119078652Y-126352746D01*
X119121115Y-126448915D01*
X119201085Y-126528885D01*
X119304543Y-126574566D01*
X119329833Y-126577500D01*
X119770166Y-126577499D01*
X119795457Y-126574566D01*
X119898915Y-126528885D01*
X119978885Y-126448915D01*
X119978886Y-126448912D01*
X119979668Y-126447772D01*
X119980701Y-126447098D01*
X119982980Y-126444820D01*
X119983460Y-126445300D01*
X120019746Y-126421657D01*
X120063768Y-126429731D01*
X121009897Y-127006638D01*
X121038100Y-127045275D01*
X121030721Y-127092538D01*
X120992084Y-127120741D01*
X120977359Y-127122500D01*
X120489999Y-127122500D01*
X120445805Y-127104194D01*
X120427499Y-127060000D01*
X120427499Y-127029834D01*
X120427499Y-127029833D01*
X120424566Y-127004543D01*
X120378885Y-126901085D01*
X120298915Y-126821115D01*
X120195457Y-126775434D01*
X120170167Y-126772500D01*
X120170165Y-126772500D01*
X119729834Y-126772500D01*
X119704541Y-126775434D01*
X119636957Y-126805276D01*
X119604519Y-126819599D01*
X119601083Y-126821116D01*
X119521116Y-126901083D01*
X119521115Y-126901084D01*
X119521115Y-126901085D01*
X119475434Y-127004543D01*
X119472767Y-127027536D01*
X119472500Y-127029834D01*
X119472500Y-127670165D01*
X119475434Y-127695458D01*
X119484189Y-127715285D01*
X119521115Y-127798915D01*
X119601085Y-127878885D01*
X119704543Y-127924566D01*
X119729833Y-127927500D01*
X120170166Y-127927499D01*
X120195457Y-127924566D01*
X120298915Y-127878885D01*
X120378885Y-127798915D01*
X120424566Y-127695457D01*
X120427500Y-127670167D01*
X120427500Y-127640000D01*
X120445806Y-127595806D01*
X120490000Y-127577500D01*
X120853263Y-127577500D01*
X120897457Y-127595806D01*
X120915763Y-127640000D01*
X120897457Y-127684194D01*
X120886247Y-127693087D01*
X120850520Y-127715285D01*
X120024547Y-128228463D01*
X119977347Y-128236237D01*
X119947369Y-128219569D01*
X119898916Y-128171116D01*
X119898915Y-128171115D01*
X119795457Y-128125434D01*
X119770167Y-128122500D01*
X119770165Y-128122500D01*
X119329834Y-128122500D01*
X119304541Y-128125434D01*
X119201083Y-128171116D01*
X119121116Y-128251083D01*
X119121115Y-128251084D01*
X119121115Y-128251085D01*
X119076205Y-128352798D01*
X119075434Y-128354544D01*
X119072500Y-128379834D01*
X119072500Y-129320165D01*
X119075434Y-129345458D01*
X119091166Y-129381087D01*
X119121115Y-129448915D01*
X119201085Y-129528885D01*
X119304543Y-129574566D01*
X119329833Y-129577500D01*
X119770166Y-129577499D01*
X119795457Y-129574566D01*
X119898915Y-129528885D01*
X119978885Y-129448915D01*
X120024566Y-129345457D01*
X120027500Y-129320167D01*
X120027499Y-128914775D01*
X120045805Y-128870582D01*
X120057011Y-128861691D01*
X121304037Y-128086911D01*
X121337021Y-128077500D01*
X143799625Y-128077500D01*
X143799641Y-128077501D01*
X143803466Y-128077501D01*
X143876534Y-128077501D01*
X143876539Y-128077500D01*
X143903922Y-128070161D01*
X143947111Y-128058589D01*
X144010389Y-128022056D01*
X145172638Y-126859805D01*
X145216832Y-126841500D01*
X145230224Y-126841500D01*
X145230225Y-126841500D01*
X145327254Y-126815501D01*
X145414247Y-126765276D01*
X145455806Y-126723717D01*
X145500000Y-126705411D01*
X145544194Y-126723717D01*
X145562500Y-126767911D01*
X145562500Y-127195255D01*
X145597132Y-127278864D01*
X145597134Y-127278867D01*
X145597135Y-127278868D01*
X146161132Y-127842866D01*
X146244747Y-127877500D01*
X146335253Y-127877500D01*
X148369879Y-127877500D01*
X148414072Y-127895805D01*
X148561132Y-128042866D01*
X148644747Y-128077500D01*
X148752089Y-128077500D01*
X148796283Y-128095806D01*
X148855753Y-128155276D01*
X148942746Y-128205501D01*
X148985526Y-128216964D01*
X149039770Y-128231499D01*
X149039773Y-128231499D01*
X149039775Y-128231500D01*
X149039776Y-128231500D01*
X149140224Y-128231500D01*
X149140225Y-128231500D01*
X149237254Y-128205501D01*
X149322750Y-128156139D01*
X149370176Y-128149896D01*
X149408126Y-128179016D01*
X149416500Y-128210266D01*
X149416500Y-128385878D01*
X149398194Y-128430072D01*
X149178072Y-128650194D01*
X149133878Y-128668500D01*
X149039770Y-128668500D01*
X148942748Y-128694498D01*
X148942746Y-128694498D01*
X148855751Y-128744725D01*
X148784725Y-128815751D01*
X148734498Y-128902746D01*
X148734498Y-128902748D01*
X148708500Y-128999770D01*
X148708500Y-129100229D01*
X148734498Y-129197251D01*
X148734498Y-129197253D01*
X148734499Y-129197254D01*
X148784724Y-129284247D01*
X148855753Y-129355276D01*
X148942746Y-129405501D01*
X148969195Y-129412588D01*
X149039770Y-129431499D01*
X149039773Y-129431499D01*
X149039775Y-129431500D01*
X149039776Y-129431500D01*
X149140224Y-129431500D01*
X149140225Y-129431500D01*
X149237254Y-129405501D01*
X149324247Y-129355276D01*
X149395276Y-129284247D01*
X149445501Y-129197254D01*
X149471500Y-129100225D01*
X149471500Y-129038195D01*
X171245850Y-129038195D01*
X171245850Y-129161802D01*
X171267869Y-129272500D01*
X171269965Y-129283034D01*
X171301411Y-129358952D01*
X171317266Y-129397230D01*
X171317267Y-129397233D01*
X171385938Y-129500006D01*
X171473342Y-129587410D01*
X171576115Y-129656081D01*
X171576116Y-129656081D01*
X171576117Y-129656082D01*
X171690315Y-129703384D01*
X171811547Y-129727499D01*
X172685153Y-129727499D01*
X172806385Y-129703384D01*
X172920583Y-129656082D01*
X173023358Y-129587410D01*
X173110761Y-129500007D01*
X173179433Y-129397232D01*
X173226735Y-129283034D01*
X173250850Y-129161802D01*
X173250850Y-129038196D01*
X173226735Y-128916964D01*
X173179433Y-128802766D01*
X173141005Y-128745255D01*
X173110761Y-128699991D01*
X173023357Y-128612587D01*
X172920584Y-128543916D01*
X172920581Y-128543915D01*
X172896928Y-128534118D01*
X172806385Y-128496614D01*
X172806381Y-128496613D01*
X172685153Y-128472499D01*
X171811547Y-128472499D01*
X171690318Y-128496613D01*
X171690316Y-128496613D01*
X171690315Y-128496614D01*
X171656870Y-128510467D01*
X171576118Y-128543915D01*
X171576115Y-128543916D01*
X171473342Y-128612587D01*
X171385938Y-128699991D01*
X171317267Y-128802764D01*
X171317266Y-128802767D01*
X171300622Y-128842951D01*
X171270872Y-128914776D01*
X171269964Y-128916967D01*
X171245850Y-129038195D01*
X149471500Y-129038195D01*
X149471500Y-129026121D01*
X149489806Y-128981927D01*
X149655982Y-128815751D01*
X149836865Y-128634868D01*
X149846094Y-128612587D01*
X149856246Y-128588079D01*
X149856248Y-128588072D01*
X149871500Y-128551253D01*
X149871500Y-127575272D01*
X149863459Y-127555859D01*
X149836867Y-127491660D01*
X149836863Y-127491655D01*
X149594978Y-127249770D01*
X156168500Y-127249770D01*
X156168500Y-127350229D01*
X156194498Y-127447251D01*
X156194498Y-127447253D01*
X156213749Y-127480597D01*
X156244724Y-127534247D01*
X156315753Y-127605276D01*
X156402746Y-127655501D01*
X156445526Y-127666964D01*
X156499770Y-127681499D01*
X156499773Y-127681499D01*
X156499775Y-127681500D01*
X156499776Y-127681500D01*
X156600224Y-127681500D01*
X156600225Y-127681500D01*
X156624438Y-127675012D01*
X163111275Y-127675012D01*
X163111275Y-127871841D01*
X163111276Y-127871857D01*
X163142065Y-128066247D01*
X163142067Y-128066256D01*
X163202890Y-128253450D01*
X163202894Y-128253458D01*
X163292252Y-128428834D01*
X163407946Y-128588072D01*
X163407953Y-128588080D01*
X163547121Y-128727248D01*
X163547129Y-128727255D01*
X163686986Y-128828868D01*
X163706370Y-128842951D01*
X163881750Y-128932311D01*
X164068949Y-128993136D01*
X164219932Y-129017049D01*
X164263344Y-129023925D01*
X164263350Y-129023925D01*
X164263358Y-129023927D01*
X164263360Y-129023927D01*
X164460190Y-129023927D01*
X164460192Y-129023927D01*
X164654601Y-128993136D01*
X164841800Y-128932311D01*
X165017180Y-128842951D01*
X165176421Y-128727255D01*
X165315603Y-128588073D01*
X165431299Y-128428832D01*
X165520659Y-128253452D01*
X165581484Y-128066253D01*
X165612275Y-127871844D01*
X165612275Y-127675010D01*
X165581484Y-127480601D01*
X165520659Y-127293402D01*
X165476321Y-127206384D01*
X172297850Y-127206384D01*
X172297850Y-127393617D01*
X172334376Y-127577250D01*
X172406028Y-127750232D01*
X172406029Y-127750234D01*
X172491991Y-127878885D01*
X172510048Y-127905909D01*
X172642442Y-128038303D01*
X172798119Y-128142323D01*
X172971099Y-128213974D01*
X173154734Y-128250501D01*
X173341966Y-128250501D01*
X173525601Y-128213974D01*
X173698581Y-128142323D01*
X173854258Y-128038303D01*
X173986652Y-127905909D01*
X174090672Y-127750232D01*
X174162323Y-127577252D01*
X174198850Y-127393617D01*
X174198850Y-127206385D01*
X174162323Y-127022750D01*
X174090672Y-126849770D01*
X174085145Y-126841499D01*
X173986652Y-126694093D01*
X173854257Y-126561698D01*
X173698583Y-126457680D01*
X173698581Y-126457679D01*
X173525599Y-126386027D01*
X173341966Y-126349501D01*
X173154734Y-126349501D01*
X172971100Y-126386027D01*
X172798118Y-126457679D01*
X172798116Y-126457680D01*
X172642442Y-126561698D01*
X172510047Y-126694093D01*
X172406029Y-126849767D01*
X172406028Y-126849769D01*
X172334376Y-127022751D01*
X172297850Y-127206384D01*
X165476321Y-127206384D01*
X165431299Y-127118022D01*
X165387062Y-127057136D01*
X165315603Y-126958781D01*
X165315596Y-126958773D01*
X165176428Y-126819605D01*
X165176420Y-126819598D01*
X165017182Y-126703904D01*
X164841806Y-126614546D01*
X164841798Y-126614542D01*
X164654604Y-126553719D01*
X164654601Y-126553718D01*
X164654595Y-126553717D01*
X164460205Y-126522928D01*
X164460193Y-126522927D01*
X164460192Y-126522927D01*
X164263358Y-126522927D01*
X164263356Y-126522927D01*
X164263344Y-126522928D01*
X164068954Y-126553717D01*
X164068945Y-126553719D01*
X163881751Y-126614542D01*
X163881743Y-126614546D01*
X163706367Y-126703904D01*
X163547129Y-126819598D01*
X163547121Y-126819605D01*
X163407953Y-126958773D01*
X163407946Y-126958781D01*
X163292252Y-127118019D01*
X163202894Y-127293395D01*
X163202890Y-127293403D01*
X163142067Y-127480597D01*
X163142065Y-127480606D01*
X163111276Y-127674996D01*
X163111275Y-127675012D01*
X156624438Y-127675012D01*
X156697254Y-127655501D01*
X156761469Y-127618426D01*
X156761471Y-127618426D01*
X156784245Y-127605277D01*
X156784244Y-127605277D01*
X156784247Y-127605276D01*
X156855276Y-127534247D01*
X156905501Y-127447254D01*
X156931500Y-127350225D01*
X156931500Y-127249775D01*
X156905501Y-127152746D01*
X156855276Y-127065753D01*
X156784247Y-126994724D01*
X156784245Y-126994723D01*
X156784243Y-126994721D01*
X156772250Y-126987797D01*
X156743130Y-126949847D01*
X156741000Y-126933671D01*
X156741000Y-123655003D01*
X156759306Y-123610809D01*
X157053998Y-123316117D01*
X157361922Y-123008193D01*
X157391000Y-122937992D01*
X157391000Y-122862008D01*
X157391000Y-121105002D01*
X157409305Y-121060809D01*
X158076024Y-120394089D01*
X158120217Y-120375784D01*
X158136394Y-120377914D01*
X158142877Y-120379651D01*
X158149770Y-120381499D01*
X158149772Y-120381499D01*
X158149775Y-120381500D01*
X158149777Y-120381500D01*
X158250224Y-120381500D01*
X158250225Y-120381500D01*
X158347254Y-120355501D01*
X158434247Y-120305276D01*
X158505276Y-120234247D01*
X158555501Y-120147254D01*
X158581500Y-120050225D01*
X158581500Y-119949775D01*
X158555501Y-119852746D01*
X158505276Y-119765753D01*
X158434247Y-119694724D01*
X158347254Y-119644499D01*
X158347253Y-119644498D01*
X158347252Y-119644498D01*
X158250229Y-119618500D01*
X158250225Y-119618500D01*
X158149775Y-119618500D01*
X158149770Y-119618500D01*
X158052748Y-119644498D01*
X158052746Y-119644498D01*
X157965751Y-119694725D01*
X157894725Y-119765751D01*
X157844498Y-119852746D01*
X157844498Y-119852748D01*
X157818500Y-119949770D01*
X157818500Y-120050226D01*
X157822085Y-120063606D01*
X157815840Y-120111032D01*
X157805908Y-120123975D01*
X157091807Y-120838078D01*
X157038079Y-120891805D01*
X157038077Y-120891808D01*
X157009000Y-120962008D01*
X157009000Y-122794997D01*
X156990694Y-122839191D01*
X156388079Y-123441805D01*
X156388077Y-123441808D01*
X156359000Y-123512008D01*
X156359000Y-126933671D01*
X156340694Y-126977865D01*
X156327750Y-126987797D01*
X156315756Y-126994721D01*
X156315748Y-126994728D01*
X156244725Y-127065751D01*
X156194498Y-127152746D01*
X156194498Y-127152748D01*
X156168500Y-127249770D01*
X149594978Y-127249770D01*
X149402344Y-127057136D01*
X149402339Y-127057132D01*
X149318730Y-127022500D01*
X149318728Y-127022500D01*
X146575808Y-127022500D01*
X146531614Y-127004194D01*
X146435806Y-126908386D01*
X146417500Y-126864192D01*
X146417500Y-125944747D01*
X146415128Y-125939021D01*
X146415127Y-125939019D01*
X146411639Y-125930598D01*
X146382866Y-125861132D01*
X145809776Y-125288043D01*
X145809775Y-125288042D01*
X145809772Y-125288040D01*
X145726163Y-125253408D01*
X145726161Y-125253408D01*
X144713839Y-125253408D01*
X144713836Y-125253408D01*
X144633955Y-125286497D01*
X144633954Y-125286498D01*
X144630225Y-125288042D01*
X144630222Y-125288044D01*
X143314073Y-126604194D01*
X143269879Y-126622500D01*
X121271442Y-126622500D01*
X121238904Y-126613362D01*
X120057461Y-125892970D01*
X120029258Y-125854333D01*
X120027499Y-125839608D01*
X120027499Y-125663293D01*
X120045805Y-125619099D01*
X120089999Y-125600793D01*
X120134193Y-125619099D01*
X120238436Y-125723342D01*
X120369874Y-125811166D01*
X120515919Y-125871660D01*
X120670961Y-125902500D01*
X120829039Y-125902500D01*
X120984081Y-125871660D01*
X121130126Y-125811166D01*
X121261564Y-125723342D01*
X121373342Y-125611564D01*
X121461166Y-125480126D01*
X121521660Y-125334081D01*
X121552500Y-125179039D01*
X121552500Y-125020961D01*
X121521660Y-124865919D01*
X121461166Y-124719874D01*
X121373342Y-124588436D01*
X121261564Y-124476658D01*
X121261563Y-124476657D01*
X121130128Y-124388835D01*
X121130126Y-124388834D01*
X120984079Y-124328339D01*
X120829039Y-124297500D01*
X120670961Y-124297500D01*
X120515920Y-124328339D01*
X120369873Y-124388834D01*
X120369871Y-124388835D01*
X120238436Y-124476657D01*
X120126657Y-124588436D01*
X120038835Y-124719871D01*
X120038834Y-124719873D01*
X119978339Y-124865920D01*
X119947500Y-125020960D01*
X119947500Y-125096649D01*
X119929194Y-125140843D01*
X119885000Y-125159149D01*
X119859756Y-125153824D01*
X119795457Y-125125434D01*
X119770167Y-125122500D01*
X119770165Y-125122500D01*
X119329834Y-125122500D01*
X119304541Y-125125434D01*
X119201083Y-125171116D01*
X119121116Y-125251083D01*
X119121115Y-125251084D01*
X119121115Y-125251085D01*
X119080154Y-125343855D01*
X119075434Y-125354544D01*
X119072500Y-125379834D01*
X118250500Y-125379834D01*
X118250500Y-123853069D01*
X118250801Y-123846943D01*
X118260193Y-123751583D01*
X118264298Y-123709901D01*
X118266685Y-123697896D01*
X118305768Y-123569058D01*
X118310450Y-123557755D01*
X118373917Y-123439018D01*
X118380712Y-123428849D01*
X118466124Y-123324773D01*
X118474773Y-123316124D01*
X118578849Y-123230712D01*
X118589018Y-123223917D01*
X118707755Y-123160450D01*
X118719058Y-123155768D01*
X118847896Y-123116685D01*
X118859901Y-123114298D01*
X118996944Y-123100801D01*
X119003070Y-123100500D01*
X119044170Y-123100500D01*
X122357639Y-123100500D01*
X122401833Y-123118806D01*
X122420139Y-123163000D01*
X122401833Y-123207194D01*
X122318402Y-123290624D01*
X122318400Y-123290626D01*
X122222370Y-123434346D01*
X122222369Y-123434348D01*
X122219279Y-123441808D01*
X122156221Y-123594044D01*
X122122500Y-123763573D01*
X122122500Y-123936426D01*
X122156221Y-124105955D01*
X122156222Y-124105957D01*
X122222369Y-124265652D01*
X122264255Y-124328339D01*
X122313973Y-124402748D01*
X122318401Y-124409374D01*
X122440626Y-124531599D01*
X122584348Y-124627631D01*
X122744043Y-124693778D01*
X122913574Y-124727500D01*
X123586426Y-124727500D01*
X123755957Y-124693778D01*
X123915652Y-124627631D01*
X124059374Y-124531599D01*
X124181599Y-124409374D01*
X124277631Y-124265652D01*
X124343778Y-124105957D01*
X124377500Y-123936426D01*
X124377500Y-123763574D01*
X124343778Y-123594043D01*
X124277631Y-123434348D01*
X124181599Y-123290626D01*
X124098167Y-123207194D01*
X124079861Y-123163000D01*
X124098167Y-123118806D01*
X124142361Y-123100500D01*
X146298415Y-123100500D01*
X146298417Y-123100500D01*
X146492826Y-123069709D01*
X146680025Y-123008884D01*
X146855405Y-122919524D01*
X147014646Y-122803828D01*
X147153828Y-122664646D01*
X147269524Y-122505405D01*
X147358884Y-122330025D01*
X147419709Y-122142826D01*
X147432670Y-122060987D01*
X147442367Y-121999770D01*
X155568500Y-121999770D01*
X155568500Y-122100229D01*
X155594498Y-122197251D01*
X155594498Y-122197253D01*
X155594499Y-122197254D01*
X155644724Y-122284247D01*
X155715753Y-122355276D01*
X155802746Y-122405501D01*
X155845526Y-122416964D01*
X155899770Y-122431499D01*
X155899773Y-122431499D01*
X155899775Y-122431500D01*
X155899776Y-122431500D01*
X156000224Y-122431500D01*
X156000225Y-122431500D01*
X156097254Y-122405501D01*
X156184247Y-122355276D01*
X156255276Y-122284247D01*
X156305501Y-122197254D01*
X156331500Y-122100225D01*
X156331500Y-121999775D01*
X156330547Y-121996220D01*
X156327915Y-121986397D01*
X156334156Y-121938970D01*
X156344086Y-121926027D01*
X156561922Y-121708193D01*
X156591000Y-121637992D01*
X156591000Y-121562008D01*
X156591000Y-118312008D01*
X156561922Y-118241807D01*
X156508193Y-118188078D01*
X156444091Y-118123976D01*
X156425785Y-118079782D01*
X156427915Y-118063604D01*
X156428213Y-118062490D01*
X156431500Y-118050225D01*
X156431500Y-117949775D01*
X156405501Y-117852746D01*
X156355276Y-117765753D01*
X156284247Y-117694724D01*
X156197254Y-117644499D01*
X156197253Y-117644498D01*
X156197252Y-117644498D01*
X156100229Y-117618500D01*
X156100225Y-117618500D01*
X155999775Y-117618500D01*
X155999770Y-117618500D01*
X155902748Y-117644498D01*
X155902746Y-117644498D01*
X155815751Y-117694725D01*
X155744725Y-117765751D01*
X155694498Y-117852746D01*
X155694498Y-117852748D01*
X155668500Y-117949770D01*
X155668500Y-118050229D01*
X155694498Y-118147251D01*
X155694498Y-118147253D01*
X155718069Y-118188078D01*
X155744724Y-118234247D01*
X155815753Y-118305276D01*
X155902746Y-118355501D01*
X155945526Y-118366964D01*
X155999770Y-118381499D01*
X155999773Y-118381499D01*
X155999775Y-118381500D01*
X155999776Y-118381500D01*
X156100225Y-118381500D01*
X156113604Y-118377915D01*
X156121978Y-118379017D01*
X156129782Y-118375785D01*
X156144853Y-118382027D01*
X156161030Y-118384157D01*
X156173976Y-118394091D01*
X156190694Y-118410809D01*
X156209000Y-118455003D01*
X156209000Y-121494996D01*
X156190694Y-121539190D01*
X156073975Y-121655908D01*
X156029781Y-121674214D01*
X156013606Y-121672085D01*
X156000226Y-121668500D01*
X156000225Y-121668500D01*
X155899775Y-121668500D01*
X155899770Y-121668500D01*
X155802748Y-121694498D01*
X155802746Y-121694498D01*
X155715751Y-121744725D01*
X155644725Y-121815751D01*
X155594498Y-121902746D01*
X155594498Y-121902748D01*
X155568500Y-121999770D01*
X147442367Y-121999770D01*
X147444562Y-121985914D01*
X147444563Y-121985902D01*
X147448322Y-121962167D01*
X147450500Y-121948417D01*
X147450500Y-121850000D01*
X147450500Y-121805830D01*
X147450500Y-101800172D01*
X147450500Y-101751583D01*
X147419709Y-101557174D01*
X147358884Y-101369975D01*
X147269524Y-101194595D01*
X147153828Y-101035354D01*
X147153821Y-101035346D01*
X147014653Y-100896178D01*
X147014645Y-100896171D01*
X146938107Y-100840563D01*
X146913113Y-100799777D01*
X146924281Y-100753263D01*
X146965067Y-100728269D01*
X146974844Y-100727500D01*
X149151490Y-100727500D01*
X149151492Y-100727500D01*
X149221693Y-100698422D01*
X149432334Y-100487779D01*
X149476527Y-100469474D01*
X149492697Y-100471603D01*
X149499775Y-100473500D01*
X149499779Y-100473500D01*
X149600224Y-100473500D01*
X149600225Y-100473500D01*
X149697254Y-100447501D01*
X149784247Y-100397276D01*
X149855276Y-100326247D01*
X149905501Y-100239254D01*
X149931500Y-100142225D01*
X149931500Y-100041775D01*
X149905501Y-99944746D01*
X149855276Y-99857753D01*
X149784247Y-99786724D01*
X149697254Y-99736499D01*
X149697253Y-99736498D01*
X149697252Y-99736498D01*
X149600229Y-99710500D01*
X149600225Y-99710500D01*
X149499775Y-99710500D01*
X149499770Y-99710500D01*
X149402748Y-99736498D01*
X149402746Y-99736498D01*
X149315751Y-99786725D01*
X149244725Y-99857751D01*
X149194498Y-99944746D01*
X149194498Y-99944748D01*
X149168500Y-100041770D01*
X149168500Y-100142223D01*
X149168501Y-100142231D01*
X149173775Y-100161914D01*
X149167532Y-100209340D01*
X149157599Y-100222284D01*
X149052690Y-100327194D01*
X149008498Y-100345500D01*
X143191503Y-100345500D01*
X143147309Y-100327194D01*
X142209306Y-99389191D01*
X142191000Y-99344997D01*
X142191000Y-98907990D01*
X142209306Y-98863796D01*
X142241306Y-98846692D01*
X142255957Y-98843778D01*
X142415652Y-98777631D01*
X142559374Y-98681599D01*
X142681599Y-98559374D01*
X142777631Y-98415652D01*
X142843778Y-98255957D01*
X142877500Y-98086426D01*
X142877500Y-97913574D01*
X142843778Y-97744043D01*
X142777631Y-97584348D01*
X142681599Y-97440626D01*
X142559374Y-97318401D01*
X142524609Y-97295172D01*
X142415653Y-97222370D01*
X142415654Y-97222370D01*
X142415652Y-97222369D01*
X142255957Y-97156222D01*
X142255955Y-97156221D01*
X142086426Y-97122500D01*
X141913574Y-97122500D01*
X141744044Y-97156221D01*
X141620525Y-97207383D01*
X141587178Y-97221197D01*
X141584346Y-97222370D01*
X141440626Y-97318400D01*
X141318400Y-97440626D01*
X141222370Y-97584346D01*
X141156221Y-97744044D01*
X141122500Y-97913573D01*
X141122500Y-98086426D01*
X141156221Y-98255955D01*
X141156222Y-98255957D01*
X141222369Y-98415652D01*
X141318401Y-98559374D01*
X141440626Y-98681599D01*
X141584348Y-98777631D01*
X141744043Y-98843778D01*
X141758692Y-98846691D01*
X141798465Y-98873264D01*
X141809000Y-98907990D01*
X141809000Y-99487991D01*
X141838077Y-99558191D01*
X141838079Y-99558194D01*
X142772691Y-100492806D01*
X142790997Y-100537000D01*
X142772691Y-100581194D01*
X142728497Y-100599500D01*
X119003070Y-100599500D01*
X118996944Y-100599199D01*
X118859907Y-100585702D01*
X118847890Y-100583312D01*
X118719067Y-100544234D01*
X118707748Y-100539545D01*
X118589027Y-100476087D01*
X118578840Y-100469280D01*
X118570292Y-100462265D01*
X118474779Y-100383880D01*
X118466117Y-100375218D01*
X118380716Y-100271155D01*
X118373915Y-100260976D01*
X118310452Y-100142247D01*
X118305767Y-100130937D01*
X118266686Y-100002105D01*
X118264297Y-99990092D01*
X118259831Y-99944748D01*
X118250801Y-99853056D01*
X118250500Y-99846930D01*
X118250500Y-97913573D01*
X124172500Y-97913573D01*
X124172500Y-98086426D01*
X124206221Y-98255955D01*
X124206222Y-98255957D01*
X124272369Y-98415652D01*
X124368401Y-98559374D01*
X124490626Y-98681599D01*
X124634348Y-98777631D01*
X124794043Y-98843778D01*
X124963574Y-98877500D01*
X125136426Y-98877500D01*
X125305957Y-98843778D01*
X125465652Y-98777631D01*
X125609374Y-98681599D01*
X125731599Y-98559374D01*
X125827631Y-98415652D01*
X125893778Y-98255957D01*
X125927500Y-98086426D01*
X125927500Y-97913574D01*
X125927500Y-97913573D01*
X126172500Y-97913573D01*
X126172500Y-98086426D01*
X126206221Y-98255955D01*
X126206222Y-98255957D01*
X126272369Y-98415652D01*
X126368401Y-98559374D01*
X126490626Y-98681599D01*
X126634348Y-98777631D01*
X126794043Y-98843778D01*
X126963574Y-98877500D01*
X127136426Y-98877500D01*
X127305957Y-98843778D01*
X127465652Y-98777631D01*
X127609374Y-98681599D01*
X127731599Y-98559374D01*
X127801154Y-98455276D01*
X127840928Y-98428701D01*
X127853121Y-98427500D01*
X128286280Y-98427500D01*
X128286281Y-98427500D01*
X128395009Y-98398367D01*
X128492491Y-98342085D01*
X129547177Y-97287399D01*
X130621004Y-96213573D01*
X138122500Y-96213573D01*
X138122500Y-96386426D01*
X138156221Y-96555955D01*
X138156222Y-96555957D01*
X138222369Y-96715652D01*
X138318401Y-96859374D01*
X138440626Y-96981599D01*
X138584348Y-97077631D01*
X138744043Y-97143778D01*
X138913574Y-97177500D01*
X139086426Y-97177500D01*
X139255957Y-97143778D01*
X139415652Y-97077631D01*
X139559374Y-96981599D01*
X139681599Y-96859374D01*
X139777631Y-96715652D01*
X139843778Y-96555957D01*
X139877500Y-96386426D01*
X139877500Y-96213574D01*
X139843778Y-96044043D01*
X139777631Y-95884348D01*
X139681599Y-95740626D01*
X139559374Y-95618401D01*
X139415652Y-95522369D01*
X139255957Y-95456222D01*
X139255955Y-95456221D01*
X139086426Y-95422500D01*
X138913574Y-95422500D01*
X138744044Y-95456221D01*
X138584346Y-95522370D01*
X138440626Y-95618400D01*
X138318400Y-95740626D01*
X138222370Y-95884346D01*
X138222369Y-95884348D01*
X138212955Y-95907076D01*
X138156221Y-96044044D01*
X138122500Y-96213573D01*
X130621004Y-96213573D01*
X130668267Y-96166310D01*
X131588771Y-95245806D01*
X131632965Y-95227500D01*
X146190000Y-95227500D01*
X146234194Y-95245806D01*
X146252500Y-95290000D01*
X146252500Y-96755743D01*
X146234194Y-96799937D01*
X145746732Y-97287399D01*
X145702538Y-97305705D01*
X144559332Y-97305705D01*
X144524609Y-97295172D01*
X144415653Y-97222370D01*
X144415654Y-97222370D01*
X144415652Y-97222369D01*
X144255957Y-97156222D01*
X144255955Y-97156221D01*
X144086426Y-97122500D01*
X143913574Y-97122500D01*
X143744044Y-97156221D01*
X143620525Y-97207383D01*
X143587178Y-97221197D01*
X143584346Y-97222370D01*
X143440626Y-97318400D01*
X143318400Y-97440626D01*
X143222370Y-97584346D01*
X143156221Y-97744044D01*
X143122500Y-97913573D01*
X143122500Y-98086426D01*
X143156221Y-98255955D01*
X143156222Y-98255957D01*
X143222369Y-98415652D01*
X143318401Y-98559374D01*
X143440626Y-98681599D01*
X143584348Y-98777631D01*
X143744043Y-98843778D01*
X143913574Y-98877500D01*
X144086426Y-98877500D01*
X144255957Y-98843778D01*
X144415652Y-98777631D01*
X144559374Y-98681599D01*
X144681599Y-98559374D01*
X144777631Y-98415652D01*
X144843778Y-98255957D01*
X144852718Y-98211011D01*
X144879294Y-98171238D01*
X144914017Y-98160705D01*
X145961782Y-98160705D01*
X145961783Y-98160705D01*
X146070511Y-98131572D01*
X146167993Y-98075290D01*
X147022085Y-97221198D01*
X147078367Y-97123716D01*
X147107500Y-97014988D01*
X147107500Y-96902425D01*
X147107500Y-96393719D01*
X147107500Y-95290000D01*
X147125806Y-95245806D01*
X147170000Y-95227500D01*
X150060000Y-95227500D01*
X150104194Y-95245806D01*
X150122500Y-95290000D01*
X150122500Y-101547036D01*
X150104194Y-101591230D01*
X149237509Y-102457915D01*
X149157919Y-102537504D01*
X149157914Y-102537509D01*
X149101633Y-102634988D01*
X149101632Y-102634991D01*
X149072501Y-102743712D01*
X149072500Y-102743720D01*
X149072500Y-117856279D01*
X149072501Y-117856287D01*
X149101632Y-117965008D01*
X149101633Y-117965011D01*
X149157914Y-118062490D01*
X149157919Y-118062496D01*
X150257915Y-119162491D01*
X150737502Y-119642080D01*
X150737506Y-119642083D01*
X150737508Y-119642085D01*
X150828681Y-119694724D01*
X150834991Y-119698367D01*
X150834994Y-119698368D01*
X150864912Y-119706384D01*
X150943718Y-119727499D01*
X150943719Y-119727499D01*
X151056280Y-119727499D01*
X151056281Y-119727499D01*
X151165009Y-119698367D01*
X151262491Y-119642085D01*
X151342085Y-119562491D01*
X151398367Y-119465009D01*
X151427499Y-119356281D01*
X151427499Y-119243718D01*
X151398367Y-119134991D01*
X151342085Y-119037508D01*
X151342083Y-119037506D01*
X151342080Y-119037502D01*
X150862491Y-118557915D01*
X149945806Y-117641230D01*
X149927500Y-117597036D01*
X149927500Y-117349770D01*
X162318500Y-117349770D01*
X162318500Y-117450229D01*
X162344498Y-117547251D01*
X162344498Y-117547253D01*
X162369611Y-117590750D01*
X162394724Y-117634247D01*
X162465753Y-117705276D01*
X162552746Y-117755501D01*
X162590999Y-117765751D01*
X162649770Y-117781499D01*
X162649773Y-117781499D01*
X162649775Y-117781500D01*
X162649776Y-117781500D01*
X162750224Y-117781500D01*
X162750225Y-117781500D01*
X162847254Y-117755501D01*
X162934247Y-117705276D01*
X162993717Y-117645806D01*
X163037911Y-117627500D01*
X166279879Y-117627500D01*
X166324073Y-117645806D01*
X167554194Y-118875927D01*
X167572500Y-118920121D01*
X167572500Y-122679878D01*
X167554194Y-122724072D01*
X166421132Y-123857135D01*
X166357136Y-123921130D01*
X166357132Y-123921135D01*
X166322500Y-124004744D01*
X166322500Y-124212089D01*
X166304194Y-124256283D01*
X166244725Y-124315751D01*
X166194498Y-124402746D01*
X166194498Y-124402748D01*
X166168500Y-124499770D01*
X166168500Y-124600229D01*
X166194498Y-124697251D01*
X166194498Y-124697253D01*
X166211961Y-124727499D01*
X166244724Y-124784247D01*
X166315753Y-124855276D01*
X166402746Y-124905501D01*
X166427333Y-124912089D01*
X166499770Y-124931499D01*
X166499773Y-124931499D01*
X166499775Y-124931500D01*
X166499776Y-124931500D01*
X166600224Y-124931500D01*
X166600225Y-124931500D01*
X166697254Y-124905501D01*
X166784247Y-124855276D01*
X166855276Y-124784247D01*
X166905501Y-124697254D01*
X166931500Y-124600225D01*
X166931500Y-124499775D01*
X166905501Y-124402746D01*
X166855276Y-124315753D01*
X166795806Y-124256283D01*
X166777500Y-124212089D01*
X166777500Y-124170121D01*
X166795806Y-124125927D01*
X167364559Y-123557174D01*
X167992866Y-122928868D01*
X168027500Y-122845253D01*
X168027500Y-122754747D01*
X168027500Y-121699770D01*
X169368500Y-121699770D01*
X169368500Y-121800229D01*
X169394498Y-121897251D01*
X169394498Y-121897253D01*
X169444725Y-121984248D01*
X169504194Y-122043717D01*
X169522500Y-122087911D01*
X169522500Y-126162089D01*
X169504194Y-126206283D01*
X169444725Y-126265751D01*
X169394498Y-126352746D01*
X169394498Y-126352748D01*
X169368500Y-126449770D01*
X169368500Y-126550229D01*
X169394498Y-126647251D01*
X169394498Y-126647253D01*
X169394499Y-126647254D01*
X169444724Y-126734247D01*
X169515753Y-126805276D01*
X169602746Y-126855501D01*
X169635181Y-126864192D01*
X169699770Y-126881499D01*
X169699773Y-126881499D01*
X169699775Y-126881500D01*
X169699776Y-126881500D01*
X169800224Y-126881500D01*
X169800225Y-126881500D01*
X169897254Y-126855501D01*
X169984247Y-126805276D01*
X170055276Y-126734247D01*
X170105501Y-126647254D01*
X170131500Y-126550225D01*
X170131500Y-126449775D01*
X170131269Y-126448914D01*
X170114419Y-126386028D01*
X170105501Y-126352746D01*
X170055276Y-126265753D01*
X169995806Y-126206283D01*
X169977500Y-126162089D01*
X169977500Y-122087911D01*
X169995806Y-122043717D01*
X170025443Y-122014080D01*
X170055276Y-121984247D01*
X170105501Y-121897254D01*
X170131500Y-121800225D01*
X170131500Y-121699775D01*
X170130086Y-121694499D01*
X170114945Y-121637991D01*
X170105501Y-121602746D01*
X170055276Y-121515753D01*
X169984247Y-121444724D01*
X169897254Y-121394499D01*
X169897253Y-121394498D01*
X169897252Y-121394498D01*
X169800229Y-121368500D01*
X169800225Y-121368500D01*
X169699775Y-121368500D01*
X169699770Y-121368500D01*
X169602748Y-121394498D01*
X169602746Y-121394498D01*
X169515751Y-121444725D01*
X169444725Y-121515751D01*
X169394498Y-121602746D01*
X169394498Y-121602748D01*
X169368500Y-121699770D01*
X168027500Y-121699770D01*
X168027500Y-118754747D01*
X168019317Y-118734991D01*
X167992866Y-118671132D01*
X166528868Y-117207135D01*
X166528867Y-117207134D01*
X166528864Y-117207132D01*
X166445255Y-117172500D01*
X166445253Y-117172500D01*
X163037911Y-117172500D01*
X162993717Y-117154194D01*
X162934248Y-117094725D01*
X162934247Y-117094724D01*
X162847254Y-117044499D01*
X162847253Y-117044498D01*
X162847252Y-117044498D01*
X162750229Y-117018500D01*
X162750225Y-117018500D01*
X162649775Y-117018500D01*
X162649770Y-117018500D01*
X162552748Y-117044498D01*
X162552746Y-117044498D01*
X162465751Y-117094725D01*
X162394725Y-117165751D01*
X162344498Y-117252746D01*
X162344498Y-117252748D01*
X162318500Y-117349770D01*
X149927500Y-117349770D01*
X149927500Y-115749770D01*
X169118500Y-115749770D01*
X169118500Y-115850229D01*
X169144498Y-115947251D01*
X169144498Y-115947253D01*
X169144499Y-115947254D01*
X169194724Y-116034247D01*
X169265753Y-116105276D01*
X169352746Y-116155501D01*
X169395526Y-116166964D01*
X169449770Y-116181499D01*
X169449773Y-116181499D01*
X169449775Y-116181500D01*
X169449776Y-116181500D01*
X169533879Y-116181500D01*
X169578073Y-116199806D01*
X169654194Y-116275927D01*
X169672500Y-116320121D01*
X169672500Y-119445255D01*
X169707132Y-119528864D01*
X169707136Y-119528869D01*
X170634194Y-120455927D01*
X170652500Y-120500121D01*
X170652500Y-124912089D01*
X170634194Y-124956283D01*
X170574725Y-125015751D01*
X170524498Y-125102746D01*
X170524498Y-125102748D01*
X170498500Y-125199770D01*
X170498500Y-125300229D01*
X170524498Y-125397251D01*
X170524498Y-125397253D01*
X170524499Y-125397254D01*
X170574724Y-125484247D01*
X170645753Y-125555276D01*
X170732746Y-125605501D01*
X170768510Y-125615084D01*
X170829770Y-125631499D01*
X170829773Y-125631499D01*
X170829775Y-125631500D01*
X170829776Y-125631500D01*
X170930224Y-125631500D01*
X170930225Y-125631500D01*
X171027254Y-125605501D01*
X171114247Y-125555276D01*
X171185276Y-125484247D01*
X171235501Y-125397254D01*
X171261500Y-125300225D01*
X171261500Y-125199775D01*
X171261426Y-125199500D01*
X171248658Y-125151850D01*
X171235501Y-125102746D01*
X171185276Y-125015753D01*
X171125806Y-124956283D01*
X171107500Y-124912089D01*
X171107500Y-124638196D01*
X172245851Y-124638196D01*
X172245851Y-124761803D01*
X172266561Y-124865920D01*
X172269966Y-124883035D01*
X172297704Y-124950000D01*
X172317267Y-124997231D01*
X172317268Y-124997234D01*
X172385939Y-125100007D01*
X172473343Y-125187411D01*
X172576116Y-125256082D01*
X172576117Y-125256082D01*
X172576118Y-125256083D01*
X172690316Y-125303385D01*
X172811548Y-125327500D01*
X173685154Y-125327500D01*
X173806386Y-125303385D01*
X173920584Y-125256083D01*
X174023359Y-125187411D01*
X174110762Y-125100008D01*
X174179434Y-124997233D01*
X174226736Y-124883035D01*
X174250851Y-124761803D01*
X174250851Y-124638197D01*
X174226736Y-124516965D01*
X174179434Y-124402767D01*
X174179421Y-124402748D01*
X174110762Y-124299992D01*
X174023358Y-124212588D01*
X173920585Y-124143917D01*
X173920582Y-124143916D01*
X173877152Y-124125927D01*
X173806386Y-124096615D01*
X173806382Y-124096614D01*
X173685154Y-124072500D01*
X172811548Y-124072500D01*
X172690319Y-124096614D01*
X172690317Y-124096614D01*
X172690316Y-124096615D01*
X172667767Y-124105955D01*
X172576119Y-124143916D01*
X172576116Y-124143917D01*
X172473343Y-124212588D01*
X172385939Y-124299992D01*
X172317268Y-124402765D01*
X172317267Y-124402768D01*
X172269965Y-124516968D01*
X172245851Y-124638196D01*
X171107500Y-124638196D01*
X171107500Y-122338196D01*
X173445851Y-122338196D01*
X173445851Y-122461803D01*
X173461892Y-122542448D01*
X173469966Y-122583035D01*
X173489540Y-122630291D01*
X173517267Y-122697231D01*
X173517268Y-122697234D01*
X173585939Y-122800007D01*
X173673343Y-122887411D01*
X173776116Y-122956082D01*
X173776117Y-122956082D01*
X173776118Y-122956083D01*
X173890316Y-123003385D01*
X174011548Y-123027500D01*
X174885154Y-123027500D01*
X175006386Y-123003385D01*
X175120584Y-122956083D01*
X175223359Y-122887411D01*
X175310762Y-122800008D01*
X175379434Y-122697233D01*
X175426736Y-122583035D01*
X175450851Y-122461803D01*
X175450851Y-122338197D01*
X175426736Y-122216965D01*
X175379434Y-122102767D01*
X175377735Y-122100225D01*
X175310762Y-121999992D01*
X175223358Y-121912588D01*
X175120585Y-121843917D01*
X175120582Y-121843916D01*
X175096929Y-121834119D01*
X175006386Y-121796615D01*
X175006382Y-121796614D01*
X174885154Y-121772500D01*
X174011548Y-121772500D01*
X173890319Y-121796614D01*
X173890317Y-121796614D01*
X173890316Y-121796615D01*
X173881601Y-121800225D01*
X173776119Y-121843916D01*
X173776116Y-121843917D01*
X173673343Y-121912588D01*
X173585939Y-121999992D01*
X173517268Y-122102765D01*
X173517267Y-122102768D01*
X173500675Y-122142826D01*
X173475592Y-122203384D01*
X173469965Y-122216968D01*
X173445851Y-122338196D01*
X171107500Y-122338196D01*
X171107500Y-121538195D01*
X171245850Y-121538195D01*
X171245850Y-121661802D01*
X171267869Y-121772500D01*
X171269965Y-121783034D01*
X171302968Y-121862711D01*
X171317266Y-121897230D01*
X171317267Y-121897233D01*
X171385938Y-122000006D01*
X171473342Y-122087410D01*
X171576115Y-122156081D01*
X171576116Y-122156081D01*
X171576117Y-122156082D01*
X171690315Y-122203384D01*
X171811547Y-122227499D01*
X172685153Y-122227499D01*
X172806385Y-122203384D01*
X172920583Y-122156082D01*
X173023358Y-122087410D01*
X173110761Y-122000007D01*
X173179433Y-121897232D01*
X173226735Y-121783034D01*
X173250850Y-121661802D01*
X173250850Y-121538196D01*
X173226735Y-121416964D01*
X173179433Y-121302766D01*
X173110761Y-121199991D01*
X173023358Y-121112588D01*
X173012005Y-121105002D01*
X172920584Y-121043916D01*
X172920581Y-121043915D01*
X172896928Y-121034118D01*
X172806385Y-120996614D01*
X172806381Y-120996613D01*
X172685153Y-120972499D01*
X171811547Y-120972499D01*
X171690318Y-120996613D01*
X171690316Y-120996613D01*
X171690315Y-120996614D01*
X171656870Y-121010467D01*
X171576118Y-121043915D01*
X171576115Y-121043916D01*
X171473342Y-121112587D01*
X171385938Y-121199991D01*
X171317267Y-121302764D01*
X171317266Y-121302767D01*
X171269964Y-121416967D01*
X171245850Y-121538195D01*
X171107500Y-121538195D01*
X171107500Y-120334747D01*
X171107499Y-120334744D01*
X171072867Y-120251135D01*
X171072863Y-120251130D01*
X170528117Y-119706384D01*
X172297850Y-119706384D01*
X172297850Y-119893617D01*
X172334376Y-120077250D01*
X172406028Y-120250232D01*
X172406029Y-120250234D01*
X172510047Y-120405908D01*
X172510048Y-120405909D01*
X172642442Y-120538303D01*
X172798119Y-120642323D01*
X172971099Y-120713974D01*
X173154734Y-120750501D01*
X173341966Y-120750501D01*
X173525601Y-120713974D01*
X173698581Y-120642323D01*
X173854258Y-120538303D01*
X173986652Y-120405909D01*
X174090672Y-120250232D01*
X174162323Y-120077252D01*
X174198850Y-119893617D01*
X174198850Y-119706385D01*
X174162323Y-119522750D01*
X174090672Y-119349770D01*
X173986652Y-119194093D01*
X173854258Y-119061699D01*
X173818045Y-119037502D01*
X173698583Y-118957680D01*
X173698581Y-118957679D01*
X173525599Y-118886027D01*
X173341966Y-118849501D01*
X173154734Y-118849501D01*
X172971100Y-118886027D01*
X172798118Y-118957679D01*
X172798116Y-118957680D01*
X172642442Y-119061698D01*
X172510047Y-119194093D01*
X172406029Y-119349767D01*
X172406028Y-119349769D01*
X172334376Y-119522751D01*
X172297850Y-119706384D01*
X170528117Y-119706384D01*
X170145806Y-119324073D01*
X170127500Y-119279879D01*
X170127500Y-117138196D01*
X172245851Y-117138196D01*
X172245851Y-117261803D01*
X172262584Y-117345927D01*
X172269966Y-117383035D01*
X172299715Y-117454855D01*
X172317267Y-117497231D01*
X172317268Y-117497234D01*
X172385939Y-117600007D01*
X172473343Y-117687411D01*
X172576116Y-117756082D01*
X172576117Y-117756082D01*
X172576118Y-117756083D01*
X172690316Y-117803385D01*
X172811548Y-117827500D01*
X173685154Y-117827500D01*
X173806386Y-117803385D01*
X173920584Y-117756083D01*
X174023359Y-117687411D01*
X174110762Y-117600008D01*
X174179434Y-117497233D01*
X174226736Y-117383035D01*
X174250851Y-117261803D01*
X174250851Y-117138197D01*
X174226736Y-117016965D01*
X174179434Y-116902767D01*
X174136290Y-116838198D01*
X174110762Y-116799992D01*
X174023358Y-116712588D01*
X173920585Y-116643917D01*
X173920582Y-116643916D01*
X173896929Y-116634119D01*
X173806386Y-116596615D01*
X173806382Y-116596614D01*
X173685154Y-116572500D01*
X172811548Y-116572500D01*
X172690319Y-116596614D01*
X172690317Y-116596614D01*
X172690316Y-116596615D01*
X172656871Y-116610468D01*
X172576119Y-116643916D01*
X172576116Y-116643917D01*
X172473343Y-116712588D01*
X172385939Y-116799992D01*
X172317268Y-116902765D01*
X172317267Y-116902768D01*
X172269965Y-117016968D01*
X172245851Y-117138196D01*
X170127500Y-117138196D01*
X170127500Y-116154747D01*
X170127499Y-116154744D01*
X170092867Y-116071135D01*
X170092863Y-116071130D01*
X169899806Y-115878073D01*
X169881500Y-115833879D01*
X169881500Y-115749776D01*
X169881499Y-115749770D01*
X169871411Y-115712125D01*
X169855501Y-115652746D01*
X169805276Y-115565753D01*
X169734247Y-115494724D01*
X169647254Y-115444499D01*
X169647253Y-115444498D01*
X169647252Y-115444498D01*
X169550229Y-115418500D01*
X169550225Y-115418500D01*
X169449775Y-115418500D01*
X169449770Y-115418500D01*
X169352748Y-115444498D01*
X169352746Y-115444498D01*
X169265751Y-115494725D01*
X169194725Y-115565751D01*
X169144498Y-115652746D01*
X169144498Y-115652748D01*
X169118500Y-115749770D01*
X149927500Y-115749770D01*
X149927500Y-108653915D01*
X155189000Y-108653915D01*
X155189000Y-111730532D01*
X155189000Y-111806516D01*
X155218078Y-111876717D01*
X156279869Y-112938508D01*
X156350070Y-112967586D01*
X156350072Y-112967586D01*
X157944490Y-112967586D01*
X157944492Y-112967586D01*
X158014693Y-112938508D01*
X158454866Y-112498333D01*
X158499059Y-112480028D01*
X158533782Y-112490561D01*
X158583292Y-112523643D01*
X158583294Y-112523643D01*
X158583296Y-112523645D01*
X158770289Y-112601100D01*
X158968800Y-112640586D01*
X159171200Y-112640586D01*
X159369711Y-112601100D01*
X159556704Y-112523645D01*
X159724993Y-112411198D01*
X159868112Y-112268079D01*
X159980559Y-112099790D01*
X160058014Y-111912797D01*
X160097500Y-111714286D01*
X160097500Y-111511886D01*
X160097500Y-111511885D01*
X162442500Y-111511885D01*
X162442500Y-111714286D01*
X162481985Y-111912795D01*
X162481985Y-111912796D01*
X162559441Y-112099790D01*
X162559442Y-112099792D01*
X162645254Y-112228219D01*
X162671888Y-112268079D01*
X162815007Y-112411198D01*
X162983296Y-112523645D01*
X163170289Y-112601100D01*
X163368800Y-112640586D01*
X163571200Y-112640586D01*
X163769711Y-112601100D01*
X163956704Y-112523645D01*
X164124993Y-112411198D01*
X164268112Y-112268079D01*
X164380559Y-112099790D01*
X164458014Y-111912797D01*
X164497500Y-111714286D01*
X164497500Y-111511886D01*
X164497500Y-111511885D01*
X164642500Y-111511885D01*
X164642500Y-111714286D01*
X164681985Y-111912795D01*
X164681985Y-111912796D01*
X164759441Y-112099790D01*
X164759442Y-112099792D01*
X164845254Y-112228219D01*
X164871888Y-112268079D01*
X165015007Y-112411198D01*
X165183296Y-112523645D01*
X165370289Y-112601100D01*
X165568800Y-112640586D01*
X165771200Y-112640586D01*
X165969711Y-112601100D01*
X166156704Y-112523645D01*
X166324993Y-112411198D01*
X166468112Y-112268079D01*
X166580559Y-112099790D01*
X166658014Y-111912797D01*
X166697500Y-111714286D01*
X166697500Y-111511886D01*
X166697500Y-111511885D01*
X166842500Y-111511885D01*
X166842500Y-111714286D01*
X166881985Y-111912795D01*
X166881985Y-111912796D01*
X166959441Y-112099790D01*
X166959442Y-112099792D01*
X167045254Y-112228219D01*
X167071888Y-112268079D01*
X167215007Y-112411198D01*
X167383296Y-112523645D01*
X167570289Y-112601100D01*
X167768800Y-112640586D01*
X167971200Y-112640586D01*
X168169711Y-112601100D01*
X168356704Y-112523645D01*
X168524993Y-112411198D01*
X168668112Y-112268079D01*
X168780559Y-112099790D01*
X168858014Y-111912797D01*
X168897500Y-111714286D01*
X168897500Y-111511886D01*
X168858014Y-111313375D01*
X168780559Y-111126382D01*
X168668112Y-110958093D01*
X168524993Y-110814974D01*
X168510816Y-110805501D01*
X168356706Y-110702528D01*
X168356704Y-110702527D01*
X168169709Y-110625071D01*
X167971200Y-110585586D01*
X167768800Y-110585586D01*
X167570290Y-110625071D01*
X167570289Y-110625071D01*
X167383295Y-110702527D01*
X167383293Y-110702528D01*
X167215007Y-110814973D01*
X167071887Y-110958093D01*
X166959442Y-111126379D01*
X166959441Y-111126381D01*
X166881985Y-111313375D01*
X166881985Y-111313376D01*
X166842500Y-111511885D01*
X166697500Y-111511885D01*
X166658014Y-111313375D01*
X166580559Y-111126382D01*
X166468112Y-110958093D01*
X166324993Y-110814974D01*
X166310816Y-110805501D01*
X166156706Y-110702528D01*
X166156704Y-110702527D01*
X165969709Y-110625071D01*
X165771200Y-110585586D01*
X165568800Y-110585586D01*
X165370290Y-110625071D01*
X165370289Y-110625071D01*
X165183295Y-110702527D01*
X165183293Y-110702528D01*
X165015007Y-110814973D01*
X164871887Y-110958093D01*
X164759442Y-111126379D01*
X164759441Y-111126381D01*
X164681985Y-111313375D01*
X164681985Y-111313376D01*
X164642500Y-111511885D01*
X164497500Y-111511885D01*
X164458014Y-111313375D01*
X164380559Y-111126382D01*
X164268112Y-110958093D01*
X164124993Y-110814974D01*
X164110816Y-110805501D01*
X163956706Y-110702528D01*
X163956704Y-110702527D01*
X163769709Y-110625071D01*
X163571200Y-110585586D01*
X163368800Y-110585586D01*
X163170290Y-110625071D01*
X163170289Y-110625071D01*
X162983295Y-110702527D01*
X162983293Y-110702528D01*
X162815007Y-110814973D01*
X162671887Y-110958093D01*
X162559442Y-111126379D01*
X162559441Y-111126381D01*
X162481985Y-111313375D01*
X162481985Y-111313376D01*
X162442500Y-111511885D01*
X160097500Y-111511885D01*
X160058014Y-111313375D01*
X159980559Y-111126382D01*
X159868112Y-110958093D01*
X159724993Y-110814974D01*
X159710816Y-110805501D01*
X159556706Y-110702528D01*
X159556704Y-110702527D01*
X159369709Y-110625071D01*
X159171200Y-110585586D01*
X158968800Y-110585586D01*
X158770290Y-110625071D01*
X158770289Y-110625071D01*
X158583295Y-110702527D01*
X158583293Y-110702528D01*
X158415007Y-110814973D01*
X158271887Y-110958093D01*
X158159442Y-111126379D01*
X158159441Y-111126381D01*
X158081985Y-111313375D01*
X158081985Y-111313376D01*
X158042500Y-111511885D01*
X158042500Y-111714286D01*
X158081985Y-111912795D01*
X158081985Y-111912796D01*
X158159441Y-112099790D01*
X158159442Y-112099793D01*
X158192523Y-112149302D01*
X158201855Y-112196219D01*
X158184750Y-112228219D01*
X157845691Y-112567280D01*
X157801497Y-112585586D01*
X157470038Y-112585586D01*
X157425844Y-112567280D01*
X157407538Y-112523086D01*
X157425844Y-112478892D01*
X157435315Y-112471119D01*
X157450599Y-112460906D01*
X157524993Y-112411198D01*
X157668112Y-112268079D01*
X157780559Y-112099790D01*
X157858014Y-111912797D01*
X157897500Y-111714286D01*
X157897500Y-111511886D01*
X157858014Y-111313375D01*
X157780559Y-111126382D01*
X157668112Y-110958093D01*
X157524993Y-110814974D01*
X157510816Y-110805501D01*
X157356706Y-110702528D01*
X157356704Y-110702527D01*
X157169709Y-110625071D01*
X156971200Y-110585586D01*
X156768800Y-110585586D01*
X156570292Y-110625071D01*
X156570290Y-110625071D01*
X156570289Y-110625072D01*
X156515522Y-110647757D01*
X156383297Y-110702526D01*
X156383296Y-110702526D01*
X156333781Y-110735610D01*
X156286864Y-110744941D01*
X156254865Y-110727836D01*
X155915806Y-110388777D01*
X155897500Y-110344583D01*
X155897500Y-110013123D01*
X155915806Y-109968929D01*
X155960000Y-109950623D01*
X156004194Y-109968929D01*
X156011964Y-109978396D01*
X156071888Y-110068079D01*
X156215007Y-110211198D01*
X156383296Y-110323645D01*
X156570289Y-110401100D01*
X156768800Y-110440586D01*
X156971200Y-110440586D01*
X157169711Y-110401100D01*
X157356704Y-110323645D01*
X157524993Y-110211198D01*
X157668112Y-110068079D01*
X157780559Y-109899790D01*
X157858014Y-109712797D01*
X157897500Y-109514286D01*
X157897500Y-109311886D01*
X157858014Y-109113375D01*
X157780559Y-108926382D01*
X157780557Y-108926379D01*
X157780557Y-108926378D01*
X157747475Y-108876868D01*
X157738143Y-108829952D01*
X157755246Y-108797953D01*
X158533919Y-108019282D01*
X158562997Y-107949081D01*
X158562997Y-107873097D01*
X158562997Y-104827508D01*
X158581303Y-104783314D01*
X158594246Y-104773381D01*
X158603780Y-104767878D01*
X158674809Y-104696849D01*
X158725034Y-104609856D01*
X158744655Y-104536626D01*
X158751111Y-104528214D01*
X158753233Y-104517820D01*
X158765110Y-104509969D01*
X158773775Y-104498678D01*
X158784289Y-104497293D01*
X158793140Y-104491444D01*
X158805887Y-104494450D01*
X158821201Y-104492434D01*
X158840009Y-104501012D01*
X158844569Y-104504092D01*
X158845753Y-104505276D01*
X158849666Y-104507535D01*
X158851484Y-104508763D01*
X158863548Y-104527017D01*
X158876869Y-104544372D01*
X158877329Y-104547866D01*
X158877860Y-104548670D01*
X158877601Y-104549935D01*
X158879000Y-104560555D01*
X158879000Y-108352155D01*
X158860694Y-108396349D01*
X158828694Y-108413454D01*
X158770289Y-108425071D01*
X158583295Y-108502527D01*
X158583293Y-108502528D01*
X158415007Y-108614973D01*
X158271887Y-108758093D01*
X158159442Y-108926379D01*
X158159441Y-108926381D01*
X158081985Y-109113375D01*
X158081985Y-109113376D01*
X158042500Y-109311885D01*
X158042500Y-109514286D01*
X158081985Y-109712795D01*
X158081985Y-109712796D01*
X158159441Y-109899790D01*
X158159442Y-109899792D01*
X158262970Y-110054733D01*
X158271888Y-110068079D01*
X158415007Y-110211198D01*
X158583296Y-110323645D01*
X158770289Y-110401100D01*
X158968800Y-110440586D01*
X159171200Y-110440586D01*
X159369711Y-110401100D01*
X159556704Y-110323645D01*
X159724993Y-110211198D01*
X159868112Y-110068079D01*
X159980559Y-109899790D01*
X160058014Y-109712797D01*
X160097500Y-109514286D01*
X160097500Y-109311886D01*
X160097500Y-109311885D01*
X160242500Y-109311885D01*
X160242500Y-109514286D01*
X160281985Y-109712795D01*
X160281985Y-109712796D01*
X160359441Y-109899790D01*
X160359442Y-109899792D01*
X160462970Y-110054733D01*
X160471888Y-110068079D01*
X160615007Y-110211198D01*
X160783296Y-110323645D01*
X160970289Y-110401100D01*
X161168800Y-110440586D01*
X161371200Y-110440586D01*
X161569711Y-110401100D01*
X161756704Y-110323645D01*
X161924993Y-110211198D01*
X162068112Y-110068079D01*
X162180559Y-109899790D01*
X162258014Y-109712797D01*
X162297500Y-109514286D01*
X162297500Y-109311886D01*
X162297500Y-109311885D01*
X162442500Y-109311885D01*
X162442500Y-109514286D01*
X162481985Y-109712795D01*
X162481985Y-109712796D01*
X162559441Y-109899790D01*
X162559442Y-109899792D01*
X162662970Y-110054733D01*
X162671888Y-110068079D01*
X162815007Y-110211198D01*
X162983296Y-110323645D01*
X163170289Y-110401100D01*
X163368800Y-110440586D01*
X163571200Y-110440586D01*
X163769711Y-110401100D01*
X163956704Y-110323645D01*
X164124993Y-110211198D01*
X164268112Y-110068079D01*
X164380559Y-109899790D01*
X164458014Y-109712797D01*
X164497500Y-109514286D01*
X164497500Y-109311886D01*
X164458014Y-109113375D01*
X164380559Y-108926382D01*
X164380557Y-108926379D01*
X164380556Y-108926376D01*
X164368151Y-108907812D01*
X164358818Y-108860896D01*
X164375921Y-108828896D01*
X164799013Y-108405806D01*
X164843207Y-108387500D01*
X165149411Y-108387500D01*
X165193605Y-108405806D01*
X165211911Y-108450000D01*
X165193605Y-108494194D01*
X165184134Y-108501967D01*
X165015007Y-108614973D01*
X164871887Y-108758093D01*
X164759442Y-108926379D01*
X164759441Y-108926381D01*
X164681985Y-109113375D01*
X164681985Y-109113376D01*
X164642500Y-109311885D01*
X164642500Y-109514286D01*
X164681985Y-109712795D01*
X164681985Y-109712796D01*
X164759441Y-109899790D01*
X164759442Y-109899792D01*
X164862970Y-110054733D01*
X164871888Y-110068079D01*
X165015007Y-110211198D01*
X165183296Y-110323645D01*
X165370289Y-110401100D01*
X165568800Y-110440586D01*
X165771200Y-110440586D01*
X165969711Y-110401100D01*
X166156704Y-110323645D01*
X166324993Y-110211198D01*
X166468112Y-110068079D01*
X166580559Y-109899790D01*
X166658014Y-109712797D01*
X166697500Y-109514286D01*
X166697500Y-109311886D01*
X166658014Y-109113375D01*
X166580559Y-108926382D01*
X166468112Y-108758093D01*
X166324993Y-108614974D01*
X166175272Y-108514934D01*
X166155866Y-108501967D01*
X166129290Y-108462193D01*
X166138622Y-108415277D01*
X166178396Y-108388701D01*
X166190589Y-108387500D01*
X167349411Y-108387500D01*
X167393605Y-108405806D01*
X167411911Y-108450000D01*
X167393605Y-108494194D01*
X167384134Y-108501967D01*
X167215007Y-108614973D01*
X167071887Y-108758093D01*
X166959442Y-108926379D01*
X166959441Y-108926381D01*
X166881985Y-109113375D01*
X166881985Y-109113376D01*
X166842500Y-109311885D01*
X166842500Y-109514286D01*
X166881985Y-109712795D01*
X166881985Y-109712796D01*
X166959441Y-109899790D01*
X166959442Y-109899792D01*
X167062970Y-110054733D01*
X167071888Y-110068079D01*
X167215007Y-110211198D01*
X167383296Y-110323645D01*
X167570289Y-110401100D01*
X167768800Y-110440586D01*
X167971200Y-110440586D01*
X168169711Y-110401100D01*
X168356704Y-110323645D01*
X168524993Y-110211198D01*
X168668112Y-110068079D01*
X168751412Y-109943410D01*
X168791186Y-109916835D01*
X168838102Y-109926167D01*
X168864678Y-109965941D01*
X168865879Y-109978134D01*
X168865879Y-110214325D01*
X168857506Y-110245574D01*
X168824500Y-110302742D01*
X168824498Y-110302748D01*
X168798500Y-110399770D01*
X168798500Y-110500229D01*
X168824498Y-110597251D01*
X168824498Y-110597253D01*
X168849611Y-110640750D01*
X168874724Y-110684247D01*
X168945753Y-110755276D01*
X169032746Y-110805501D01*
X169068096Y-110814973D01*
X169129770Y-110831499D01*
X169129773Y-110831499D01*
X169129775Y-110831500D01*
X169129776Y-110831500D01*
X169230224Y-110831500D01*
X169230225Y-110831500D01*
X169327254Y-110805501D01*
X169414247Y-110755276D01*
X169485276Y-110684247D01*
X169535501Y-110597254D01*
X169561500Y-110500225D01*
X169561500Y-110399775D01*
X169535501Y-110302746D01*
X169485276Y-110215753D01*
X169414247Y-110144724D01*
X169414245Y-110144722D01*
X169352129Y-110108859D01*
X169323009Y-110070909D01*
X169320879Y-110054733D01*
X169320879Y-108708790D01*
X169320878Y-108708788D01*
X169298149Y-108653916D01*
X169298149Y-108653915D01*
X169286245Y-108625175D01*
X168710892Y-108049823D01*
X169648553Y-108049823D01*
X169648553Y-108150282D01*
X169674551Y-108247304D01*
X169674551Y-108247306D01*
X169677022Y-108251585D01*
X169724777Y-108334300D01*
X169795806Y-108405329D01*
X169882799Y-108455554D01*
X169907576Y-108462193D01*
X169979823Y-108481552D01*
X169979826Y-108481552D01*
X169979828Y-108481553D01*
X169990000Y-108481553D01*
X170034194Y-108499859D01*
X170052500Y-108544053D01*
X170052500Y-110212089D01*
X170034194Y-110256283D01*
X169974725Y-110315751D01*
X169924498Y-110402746D01*
X169924498Y-110402748D01*
X169898500Y-110499770D01*
X169898500Y-110600229D01*
X169924498Y-110697251D01*
X169924498Y-110697253D01*
X169927543Y-110702527D01*
X169974724Y-110784247D01*
X170045753Y-110855276D01*
X170132746Y-110905501D01*
X170175526Y-110916964D01*
X170229770Y-110931499D01*
X170229773Y-110931499D01*
X170229775Y-110931500D01*
X170229776Y-110931500D01*
X170330224Y-110931500D01*
X170330225Y-110931500D01*
X170427254Y-110905501D01*
X170514247Y-110855276D01*
X170585276Y-110784247D01*
X170635501Y-110697254D01*
X170661500Y-110600225D01*
X170661500Y-110499775D01*
X170635501Y-110402746D01*
X170585276Y-110315753D01*
X170525806Y-110256283D01*
X170507500Y-110212089D01*
X170507500Y-108304747D01*
X170507499Y-108304744D01*
X170472867Y-108221135D01*
X170472863Y-108221130D01*
X170429859Y-108178126D01*
X170411553Y-108133932D01*
X170411553Y-108049829D01*
X170411552Y-108049823D01*
X170401464Y-108012178D01*
X170385554Y-107952799D01*
X170335329Y-107865806D01*
X170264300Y-107794777D01*
X170177307Y-107744552D01*
X170177306Y-107744551D01*
X170177305Y-107744551D01*
X170080282Y-107718553D01*
X170080278Y-107718553D01*
X169979828Y-107718553D01*
X169979823Y-107718553D01*
X169882801Y-107744551D01*
X169882799Y-107744551D01*
X169795804Y-107794778D01*
X169724778Y-107865804D01*
X169674551Y-107952799D01*
X169674551Y-107952801D01*
X169648553Y-108049823D01*
X168710892Y-108049823D01*
X168628204Y-107967135D01*
X168628203Y-107967134D01*
X168628200Y-107967132D01*
X168544591Y-107932500D01*
X168544589Y-107932500D01*
X164677833Y-107932500D01*
X164677830Y-107932500D01*
X164594221Y-107967132D01*
X164594216Y-107967136D01*
X164054190Y-108507161D01*
X164009996Y-108525467D01*
X163975273Y-108514934D01*
X163956707Y-108502528D01*
X163956704Y-108502527D01*
X163769709Y-108425071D01*
X163571200Y-108385586D01*
X163368800Y-108385586D01*
X163170290Y-108425071D01*
X163170289Y-108425071D01*
X162983295Y-108502527D01*
X162983293Y-108502528D01*
X162815007Y-108614973D01*
X162671887Y-108758093D01*
X162559442Y-108926379D01*
X162559441Y-108926381D01*
X162481985Y-109113375D01*
X162481985Y-109113376D01*
X162442500Y-109311885D01*
X162297500Y-109311885D01*
X162258014Y-109113375D01*
X162180559Y-108926382D01*
X162068112Y-108758093D01*
X161924993Y-108614974D01*
X161878211Y-108583715D01*
X161756706Y-108502528D01*
X161756704Y-108502527D01*
X161569709Y-108425071D01*
X161371200Y-108385586D01*
X161168800Y-108385586D01*
X160970290Y-108425071D01*
X160970289Y-108425071D01*
X160783295Y-108502527D01*
X160783293Y-108502528D01*
X160615007Y-108614973D01*
X160471887Y-108758093D01*
X160359442Y-108926379D01*
X160359441Y-108926381D01*
X160281985Y-109113375D01*
X160281985Y-109113376D01*
X160242500Y-109311885D01*
X160097500Y-109311885D01*
X160058014Y-109113375D01*
X159980559Y-108926382D01*
X159868112Y-108758093D01*
X159724993Y-108614974D01*
X159678211Y-108583715D01*
X159556706Y-108502528D01*
X159556704Y-108502527D01*
X159369710Y-108425071D01*
X159311306Y-108413454D01*
X159271533Y-108386878D01*
X159261000Y-108352155D01*
X159261000Y-106299770D01*
X160318500Y-106299770D01*
X160318500Y-106400229D01*
X160344498Y-106497251D01*
X160344498Y-106497253D01*
X160344499Y-106497254D01*
X160394724Y-106584247D01*
X160465753Y-106655276D01*
X160552746Y-106705501D01*
X160595526Y-106716964D01*
X160649770Y-106731499D01*
X160649773Y-106731499D01*
X160649775Y-106731500D01*
X160649776Y-106731500D01*
X163800224Y-106731500D01*
X163800225Y-106731500D01*
X163897254Y-106705501D01*
X163984247Y-106655276D01*
X164055276Y-106584247D01*
X164055276Y-106584246D01*
X167979100Y-102660420D01*
X167979105Y-102660417D01*
X167984245Y-102655276D01*
X167984247Y-102655276D01*
X168055276Y-102584247D01*
X168105501Y-102497254D01*
X168131500Y-102400225D01*
X168131500Y-97913573D01*
X174922500Y-97913573D01*
X174922500Y-98086426D01*
X174956221Y-98255955D01*
X174956222Y-98255957D01*
X175022369Y-98415652D01*
X175118401Y-98559374D01*
X175240626Y-98681599D01*
X175384348Y-98777631D01*
X175544043Y-98843778D01*
X175713574Y-98877500D01*
X175886426Y-98877500D01*
X176055957Y-98843778D01*
X176215652Y-98777631D01*
X176359374Y-98681599D01*
X176481599Y-98559374D01*
X176577631Y-98415652D01*
X176643778Y-98255957D01*
X176677500Y-98086426D01*
X176677500Y-97913574D01*
X176643778Y-97744043D01*
X176577631Y-97584348D01*
X176481599Y-97440626D01*
X176359374Y-97318401D01*
X176324609Y-97295172D01*
X176215653Y-97222370D01*
X176215654Y-97222370D01*
X176215652Y-97222369D01*
X176055957Y-97156222D01*
X176055955Y-97156221D01*
X175886426Y-97122500D01*
X175713574Y-97122500D01*
X175544044Y-97156221D01*
X175420525Y-97207383D01*
X175387178Y-97221197D01*
X175384346Y-97222370D01*
X175240626Y-97318400D01*
X175118400Y-97440626D01*
X175022370Y-97584346D01*
X174956221Y-97744044D01*
X174922500Y-97913573D01*
X168131500Y-97913573D01*
X168131500Y-96783911D01*
X168149806Y-96739717D01*
X168689717Y-96199806D01*
X168733911Y-96181500D01*
X170566089Y-96181500D01*
X170610283Y-96199806D01*
X171015747Y-96605271D01*
X171015751Y-96605274D01*
X171015753Y-96605276D01*
X171102747Y-96655502D01*
X171145526Y-96666964D01*
X171199770Y-96681500D01*
X171199772Y-96681500D01*
X171199775Y-96681501D01*
X171199777Y-96681501D01*
X171304050Y-96681501D01*
X171304066Y-96681500D01*
X171966653Y-96681500D01*
X172010847Y-96699806D01*
X172021772Y-96714537D01*
X172022364Y-96715645D01*
X172087074Y-96812491D01*
X172118401Y-96859374D01*
X172240626Y-96981599D01*
X172384348Y-97077631D01*
X172544043Y-97143778D01*
X172713574Y-97177500D01*
X172886426Y-97177500D01*
X173055957Y-97143778D01*
X173215652Y-97077631D01*
X173359374Y-96981599D01*
X173481599Y-96859374D01*
X173577631Y-96715652D01*
X173643778Y-96555957D01*
X173677500Y-96386426D01*
X173677500Y-96213574D01*
X173643778Y-96044043D01*
X173577631Y-95884348D01*
X173481599Y-95740626D01*
X173359374Y-95618401D01*
X173215652Y-95522369D01*
X173055957Y-95456222D01*
X173055955Y-95456221D01*
X172886426Y-95422500D01*
X172713574Y-95422500D01*
X172544044Y-95456221D01*
X172384346Y-95522370D01*
X172240626Y-95618400D01*
X172118400Y-95740626D01*
X172022364Y-95884354D01*
X172021772Y-95885463D01*
X172021443Y-95885732D01*
X172020663Y-95886901D01*
X172020308Y-95886664D01*
X171984795Y-95915809D01*
X171966653Y-95918500D01*
X171433911Y-95918500D01*
X171389717Y-95900194D01*
X170984248Y-95494725D01*
X170984247Y-95494724D01*
X170897254Y-95444499D01*
X170897253Y-95444498D01*
X170897252Y-95444498D01*
X170800229Y-95418500D01*
X170800225Y-95418500D01*
X168600225Y-95418500D01*
X168499775Y-95418500D01*
X168499774Y-95418500D01*
X168499768Y-95418501D01*
X168402750Y-95444496D01*
X168402747Y-95444497D01*
X168315751Y-95494725D01*
X168315747Y-95494728D01*
X167515753Y-96294724D01*
X167444725Y-96365751D01*
X167394498Y-96452746D01*
X167394498Y-96452748D01*
X167368500Y-96549770D01*
X167368500Y-102166089D01*
X167350194Y-102210283D01*
X163610283Y-105950194D01*
X163566089Y-105968500D01*
X160649770Y-105968500D01*
X160552748Y-105994498D01*
X160552746Y-105994498D01*
X160465751Y-106044725D01*
X160394725Y-106115751D01*
X160344498Y-106202746D01*
X160344498Y-106202748D01*
X160318500Y-106299770D01*
X159261000Y-106299770D01*
X159261000Y-104572102D01*
X159279306Y-104527908D01*
X159292251Y-104517975D01*
X159295123Y-104516316D01*
X159314247Y-104505276D01*
X159385276Y-104434247D01*
X159435501Y-104347254D01*
X159461500Y-104250225D01*
X159461500Y-104149775D01*
X159435501Y-104052746D01*
X159385276Y-103965753D01*
X159314247Y-103894724D01*
X159227254Y-103844499D01*
X159227253Y-103844498D01*
X159227252Y-103844498D01*
X159130229Y-103818500D01*
X159130225Y-103818500D01*
X159029775Y-103818500D01*
X159029770Y-103818500D01*
X158932748Y-103844498D01*
X158932746Y-103844498D01*
X158845751Y-103894725D01*
X158774725Y-103965751D01*
X158724498Y-104052746D01*
X158724498Y-104052748D01*
X158704876Y-104125974D01*
X158675755Y-104163924D01*
X158628329Y-104170167D01*
X158606457Y-104159380D01*
X158603784Y-104157329D01*
X158603781Y-104157327D01*
X158603780Y-104157326D01*
X158516787Y-104107101D01*
X158516786Y-104107100D01*
X158516785Y-104107100D01*
X158419762Y-104081102D01*
X158419758Y-104081102D01*
X158319308Y-104081102D01*
X158319303Y-104081102D01*
X158222281Y-104107100D01*
X158222279Y-104107100D01*
X158135284Y-104157327D01*
X158064258Y-104228353D01*
X158014031Y-104315348D01*
X158014031Y-104315350D01*
X157988033Y-104412372D01*
X157988033Y-104447796D01*
X157969727Y-104491990D01*
X157925533Y-104510296D01*
X157894283Y-104501923D01*
X157888662Y-104498678D01*
X157807306Y-104451707D01*
X157807305Y-104451706D01*
X157807304Y-104451706D01*
X157710281Y-104425708D01*
X157710277Y-104425708D01*
X157609827Y-104425708D01*
X157609826Y-104425708D01*
X157609820Y-104425709D01*
X157596442Y-104429293D01*
X157549016Y-104423047D01*
X157536075Y-104413116D01*
X157461038Y-104338079D01*
X157461037Y-104338078D01*
X157390836Y-104309000D01*
X156886136Y-104309000D01*
X156810152Y-104309000D01*
X156739952Y-104338077D01*
X156739949Y-104338079D01*
X156300579Y-104777449D01*
X156300577Y-104777452D01*
X156271500Y-104847652D01*
X156271500Y-105400491D01*
X156300577Y-105470691D01*
X156300579Y-105470694D01*
X156970694Y-106140809D01*
X156989000Y-106185003D01*
X156989000Y-106786904D01*
X156970694Y-106831098D01*
X155218079Y-108583712D01*
X155218077Y-108583715D01*
X155200905Y-108625173D01*
X155189000Y-108653915D01*
X149927500Y-108653915D01*
X149927500Y-103002964D01*
X149945806Y-102958770D01*
X150892080Y-102012496D01*
X150892085Y-102012491D01*
X150948367Y-101915009D01*
X150977500Y-101806281D01*
X150977500Y-101693718D01*
X150977500Y-101018719D01*
X150977500Y-97913573D01*
X158022500Y-97913573D01*
X158022500Y-98086426D01*
X158056221Y-98255955D01*
X158056222Y-98255957D01*
X158122369Y-98415652D01*
X158218401Y-98559374D01*
X158340626Y-98681599D01*
X158484348Y-98777631D01*
X158644043Y-98843778D01*
X158813574Y-98877500D01*
X158986426Y-98877500D01*
X159155957Y-98843778D01*
X159315652Y-98777631D01*
X159459374Y-98681599D01*
X159581599Y-98559374D01*
X159677631Y-98415652D01*
X159743778Y-98255957D01*
X159777500Y-98086426D01*
X159777500Y-97913574D01*
X159743778Y-97744043D01*
X159677631Y-97584348D01*
X159581599Y-97440626D01*
X159459374Y-97318401D01*
X159424609Y-97295172D01*
X159315653Y-97222370D01*
X159315654Y-97222370D01*
X159315652Y-97222369D01*
X159155957Y-97156222D01*
X159155955Y-97156221D01*
X158986426Y-97122500D01*
X158813574Y-97122500D01*
X158644044Y-97156221D01*
X158520525Y-97207383D01*
X158487178Y-97221197D01*
X158484346Y-97222370D01*
X158340626Y-97318400D01*
X158218400Y-97440626D01*
X158122370Y-97584346D01*
X158056221Y-97744044D01*
X158022500Y-97913573D01*
X150977500Y-97913573D01*
X150977500Y-96213573D01*
X155022500Y-96213573D01*
X155022500Y-96386426D01*
X155056221Y-96555955D01*
X155056222Y-96555957D01*
X155122369Y-96715652D01*
X155218401Y-96859374D01*
X155340626Y-96981599D01*
X155484348Y-97077631D01*
X155644043Y-97143778D01*
X155813574Y-97177500D01*
X155986426Y-97177500D01*
X156155957Y-97143778D01*
X156315652Y-97077631D01*
X156459374Y-96981599D01*
X156581599Y-96859374D01*
X156677631Y-96715652D01*
X156743778Y-96555957D01*
X156777500Y-96386426D01*
X156777500Y-96213574D01*
X156743778Y-96044043D01*
X156677631Y-95884348D01*
X156581599Y-95740626D01*
X156459374Y-95618401D01*
X156315652Y-95522369D01*
X156155957Y-95456222D01*
X156155955Y-95456221D01*
X155986426Y-95422500D01*
X155813574Y-95422500D01*
X155644044Y-95456221D01*
X155484346Y-95522370D01*
X155340626Y-95618400D01*
X155218400Y-95740626D01*
X155122370Y-95884346D01*
X155122369Y-95884348D01*
X155112955Y-95907076D01*
X155056221Y-96044044D01*
X155022500Y-96213573D01*
X150977500Y-96213573D01*
X150977500Y-95290000D01*
X150995806Y-95245806D01*
X151040000Y-95227500D01*
X163160000Y-95227500D01*
X163204194Y-95245806D01*
X163222500Y-95290000D01*
X163222500Y-96597036D01*
X163204194Y-96641230D01*
X162491230Y-97354194D01*
X162447036Y-97372500D01*
X161539361Y-97372500D01*
X161495167Y-97354194D01*
X161459373Y-97318400D01*
X161315653Y-97222370D01*
X161315654Y-97222370D01*
X161315652Y-97222369D01*
X161155957Y-97156222D01*
X161155955Y-97156221D01*
X160986426Y-97122500D01*
X160813574Y-97122500D01*
X160644044Y-97156221D01*
X160520525Y-97207383D01*
X160487178Y-97221197D01*
X160484346Y-97222370D01*
X160340626Y-97318400D01*
X160218400Y-97440626D01*
X160122370Y-97584346D01*
X160056221Y-97744044D01*
X160022500Y-97913573D01*
X160022500Y-98086426D01*
X160056221Y-98255955D01*
X160056222Y-98255957D01*
X160122369Y-98415652D01*
X160218401Y-98559374D01*
X160340626Y-98681599D01*
X160484348Y-98777631D01*
X160644043Y-98843778D01*
X160813574Y-98877500D01*
X160986426Y-98877500D01*
X161155957Y-98843778D01*
X161315652Y-98777631D01*
X161459374Y-98681599D01*
X161581599Y-98559374D01*
X161677631Y-98415652D01*
X161739584Y-98266081D01*
X161773409Y-98232258D01*
X161797327Y-98227500D01*
X162706280Y-98227500D01*
X162706281Y-98227500D01*
X162815009Y-98198367D01*
X162912491Y-98142085D01*
X163992085Y-97062491D01*
X164048367Y-96965009D01*
X164077500Y-96856281D01*
X164077500Y-96743718D01*
X164077500Y-95290000D01*
X164095806Y-95245806D01*
X164140000Y-95227500D01*
X179147036Y-95227500D01*
X179191230Y-95245806D01*
X179834194Y-95888770D01*
X179852500Y-95932964D01*
X179852500Y-96347036D01*
X179834194Y-96391230D01*
X178671230Y-97554194D01*
X178627036Y-97572500D01*
X178603121Y-97572500D01*
X178558927Y-97554194D01*
X178551154Y-97544723D01*
X178481599Y-97440626D01*
X178359373Y-97318400D01*
X178215653Y-97222370D01*
X178215654Y-97222370D01*
X178215652Y-97222369D01*
X178055957Y-97156222D01*
X178055955Y-97156221D01*
X177886426Y-97122500D01*
X177713574Y-97122500D01*
X177544044Y-97156221D01*
X177420525Y-97207383D01*
X177387178Y-97221197D01*
X177384346Y-97222370D01*
X177240626Y-97318400D01*
X177118400Y-97440626D01*
X177022370Y-97584346D01*
X176956221Y-97744044D01*
X176922500Y-97913573D01*
X176922500Y-98086426D01*
X176956221Y-98255955D01*
X176956222Y-98255957D01*
X177022369Y-98415652D01*
X177118401Y-98559374D01*
X177240626Y-98681599D01*
X177384348Y-98777631D01*
X177544043Y-98843778D01*
X177713574Y-98877500D01*
X177886426Y-98877500D01*
X178055957Y-98843778D01*
X178215652Y-98777631D01*
X178359374Y-98681599D01*
X178481599Y-98559374D01*
X178551154Y-98455276D01*
X178590928Y-98428701D01*
X178603121Y-98427500D01*
X178886280Y-98427500D01*
X178886281Y-98427500D01*
X178995009Y-98398367D01*
X179092491Y-98342085D01*
X180622085Y-96812491D01*
X180678367Y-96715009D01*
X180707500Y-96606281D01*
X180707500Y-96493718D01*
X180707500Y-95673719D01*
X180678367Y-95564991D01*
X180678366Y-95564988D01*
X180622085Y-95467509D01*
X180542491Y-95387915D01*
X179612496Y-94457919D01*
X179612490Y-94457914D01*
X179515011Y-94401633D01*
X179515008Y-94401632D01*
X179406287Y-94372501D01*
X179406282Y-94372500D01*
X179406281Y-94372500D01*
X163706281Y-94372500D01*
X150606281Y-94372500D01*
X146736281Y-94372500D01*
X131486281Y-94372500D01*
X131373718Y-94372500D01*
X131373717Y-94372500D01*
X131373711Y-94372501D01*
X131264994Y-94401631D01*
X131264991Y-94401632D01*
X131167506Y-94457916D01*
X131167502Y-94457919D01*
X128071230Y-97554194D01*
X128027036Y-97572500D01*
X127853121Y-97572500D01*
X127808927Y-97554194D01*
X127801154Y-97544723D01*
X127731599Y-97440626D01*
X127609373Y-97318400D01*
X127465653Y-97222370D01*
X127465654Y-97222370D01*
X127465652Y-97222369D01*
X127305957Y-97156222D01*
X127305955Y-97156221D01*
X127136426Y-97122500D01*
X126963574Y-97122500D01*
X126794044Y-97156221D01*
X126670525Y-97207383D01*
X126637178Y-97221197D01*
X126634346Y-97222370D01*
X126490626Y-97318400D01*
X126368400Y-97440626D01*
X126272370Y-97584346D01*
X126206221Y-97744044D01*
X126172500Y-97913573D01*
X125927500Y-97913573D01*
X125893778Y-97744043D01*
X125827631Y-97584348D01*
X125731599Y-97440626D01*
X125609374Y-97318401D01*
X125574609Y-97295172D01*
X125465653Y-97222370D01*
X125465654Y-97222370D01*
X125465652Y-97222369D01*
X125305957Y-97156222D01*
X125305955Y-97156221D01*
X125136426Y-97122500D01*
X124963574Y-97122500D01*
X124794044Y-97156221D01*
X124670525Y-97207383D01*
X124637178Y-97221197D01*
X124634346Y-97222370D01*
X124490626Y-97318400D01*
X124368400Y-97440626D01*
X124272370Y-97584346D01*
X124206221Y-97744044D01*
X124172500Y-97913573D01*
X118250500Y-97913573D01*
X118250500Y-96213573D01*
X121172500Y-96213573D01*
X121172500Y-96386426D01*
X121206221Y-96555955D01*
X121206222Y-96555957D01*
X121272369Y-96715652D01*
X121368401Y-96859374D01*
X121490626Y-96981599D01*
X121634348Y-97077631D01*
X121794043Y-97143778D01*
X121963574Y-97177500D01*
X122136426Y-97177500D01*
X122305957Y-97143778D01*
X122465652Y-97077631D01*
X122609374Y-96981599D01*
X122731599Y-96859374D01*
X122827631Y-96715652D01*
X122893778Y-96555957D01*
X122927500Y-96386426D01*
X122927500Y-96213574D01*
X122893778Y-96044043D01*
X122827631Y-95884348D01*
X122731599Y-95740626D01*
X122609374Y-95618401D01*
X122465652Y-95522369D01*
X122305957Y-95456222D01*
X122305955Y-95456221D01*
X122136426Y-95422500D01*
X121963574Y-95422500D01*
X121794044Y-95456221D01*
X121634346Y-95522370D01*
X121490626Y-95618400D01*
X121368400Y-95740626D01*
X121272370Y-95884346D01*
X121272369Y-95884348D01*
X121262955Y-95907076D01*
X121206221Y-96044044D01*
X121172500Y-96213573D01*
X118250500Y-96213573D01*
X118250500Y-88403349D01*
X132483143Y-88403349D01*
X132483143Y-88600178D01*
X132483144Y-88600194D01*
X132513933Y-88794584D01*
X132513935Y-88794593D01*
X132574758Y-88981787D01*
X132574762Y-88981795D01*
X132664120Y-89157171D01*
X132779814Y-89316409D01*
X132779821Y-89316417D01*
X132918989Y-89455585D01*
X132918997Y-89455592D01*
X133077951Y-89571080D01*
X133078238Y-89571288D01*
X133253618Y-89660648D01*
X133440817Y-89721473D01*
X133593348Y-89745631D01*
X133635212Y-89752262D01*
X133635218Y-89752262D01*
X133635226Y-89752264D01*
X133635228Y-89752264D01*
X133832058Y-89752264D01*
X133832060Y-89752264D01*
X133833374Y-89752056D01*
X133843431Y-89750462D01*
X134026469Y-89721473D01*
X134213668Y-89660648D01*
X134389048Y-89571288D01*
X134548289Y-89455592D01*
X134687471Y-89316410D01*
X134803167Y-89157169D01*
X134892527Y-88981789D01*
X134953352Y-88794590D01*
X134984143Y-88600181D01*
X134984143Y-88403347D01*
X134984143Y-88403341D01*
X134984112Y-88403143D01*
X166128272Y-88403143D01*
X166128272Y-88599972D01*
X166128273Y-88599988D01*
X166159062Y-88794378D01*
X166159064Y-88794387D01*
X166219887Y-88981581D01*
X166219891Y-88981589D01*
X166309249Y-89156965D01*
X166424943Y-89316203D01*
X166424950Y-89316211D01*
X166564118Y-89455379D01*
X166564126Y-89455386D01*
X166723367Y-89571082D01*
X166898747Y-89660442D01*
X167085946Y-89721267D01*
X167238477Y-89745425D01*
X167280341Y-89752056D01*
X167280347Y-89752056D01*
X167280355Y-89752058D01*
X167280357Y-89752058D01*
X167477187Y-89752058D01*
X167477189Y-89752058D01*
X167671598Y-89721267D01*
X167858797Y-89660442D01*
X168034177Y-89571082D01*
X168193418Y-89455386D01*
X168332600Y-89316204D01*
X168448296Y-89156963D01*
X168537656Y-88981583D01*
X168598481Y-88794384D01*
X168629272Y-88599975D01*
X168629272Y-88403141D01*
X168598481Y-88208732D01*
X168537656Y-88021533D01*
X168448296Y-87846153D01*
X168403379Y-87784331D01*
X168332600Y-87686912D01*
X168332593Y-87686904D01*
X168193425Y-87547736D01*
X168193417Y-87547729D01*
X168034179Y-87432035D01*
X167858803Y-87342677D01*
X167858795Y-87342673D01*
X167671601Y-87281850D01*
X167671598Y-87281849D01*
X167671592Y-87281848D01*
X167477202Y-87251059D01*
X167477190Y-87251058D01*
X167477189Y-87251058D01*
X167280355Y-87251058D01*
X167280353Y-87251058D01*
X167280341Y-87251059D01*
X167085951Y-87281848D01*
X167085942Y-87281850D01*
X166898748Y-87342673D01*
X166898740Y-87342677D01*
X166723364Y-87432035D01*
X166564126Y-87547729D01*
X166564118Y-87547736D01*
X166424950Y-87686904D01*
X166424943Y-87686912D01*
X166309249Y-87846150D01*
X166219891Y-88021526D01*
X166219887Y-88021534D01*
X166159064Y-88208728D01*
X166159062Y-88208737D01*
X166128273Y-88403127D01*
X166128272Y-88403143D01*
X134984112Y-88403143D01*
X134967347Y-88297305D01*
X134953352Y-88208938D01*
X134892527Y-88021739D01*
X134803167Y-87846359D01*
X134803017Y-87846153D01*
X134687471Y-87687118D01*
X134687464Y-87687110D01*
X134548296Y-87547942D01*
X134548288Y-87547935D01*
X134389050Y-87432241D01*
X134213674Y-87342883D01*
X134213666Y-87342879D01*
X134026472Y-87282056D01*
X134026469Y-87282055D01*
X134025175Y-87281850D01*
X133832073Y-87251265D01*
X133832061Y-87251264D01*
X133832060Y-87251264D01*
X133635226Y-87251264D01*
X133635224Y-87251264D01*
X133635212Y-87251265D01*
X133440822Y-87282054D01*
X133440813Y-87282056D01*
X133253619Y-87342879D01*
X133253611Y-87342883D01*
X133078235Y-87432241D01*
X132918997Y-87547935D01*
X132918989Y-87547942D01*
X132779821Y-87687110D01*
X132779814Y-87687118D01*
X132664120Y-87846356D01*
X132574762Y-88021732D01*
X132574758Y-88021740D01*
X132513935Y-88208934D01*
X132513933Y-88208943D01*
X132483144Y-88403333D01*
X132483143Y-88403349D01*
X118250500Y-88403349D01*
X118250500Y-87853069D01*
X118250801Y-87846943D01*
X118256947Y-87784537D01*
X118264298Y-87709901D01*
X118266685Y-87697896D01*
X118305768Y-87569058D01*
X118310450Y-87557755D01*
X118373917Y-87439018D01*
X118380712Y-87428849D01*
X118466124Y-87324773D01*
X118474773Y-87316124D01*
X118578849Y-87230712D01*
X118589018Y-87223917D01*
X118707755Y-87160450D01*
X118719058Y-87155768D01*
X118847896Y-87116685D01*
X118859901Y-87114298D01*
X118996944Y-87100801D01*
X119003070Y-87100500D01*
X119044170Y-87100500D01*
X182655830Y-87100500D01*
X182696930Y-87100500D01*
X182703056Y-87100801D01*
G37*
%TD.AperFunction*%
M02*
