%TF.GenerationSoftware,KiCad,Pcbnew,9.0.0-rc3*%
%TF.CreationDate,2025-06-04T22:51:28-04:00*%
%TF.ProjectId,dock,646f636b-2e6b-4696-9361-645f70636258,rev?*%
%TF.SameCoordinates,Original*%
%TF.FileFunction,Legend,Top*%
%TF.FilePolarity,Positive*%
%FSLAX46Y46*%
G04 Gerber Fmt 4.6, Leading zero omitted, Abs format (unit mm)*
G04 Created by KiCad (PCBNEW 9.0.0-rc3) date 2025-06-04 22:51:28*
%MOMM*%
%LPD*%
G01*
G04 APERTURE LIST*
%ADD10C,0.200000*%
%ADD11C,0.100000*%
%ADD12C,0.120000*%
%ADD13C,0.152400*%
G04 APERTURE END LIST*
D10*
X153725000Y-119595000D02*
X153725000Y-120070000D01*
X153625000Y-120420000D02*
X153625000Y-120920000D01*
X152025000Y-120420000D02*
X153625000Y-120420000D01*
X153625000Y-120920000D02*
X152025000Y-120920000D01*
X152025000Y-120920000D02*
X152025000Y-120420000D01*
X142925000Y-126275000D02*
X143975000Y-126275000D01*
X144325000Y-126400000D02*
X145075000Y-126400000D01*
X144325000Y-129300000D02*
X144325000Y-126400000D01*
X145075000Y-126400000D02*
X145075000Y-129300000D01*
X145075000Y-129300000D02*
X144325000Y-129300000D01*
D11*
X155985000Y-116055000D02*
X155985000Y-116055000D01*
X156085000Y-116055000D02*
X156085000Y-116055000D01*
D10*
X156960000Y-115520000D02*
X160010000Y-115520000D01*
X156960000Y-118570000D02*
X160010000Y-118570000D01*
D11*
X155985000Y-116055000D02*
G75*
G02*
X156085000Y-116055000I50000J0D01*
G01*
X156085000Y-116055000D02*
G75*
G02*
X155985000Y-116055000I-50000J0D01*
G01*
D12*
X148053641Y-128670000D02*
X147746359Y-128670000D01*
X148053641Y-129430000D02*
X147746359Y-129430000D01*
X148053641Y-127470000D02*
X147746359Y-127470000D01*
X148053641Y-128230000D02*
X147746359Y-128230000D01*
D13*
X171632550Y-124023400D02*
X171632550Y-128126120D01*
X171632550Y-130073879D02*
X171632550Y-130576600D01*
X171632550Y-130576600D02*
X173369512Y-130576600D01*
X172169512Y-124023400D02*
X171632550Y-124023400D01*
X175527189Y-130576600D02*
X183875350Y-130576600D01*
X177169512Y-124023400D02*
X174327189Y-124023400D01*
X181184491Y-124023400D02*
X179327189Y-124023400D01*
X183621350Y-125369600D02*
X183621350Y-128816888D01*
X183848061Y-129230400D02*
X185881950Y-129230400D01*
X183875350Y-124023400D02*
X183712209Y-124023400D01*
X183875350Y-129364601D02*
X183875350Y-124023400D01*
X183875350Y-130576600D02*
X183875350Y-129635401D01*
X185881950Y-125369600D02*
X183621350Y-125369600D01*
X185881950Y-129230400D02*
X185881950Y-125369600D01*
D12*
X154908641Y-121985000D02*
X154601359Y-121985000D01*
X154908641Y-122745000D02*
X154601359Y-122745000D01*
X166183268Y-125667184D02*
X166183268Y-125882856D01*
X166903268Y-125667184D02*
X166903268Y-125882856D01*
X147520000Y-125203641D02*
X147520000Y-124896359D01*
X148280000Y-125203641D02*
X148280000Y-124896359D01*
X148520000Y-125203641D02*
X148520000Y-124896359D01*
X149280000Y-125203641D02*
X149280000Y-124896359D01*
X164056359Y-113320000D02*
X164363641Y-113320000D01*
X164056359Y-114080000D02*
X164363641Y-114080000D01*
X150115580Y-122290000D02*
X149834420Y-122290000D01*
X150115580Y-123310000D02*
X149834420Y-123310000D01*
X154611359Y-121185000D02*
X154918641Y-121185000D01*
X154611359Y-121945000D02*
X154918641Y-121945000D01*
X166026359Y-113320000D02*
X166333641Y-113320000D01*
X166026359Y-114080000D02*
X166333641Y-114080000D01*
X162062164Y-106840000D02*
X162277836Y-106840000D01*
X162062164Y-107560000D02*
X162277836Y-107560000D01*
X156820000Y-120486359D02*
X156820000Y-120793641D01*
X157580000Y-120486359D02*
X157580000Y-120793641D01*
X157536359Y-118920000D02*
X157843641Y-118920000D01*
X157536359Y-119680000D02*
X157843641Y-119680000D01*
X159475000Y-119315000D02*
X160100000Y-119315000D01*
X159787500Y-119002500D02*
X159787500Y-119627500D01*
X160340000Y-119304437D02*
X160340000Y-119940000D01*
X160340000Y-119304437D02*
X161404437Y-118240000D01*
X160340000Y-122695563D02*
X160340000Y-122060000D01*
X160340000Y-122695563D02*
X161404437Y-123760000D01*
X161404437Y-118240000D02*
X165860000Y-118240000D01*
X161404437Y-123760000D02*
X165860000Y-123760000D01*
X165860000Y-118240000D02*
X165860000Y-119940000D01*
X165860000Y-123760000D02*
X165860000Y-122060000D01*
D10*
X169850000Y-129750000D02*
X170250000Y-129750000D01*
D12*
X138037500Y-127290000D02*
X137387500Y-127290000D01*
X138037500Y-127290000D02*
X138687500Y-127290000D01*
X138037500Y-130410000D02*
X137387500Y-130410000D01*
X138037500Y-130410000D02*
X138687500Y-130410000D01*
X136875000Y-127340000D02*
X136635000Y-127010000D01*
X137115000Y-127010000D01*
X136875000Y-127340000D01*
G36*
X136875000Y-127340000D02*
G01*
X136635000Y-127010000D01*
X137115000Y-127010000D01*
X136875000Y-127340000D01*
G37*
X154115000Y-119564420D02*
X154115000Y-119845580D01*
X155135000Y-119564420D02*
X155135000Y-119845580D01*
D13*
X171632550Y-116523400D02*
X171632550Y-120626120D01*
X171632550Y-122573879D02*
X171632550Y-123076600D01*
X171632550Y-123076600D02*
X173369512Y-123076600D01*
X172169512Y-116523400D02*
X171632550Y-116523400D01*
X175527189Y-123076600D02*
X183875350Y-123076600D01*
X177169512Y-116523400D02*
X174327189Y-116523400D01*
X181184491Y-116523400D02*
X179327189Y-116523400D01*
X183621350Y-117869600D02*
X183621350Y-121316888D01*
X183848061Y-121730400D02*
X185881950Y-121730400D01*
X183875350Y-116523400D02*
X183712209Y-116523400D01*
X183875350Y-121864601D02*
X183875350Y-116523400D01*
X183875350Y-123076600D02*
X183875350Y-122135401D01*
X185881950Y-117869600D02*
X183621350Y-117869600D01*
X185881950Y-121730400D02*
X185881950Y-117869600D01*
D12*
X155225000Y-119564420D02*
X155225000Y-119845580D01*
X156245000Y-119564420D02*
X156245000Y-119845580D01*
X144807836Y-125190000D02*
X144592164Y-125190000D01*
X144807836Y-125910000D02*
X144592164Y-125910000D01*
X153663748Y-115875000D02*
X154186252Y-115875000D01*
X153663748Y-118095000D02*
X154186252Y-118095000D01*
X152604420Y-118295000D02*
X152885580Y-118295000D01*
X152604420Y-119315000D02*
X152885580Y-119315000D01*
D13*
X150902600Y-126650600D02*
X150902600Y-128073000D01*
X150902600Y-130867000D02*
X150902600Y-131705200D01*
X150902600Y-131705200D02*
X160097400Y-131705200D01*
X160097400Y-128073000D02*
X160097400Y-126650600D01*
X160097400Y-131705200D02*
X160097400Y-130867000D01*
D10*
X167350000Y-124025000D02*
X168350000Y-124025000D01*
X168700000Y-124250000D02*
X168900000Y-124250000D01*
X168700000Y-126250000D02*
X168700000Y-124250000D01*
X168900000Y-124250000D02*
X168900000Y-126250000D01*
X168900000Y-126250000D02*
X168700000Y-126250000D01*
D12*
X169333641Y-126970000D02*
X169026359Y-126970000D01*
X169333641Y-127730000D02*
X169026359Y-127730000D01*
X169634052Y-122870000D02*
X169326770Y-122870000D01*
X169634052Y-123630000D02*
X169326770Y-123630000D01*
X168420000Y-129903641D02*
X168420000Y-129596359D01*
X169180000Y-129903641D02*
X169180000Y-129596359D01*
X163086359Y-116020000D02*
X163393641Y-116020000D01*
X163086359Y-116780000D02*
X163393641Y-116780000D01*
M02*
