%TF.GenerationSoftware,KiCad,Pcbnew,9.0.0-rc3*%
%TF.CreationDate,2025-06-04T22:11:30-04:00*%
%TF.ProjectId,rgb_led,7267625f-6c65-4642-9e6b-696361645f70,rev?*%
%TF.SameCoordinates,Original*%
%TF.FileFunction,Copper,L2,Bot*%
%TF.FilePolarity,Positive*%
%FSLAX46Y46*%
G04 Gerber Fmt 4.6, Leading zero omitted, Abs format (unit mm)*
G04 Created by KiCad (PCBNEW 9.0.0-rc3) date 2025-06-04 22:11:30*
%MOMM*%
%LPD*%
G01*
G04 APERTURE LIST*
%TA.AperFunction,ViaPad*%
%ADD10C,0.508000*%
%TD*%
%TA.AperFunction,Conductor*%
%ADD11C,0.500000*%
%TD*%
%TA.AperFunction,Conductor*%
%ADD12C,0.200000*%
%TD*%
G04 APERTURE END LIST*
%TA.AperFunction,SMDPad,CuDef*%
G36*
G01*
X123876311Y-90813628D02*
X124007989Y-91175410D01*
G75*
G02*
X123958681Y-91281152I-77525J-28217D01*
G01*
X123596899Y-91412830D01*
G75*
G02*
X123491157Y-91363522I-28217J77525D01*
G01*
X123359479Y-91001740D01*
G75*
G02*
X123408787Y-90895998I77525J28217D01*
G01*
X123770569Y-90764320D01*
G75*
G02*
X123876311Y-90813628I28217J-77525D01*
G01*
G37*
%TD.AperFunction*%
%TA.AperFunction,SMDPad,CuDef*%
G36*
G01*
X124218331Y-91753320D02*
X124350009Y-92115102D01*
G75*
G02*
X124300701Y-92220844I-77525J-28217D01*
G01*
X123938919Y-92352522D01*
G75*
G02*
X123833177Y-92303214I-28217J77525D01*
G01*
X123701499Y-91941432D01*
G75*
G02*
X123750807Y-91835690I77525J28217D01*
G01*
X124112589Y-91704012D01*
G75*
G02*
X124218331Y-91753320I28217J-77525D01*
G01*
G37*
%TD.AperFunction*%
%TA.AperFunction,SMDPad,CuDef*%
G36*
G01*
X123278639Y-92095340D02*
X123410317Y-92457122D01*
G75*
G02*
X123361009Y-92562864I-77525J-28217D01*
G01*
X122999227Y-92694542D01*
G75*
G02*
X122893485Y-92645234I-28217J77525D01*
G01*
X122761807Y-92283452D01*
G75*
G02*
X122811115Y-92177710I77525J28217D01*
G01*
X123172897Y-92046032D01*
G75*
G02*
X123278639Y-92095340I28217J-77525D01*
G01*
G37*
%TD.AperFunction*%
%TA.AperFunction,SMDPad,CuDef*%
G36*
G01*
X122936619Y-91155648D02*
X123068297Y-91517430D01*
G75*
G02*
X123018989Y-91623172I-77525J-28217D01*
G01*
X122657207Y-91754850D01*
G75*
G02*
X122551465Y-91705542I-28217J77525D01*
G01*
X122419787Y-91343760D01*
G75*
G02*
X122469095Y-91238018I77525J28217D01*
G01*
X122830877Y-91106340D01*
G75*
G02*
X122936619Y-91155648I28217J-77525D01*
G01*
G37*
%TD.AperFunction*%
%TA.AperFunction,SMDPad,CuDef*%
G36*
G01*
X123816726Y-88400193D02*
X123816726Y-88785193D01*
G75*
G02*
X123734226Y-88867693I-82500J0D01*
G01*
X123349226Y-88867693D01*
G75*
G02*
X123266726Y-88785193I0J82500D01*
G01*
X123266726Y-88400193D01*
G75*
G02*
X123349226Y-88317693I82500J0D01*
G01*
X123734226Y-88317693D01*
G75*
G02*
X123816726Y-88400193I0J-82500D01*
G01*
G37*
%TD.AperFunction*%
%TA.AperFunction,SMDPad,CuDef*%
G36*
G01*
X123816726Y-89400193D02*
X123816726Y-89785193D01*
G75*
G02*
X123734226Y-89867693I-82500J0D01*
G01*
X123349226Y-89867693D01*
G75*
G02*
X123266726Y-89785193I0J82500D01*
G01*
X123266726Y-89400193D01*
G75*
G02*
X123349226Y-89317693I82500J0D01*
G01*
X123734226Y-89317693D01*
G75*
G02*
X123816726Y-89400193I0J-82500D01*
G01*
G37*
%TD.AperFunction*%
%TA.AperFunction,SMDPad,CuDef*%
G36*
G01*
X122816726Y-89400193D02*
X122816726Y-89785193D01*
G75*
G02*
X122734226Y-89867693I-82500J0D01*
G01*
X122349226Y-89867693D01*
G75*
G02*
X122266726Y-89785193I0J82500D01*
G01*
X122266726Y-89400193D01*
G75*
G02*
X122349226Y-89317693I82500J0D01*
G01*
X122734226Y-89317693D01*
G75*
G02*
X122816726Y-89400193I0J-82500D01*
G01*
G37*
%TD.AperFunction*%
%TA.AperFunction,SMDPad,CuDef*%
G36*
G01*
X122816726Y-88400193D02*
X122816726Y-88785193D01*
G75*
G02*
X122734226Y-88867693I-82500J0D01*
G01*
X122349226Y-88867693D01*
G75*
G02*
X122266726Y-88785193I0J82500D01*
G01*
X122266726Y-88400193D01*
G75*
G02*
X122349226Y-88317693I82500J0D01*
G01*
X122734226Y-88317693D01*
G75*
G02*
X122816726Y-88400193I0J-82500D01*
G01*
G37*
%TD.AperFunction*%
%TA.AperFunction,SMDPad,CuDef*%
G36*
G01*
X163819835Y-92141256D02*
X163951513Y-91779474D01*
G75*
G02*
X164057255Y-91730166I77525J-28217D01*
G01*
X164419037Y-91861844D01*
G75*
G02*
X164468345Y-91967586I-28217J-77525D01*
G01*
X164336667Y-92329368D01*
G75*
G02*
X164230925Y-92378676I-77525J28217D01*
G01*
X163869143Y-92246998D01*
G75*
G02*
X163819835Y-92141256I28217J77525D01*
G01*
G37*
%TD.AperFunction*%
%TA.AperFunction,SMDPad,CuDef*%
G36*
G01*
X164161855Y-91201564D02*
X164293533Y-90839782D01*
G75*
G02*
X164399275Y-90790474I77525J-28217D01*
G01*
X164761057Y-90922152D01*
G75*
G02*
X164810365Y-91027894I-28217J-77525D01*
G01*
X164678687Y-91389676D01*
G75*
G02*
X164572945Y-91438984I-77525J28217D01*
G01*
X164211163Y-91307306D01*
G75*
G02*
X164161855Y-91201564I28217J77525D01*
G01*
G37*
%TD.AperFunction*%
%TA.AperFunction,SMDPad,CuDef*%
G36*
G01*
X165101547Y-91543584D02*
X165233225Y-91181802D01*
G75*
G02*
X165338967Y-91132494I77525J-28217D01*
G01*
X165700749Y-91264172D01*
G75*
G02*
X165750057Y-91369914I-28217J-77525D01*
G01*
X165618379Y-91731696D01*
G75*
G02*
X165512637Y-91781004I-77525J28217D01*
G01*
X165150855Y-91649326D01*
G75*
G02*
X165101547Y-91543584I28217J77525D01*
G01*
G37*
%TD.AperFunction*%
%TA.AperFunction,SMDPad,CuDef*%
G36*
G01*
X164759527Y-92483276D02*
X164891205Y-92121494D01*
G75*
G02*
X164996947Y-92072186I77525J-28217D01*
G01*
X165358729Y-92203864D01*
G75*
G02*
X165408037Y-92309606I-28217J-77525D01*
G01*
X165276359Y-92671388D01*
G75*
G02*
X165170617Y-92720696I-77525J28217D01*
G01*
X164808835Y-92589018D01*
G75*
G02*
X164759527Y-92483276I28217J77525D01*
G01*
G37*
%TD.AperFunction*%
%TA.AperFunction,SMDPad,CuDef*%
G36*
G01*
X164450912Y-89837498D02*
X164450912Y-89452498D01*
G75*
G02*
X164533412Y-89369998I82500J0D01*
G01*
X164918412Y-89369998D01*
G75*
G02*
X165000912Y-89452498I0J-82500D01*
G01*
X165000912Y-89837498D01*
G75*
G02*
X164918412Y-89919998I-82500J0D01*
G01*
X164533412Y-89919998D01*
G75*
G02*
X164450912Y-89837498I0J82500D01*
G01*
G37*
%TD.AperFunction*%
%TA.AperFunction,SMDPad,CuDef*%
G36*
G01*
X164450912Y-88837498D02*
X164450912Y-88452498D01*
G75*
G02*
X164533412Y-88369998I82500J0D01*
G01*
X164918412Y-88369998D01*
G75*
G02*
X165000912Y-88452498I0J-82500D01*
G01*
X165000912Y-88837498D01*
G75*
G02*
X164918412Y-88919998I-82500J0D01*
G01*
X164533412Y-88919998D01*
G75*
G02*
X164450912Y-88837498I0J82500D01*
G01*
G37*
%TD.AperFunction*%
%TA.AperFunction,SMDPad,CuDef*%
G36*
G01*
X165450912Y-88837498D02*
X165450912Y-88452498D01*
G75*
G02*
X165533412Y-88369998I82500J0D01*
G01*
X165918412Y-88369998D01*
G75*
G02*
X166000912Y-88452498I0J-82500D01*
G01*
X166000912Y-88837498D01*
G75*
G02*
X165918412Y-88919998I-82500J0D01*
G01*
X165533412Y-88919998D01*
G75*
G02*
X165450912Y-88837498I0J82500D01*
G01*
G37*
%TD.AperFunction*%
%TA.AperFunction,SMDPad,CuDef*%
G36*
G01*
X165450912Y-89837498D02*
X165450912Y-89452498D01*
G75*
G02*
X165533412Y-89369998I82500J0D01*
G01*
X165918412Y-89369998D01*
G75*
G02*
X166000912Y-89452498I0J-82500D01*
G01*
X166000912Y-89837498D01*
G75*
G02*
X165918412Y-89919998I-82500J0D01*
G01*
X165533412Y-89919998D01*
G75*
G02*
X165450912Y-89837498I0J82500D01*
G01*
G37*
%TD.AperFunction*%
%TA.AperFunction,SMDPad,CuDef*%
G36*
G01*
X124459641Y-86091787D02*
X124327963Y-86453569D01*
G75*
G02*
X124222221Y-86502877I-77525J28217D01*
G01*
X123860439Y-86371199D01*
G75*
G02*
X123811131Y-86265457I28217J77525D01*
G01*
X123942809Y-85903675D01*
G75*
G02*
X124048551Y-85854367I77525J-28217D01*
G01*
X124410333Y-85986045D01*
G75*
G02*
X124459641Y-86091787I-28217J-77525D01*
G01*
G37*
%TD.AperFunction*%
%TA.AperFunction,SMDPad,CuDef*%
G36*
G01*
X124117621Y-87031479D02*
X123985943Y-87393261D01*
G75*
G02*
X123880201Y-87442569I-77525J28217D01*
G01*
X123518419Y-87310891D01*
G75*
G02*
X123469111Y-87205149I28217J77525D01*
G01*
X123600789Y-86843367D01*
G75*
G02*
X123706531Y-86794059I77525J-28217D01*
G01*
X124068313Y-86925737D01*
G75*
G02*
X124117621Y-87031479I-28217J-77525D01*
G01*
G37*
%TD.AperFunction*%
%TA.AperFunction,SMDPad,CuDef*%
G36*
G01*
X123177929Y-86689459D02*
X123046251Y-87051241D01*
G75*
G02*
X122940509Y-87100549I-77525J28217D01*
G01*
X122578727Y-86968871D01*
G75*
G02*
X122529419Y-86863129I28217J77525D01*
G01*
X122661097Y-86501347D01*
G75*
G02*
X122766839Y-86452039I77525J-28217D01*
G01*
X123128621Y-86583717D01*
G75*
G02*
X123177929Y-86689459I-28217J-77525D01*
G01*
G37*
%TD.AperFunction*%
%TA.AperFunction,SMDPad,CuDef*%
G36*
G01*
X123519949Y-85749767D02*
X123388271Y-86111549D01*
G75*
G02*
X123282529Y-86160857I-77525J28217D01*
G01*
X122920747Y-86029179D01*
G75*
G02*
X122871439Y-85923437I28217J77525D01*
G01*
X123003117Y-85561655D01*
G75*
G02*
X123108859Y-85512347I77525J-28217D01*
G01*
X123470641Y-85644025D01*
G75*
G02*
X123519949Y-85749767I-28217J-77525D01*
G01*
G37*
%TD.AperFunction*%
%TA.AperFunction,SMDPad,CuDef*%
G36*
G01*
X164381820Y-87432902D02*
X164250142Y-87071120D01*
G75*
G02*
X164299450Y-86965378I77525J28217D01*
G01*
X164661232Y-86833700D01*
G75*
G02*
X164766974Y-86883008I28217J-77525D01*
G01*
X164898652Y-87244790D01*
G75*
G02*
X164849344Y-87350532I-77525J-28217D01*
G01*
X164487562Y-87482210D01*
G75*
G02*
X164381820Y-87432902I-28217J77525D01*
G01*
G37*
%TD.AperFunction*%
%TA.AperFunction,SMDPad,CuDef*%
G36*
G01*
X164039800Y-86493210D02*
X163908122Y-86131428D01*
G75*
G02*
X163957430Y-86025686I77525J28217D01*
G01*
X164319212Y-85894008D01*
G75*
G02*
X164424954Y-85943316I28217J-77525D01*
G01*
X164556632Y-86305098D01*
G75*
G02*
X164507324Y-86410840I-77525J-28217D01*
G01*
X164145542Y-86542518D01*
G75*
G02*
X164039800Y-86493210I-28217J77525D01*
G01*
G37*
%TD.AperFunction*%
%TA.AperFunction,SMDPad,CuDef*%
G36*
G01*
X164979492Y-86151190D02*
X164847814Y-85789408D01*
G75*
G02*
X164897122Y-85683666I77525J28217D01*
G01*
X165258904Y-85551988D01*
G75*
G02*
X165364646Y-85601296I28217J-77525D01*
G01*
X165496324Y-85963078D01*
G75*
G02*
X165447016Y-86068820I-77525J-28217D01*
G01*
X165085234Y-86200498D01*
G75*
G02*
X164979492Y-86151190I-28217J77525D01*
G01*
G37*
%TD.AperFunction*%
%TA.AperFunction,SMDPad,CuDef*%
G36*
G01*
X165321512Y-87090882D02*
X165189834Y-86729100D01*
G75*
G02*
X165239142Y-86623358I77525J28217D01*
G01*
X165600924Y-86491680D01*
G75*
G02*
X165706666Y-86540988I28217J-77525D01*
G01*
X165838344Y-86902770D01*
G75*
G02*
X165789036Y-87008512I-77525J-28217D01*
G01*
X165427254Y-87140190D01*
G75*
G02*
X165321512Y-87090882I-28217J77525D01*
G01*
G37*
%TD.AperFunction*%
D10*
X164188897Y-88118593D03*
X124069891Y-90157297D03*
X124794451Y-92358275D03*
X163599999Y-85900001D03*
X124138488Y-87833574D03*
X164163737Y-90456917D03*
X165428391Y-93140125D03*
X122799999Y-85100001D03*
X121981970Y-88047940D03*
X142999999Y-86400001D03*
X166299999Y-90200001D03*
X122020276Y-91105586D03*
X142069999Y-84200001D03*
X166199999Y-87100001D03*
X144200000Y-89000000D03*
X146296203Y-87492995D03*
D11*
X124138488Y-87833574D02*
X123793366Y-87118314D01*
X163599999Y-85900001D02*
X164232377Y-86218263D01*
X164163737Y-90456917D02*
X164486110Y-91114729D01*
X124069891Y-90157297D02*
X123541726Y-89592693D01*
X164188897Y-88118593D02*
X164725912Y-88644998D01*
X124794451Y-92358275D02*
X124025754Y-92028267D01*
X122020276Y-91105586D02*
X122744042Y-91430595D01*
X121981970Y-88047940D02*
X122541726Y-88592693D01*
X165428391Y-93140125D02*
X165083782Y-92396441D01*
X166199999Y-87100001D02*
X165514089Y-86815935D01*
X166299999Y-90200001D02*
X165725912Y-89644998D01*
X122799999Y-85100001D02*
X123195694Y-85836602D01*
D12*
X124135386Y-86178622D02*
X130056765Y-92100001D01*
X130056765Y-92100001D02*
X145999999Y-92100001D01*
X145999999Y-92100001D02*
X146999999Y-91100001D01*
X146999999Y-88196791D02*
X146296203Y-87492995D01*
X146999999Y-91100001D02*
X146999999Y-88196791D01*
X122853674Y-86776294D02*
X122853674Y-87453676D01*
X122853674Y-87453676D02*
X123541726Y-88141728D01*
X123541726Y-88141728D02*
X123541726Y-88592693D01*
X122541726Y-89592693D02*
X122541726Y-90041728D01*
X123299999Y-90300001D02*
X123683734Y-90683736D01*
X122799999Y-90300001D02*
X123299999Y-90300001D01*
X122541726Y-90041728D02*
X122799999Y-90300001D01*
X123683734Y-90683736D02*
X123683734Y-91088575D01*
X146799999Y-93300001D02*
X147927389Y-92172611D01*
X147927389Y-92172611D02*
X164025900Y-92172611D01*
X124015776Y-93300001D02*
X146799999Y-93300001D01*
X123086062Y-92370287D02*
X124015776Y-93300001D01*
X164025900Y-92172611D02*
X164144090Y-92054421D01*
X165425802Y-90825804D02*
X164725912Y-90125914D01*
X165425802Y-91456749D02*
X165425802Y-90825804D01*
X164725912Y-90125914D02*
X164725912Y-89644998D01*
X164830526Y-87930528D02*
X164574397Y-87674399D01*
X165725912Y-88644998D02*
X165725912Y-88187226D01*
X164574397Y-87674399D02*
X164574397Y-87157955D01*
X165469214Y-87930528D02*
X164830526Y-87930528D01*
X165725912Y-88187226D02*
X165469214Y-87930528D01*
%TA.AperFunction,Conductor*%
G36*
X168170898Y-83127501D02*
G01*
X168196931Y-83127501D01*
X168203055Y-83127802D01*
X168364091Y-83143662D01*
X168376100Y-83146051D01*
X168528007Y-83192131D01*
X168539317Y-83196816D01*
X168679303Y-83271640D01*
X168689491Y-83278447D01*
X168812191Y-83379145D01*
X168820854Y-83387808D01*
X168921552Y-83510508D01*
X168928359Y-83520696D01*
X169003181Y-83660678D01*
X169007870Y-83671997D01*
X169053947Y-83823895D01*
X169056337Y-83835912D01*
X169072198Y-83996943D01*
X169072499Y-84003069D01*
X169072500Y-93970899D01*
X169072500Y-93996930D01*
X169072199Y-94003056D01*
X169056338Y-94164088D01*
X169053948Y-94176105D01*
X169007871Y-94328002D01*
X169003182Y-94339321D01*
X168928358Y-94479307D01*
X168921551Y-94489494D01*
X168820856Y-94612192D01*
X168812192Y-94620856D01*
X168689494Y-94721551D01*
X168679307Y-94728358D01*
X168539321Y-94803182D01*
X168528002Y-94807871D01*
X168376105Y-94853948D01*
X168364088Y-94856338D01*
X168203056Y-94872199D01*
X168196930Y-94872500D01*
X120203070Y-94872500D01*
X120196944Y-94872199D01*
X120035911Y-94856338D01*
X120023894Y-94853948D01*
X119871997Y-94807871D01*
X119860678Y-94803182D01*
X119720692Y-94728358D01*
X119710505Y-94721551D01*
X119587807Y-94620856D01*
X119579143Y-94612192D01*
X119478445Y-94489490D01*
X119471644Y-94479311D01*
X119396815Y-94339317D01*
X119392130Y-94328007D01*
X119346050Y-94176101D01*
X119343661Y-94164088D01*
X119337215Y-94098643D01*
X119327801Y-94003056D01*
X119327500Y-93996930D01*
X119327500Y-92245896D01*
X122625422Y-92245896D01*
X122634923Y-92307624D01*
X122634923Y-92307626D01*
X122634924Y-92307627D01*
X122780747Y-92708271D01*
X122813149Y-92761671D01*
X122843317Y-92783790D01*
X122880522Y-92811069D01*
X122961671Y-92830927D01*
X123023399Y-92821426D01*
X123126799Y-92783790D01*
X123174588Y-92785876D01*
X123192369Y-92798327D01*
X123822911Y-93428869D01*
X123886908Y-93492866D01*
X123886909Y-93492866D01*
X123886911Y-93492868D01*
X123970520Y-93527500D01*
X123970523Y-93527501D01*
X146845252Y-93527501D01*
X146873123Y-93515956D01*
X146928863Y-93492868D01*
X146928863Y-93492867D01*
X146928867Y-93492866D01*
X148003316Y-92418417D01*
X148047510Y-92400111D01*
X163906014Y-92400111D01*
X163927390Y-92403880D01*
X163970718Y-92419650D01*
X164206753Y-92505559D01*
X164268481Y-92515061D01*
X164349630Y-92495203D01*
X164417004Y-92445804D01*
X164449403Y-92392411D01*
X164595228Y-91991758D01*
X164604730Y-91930030D01*
X164584872Y-91848881D01*
X164535473Y-91781507D01*
X164535470Y-91781505D01*
X164535469Y-91781504D01*
X164482080Y-91749108D01*
X164081426Y-91603282D01*
X164019703Y-91593781D01*
X164019698Y-91593781D01*
X163938549Y-91613639D01*
X163871178Y-91663036D01*
X163871173Y-91663041D01*
X163838777Y-91716430D01*
X163770513Y-91903987D01*
X163738196Y-91939255D01*
X163711782Y-91945111D01*
X147882133Y-91945111D01*
X147805695Y-91976773D01*
X147805696Y-91976774D01*
X147798521Y-91979745D01*
X147798519Y-91979747D01*
X146724072Y-93054195D01*
X146679878Y-93072501D01*
X124135897Y-93072501D01*
X124091703Y-93054195D01*
X123563808Y-92526300D01*
X123546230Y-92491616D01*
X123537201Y-92432950D01*
X123391375Y-92032299D01*
X123358976Y-91978904D01*
X123358974Y-91978902D01*
X123330061Y-91957703D01*
X123291602Y-91929505D01*
X123210453Y-91909647D01*
X123148725Y-91919148D01*
X123148723Y-91919148D01*
X123148721Y-91919149D01*
X122748077Y-92064972D01*
X122694677Y-92097374D01*
X122645280Y-92164746D01*
X122629589Y-92228869D01*
X122625422Y-92245896D01*
X119327500Y-92245896D01*
X119327500Y-91903876D01*
X123565114Y-91903876D01*
X123574615Y-91965604D01*
X123574615Y-91965606D01*
X123574616Y-91965607D01*
X123720439Y-92366251D01*
X123720440Y-92366253D01*
X123720441Y-92366255D01*
X123746077Y-92408504D01*
X123752841Y-92419651D01*
X123786527Y-92444349D01*
X123820214Y-92469049D01*
X123901363Y-92488907D01*
X123963091Y-92479406D01*
X123963095Y-92479404D01*
X123963098Y-92479404D01*
X123963100Y-92479403D01*
X124024557Y-92457034D01*
X124070590Y-92458333D01*
X124383160Y-92592522D01*
X124548604Y-92663549D01*
X124590430Y-92681505D01*
X124597023Y-92684809D01*
X124627132Y-92702191D01*
X124647197Y-92713776D01*
X124706576Y-92729686D01*
X124744221Y-92739774D01*
X124744224Y-92739774D01*
X124744226Y-92739775D01*
X124744227Y-92739775D01*
X124844675Y-92739775D01*
X124844676Y-92739775D01*
X124941705Y-92713776D01*
X125028698Y-92663551D01*
X125099727Y-92592522D01*
X125149952Y-92505529D01*
X125175951Y-92408500D01*
X125175951Y-92308050D01*
X125171882Y-92292866D01*
X125154734Y-92228869D01*
X125149952Y-92211021D01*
X125099727Y-92124028D01*
X125028698Y-92052999D01*
X124941705Y-92002774D01*
X124941702Y-92002772D01*
X124897085Y-91990817D01*
X124888606Y-91987878D01*
X124381024Y-91769969D01*
X124347636Y-91735714D01*
X124346949Y-91733914D01*
X124331068Y-91690282D01*
X124331067Y-91690279D01*
X124298668Y-91636884D01*
X124298666Y-91636882D01*
X124231294Y-91587485D01*
X124150145Y-91567627D01*
X124088417Y-91577128D01*
X124088415Y-91577128D01*
X124088413Y-91577129D01*
X123687769Y-91722952D01*
X123634369Y-91755354D01*
X123584972Y-91822726D01*
X123566667Y-91897531D01*
X123565114Y-91903876D01*
X119327500Y-91903876D01*
X119327500Y-89379509D01*
X122139226Y-89379509D01*
X122139226Y-89805873D01*
X122139227Y-89805877D01*
X122151409Y-89867129D01*
X122151410Y-89867131D01*
X122197825Y-89936594D01*
X122267288Y-89983009D01*
X122267292Y-89983009D01*
X122272973Y-89985363D01*
X122271990Y-89987735D01*
X122303684Y-90008901D01*
X122314226Y-90043637D01*
X122314226Y-90086983D01*
X122348858Y-90170592D01*
X122348860Y-90170595D01*
X122348861Y-90170596D01*
X122607134Y-90428869D01*
X122671131Y-90492866D01*
X122671132Y-90492866D01*
X122671134Y-90492868D01*
X122754743Y-90527500D01*
X122754746Y-90527501D01*
X123179878Y-90527501D01*
X123224072Y-90545807D01*
X123361606Y-90683341D01*
X123379912Y-90727535D01*
X123361606Y-90771729D01*
X123348131Y-90781275D01*
X123348371Y-90781670D01*
X123345749Y-90783260D01*
X123345746Y-90783262D01*
X123304192Y-90808475D01*
X123292349Y-90815662D01*
X123242952Y-90883034D01*
X123242952Y-90883035D01*
X123223094Y-90964184D01*
X123232595Y-91025912D01*
X123232595Y-91025914D01*
X123232596Y-91025915D01*
X123378419Y-91426559D01*
X123378420Y-91426561D01*
X123378421Y-91426563D01*
X123410820Y-91479958D01*
X123478194Y-91529357D01*
X123559343Y-91549215D01*
X123621071Y-91539714D01*
X124021722Y-91393888D01*
X124075117Y-91361489D01*
X124124516Y-91294115D01*
X124144374Y-91212966D01*
X124134873Y-91151238D01*
X123989047Y-90750587D01*
X123956648Y-90697192D01*
X123956300Y-90696937D01*
X123936752Y-90682604D01*
X123914857Y-90653241D01*
X123911234Y-90643106D01*
X123911234Y-90638483D01*
X123899161Y-90609337D01*
X123898641Y-90607882D01*
X123899750Y-90585421D01*
X123899750Y-90562924D01*
X123900919Y-90561754D01*
X123901001Y-90560105D01*
X123917664Y-90545009D01*
X123933575Y-90529100D01*
X123935356Y-90528983D01*
X123936453Y-90527990D01*
X123944469Y-90528385D01*
X123973668Y-90526472D01*
X123983477Y-90529100D01*
X124019661Y-90538796D01*
X124019664Y-90538796D01*
X124019666Y-90538797D01*
X124019667Y-90538797D01*
X124120115Y-90538797D01*
X124120116Y-90538797D01*
X124217145Y-90512798D01*
X124304138Y-90462573D01*
X124375167Y-90391544D01*
X124425392Y-90304551D01*
X124451391Y-90207522D01*
X124451391Y-90107072D01*
X124450022Y-90101964D01*
X124438150Y-90057655D01*
X124425392Y-90010043D01*
X124375167Y-89923050D01*
X124304138Y-89852021D01*
X124304137Y-89852020D01*
X124300886Y-89849525D01*
X124301107Y-89849235D01*
X124291497Y-89841602D01*
X123961083Y-89488392D01*
X123944225Y-89445695D01*
X123944225Y-89379512D01*
X123944225Y-89379510D01*
X123932042Y-89318255D01*
X123885627Y-89248792D01*
X123816164Y-89202377D01*
X123816163Y-89202376D01*
X123767092Y-89192616D01*
X123754909Y-89190193D01*
X123754908Y-89190193D01*
X123328545Y-89190193D01*
X123328541Y-89190194D01*
X123267289Y-89202376D01*
X123267288Y-89202377D01*
X123197825Y-89248792D01*
X123151409Y-89318255D01*
X123139226Y-89379509D01*
X123139226Y-89805873D01*
X123139227Y-89805877D01*
X123151409Y-89867129D01*
X123151410Y-89867131D01*
X123197825Y-89936594D01*
X123229912Y-89958034D01*
X123256487Y-89997808D01*
X123247155Y-90044725D01*
X123207381Y-90071300D01*
X123195188Y-90072501D01*
X122920120Y-90072501D01*
X122875926Y-90054195D01*
X122863166Y-90041435D01*
X122844860Y-89997241D01*
X122863166Y-89953047D01*
X122872637Y-89945274D01*
X122874544Y-89943999D01*
X122885627Y-89936594D01*
X122932042Y-89867131D01*
X122944226Y-89805876D01*
X122944225Y-89379511D01*
X122932042Y-89318255D01*
X122885627Y-89248792D01*
X122816164Y-89202377D01*
X122816163Y-89202376D01*
X122767092Y-89192616D01*
X122754909Y-89190193D01*
X122754908Y-89190193D01*
X122328545Y-89190193D01*
X122328541Y-89190194D01*
X122267289Y-89202376D01*
X122267288Y-89202377D01*
X122197825Y-89248792D01*
X122151409Y-89318255D01*
X122139226Y-89379509D01*
X119327500Y-89379509D01*
X119327500Y-86900680D01*
X122393034Y-86900680D01*
X122393034Y-86900685D01*
X122412892Y-86981834D01*
X122462291Y-87049208D01*
X122462293Y-87049209D01*
X122462294Y-87049210D01*
X122472909Y-87055651D01*
X122515684Y-87081607D01*
X122580394Y-87105159D01*
X122585049Y-87106853D01*
X122620318Y-87139170D01*
X122626174Y-87165584D01*
X122626174Y-87498931D01*
X122660806Y-87582540D01*
X122660810Y-87582545D01*
X123221442Y-88143177D01*
X123239748Y-88187371D01*
X123221442Y-88231565D01*
X123211974Y-88239336D01*
X123197826Y-88248790D01*
X123151409Y-88318255D01*
X123139226Y-88379509D01*
X123139226Y-88805873D01*
X123139227Y-88805877D01*
X123151409Y-88867129D01*
X123151410Y-88867131D01*
X123197825Y-88936594D01*
X123267288Y-88983009D01*
X123328543Y-88995193D01*
X123754908Y-88995192D01*
X123816164Y-88983009D01*
X123885627Y-88936594D01*
X123932042Y-88867131D01*
X123944226Y-88805876D01*
X123944225Y-88379511D01*
X123932042Y-88318255D01*
X123920576Y-88301095D01*
X123903258Y-88275177D01*
X123893925Y-88228261D01*
X123920500Y-88188487D01*
X123967416Y-88179154D01*
X123986471Y-88186325D01*
X123991234Y-88189075D01*
X124050613Y-88204985D01*
X124088258Y-88215073D01*
X124088261Y-88215073D01*
X124088263Y-88215074D01*
X124088264Y-88215074D01*
X124188712Y-88215074D01*
X124188713Y-88215074D01*
X124285742Y-88189075D01*
X124372735Y-88138850D01*
X124443764Y-88067821D01*
X124493989Y-87980828D01*
X124519988Y-87883799D01*
X124519988Y-87783349D01*
X124493989Y-87686320D01*
X124450054Y-87610222D01*
X124447896Y-87606143D01*
X124439204Y-87588128D01*
X124229207Y-87152915D01*
X124226490Y-87105159D01*
X124226768Y-87104378D01*
X124244502Y-87055656D01*
X124244504Y-87055651D01*
X124254006Y-86993923D01*
X124234148Y-86912774D01*
X124184749Y-86845400D01*
X124184746Y-86845398D01*
X124184745Y-86845397D01*
X124131356Y-86813001D01*
X123730702Y-86667175D01*
X123668979Y-86657674D01*
X123668974Y-86657674D01*
X123587825Y-86677532D01*
X123520454Y-86726929D01*
X123520449Y-86726934D01*
X123488053Y-86780323D01*
X123342227Y-87180977D01*
X123332726Y-87242700D01*
X123332726Y-87242705D01*
X123352584Y-87323854D01*
X123401983Y-87391228D01*
X123455376Y-87423627D01*
X123511757Y-87444147D01*
X123546669Y-87475716D01*
X123620702Y-87629146D01*
X123712065Y-87818495D01*
X123714783Y-87866253D01*
X123682936Y-87901946D01*
X123635178Y-87904664D01*
X123611581Y-87889850D01*
X123099480Y-87377749D01*
X123081174Y-87333555D01*
X123081174Y-87232648D01*
X123099480Y-87188454D01*
X123106712Y-87182249D01*
X123126588Y-87167677D01*
X123158987Y-87114284D01*
X123304812Y-86713631D01*
X123314314Y-86651903D01*
X123294456Y-86570754D01*
X123245057Y-86503380D01*
X123245054Y-86503378D01*
X123245053Y-86503377D01*
X123191664Y-86470981D01*
X122882129Y-86358320D01*
X122791010Y-86325155D01*
X122729287Y-86315654D01*
X122729282Y-86315654D01*
X122648133Y-86335512D01*
X122580762Y-86384909D01*
X122580757Y-86384914D01*
X122548361Y-86438303D01*
X122402535Y-86838957D01*
X122393034Y-86900680D01*
X119327500Y-86900680D01*
X119327500Y-86303008D01*
X123674746Y-86303008D01*
X123674746Y-86303013D01*
X123694604Y-86384162D01*
X123744003Y-86451536D01*
X123797396Y-86483935D01*
X124198049Y-86629760D01*
X124256716Y-86638790D01*
X124291399Y-86656368D01*
X129863900Y-92228869D01*
X129927897Y-92292866D01*
X129927898Y-92292866D01*
X129927900Y-92292868D01*
X130011509Y-92327500D01*
X130011512Y-92327501D01*
X146045252Y-92327501D01*
X146092210Y-92308050D01*
X146128863Y-92292868D01*
X146128863Y-92292867D01*
X146128867Y-92292866D01*
X147192865Y-91228869D01*
X147227499Y-91145253D01*
X147227499Y-91054748D01*
X147227499Y-90406687D01*
X163782237Y-90406687D01*
X163782237Y-90507146D01*
X163808235Y-90604168D01*
X163808237Y-90604173D01*
X163855275Y-90685647D01*
X163857271Y-90689392D01*
X164049455Y-91081551D01*
X164052465Y-91129292D01*
X164052063Y-91130430D01*
X164034972Y-91177388D01*
X164034971Y-91177392D01*
X164025470Y-91239115D01*
X164025470Y-91239120D01*
X164045328Y-91320269D01*
X164094727Y-91387643D01*
X164148120Y-91420042D01*
X164548773Y-91565867D01*
X164610501Y-91575369D01*
X164691650Y-91555511D01*
X164759024Y-91506112D01*
X164791423Y-91452719D01*
X164937248Y-91052066D01*
X164946750Y-90990338D01*
X164926892Y-90909189D01*
X164877493Y-90841815D01*
X164877490Y-90841813D01*
X164877489Y-90841812D01*
X164824096Y-90809413D01*
X164765950Y-90788249D01*
X164731204Y-90757023D01*
X164656294Y-90604168D01*
X164604278Y-90498028D01*
X164601269Y-90450288D01*
X164632898Y-90414402D01*
X164680639Y-90411392D01*
X164704596Y-90426331D01*
X165179996Y-90901731D01*
X165198302Y-90945925D01*
X165198302Y-91000393D01*
X165179996Y-91044587D01*
X165172759Y-91050796D01*
X165152888Y-91065365D01*
X165152885Y-91065369D01*
X165120489Y-91118758D01*
X164974663Y-91519412D01*
X164965162Y-91581135D01*
X164965162Y-91581140D01*
X164985020Y-91662289D01*
X165034419Y-91729663D01*
X165034421Y-91729664D01*
X165034422Y-91729665D01*
X165044391Y-91735714D01*
X165087812Y-91762062D01*
X165488465Y-91907887D01*
X165550193Y-91917389D01*
X165631342Y-91897531D01*
X165698716Y-91848132D01*
X165731115Y-91794739D01*
X165876940Y-91394086D01*
X165886442Y-91332358D01*
X165866584Y-91251209D01*
X165817185Y-91183835D01*
X165817182Y-91183833D01*
X165817181Y-91183832D01*
X165763793Y-91151436D01*
X165694425Y-91126188D01*
X165659158Y-91093870D01*
X165653302Y-91067457D01*
X165653302Y-90780553D01*
X165653301Y-90780549D01*
X165645698Y-90762193D01*
X165618774Y-90697192D01*
X165618668Y-90696936D01*
X165028241Y-90106509D01*
X165009935Y-90062315D01*
X165028241Y-90018121D01*
X165037706Y-90010352D01*
X165069813Y-89988899D01*
X165116228Y-89919436D01*
X165128412Y-89858181D01*
X165128411Y-89431816D01*
X165116228Y-89370560D01*
X165069813Y-89301097D01*
X165000350Y-89254682D01*
X165000349Y-89254681D01*
X164951278Y-89244921D01*
X164939095Y-89242498D01*
X164939094Y-89242498D01*
X164512731Y-89242498D01*
X164512727Y-89242499D01*
X164451475Y-89254681D01*
X164451474Y-89254682D01*
X164382011Y-89301097D01*
X164335595Y-89370560D01*
X164323412Y-89431814D01*
X164323412Y-89858178D01*
X164323413Y-89858182D01*
X164335595Y-89919434D01*
X164335596Y-89919436D01*
X164382011Y-89988899D01*
X164451474Y-90035314D01*
X164451478Y-90035314D01*
X164457159Y-90037668D01*
X164456176Y-90040040D01*
X164463256Y-90044768D01*
X164480106Y-90051748D01*
X164482552Y-90057655D01*
X164487870Y-90061206D01*
X164498412Y-90095942D01*
X164498412Y-90101964D01*
X164480106Y-90146158D01*
X164435912Y-90164464D01*
X164401963Y-90152942D01*
X164401532Y-90153690D01*
X164397985Y-90151642D01*
X164397984Y-90151641D01*
X164310991Y-90101416D01*
X164310990Y-90101415D01*
X164310989Y-90101415D01*
X164213966Y-90075417D01*
X164213962Y-90075417D01*
X164113512Y-90075417D01*
X164113507Y-90075417D01*
X164016485Y-90101415D01*
X164016483Y-90101415D01*
X163929488Y-90151642D01*
X163858462Y-90222668D01*
X163808235Y-90309663D01*
X163808235Y-90309665D01*
X163782237Y-90406687D01*
X147227499Y-90406687D01*
X147227499Y-88151538D01*
X147223537Y-88141973D01*
X147193047Y-88068363D01*
X163807397Y-88068363D01*
X163807397Y-88168822D01*
X163833395Y-88265844D01*
X163833395Y-88265846D01*
X163883622Y-88352841D01*
X163954650Y-88423869D01*
X163963374Y-88428906D01*
X163975876Y-88438400D01*
X164304663Y-88760690D01*
X164323409Y-88804699D01*
X164323412Y-88805322D01*
X164323412Y-88858177D01*
X164323413Y-88858183D01*
X164335595Y-88919434D01*
X164335596Y-88919436D01*
X164382011Y-88988899D01*
X164451474Y-89035314D01*
X164512729Y-89047498D01*
X164939094Y-89047497D01*
X165000350Y-89035314D01*
X165069813Y-88988899D01*
X165116228Y-88919436D01*
X165128412Y-88858181D01*
X165128411Y-88431816D01*
X165116228Y-88370560D01*
X165069813Y-88301097D01*
X165069811Y-88301096D01*
X165069811Y-88301095D01*
X165027008Y-88272494D01*
X165000433Y-88232720D01*
X165009766Y-88185804D01*
X165049540Y-88159229D01*
X165061732Y-88158028D01*
X165349093Y-88158028D01*
X165393287Y-88176334D01*
X165409709Y-88192756D01*
X165428015Y-88236950D01*
X165409709Y-88281144D01*
X165400239Y-88288916D01*
X165382012Y-88301095D01*
X165335595Y-88370560D01*
X165323412Y-88431814D01*
X165323412Y-88858178D01*
X165323413Y-88858182D01*
X165335595Y-88919434D01*
X165335596Y-88919436D01*
X165382011Y-88988899D01*
X165451474Y-89035314D01*
X165512729Y-89047498D01*
X165939094Y-89047497D01*
X166000350Y-89035314D01*
X166069813Y-88988899D01*
X166116228Y-88919436D01*
X166128412Y-88858181D01*
X166128411Y-88431816D01*
X166116228Y-88370560D01*
X166069813Y-88301097D01*
X166000350Y-88254682D01*
X166000347Y-88254681D01*
X165994662Y-88252326D01*
X165995643Y-88249956D01*
X165963944Y-88228774D01*
X165953412Y-88194053D01*
X165953412Y-88141973D01*
X165953411Y-88141971D01*
X165952117Y-88138848D01*
X165945716Y-88123393D01*
X165918778Y-88058358D01*
X165598082Y-87737663D01*
X165598081Y-87737662D01*
X165598078Y-87737660D01*
X165514469Y-87703028D01*
X165514467Y-87703028D01*
X164950647Y-87703028D01*
X164906453Y-87684722D01*
X164820203Y-87598472D01*
X164801897Y-87554278D01*
X164801897Y-87547245D01*
X164820203Y-87503051D01*
X164843020Y-87488514D01*
X164912385Y-87463268D01*
X164965780Y-87430869D01*
X165015179Y-87363495D01*
X165035037Y-87282346D01*
X165025536Y-87220618D01*
X164879710Y-86819967D01*
X164847311Y-86766572D01*
X164847309Y-86766570D01*
X164779937Y-86717173D01*
X164698788Y-86697315D01*
X164637060Y-86706816D01*
X164637058Y-86706816D01*
X164637056Y-86706817D01*
X164236412Y-86852640D01*
X164183012Y-86885042D01*
X164133615Y-86952414D01*
X164123457Y-86993927D01*
X164113757Y-87033564D01*
X164123258Y-87095292D01*
X164123258Y-87095294D01*
X164123259Y-87095295D01*
X164269082Y-87495939D01*
X164269083Y-87495941D01*
X164269084Y-87495943D01*
X164301483Y-87549338D01*
X164321352Y-87563905D01*
X164323954Y-87568194D01*
X164328591Y-87570115D01*
X164336052Y-87588128D01*
X164346169Y-87604798D01*
X164346897Y-87614309D01*
X164346897Y-87684519D01*
X164328591Y-87728713D01*
X164284397Y-87747019D01*
X164268221Y-87744890D01*
X164260261Y-87742757D01*
X164239122Y-87737093D01*
X164138672Y-87737093D01*
X164138667Y-87737093D01*
X164041645Y-87763091D01*
X164041643Y-87763091D01*
X163954648Y-87813318D01*
X163883622Y-87884344D01*
X163833395Y-87971339D01*
X163833395Y-87971341D01*
X163807397Y-88068363D01*
X147193047Y-88068363D01*
X147192865Y-88067923D01*
X146938259Y-87813317D01*
X146696009Y-87571067D01*
X146677703Y-87526873D01*
X146677703Y-87442771D01*
X146677702Y-87442765D01*
X146663891Y-87391225D01*
X146651704Y-87345741D01*
X146601479Y-87258748D01*
X146530450Y-87187719D01*
X146443457Y-87137494D01*
X146443456Y-87137493D01*
X146443455Y-87137493D01*
X146346432Y-87111495D01*
X146346428Y-87111495D01*
X146245978Y-87111495D01*
X146245973Y-87111495D01*
X146148951Y-87137493D01*
X146148949Y-87137493D01*
X146061954Y-87187720D01*
X145990928Y-87258746D01*
X145940701Y-87345741D01*
X145940701Y-87345743D01*
X145914703Y-87442765D01*
X145914703Y-87543224D01*
X145940701Y-87640246D01*
X145940701Y-87640248D01*
X145940702Y-87640249D01*
X145990927Y-87727242D01*
X146061956Y-87798271D01*
X146148949Y-87848496D01*
X146191729Y-87859959D01*
X146245973Y-87874494D01*
X146245976Y-87874494D01*
X146245978Y-87874495D01*
X146245979Y-87874495D01*
X146330082Y-87874495D01*
X146374276Y-87892801D01*
X146754193Y-88272718D01*
X146772499Y-88316912D01*
X146772499Y-90979879D01*
X146754193Y-91024073D01*
X145924072Y-91854195D01*
X145879878Y-91872501D01*
X130176886Y-91872501D01*
X130132692Y-91854195D01*
X124563426Y-86284929D01*
X124545120Y-86240735D01*
X124548889Y-86219359D01*
X124586524Y-86115959D01*
X124596026Y-86054231D01*
X124576168Y-85973082D01*
X124526769Y-85905708D01*
X124526766Y-85905706D01*
X124526765Y-85905705D01*
X124515902Y-85899113D01*
X124515901Y-85899113D01*
X124473374Y-85873308D01*
X124408706Y-85849771D01*
X163218499Y-85849771D01*
X163218499Y-85950230D01*
X163244497Y-86047252D01*
X163244497Y-86047254D01*
X163269610Y-86090751D01*
X163294723Y-86134248D01*
X163365752Y-86205277D01*
X163452745Y-86255502D01*
X163476293Y-86261811D01*
X163488203Y-86266350D01*
X163588892Y-86317024D01*
X163874150Y-86460588D01*
X163904784Y-86495039D01*
X163927064Y-86556251D01*
X163959463Y-86609646D01*
X164026837Y-86659045D01*
X164107986Y-86678903D01*
X164169714Y-86669402D01*
X164570365Y-86523576D01*
X164623760Y-86491177D01*
X164673159Y-86423803D01*
X164693017Y-86342654D01*
X164683516Y-86280926D01*
X164537690Y-85880275D01*
X164505291Y-85826880D01*
X164505289Y-85826878D01*
X164476376Y-85805679D01*
X164437917Y-85777481D01*
X164356768Y-85757623D01*
X164295040Y-85767123D01*
X164251142Y-85783100D01*
X164203352Y-85781011D01*
X164201671Y-85780196D01*
X164145352Y-85751852D01*
X164711429Y-85751852D01*
X164720930Y-85813580D01*
X164720930Y-85813582D01*
X164720931Y-85813583D01*
X164866754Y-86214227D01*
X164866755Y-86214229D01*
X164866756Y-86214231D01*
X164899155Y-86267626D01*
X164899156Y-86267627D01*
X164922754Y-86284929D01*
X164966529Y-86317025D01*
X165047678Y-86336883D01*
X165109406Y-86327382D01*
X165510057Y-86181556D01*
X165563452Y-86149157D01*
X165612851Y-86081783D01*
X165632709Y-86000634D01*
X165623208Y-85938906D01*
X165477382Y-85538255D01*
X165444983Y-85484860D01*
X165444981Y-85484858D01*
X165377609Y-85435461D01*
X165296460Y-85415603D01*
X165234732Y-85425104D01*
X165234730Y-85425104D01*
X165234728Y-85425105D01*
X164834084Y-85570928D01*
X164780684Y-85603330D01*
X164731287Y-85670702D01*
X164714858Y-85737840D01*
X164711429Y-85751852D01*
X164145352Y-85751852D01*
X163841618Y-85598990D01*
X163837871Y-85596639D01*
X163837794Y-85596774D01*
X163834247Y-85594726D01*
X163834246Y-85594725D01*
X163747253Y-85544500D01*
X163747252Y-85544499D01*
X163747251Y-85544499D01*
X163650228Y-85518501D01*
X163650224Y-85518501D01*
X163549774Y-85518501D01*
X163549769Y-85518501D01*
X163452747Y-85544499D01*
X163452745Y-85544499D01*
X163365750Y-85594726D01*
X163294724Y-85665752D01*
X163244497Y-85752747D01*
X163244497Y-85752749D01*
X163218499Y-85849771D01*
X124408706Y-85849771D01*
X124072722Y-85727483D01*
X124010999Y-85717982D01*
X124010994Y-85717982D01*
X123929845Y-85737840D01*
X123862474Y-85787237D01*
X123862469Y-85787242D01*
X123830073Y-85840631D01*
X123684247Y-86241285D01*
X123674746Y-86303008D01*
X119327500Y-86303008D01*
X119327500Y-84003069D01*
X119327801Y-83996943D01*
X119337215Y-83901358D01*
X119343662Y-83835905D01*
X119346051Y-83823895D01*
X119392131Y-83671988D01*
X119396813Y-83660685D01*
X119471647Y-83520683D01*
X119478441Y-83510514D01*
X119579149Y-83387800D01*
X119587800Y-83379149D01*
X119710514Y-83278441D01*
X119720683Y-83271647D01*
X119860685Y-83196813D01*
X119871988Y-83192131D01*
X120023900Y-83146049D01*
X120035905Y-83143662D01*
X120196943Y-83127801D01*
X120203069Y-83127500D01*
X168158466Y-83127500D01*
X168170897Y-83127500D01*
X168170898Y-83127501D01*
G37*
%TD.AperFunction*%
M02*
