%TF.GenerationSoftware,KiCad,Pcbnew,9.0.0-rc3*%
%TF.CreationDate,2025-06-04T22:11:30-04:00*%
%TF.ProjectId,rgb_led,7267625f-6c65-4642-9e6b-696361645f70,rev?*%
%TF.SameCoordinates,Original*%
%TF.FileFunction,Copper,L1,Top*%
%TF.FilePolarity,Positive*%
%FSLAX46Y46*%
G04 Gerber Fmt 4.6, Leading zero omitted, Abs format (unit mm)*
G04 Created by KiCad (PCBNEW 9.0.0-rc3) date 2025-06-04 22:11:30*
%MOMM*%
%LPD*%
G01*
G04 APERTURE LIST*
%TA.AperFunction,SMDPad,CuDef*%
%ADD10C,0.750000*%
%TD*%
%TA.AperFunction,ViaPad*%
%ADD11C,0.508000*%
%TD*%
%TA.AperFunction,Conductor*%
%ADD12C,0.200000*%
%TD*%
%TA.AperFunction,Conductor*%
%ADD13C,0.500000*%
%TD*%
%TA.AperFunction,Conductor*%
%ADD14C,0.400000*%
%TD*%
%TA.AperFunction,Conductor*%
%ADD15C,0.127000*%
%TD*%
G04 APERTURE END LIST*
D10*
X139529999Y-84200001D03*
X142069999Y-84200001D03*
X140799999Y-84200001D03*
%TA.AperFunction,SMDPad,CuDef*%
G36*
G01*
X124145537Y-91896548D02*
X124001847Y-92204693D01*
G75*
G02*
X123815797Y-92272409I-126883J59167D01*
G01*
X123562031Y-92154076D01*
G75*
G02*
X123494315Y-91968026I59167J126883D01*
G01*
X123638005Y-91659881D01*
G75*
G02*
X123824055Y-91592165I126883J-59167D01*
G01*
X124077821Y-91710498D01*
G75*
G02*
X124145537Y-91896548I-59167J-126883D01*
G01*
G37*
%TD.AperFunction*%
%TA.AperFunction,SMDPad,CuDef*%
G36*
G01*
X123275481Y-91490836D02*
X123131791Y-91798981D01*
G75*
G02*
X122945741Y-91866697I-126883J59167D01*
G01*
X122691975Y-91748364D01*
G75*
G02*
X122624259Y-91562314I59167J126883D01*
G01*
X122767949Y-91254169D01*
G75*
G02*
X122953999Y-91186453I126883J-59167D01*
G01*
X123207765Y-91304786D01*
G75*
G02*
X123275481Y-91490836I-59167J-126883D01*
G01*
G37*
%TD.AperFunction*%
%TA.AperFunction,SMDPad,CuDef*%
G36*
G01*
X164112596Y-86349981D02*
X164256286Y-86041836D01*
G75*
G02*
X164442336Y-85974120I126883J-59167D01*
G01*
X164696102Y-86092453D01*
G75*
G02*
X164763818Y-86278503I-59167J-126883D01*
G01*
X164620128Y-86586648D01*
G75*
G02*
X164434078Y-86654364I-126883J59167D01*
G01*
X164180312Y-86536031D01*
G75*
G02*
X164112596Y-86349981I59167J126883D01*
G01*
G37*
%TD.AperFunction*%
%TA.AperFunction,SMDPad,CuDef*%
G36*
G01*
X164982648Y-86755695D02*
X165126338Y-86447550D01*
G75*
G02*
X165312388Y-86379834I126883J-59167D01*
G01*
X165566154Y-86498167D01*
G75*
G02*
X165633870Y-86684217I-59167J-126883D01*
G01*
X165490180Y-86992362D01*
G75*
G02*
X165304130Y-87060078I-126883J59167D01*
G01*
X165050364Y-86941745D01*
G75*
G02*
X164982648Y-86755695I59167J126883D01*
G01*
G37*
%TD.AperFunction*%
%TA.AperFunction,SMDPad,CuDef*%
G36*
G01*
X164309683Y-91138638D02*
X164617828Y-90994948D01*
G75*
G02*
X164803878Y-91062664I59167J-126883D01*
G01*
X164922211Y-91316430D01*
G75*
G02*
X164854495Y-91502480I-126883J-59167D01*
G01*
X164546350Y-91646170D01*
G75*
G02*
X164360300Y-91578454I-59167J126883D01*
G01*
X164241967Y-91324688D01*
G75*
G02*
X164309683Y-91138638I126883J59167D01*
G01*
G37*
%TD.AperFunction*%
%TA.AperFunction,SMDPad,CuDef*%
G36*
G01*
X164715397Y-92008690D02*
X165023542Y-91865000D01*
G75*
G02*
X165209592Y-91932716I59167J-126883D01*
G01*
X165327925Y-92186482D01*
G75*
G02*
X165260209Y-92372532I-126883J-59167D01*
G01*
X164952064Y-92516222D01*
G75*
G02*
X164766014Y-92448506I-59167J126883D01*
G01*
X164647681Y-92194740D01*
G75*
G02*
X164715397Y-92008690I126883J59167D01*
G01*
G37*
%TD.AperFunction*%
%TA.AperFunction,SMDPad,CuDef*%
G36*
X144037365Y-87585284D02*
G01*
X144037365Y-87657000D01*
X144022721Y-87692355D01*
X143987868Y-87727208D01*
X143952513Y-87741852D01*
X143917158Y-87727208D01*
X143422183Y-87232233D01*
X143407539Y-87196878D01*
X143422183Y-87161523D01*
X143492894Y-87090812D01*
X143528249Y-87076168D01*
X143563604Y-87090812D01*
X144022721Y-87549929D01*
X144037365Y-87585284D01*
G37*
%TD.AperFunction*%
%TA.AperFunction,SMDPad,CuDef*%
G36*
G01*
X143139340Y-87444365D02*
X143210051Y-87373654D01*
G75*
G02*
X143280761Y-87373654I35355J-35355D01*
G01*
X143775736Y-87868629D01*
G75*
G02*
X143775736Y-87939339I-35355J-35355D01*
G01*
X143705025Y-88010050D01*
G75*
G02*
X143634315Y-88010050I-35355J35355D01*
G01*
X143139340Y-87515075D01*
G75*
G02*
X143139340Y-87444365I35355J35355D01*
G01*
G37*
%TD.AperFunction*%
%TA.AperFunction,SMDPad,CuDef*%
G36*
G01*
X142856497Y-87727208D02*
X142927208Y-87656497D01*
G75*
G02*
X142997918Y-87656497I35355J-35355D01*
G01*
X143492893Y-88151472D01*
G75*
G02*
X143492893Y-88222182I-35355J-35355D01*
G01*
X143422182Y-88292893D01*
G75*
G02*
X143351472Y-88292893I-35355J35355D01*
G01*
X142856497Y-87797918D01*
G75*
G02*
X142856497Y-87727208I35355J35355D01*
G01*
G37*
%TD.AperFunction*%
%TA.AperFunction,SMDPad,CuDef*%
G36*
G01*
X142573654Y-88010051D02*
X142644365Y-87939340D01*
G75*
G02*
X142715075Y-87939340I35355J-35355D01*
G01*
X143210050Y-88434315D01*
G75*
G02*
X143210050Y-88505025I-35355J-35355D01*
G01*
X143139339Y-88575736D01*
G75*
G02*
X143068629Y-88575736I-35355J35355D01*
G01*
X142573654Y-88080761D01*
G75*
G02*
X142573654Y-88010051I35355J35355D01*
G01*
G37*
%TD.AperFunction*%
%TA.AperFunction,SMDPad,CuDef*%
G36*
X142941852Y-88752513D02*
G01*
X142927208Y-88787868D01*
X142892355Y-88822721D01*
X142857000Y-88837365D01*
X142785284Y-88837365D01*
X142749929Y-88822721D01*
X142290812Y-88363604D01*
X142276168Y-88328249D01*
X142290812Y-88292894D01*
X142361523Y-88222183D01*
X142396878Y-88207539D01*
X142432233Y-88222183D01*
X142927208Y-88717158D01*
X142941852Y-88752513D01*
G37*
%TD.AperFunction*%
%TA.AperFunction,SMDPad,CuDef*%
G36*
X142941852Y-89247487D02*
G01*
X142927208Y-89282842D01*
X142432233Y-89777817D01*
X142396878Y-89792461D01*
X142361523Y-89777817D01*
X142290812Y-89707106D01*
X142276168Y-89671751D01*
X142290812Y-89636396D01*
X142749929Y-89177279D01*
X142785284Y-89162635D01*
X142857000Y-89162635D01*
X142892355Y-89177279D01*
X142927208Y-89212132D01*
X142941852Y-89247487D01*
G37*
%TD.AperFunction*%
%TA.AperFunction,SMDPad,CuDef*%
G36*
G01*
X142573654Y-89919239D02*
X143068629Y-89424264D01*
G75*
G02*
X143139339Y-89424264I35355J-35355D01*
G01*
X143210050Y-89494975D01*
G75*
G02*
X143210050Y-89565685I-35355J-35355D01*
G01*
X142715075Y-90060660D01*
G75*
G02*
X142644365Y-90060660I-35355J35355D01*
G01*
X142573654Y-89989949D01*
G75*
G02*
X142573654Y-89919239I35355J35355D01*
G01*
G37*
%TD.AperFunction*%
%TA.AperFunction,SMDPad,CuDef*%
G36*
G01*
X142856497Y-90202082D02*
X143351472Y-89707107D01*
G75*
G02*
X143422182Y-89707107I35355J-35355D01*
G01*
X143492893Y-89777818D01*
G75*
G02*
X143492893Y-89848528I-35355J-35355D01*
G01*
X142997918Y-90343503D01*
G75*
G02*
X142927208Y-90343503I-35355J35355D01*
G01*
X142856497Y-90272792D01*
G75*
G02*
X142856497Y-90202082I35355J35355D01*
G01*
G37*
%TD.AperFunction*%
%TA.AperFunction,SMDPad,CuDef*%
G36*
G01*
X143139340Y-90484925D02*
X143634315Y-89989950D01*
G75*
G02*
X143705025Y-89989950I35355J-35355D01*
G01*
X143775736Y-90060661D01*
G75*
G02*
X143775736Y-90131371I-35355J-35355D01*
G01*
X143280761Y-90626346D01*
G75*
G02*
X143210051Y-90626346I-35355J35355D01*
G01*
X143139340Y-90555635D01*
G75*
G02*
X143139340Y-90484925I35355J35355D01*
G01*
G37*
%TD.AperFunction*%
%TA.AperFunction,SMDPad,CuDef*%
G36*
X144037365Y-90343000D02*
G01*
X144037365Y-90414716D01*
X144022721Y-90450071D01*
X143563604Y-90909188D01*
X143528249Y-90923832D01*
X143492894Y-90909188D01*
X143422183Y-90838477D01*
X143407539Y-90803122D01*
X143422183Y-90767767D01*
X143917158Y-90272792D01*
X143952513Y-90258148D01*
X143987868Y-90272792D01*
X144022721Y-90307645D01*
X144037365Y-90343000D01*
G37*
%TD.AperFunction*%
%TA.AperFunction,SMDPad,CuDef*%
G36*
X144992461Y-90803122D02*
G01*
X144977817Y-90838477D01*
X144907106Y-90909188D01*
X144871751Y-90923832D01*
X144836396Y-90909188D01*
X144377279Y-90450071D01*
X144362635Y-90414716D01*
X144362635Y-90343000D01*
X144377279Y-90307645D01*
X144412132Y-90272792D01*
X144447487Y-90258148D01*
X144482842Y-90272792D01*
X144977817Y-90767767D01*
X144992461Y-90803122D01*
G37*
%TD.AperFunction*%
%TA.AperFunction,SMDPad,CuDef*%
G36*
G01*
X144624264Y-90060661D02*
X144694975Y-89989950D01*
G75*
G02*
X144765685Y-89989950I35355J-35355D01*
G01*
X145260660Y-90484925D01*
G75*
G02*
X145260660Y-90555635I-35355J-35355D01*
G01*
X145189949Y-90626346D01*
G75*
G02*
X145119239Y-90626346I-35355J35355D01*
G01*
X144624264Y-90131371D01*
G75*
G02*
X144624264Y-90060661I35355J35355D01*
G01*
G37*
%TD.AperFunction*%
%TA.AperFunction,SMDPad,CuDef*%
G36*
G01*
X144907107Y-89777818D02*
X144977818Y-89707107D01*
G75*
G02*
X145048528Y-89707107I35355J-35355D01*
G01*
X145543503Y-90202082D01*
G75*
G02*
X145543503Y-90272792I-35355J-35355D01*
G01*
X145472792Y-90343503D01*
G75*
G02*
X145402082Y-90343503I-35355J35355D01*
G01*
X144907107Y-89848528D01*
G75*
G02*
X144907107Y-89777818I35355J35355D01*
G01*
G37*
%TD.AperFunction*%
%TA.AperFunction,SMDPad,CuDef*%
G36*
G01*
X145189950Y-89494975D02*
X145260661Y-89424264D01*
G75*
G02*
X145331371Y-89424264I35355J-35355D01*
G01*
X145826346Y-89919239D01*
G75*
G02*
X145826346Y-89989949I-35355J-35355D01*
G01*
X145755635Y-90060660D01*
G75*
G02*
X145684925Y-90060660I-35355J35355D01*
G01*
X145189950Y-89565685D01*
G75*
G02*
X145189950Y-89494975I35355J35355D01*
G01*
G37*
%TD.AperFunction*%
%TA.AperFunction,SMDPad,CuDef*%
G36*
X146123832Y-89671751D02*
G01*
X146109188Y-89707106D01*
X146038477Y-89777817D01*
X146003122Y-89792461D01*
X145967767Y-89777817D01*
X145472792Y-89282842D01*
X145458148Y-89247487D01*
X145472792Y-89212132D01*
X145507645Y-89177279D01*
X145543000Y-89162635D01*
X145614716Y-89162635D01*
X145650071Y-89177279D01*
X146109188Y-89636396D01*
X146123832Y-89671751D01*
G37*
%TD.AperFunction*%
%TA.AperFunction,SMDPad,CuDef*%
G36*
X146123832Y-88328249D02*
G01*
X146109188Y-88363604D01*
X145650071Y-88822721D01*
X145614716Y-88837365D01*
X145543000Y-88837365D01*
X145507645Y-88822721D01*
X145472792Y-88787868D01*
X145458148Y-88752513D01*
X145472792Y-88717158D01*
X145967767Y-88222183D01*
X146003122Y-88207539D01*
X146038477Y-88222183D01*
X146109188Y-88292894D01*
X146123832Y-88328249D01*
G37*
%TD.AperFunction*%
%TA.AperFunction,SMDPad,CuDef*%
G36*
G01*
X145189950Y-88434315D02*
X145684925Y-87939340D01*
G75*
G02*
X145755635Y-87939340I35355J-35355D01*
G01*
X145826346Y-88010051D01*
G75*
G02*
X145826346Y-88080761I-35355J-35355D01*
G01*
X145331371Y-88575736D01*
G75*
G02*
X145260661Y-88575736I-35355J35355D01*
G01*
X145189950Y-88505025D01*
G75*
G02*
X145189950Y-88434315I35355J35355D01*
G01*
G37*
%TD.AperFunction*%
%TA.AperFunction,SMDPad,CuDef*%
G36*
G01*
X144907107Y-88151472D02*
X145402082Y-87656497D01*
G75*
G02*
X145472792Y-87656497I35355J-35355D01*
G01*
X145543503Y-87727208D01*
G75*
G02*
X145543503Y-87797918I-35355J-35355D01*
G01*
X145048528Y-88292893D01*
G75*
G02*
X144977818Y-88292893I-35355J35355D01*
G01*
X144907107Y-88222182D01*
G75*
G02*
X144907107Y-88151472I35355J35355D01*
G01*
G37*
%TD.AperFunction*%
%TA.AperFunction,SMDPad,CuDef*%
G36*
G01*
X144624264Y-87868629D02*
X145119239Y-87373654D01*
G75*
G02*
X145189949Y-87373654I35355J-35355D01*
G01*
X145260660Y-87444365D01*
G75*
G02*
X145260660Y-87515075I-35355J-35355D01*
G01*
X144765685Y-88010050D01*
G75*
G02*
X144694975Y-88010050I-35355J35355D01*
G01*
X144624264Y-87939339D01*
G75*
G02*
X144624264Y-87868629I35355J35355D01*
G01*
G37*
%TD.AperFunction*%
%TA.AperFunction,SMDPad,CuDef*%
G36*
X144992461Y-87196878D02*
G01*
X144977817Y-87232233D01*
X144482842Y-87727208D01*
X144447487Y-87741852D01*
X144412132Y-87727208D01*
X144377279Y-87692355D01*
X144362635Y-87657000D01*
X144362635Y-87585284D01*
X144377279Y-87549929D01*
X144836396Y-87090812D01*
X144871751Y-87076168D01*
X144907106Y-87090812D01*
X144977817Y-87161523D01*
X144992461Y-87196878D01*
G37*
%TD.AperFunction*%
%TA.AperFunction,HeatsinkPad*%
G36*
X142997918Y-89000000D02*
G01*
X144200000Y-87797918D01*
X145402082Y-89000000D01*
X144200000Y-90202082D01*
X142997918Y-89000000D01*
G37*
%TD.AperFunction*%
%TA.AperFunction,SMDPad,CuDef*%
G36*
G01*
X123699335Y-89509886D02*
X123458919Y-89750302D01*
G75*
G02*
X123260929Y-89750302I-98995J98995D01*
G01*
X123062939Y-89552312D01*
G75*
G02*
X123062939Y-89354322I98995J98995D01*
G01*
X123303355Y-89113906D01*
G75*
G02*
X123501345Y-89113906I98995J-98995D01*
G01*
X123699335Y-89311896D01*
G75*
G02*
X123699335Y-89509886I-98995J-98995D01*
G01*
G37*
%TD.AperFunction*%
%TA.AperFunction,SMDPad,CuDef*%
G36*
G01*
X123020513Y-88831064D02*
X122780097Y-89071480D01*
G75*
G02*
X122582107Y-89071480I-98995J98995D01*
G01*
X122384117Y-88873490D01*
G75*
G02*
X122384117Y-88675500I98995J98995D01*
G01*
X122624533Y-88435084D01*
G75*
G02*
X122822523Y-88435084I98995J-98995D01*
G01*
X123020513Y-88633074D01*
G75*
G02*
X123020513Y-88831064I-98995J-98995D01*
G01*
G37*
%TD.AperFunction*%
%TA.AperFunction,SMDPad,CuDef*%
G36*
G01*
X164568303Y-88727805D02*
X164808719Y-88487389D01*
G75*
G02*
X165006709Y-88487389I98995J-98995D01*
G01*
X165204699Y-88685379D01*
G75*
G02*
X165204699Y-88883369I-98995J-98995D01*
G01*
X164964283Y-89123785D01*
G75*
G02*
X164766293Y-89123785I-98995J98995D01*
G01*
X164568303Y-88925795D01*
G75*
G02*
X164568303Y-88727805I98995J98995D01*
G01*
G37*
%TD.AperFunction*%
%TA.AperFunction,SMDPad,CuDef*%
G36*
G01*
X165247125Y-89406627D02*
X165487541Y-89166211D01*
G75*
G02*
X165685531Y-89166211I98995J-98995D01*
G01*
X165883521Y-89364201D01*
G75*
G02*
X165883521Y-89562191I-98995J-98995D01*
G01*
X165643105Y-89802607D01*
G75*
G02*
X165445115Y-89802607I-98995J98995D01*
G01*
X165247125Y-89604617D01*
G75*
G02*
X165247125Y-89406627I98995J98995D01*
G01*
G37*
%TD.AperFunction*%
%TA.AperFunction,SMDPad,CuDef*%
G36*
G01*
X123969793Y-87094405D02*
X123661648Y-87238095D01*
G75*
G02*
X123475598Y-87170379I-59167J126883D01*
G01*
X123357265Y-86916613D01*
G75*
G02*
X123424981Y-86730563I126883J59167D01*
G01*
X123733126Y-86586873D01*
G75*
G02*
X123919176Y-86654589I59167J-126883D01*
G01*
X124037509Y-86908355D01*
G75*
G02*
X123969793Y-87094405I-126883J-59167D01*
G01*
G37*
%TD.AperFunction*%
%TA.AperFunction,SMDPad,CuDef*%
G36*
G01*
X123564079Y-86224353D02*
X123255934Y-86368043D01*
G75*
G02*
X123069884Y-86300327I-59167J126883D01*
G01*
X122951551Y-86046561D01*
G75*
G02*
X123019267Y-85860511I126883J59167D01*
G01*
X123327412Y-85716821D01*
G75*
G02*
X123513462Y-85784537I59167J-126883D01*
G01*
X123631795Y-86038303D01*
G75*
G02*
X123564079Y-86224353I-126883J-59167D01*
G01*
G37*
%TD.AperFunction*%
%TA.AperFunction,SMDPad,CuDef*%
G36*
G01*
X141682806Y-87957608D02*
X141442390Y-87717192D01*
G75*
G02*
X141442390Y-87519202I98995J98995D01*
G01*
X141640380Y-87321212D01*
G75*
G02*
X141838370Y-87321212I98995J-98995D01*
G01*
X142078786Y-87561628D01*
G75*
G02*
X142078786Y-87759618I-98995J-98995D01*
G01*
X141880796Y-87957608D01*
G75*
G02*
X141682806Y-87957608I-98995J98995D01*
G01*
G37*
%TD.AperFunction*%
%TA.AperFunction,SMDPad,CuDef*%
G36*
G01*
X142361628Y-87278786D02*
X142121212Y-87038370D01*
G75*
G02*
X142121212Y-86840380I98995J98995D01*
G01*
X142319202Y-86642390D01*
G75*
G02*
X142517192Y-86642390I98995J-98995D01*
G01*
X142757608Y-86882806D01*
G75*
G02*
X142757608Y-87080796I-98995J-98995D01*
G01*
X142559618Y-87278786D01*
G75*
G02*
X142361628Y-87278786I-98995J98995D01*
G01*
G37*
%TD.AperFunction*%
D11*
X164188897Y-88118593D03*
X124069891Y-90157297D03*
X124794451Y-92358275D03*
X163599999Y-85900001D03*
X124138488Y-87833574D03*
X164163737Y-90456917D03*
X165428391Y-93140125D03*
X122799999Y-85100001D03*
X121981970Y-88047940D03*
X142999999Y-86400001D03*
X166299999Y-90200001D03*
X122020276Y-91105586D03*
X142069999Y-84200001D03*
X166199999Y-87100001D03*
X144200000Y-89000000D03*
X146296203Y-87492995D03*
D12*
X142273724Y-87639410D02*
X141760588Y-87639410D01*
D13*
X164438206Y-86314242D02*
X163599999Y-85900001D01*
X164886501Y-88805587D02*
X164188897Y-88118593D01*
X123819926Y-91932287D02*
X124794451Y-92358275D01*
X123381137Y-89432104D02*
X124069891Y-90157297D01*
X123697387Y-86912485D02*
X124138488Y-87833574D01*
D12*
X142891852Y-88257538D02*
X142273724Y-87639410D01*
D13*
X164582089Y-91320558D02*
X164163737Y-90456917D01*
D12*
X142439410Y-87239410D02*
X142439410Y-86960588D01*
X143174695Y-87974695D02*
X142439410Y-87239410D01*
D13*
X165565323Y-89484409D02*
X166299999Y-90200001D01*
X123291673Y-86042431D02*
X122799999Y-85100001D01*
X164987803Y-92190612D02*
X165428391Y-93140125D01*
X122949870Y-91526575D02*
X122020276Y-91105586D01*
X122702315Y-88753282D02*
X121981970Y-88047940D01*
D14*
X142999999Y-86400001D02*
X142439410Y-86960588D01*
D13*
X165308260Y-86719956D02*
X166199999Y-87100001D01*
D15*
X141399999Y-85600001D02*
X140799999Y-85000001D01*
X145399999Y-86700001D02*
X144299999Y-85600001D01*
X144299999Y-85600001D02*
X141399999Y-85600001D01*
X144942462Y-87691852D02*
X145399999Y-87234315D01*
X140799999Y-85000001D02*
X140799999Y-84200001D01*
X145399999Y-87234315D02*
X145399999Y-86700001D01*
D12*
X146272691Y-87492995D02*
X145508148Y-88257538D01*
X146296203Y-87492995D02*
X146272691Y-87492995D01*
%TA.AperFunction,Conductor*%
G36*
X168170898Y-83127501D02*
G01*
X168196931Y-83127501D01*
X168203055Y-83127802D01*
X168364091Y-83143662D01*
X168376100Y-83146051D01*
X168528007Y-83192131D01*
X168539317Y-83196816D01*
X168679303Y-83271640D01*
X168689491Y-83278447D01*
X168812191Y-83379145D01*
X168820854Y-83387808D01*
X168921552Y-83510508D01*
X168928359Y-83520696D01*
X169003181Y-83660678D01*
X169007870Y-83671997D01*
X169053947Y-83823895D01*
X169056337Y-83835912D01*
X169072198Y-83996943D01*
X169072499Y-84003069D01*
X169072500Y-93970899D01*
X169072500Y-93996930D01*
X169072199Y-94003056D01*
X169056338Y-94164088D01*
X169053948Y-94176105D01*
X169007871Y-94328002D01*
X169003182Y-94339321D01*
X168928358Y-94479307D01*
X168921551Y-94489494D01*
X168820856Y-94612192D01*
X168812192Y-94620856D01*
X168689494Y-94721551D01*
X168679307Y-94728358D01*
X168539321Y-94803182D01*
X168528002Y-94807871D01*
X168376105Y-94853948D01*
X168364088Y-94856338D01*
X168203056Y-94872199D01*
X168196930Y-94872500D01*
X120203070Y-94872500D01*
X120196944Y-94872199D01*
X120035911Y-94856338D01*
X120023894Y-94853948D01*
X119871997Y-94807871D01*
X119860678Y-94803182D01*
X119720692Y-94728358D01*
X119710505Y-94721551D01*
X119587807Y-94620856D01*
X119579143Y-94612192D01*
X119478445Y-94489490D01*
X119471644Y-94479311D01*
X119396815Y-94339317D01*
X119392130Y-94328007D01*
X119346050Y-94176101D01*
X119343661Y-94164088D01*
X119337215Y-94098643D01*
X119327801Y-94003056D01*
X119327500Y-93996930D01*
X119327500Y-92147469D01*
X164502083Y-92147469D01*
X164502083Y-92147472D01*
X164520992Y-92224744D01*
X164520992Y-92224746D01*
X164661593Y-92526266D01*
X164661594Y-92526268D01*
X164661595Y-92526269D01*
X164708636Y-92590425D01*
X164759917Y-92621543D01*
X164784186Y-92648667D01*
X165060133Y-93243360D01*
X165063809Y-93253490D01*
X165072889Y-93287376D01*
X165072889Y-93287378D01*
X165072890Y-93287379D01*
X165123115Y-93374372D01*
X165194144Y-93445401D01*
X165281137Y-93495626D01*
X165323917Y-93507089D01*
X165378161Y-93521624D01*
X165378164Y-93521624D01*
X165378166Y-93521625D01*
X165378167Y-93521625D01*
X165478615Y-93521625D01*
X165478616Y-93521625D01*
X165575645Y-93495626D01*
X165662638Y-93445401D01*
X165733667Y-93374372D01*
X165783892Y-93287379D01*
X165809891Y-93190350D01*
X165809891Y-93089900D01*
X165783892Y-92992871D01*
X165746210Y-92927603D01*
X165743653Y-92922680D01*
X165469135Y-92331066D01*
X165464057Y-92295252D01*
X165473523Y-92233752D01*
X165454614Y-92156478D01*
X165450414Y-92147472D01*
X165314012Y-91854955D01*
X165312420Y-91852784D01*
X165266970Y-91790797D01*
X165266966Y-91790794D01*
X165175993Y-91735590D01*
X165070811Y-91719401D01*
X165070810Y-91719401D01*
X164993535Y-91738310D01*
X164637638Y-91904268D01*
X164637634Y-91904271D01*
X164573479Y-91951312D01*
X164536473Y-92012295D01*
X164518271Y-92042290D01*
X164502083Y-92147469D01*
X119327500Y-92147469D01*
X119327500Y-91055356D01*
X121638776Y-91055356D01*
X121638776Y-91155815D01*
X121664774Y-91252837D01*
X121664774Y-91252839D01*
X121664775Y-91252840D01*
X121715000Y-91339833D01*
X121786029Y-91410862D01*
X121873022Y-91461087D01*
X121910165Y-91471039D01*
X121919746Y-91474466D01*
X122460591Y-91719401D01*
X122494095Y-91734574D01*
X122521742Y-91759084D01*
X122550055Y-91805741D01*
X122550056Y-91805742D01*
X122614212Y-91852783D01*
X122614213Y-91852783D01*
X122614214Y-91852784D01*
X122618870Y-91854955D01*
X122915737Y-91993386D01*
X122993011Y-92012295D01*
X123098191Y-91996107D01*
X123189169Y-91940899D01*
X123236210Y-91876744D01*
X123402171Y-91520840D01*
X123421080Y-91443567D01*
X123404891Y-91338386D01*
X123352978Y-91252837D01*
X123349686Y-91247411D01*
X123349683Y-91247407D01*
X123285525Y-91200365D01*
X122984004Y-91059764D01*
X122906729Y-91040855D01*
X122839765Y-91051160D01*
X122804475Y-91046321D01*
X122232847Y-90787446D01*
X122227382Y-90784639D01*
X122167533Y-90750086D01*
X122167527Y-90750084D01*
X122070505Y-90724086D01*
X122070501Y-90724086D01*
X121970051Y-90724086D01*
X121970046Y-90724086D01*
X121873024Y-90750084D01*
X121873022Y-90750084D01*
X121786027Y-90800311D01*
X121715001Y-90871337D01*
X121664774Y-90958332D01*
X121664774Y-90958334D01*
X121638776Y-91055356D01*
X119327500Y-91055356D01*
X119327500Y-87997710D01*
X121600470Y-87997710D01*
X121600470Y-88098169D01*
X121626468Y-88195191D01*
X121626468Y-88195193D01*
X121651560Y-88238653D01*
X121676643Y-88282099D01*
X121676695Y-88282188D01*
X121747718Y-88353211D01*
X121747720Y-88353214D01*
X121747722Y-88353215D01*
X121747723Y-88353216D01*
X121756587Y-88358334D01*
X121769057Y-88367798D01*
X122202848Y-88792554D01*
X122220420Y-88825017D01*
X122231131Y-88878867D01*
X122231131Y-88878868D01*
X122231132Y-88878869D01*
X122275330Y-88945015D01*
X122510582Y-89180267D01*
X122576728Y-89224465D01*
X122681101Y-89245226D01*
X122681102Y-89245226D01*
X122681103Y-89245226D01*
X122715893Y-89238305D01*
X122785476Y-89224465D01*
X122851622Y-89180267D01*
X123129300Y-88902589D01*
X123173498Y-88836443D01*
X123194259Y-88732069D01*
X123173498Y-88627695D01*
X123129300Y-88561549D01*
X122894048Y-88326297D01*
X122849950Y-88296831D01*
X122827901Y-88282098D01*
X122761790Y-88268948D01*
X122730257Y-88252306D01*
X122362739Y-87892443D01*
X122299775Y-87830791D01*
X122289373Y-87817378D01*
X122287246Y-87813693D01*
X122216218Y-87742665D01*
X122216217Y-87742664D01*
X122129224Y-87692439D01*
X122129223Y-87692438D01*
X122129222Y-87692438D01*
X122032199Y-87666440D01*
X122032195Y-87666440D01*
X121931745Y-87666440D01*
X121931740Y-87666440D01*
X121834718Y-87692438D01*
X121834716Y-87692438D01*
X121747721Y-87742665D01*
X121676695Y-87813691D01*
X121626468Y-87900686D01*
X121626468Y-87900688D01*
X121600470Y-87997710D01*
X119327500Y-87997710D01*
X119327500Y-85049771D01*
X122418499Y-85049771D01*
X122418499Y-85150230D01*
X122444497Y-85247252D01*
X122444497Y-85247254D01*
X122494725Y-85334251D01*
X122496718Y-85336848D01*
X122502545Y-85345986D01*
X122805001Y-85925726D01*
X122811362Y-85964141D01*
X122805953Y-85999288D01*
X122805953Y-85999293D01*
X122824862Y-86076565D01*
X122824862Y-86076567D01*
X122965463Y-86378087D01*
X122965464Y-86378089D01*
X122965465Y-86378090D01*
X122976946Y-86393748D01*
X123012505Y-86442245D01*
X123012509Y-86442248D01*
X123099001Y-86494733D01*
X123103484Y-86497453D01*
X123208665Y-86513642D01*
X123285938Y-86494733D01*
X123641842Y-86328772D01*
X123705997Y-86281731D01*
X123761205Y-86190753D01*
X123777393Y-86085573D01*
X123758484Y-86008299D01*
X123754284Y-85999293D01*
X123617882Y-85706776D01*
X123570839Y-85642617D01*
X123495084Y-85596646D01*
X123472096Y-85572124D01*
X123402164Y-85438080D01*
X123165579Y-84984600D01*
X123160627Y-84971881D01*
X123155500Y-84952747D01*
X123105275Y-84865754D01*
X123034246Y-84794725D01*
X123034244Y-84794723D01*
X123034017Y-84794592D01*
X123034016Y-84794592D01*
X122972616Y-84759143D01*
X139395118Y-84759143D01*
X139395118Y-84759144D01*
X139454292Y-84774999D01*
X139454300Y-84775001D01*
X139605698Y-84775001D01*
X139605705Y-84774999D01*
X139664878Y-84759144D01*
X139664878Y-84759143D01*
X139529999Y-84624265D01*
X139395118Y-84759143D01*
X122972616Y-84759143D01*
X122947253Y-84744500D01*
X122947252Y-84744499D01*
X122947251Y-84744499D01*
X122850228Y-84718501D01*
X122850224Y-84718501D01*
X122749774Y-84718501D01*
X122749769Y-84718501D01*
X122652747Y-84744499D01*
X122652745Y-84744499D01*
X122565750Y-84794726D01*
X122494724Y-84865752D01*
X122444497Y-84952747D01*
X122444497Y-84952749D01*
X122418499Y-85049771D01*
X119327500Y-85049771D01*
X119327500Y-84124299D01*
X138954999Y-84124299D01*
X138954999Y-84275702D01*
X138970855Y-84334880D01*
X139105735Y-84200001D01*
X139105734Y-84200000D01*
X139954263Y-84200000D01*
X139954263Y-84200001D01*
X140089141Y-84334880D01*
X140089142Y-84334880D01*
X140104997Y-84275707D01*
X140104999Y-84275699D01*
X140104999Y-84133847D01*
X140297499Y-84133847D01*
X140297499Y-84266154D01*
X140297500Y-84266162D01*
X140331742Y-84393954D01*
X140331743Y-84393956D01*
X140331744Y-84393959D01*
X140331745Y-84393960D01*
X140378028Y-84474126D01*
X140380326Y-84478498D01*
X140389331Y-84497406D01*
X140389335Y-84497411D01*
X140389336Y-84497413D01*
X140498075Y-84643226D01*
X140498135Y-84643306D01*
X140498140Y-84643312D01*
X140499273Y-84644809D01*
X140547830Y-84708032D01*
X140552962Y-84715871D01*
X140568771Y-84744499D01*
X140575507Y-84756697D01*
X140581230Y-84770981D01*
X140595139Y-84823757D01*
X140597082Y-84835802D01*
X140603570Y-84940046D01*
X140603571Y-84940051D01*
X140607163Y-84954540D01*
X140608999Y-84969577D01*
X140608999Y-85037993D01*
X140638077Y-85108194D01*
X141238077Y-85708194D01*
X141291806Y-85761923D01*
X141362007Y-85791001D01*
X144194996Y-85791001D01*
X144239190Y-85809307D01*
X145190693Y-86760810D01*
X145208999Y-86805004D01*
X145208999Y-87058737D01*
X145190693Y-87102931D01*
X145146499Y-87121237D01*
X145102305Y-87102931D01*
X145094532Y-87093460D01*
X145075045Y-87064295D01*
X145004335Y-86993585D01*
X145004336Y-86993585D01*
X144986699Y-86981801D01*
X144961347Y-86964862D01*
X144961344Y-86964860D01*
X144961343Y-86964860D01*
X144922458Y-86948754D01*
X144922459Y-86948754D01*
X144922456Y-86948753D01*
X144895277Y-86940772D01*
X144895275Y-86940772D01*
X144821046Y-86948753D01*
X144782158Y-86964860D01*
X144739166Y-86993585D01*
X144280053Y-87452699D01*
X144280049Y-87452704D01*
X144251966Y-87494733D01*
X144212192Y-87521308D01*
X144165276Y-87511975D01*
X144148034Y-87494733D01*
X144119950Y-87452704D01*
X144119946Y-87452699D01*
X143660833Y-86993585D01*
X143660834Y-86993585D01*
X143643197Y-86981801D01*
X143617845Y-86964862D01*
X143617842Y-86964860D01*
X143617841Y-86964860D01*
X143578956Y-86948754D01*
X143578957Y-86948754D01*
X143578954Y-86948753D01*
X143551775Y-86940772D01*
X143551773Y-86940772D01*
X143477544Y-86948753D01*
X143438656Y-86964860D01*
X143395664Y-86993585D01*
X143324956Y-87064293D01*
X143296231Y-87107285D01*
X143280125Y-87146170D01*
X143272142Y-87173354D01*
X143271815Y-87177014D01*
X143249637Y-87219398D01*
X143221758Y-87232735D01*
X143176150Y-87241807D01*
X143132257Y-87271135D01*
X143036823Y-87366569D01*
X143036819Y-87366574D01*
X143019643Y-87392280D01*
X142979869Y-87418855D01*
X142932953Y-87409522D01*
X142923483Y-87401750D01*
X142814418Y-87292685D01*
X142796112Y-87248491D01*
X142814418Y-87204297D01*
X142866395Y-87152321D01*
X142910593Y-87086175D01*
X142931354Y-86981801D01*
X142929575Y-86972859D01*
X142938906Y-86925945D01*
X142946674Y-86916478D01*
X143081317Y-86781836D01*
X143109329Y-86765663D01*
X143147253Y-86755502D01*
X143234246Y-86705277D01*
X143305275Y-86634248D01*
X143355500Y-86547255D01*
X143381499Y-86450226D01*
X143381499Y-86349776D01*
X143375871Y-86328774D01*
X143371410Y-86312126D01*
X143355500Y-86252747D01*
X143305275Y-86165754D01*
X143234246Y-86094725D01*
X143147253Y-86044500D01*
X143147252Y-86044499D01*
X143147251Y-86044499D01*
X143050228Y-86018501D01*
X143050224Y-86018501D01*
X142949774Y-86018501D01*
X142949769Y-86018501D01*
X142852747Y-86044499D01*
X142852745Y-86044499D01*
X142765750Y-86094726D01*
X142694724Y-86165752D01*
X142644497Y-86252747D01*
X142644497Y-86252749D01*
X142634337Y-86290665D01*
X142618161Y-86318682D01*
X142483525Y-86453317D01*
X142439331Y-86471623D01*
X142427140Y-86470422D01*
X142418200Y-86468644D01*
X142418196Y-86468644D01*
X142313824Y-86489404D01*
X142247674Y-86533605D01*
X142012427Y-86768852D01*
X141968226Y-86835002D01*
X141947466Y-86939374D01*
X141947466Y-86939375D01*
X141968226Y-87043747D01*
X141968226Y-87043748D01*
X141968227Y-87043749D01*
X142012425Y-87109895D01*
X142012427Y-87109897D01*
X142220597Y-87318067D01*
X142234144Y-87338340D01*
X142235871Y-87342508D01*
X142246545Y-87368278D01*
X143273676Y-88395409D01*
X143273679Y-88395411D01*
X143299385Y-88412588D01*
X143325961Y-88452362D01*
X143316629Y-88499278D01*
X143308856Y-88508749D01*
X143147676Y-88669929D01*
X143103482Y-88688235D01*
X143059288Y-88669929D01*
X143051515Y-88660457D01*
X143024439Y-88619934D01*
X143024434Y-88619928D01*
X142529462Y-88124956D01*
X142529463Y-88124956D01*
X142515132Y-88115381D01*
X142486474Y-88096233D01*
X142486471Y-88096231D01*
X142486470Y-88096231D01*
X142447585Y-88080125D01*
X142447586Y-88080125D01*
X142447583Y-88080124D01*
X142420404Y-88072143D01*
X142420402Y-88072143D01*
X142346173Y-88080124D01*
X142307285Y-88096231D01*
X142264293Y-88124956D01*
X142193585Y-88195664D01*
X142164860Y-88238656D01*
X142148754Y-88277541D01*
X142148753Y-88277544D01*
X142147416Y-88282099D01*
X142140772Y-88304724D01*
X142143092Y-88326299D01*
X142146535Y-88358329D01*
X142148753Y-88378953D01*
X142162684Y-88412588D01*
X142164862Y-88417845D01*
X142193584Y-88460832D01*
X142652701Y-88919948D01*
X142652704Y-88919950D01*
X142694733Y-88948034D01*
X142721308Y-88987808D01*
X142711975Y-89034724D01*
X142694733Y-89051966D01*
X142652704Y-89080049D01*
X142652699Y-89080053D01*
X142193585Y-89539166D01*
X142164860Y-89582158D01*
X142148754Y-89621043D01*
X142140772Y-89648226D01*
X142143774Y-89676144D01*
X142148753Y-89722456D01*
X142164862Y-89761347D01*
X142193584Y-89804334D01*
X142193585Y-89804335D01*
X142264293Y-89875043D01*
X142264292Y-89875043D01*
X142264295Y-89875045D01*
X142307282Y-89903767D01*
X142346173Y-89919876D01*
X142373352Y-89927857D01*
X142373357Y-89927856D01*
X142377008Y-89928184D01*
X142419394Y-89950357D01*
X142432735Y-89978241D01*
X142441807Y-90023849D01*
X142471135Y-90067742D01*
X142566571Y-90163178D01*
X142588441Y-90177791D01*
X142610463Y-90192506D01*
X142664747Y-90203303D01*
X142704520Y-90229878D01*
X142713853Y-90252409D01*
X142724650Y-90306692D01*
X142753978Y-90350585D01*
X142849414Y-90446021D01*
X142871284Y-90460634D01*
X142893306Y-90475349D01*
X142947590Y-90486146D01*
X142987363Y-90512721D01*
X142996696Y-90535252D01*
X143007493Y-90589535D01*
X143036821Y-90633428D01*
X143132257Y-90728864D01*
X143154127Y-90743477D01*
X143176149Y-90758192D01*
X143226849Y-90768276D01*
X143266622Y-90794851D01*
X143276798Y-90822893D01*
X143280124Y-90853827D01*
X143296233Y-90892718D01*
X143324955Y-90935705D01*
X143324956Y-90935706D01*
X143395664Y-91006414D01*
X143395663Y-91006414D01*
X143395666Y-91006416D01*
X143438653Y-91035138D01*
X143477544Y-91051247D01*
X143504723Y-91059228D01*
X143578954Y-91051247D01*
X143617845Y-91035138D01*
X143660832Y-91006416D01*
X144119948Y-90547299D01*
X144148033Y-90505267D01*
X144187807Y-90478691D01*
X144234723Y-90488023D01*
X144251967Y-90505267D01*
X144280051Y-90547298D01*
X144280053Y-90547300D01*
X144739166Y-91006414D01*
X144739165Y-91006414D01*
X144739168Y-91006416D01*
X144782155Y-91035138D01*
X144821046Y-91051247D01*
X144848225Y-91059228D01*
X144922456Y-91051247D01*
X144961347Y-91035138D01*
X145004334Y-91006416D01*
X145075045Y-90935705D01*
X145103767Y-90892718D01*
X145119876Y-90853827D01*
X145127857Y-90826648D01*
X145127856Y-90826642D01*
X145128184Y-90822992D01*
X145150356Y-90780605D01*
X145178241Y-90767264D01*
X145223851Y-90758192D01*
X145267745Y-90728862D01*
X145363176Y-90633431D01*
X145392506Y-90589537D01*
X145403303Y-90535251D01*
X145429878Y-90495479D01*
X145452406Y-90486147D01*
X145506694Y-90475349D01*
X145550588Y-90446019D01*
X145646019Y-90350588D01*
X145675349Y-90306694D01*
X145686146Y-90252408D01*
X145712721Y-90212636D01*
X145735249Y-90203304D01*
X145789537Y-90192506D01*
X145833431Y-90163176D01*
X145928862Y-90067745D01*
X145958192Y-90023851D01*
X145968277Y-89973149D01*
X145994851Y-89933377D01*
X146022892Y-89923201D01*
X146053827Y-89919876D01*
X146092718Y-89903767D01*
X146135705Y-89875045D01*
X146206416Y-89804334D01*
X146235138Y-89761347D01*
X146251247Y-89722456D01*
X146259228Y-89695277D01*
X146251247Y-89621046D01*
X146235138Y-89582155D01*
X146206416Y-89539168D01*
X146172869Y-89505621D01*
X165073379Y-89505621D01*
X165073379Y-89505622D01*
X165094139Y-89609994D01*
X165094139Y-89609995D01*
X165094140Y-89609996D01*
X165138338Y-89676142D01*
X165373590Y-89911394D01*
X165439736Y-89955592D01*
X165507413Y-89969053D01*
X165538826Y-89985579D01*
X165888761Y-90326423D01*
X165982440Y-90417669D01*
X165992955Y-90431187D01*
X165994720Y-90434244D01*
X165994722Y-90434246D01*
X165994723Y-90434248D01*
X166065752Y-90505277D01*
X166152745Y-90555502D01*
X166195525Y-90566965D01*
X166249769Y-90581500D01*
X166249772Y-90581500D01*
X166249774Y-90581501D01*
X166249775Y-90581501D01*
X166350223Y-90581501D01*
X166350224Y-90581501D01*
X166447253Y-90555502D01*
X166534246Y-90505277D01*
X166605275Y-90434248D01*
X166655500Y-90347255D01*
X166681499Y-90250226D01*
X166681499Y-90149776D01*
X166655500Y-90052747D01*
X166605275Y-89965754D01*
X166534246Y-89894725D01*
X166524719Y-89889224D01*
X166512367Y-89879875D01*
X166064606Y-89443745D01*
X166046917Y-89411166D01*
X166044944Y-89401248D01*
X166036506Y-89358822D01*
X165992308Y-89292676D01*
X165757056Y-89057424D01*
X165690910Y-89013226D01*
X165690909Y-89013225D01*
X165586537Y-88992465D01*
X165586535Y-88992465D01*
X165482163Y-89013225D01*
X165416013Y-89057426D01*
X165138340Y-89335099D01*
X165094139Y-89401249D01*
X165073379Y-89505621D01*
X146172869Y-89505621D01*
X145747299Y-89080052D01*
X145705267Y-89051967D01*
X145678691Y-89012193D01*
X145688023Y-88965277D01*
X145705267Y-88948033D01*
X145711034Y-88944179D01*
X145747299Y-88919948D01*
X146206416Y-88460832D01*
X146235138Y-88417845D01*
X146251247Y-88378954D01*
X146259228Y-88351775D01*
X146251247Y-88277544D01*
X146235138Y-88238653D01*
X146206416Y-88195666D01*
X146135705Y-88124955D01*
X146095173Y-88097873D01*
X146068598Y-88058103D01*
X146077929Y-88011186D01*
X146085698Y-88001719D01*
X146194975Y-87892442D01*
X146239168Y-87874137D01*
X146244619Y-87874495D01*
X146245978Y-87874495D01*
X146346427Y-87874495D01*
X146346428Y-87874495D01*
X146349082Y-87873784D01*
X146360755Y-87870656D01*
X146443457Y-87848496D01*
X146530450Y-87798271D01*
X146601479Y-87727242D01*
X146651704Y-87640249D01*
X146677703Y-87543220D01*
X146677703Y-87442770D01*
X146651704Y-87345741D01*
X146601479Y-87258748D01*
X146530450Y-87187719D01*
X146443457Y-87137494D01*
X146443456Y-87137493D01*
X146443455Y-87137493D01*
X146346432Y-87111495D01*
X146346428Y-87111495D01*
X146245978Y-87111495D01*
X146245973Y-87111495D01*
X146148951Y-87137493D01*
X146148949Y-87137493D01*
X146061954Y-87187720D01*
X145990928Y-87258746D01*
X145940701Y-87345741D01*
X145940701Y-87345743D01*
X145914703Y-87442765D01*
X145914703Y-87503361D01*
X145896397Y-87547555D01*
X145759359Y-87684592D01*
X145715165Y-87702898D01*
X145670971Y-87684592D01*
X145663198Y-87675121D01*
X145646021Y-87649415D01*
X145646019Y-87649412D01*
X145550585Y-87553978D01*
X145521547Y-87534576D01*
X145506694Y-87524651D01*
X145506692Y-87524650D01*
X145503366Y-87523273D01*
X145469542Y-87489447D01*
X145469543Y-87441612D01*
X145483087Y-87421340D01*
X145561921Y-87342508D01*
X145590999Y-87272307D01*
X145590999Y-87196323D01*
X145590999Y-86802963D01*
X164837049Y-86802963D01*
X164837049Y-86802964D01*
X164853238Y-86908146D01*
X164908442Y-86999119D01*
X164908445Y-86999123D01*
X164972601Y-87046164D01*
X165274126Y-87186767D01*
X165351400Y-87205676D01*
X165432014Y-87193268D01*
X165466019Y-87197544D01*
X165996982Y-87423832D01*
X166003708Y-87427191D01*
X166052745Y-87455502D01*
X166095525Y-87466965D01*
X166149769Y-87481500D01*
X166149772Y-87481500D01*
X166149774Y-87481501D01*
X166149775Y-87481501D01*
X166250223Y-87481501D01*
X166250224Y-87481501D01*
X166347253Y-87455502D01*
X166434246Y-87405277D01*
X166505275Y-87334248D01*
X166555500Y-87247255D01*
X166581499Y-87150226D01*
X166581499Y-87049776D01*
X166580531Y-87046165D01*
X166567925Y-86999119D01*
X166555500Y-86952747D01*
X166505275Y-86865754D01*
X166434246Y-86794725D01*
X166375503Y-86760810D01*
X166347252Y-86744499D01*
X166301558Y-86732255D01*
X166293232Y-86729381D01*
X165758660Y-86501556D01*
X165729732Y-86476482D01*
X165713802Y-86450230D01*
X165708074Y-86440790D01*
X165708072Y-86440788D01*
X165643914Y-86393746D01*
X165342393Y-86253145D01*
X165265118Y-86234236D01*
X165159938Y-86250424D01*
X165068960Y-86305632D01*
X165068959Y-86305632D01*
X165068959Y-86305633D01*
X165021916Y-86369791D01*
X164855958Y-86725688D01*
X164837049Y-86802963D01*
X145590999Y-86802963D01*
X145590999Y-86662009D01*
X145561921Y-86591808D01*
X145508192Y-86538079D01*
X144408192Y-85438079D01*
X144337991Y-85409001D01*
X144337990Y-85409001D01*
X141505002Y-85409001D01*
X141460808Y-85390695D01*
X141016393Y-84946280D01*
X141015800Y-84944850D01*
X141014400Y-84944193D01*
X141006730Y-84922953D01*
X140998087Y-84902086D01*
X140998153Y-84899236D01*
X141000237Y-84854132D01*
X141001184Y-84845815D01*
X141009339Y-84801155D01*
X141013994Y-84786371D01*
X141042299Y-84724563D01*
X141049262Y-84712906D01*
X141101290Y-84644069D01*
X141101858Y-84643312D01*
X141101887Y-84643274D01*
X141171911Y-84549374D01*
X141210657Y-84497419D01*
X141210844Y-84497161D01*
X141212501Y-84494884D01*
X141212836Y-84494412D01*
X141219074Y-84479975D01*
X141222316Y-84473523D01*
X141268254Y-84393959D01*
X141302499Y-84266156D01*
X141302499Y-84133847D01*
X141567499Y-84133847D01*
X141567499Y-84266154D01*
X141567500Y-84266162D01*
X141601742Y-84393954D01*
X141601743Y-84393958D01*
X141634821Y-84451251D01*
X141661468Y-84497405D01*
X141667900Y-84508544D01*
X141667903Y-84508548D01*
X141761451Y-84602096D01*
X141761455Y-84602099D01*
X141761457Y-84602101D01*
X141876041Y-84668256D01*
X142003844Y-84702501D01*
X142003845Y-84702501D01*
X142136153Y-84702501D01*
X142136154Y-84702501D01*
X142263957Y-84668256D01*
X142378541Y-84602101D01*
X142472099Y-84508543D01*
X142538254Y-84393959D01*
X142572499Y-84266156D01*
X142572499Y-84133846D01*
X142538254Y-84006043D01*
X142472099Y-83891459D01*
X142472097Y-83891457D01*
X142472094Y-83891453D01*
X142378546Y-83797905D01*
X142378542Y-83797902D01*
X142378541Y-83797901D01*
X142321249Y-83764823D01*
X142263956Y-83731745D01*
X142263952Y-83731744D01*
X142136160Y-83697502D01*
X142136155Y-83697501D01*
X142136154Y-83697501D01*
X142003844Y-83697501D01*
X142003843Y-83697501D01*
X142003837Y-83697502D01*
X141876045Y-83731744D01*
X141876041Y-83731745D01*
X141761455Y-83797902D01*
X141761451Y-83797905D01*
X141667903Y-83891453D01*
X141667900Y-83891457D01*
X141601743Y-84006043D01*
X141601742Y-84006047D01*
X141567500Y-84133839D01*
X141567499Y-84133847D01*
X141302499Y-84133847D01*
X141302499Y-84133846D01*
X141268254Y-84006043D01*
X141202099Y-83891459D01*
X141202097Y-83891457D01*
X141202094Y-83891453D01*
X141108546Y-83797905D01*
X141108542Y-83797902D01*
X141108541Y-83797901D01*
X141051249Y-83764823D01*
X140993956Y-83731745D01*
X140993952Y-83731744D01*
X140866160Y-83697502D01*
X140866155Y-83697501D01*
X140866154Y-83697501D01*
X140733844Y-83697501D01*
X140733843Y-83697501D01*
X140733837Y-83697502D01*
X140606045Y-83731744D01*
X140606041Y-83731745D01*
X140491455Y-83797902D01*
X140491451Y-83797905D01*
X140397903Y-83891453D01*
X140397900Y-83891457D01*
X140331743Y-84006043D01*
X140331742Y-84006047D01*
X140297500Y-84133839D01*
X140297499Y-84133847D01*
X140104999Y-84133847D01*
X140104999Y-84124302D01*
X140104997Y-84124294D01*
X140089142Y-84065120D01*
X140089141Y-84065120D01*
X139954263Y-84200000D01*
X139105734Y-84200000D01*
X138970855Y-84065121D01*
X138954999Y-84124299D01*
X119327500Y-84124299D01*
X119327500Y-84003069D01*
X119327801Y-83996943D01*
X119337215Y-83901358D01*
X119343662Y-83835905D01*
X119346051Y-83823895D01*
X119392131Y-83671988D01*
X119396811Y-83660689D01*
X119407412Y-83640857D01*
X139395119Y-83640857D01*
X139529999Y-83775737D01*
X139530000Y-83775737D01*
X139664878Y-83640857D01*
X139605700Y-83625001D01*
X139454297Y-83625001D01*
X139395119Y-83640857D01*
X119407412Y-83640857D01*
X119471647Y-83520683D01*
X119478441Y-83510514D01*
X119579149Y-83387800D01*
X119587800Y-83379149D01*
X119710514Y-83278441D01*
X119720683Y-83271647D01*
X119860685Y-83196813D01*
X119871988Y-83192131D01*
X120023900Y-83146049D01*
X120035905Y-83143662D01*
X120196943Y-83127801D01*
X120203069Y-83127500D01*
X168158466Y-83127500D01*
X168170897Y-83127500D01*
X168170898Y-83127501D01*
G37*
%TD.AperFunction*%
%TA.AperFunction,Conductor*%
G36*
X140806517Y-84203377D02*
G01*
X141101593Y-84401487D01*
X141106551Y-84408944D01*
X141104785Y-84417723D01*
X141104450Y-84418195D01*
X140995715Y-84564003D01*
X140995670Y-84564064D01*
X140930704Y-84650020D01*
X140883377Y-84753366D01*
X140868484Y-84834919D01*
X140864015Y-84931635D01*
X140860209Y-84939741D01*
X140852327Y-84942795D01*
X140747493Y-84942795D01*
X140739220Y-84939368D01*
X140735816Y-84931822D01*
X140728139Y-84808487D01*
X140728139Y-84808485D01*
X140703192Y-84713825D01*
X140661856Y-84638967D01*
X140604356Y-84564101D01*
X140604256Y-84563968D01*
X140495547Y-84418195D01*
X140493348Y-84409515D01*
X140497932Y-84401822D01*
X140498382Y-84401502D01*
X140793478Y-84203378D01*
X140802256Y-84201613D01*
X140806517Y-84203377D01*
G37*
%TD.AperFunction*%
M02*
