%TF.GenerationSoftware,KiCad,Pcbnew,9.0.0-rc3*%
%TF.CreationDate,2025-06-04T22:11:30-04:00*%
%TF.ProjectId,rgb_led,7267625f-6c65-4642-9e6b-696361645f70,rev?*%
%TF.SameCoordinates,Original*%
%TF.FileFunction,Soldermask,Bot*%
%TF.FilePolarity,Negative*%
%FSLAX46Y46*%
G04 Gerber Fmt 4.6, Leading zero omitted, Abs format (unit mm)*
G04 Created by KiCad (PCBNEW 9.0.0-rc3) date 2025-06-04 22:11:30*
%MOMM*%
%LPD*%
G01*
G04 APERTURE LIST*
G04 APERTURE END LIST*
G36*
G01*
X123876311Y-90813628D02*
X124007989Y-91175410D01*
G75*
G02*
X123958681Y-91281152I-77525J-28217D01*
G01*
X123596899Y-91412830D01*
G75*
G02*
X123491157Y-91363522I-28217J77525D01*
G01*
X123359479Y-91001740D01*
G75*
G02*
X123408787Y-90895998I77525J28217D01*
G01*
X123770569Y-90764320D01*
G75*
G02*
X123876311Y-90813628I28217J-77525D01*
G01*
G37*
G36*
G01*
X124218331Y-91753320D02*
X124350009Y-92115102D01*
G75*
G02*
X124300701Y-92220844I-77525J-28217D01*
G01*
X123938919Y-92352522D01*
G75*
G02*
X123833177Y-92303214I-28217J77525D01*
G01*
X123701499Y-91941432D01*
G75*
G02*
X123750807Y-91835690I77525J28217D01*
G01*
X124112589Y-91704012D01*
G75*
G02*
X124218331Y-91753320I28217J-77525D01*
G01*
G37*
G36*
G01*
X123278639Y-92095340D02*
X123410317Y-92457122D01*
G75*
G02*
X123361009Y-92562864I-77525J-28217D01*
G01*
X122999227Y-92694542D01*
G75*
G02*
X122893485Y-92645234I-28217J77525D01*
G01*
X122761807Y-92283452D01*
G75*
G02*
X122811115Y-92177710I77525J28217D01*
G01*
X123172897Y-92046032D01*
G75*
G02*
X123278639Y-92095340I28217J-77525D01*
G01*
G37*
G36*
G01*
X122936619Y-91155648D02*
X123068297Y-91517430D01*
G75*
G02*
X123018989Y-91623172I-77525J-28217D01*
G01*
X122657207Y-91754850D01*
G75*
G02*
X122551465Y-91705542I-28217J77525D01*
G01*
X122419787Y-91343760D01*
G75*
G02*
X122469095Y-91238018I77525J28217D01*
G01*
X122830877Y-91106340D01*
G75*
G02*
X122936619Y-91155648I28217J-77525D01*
G01*
G37*
G36*
G01*
X123816726Y-88400193D02*
X123816726Y-88785193D01*
G75*
G02*
X123734226Y-88867693I-82500J0D01*
G01*
X123349226Y-88867693D01*
G75*
G02*
X123266726Y-88785193I0J82500D01*
G01*
X123266726Y-88400193D01*
G75*
G02*
X123349226Y-88317693I82500J0D01*
G01*
X123734226Y-88317693D01*
G75*
G02*
X123816726Y-88400193I0J-82500D01*
G01*
G37*
G36*
G01*
X123816726Y-89400193D02*
X123816726Y-89785193D01*
G75*
G02*
X123734226Y-89867693I-82500J0D01*
G01*
X123349226Y-89867693D01*
G75*
G02*
X123266726Y-89785193I0J82500D01*
G01*
X123266726Y-89400193D01*
G75*
G02*
X123349226Y-89317693I82500J0D01*
G01*
X123734226Y-89317693D01*
G75*
G02*
X123816726Y-89400193I0J-82500D01*
G01*
G37*
G36*
G01*
X122816726Y-89400193D02*
X122816726Y-89785193D01*
G75*
G02*
X122734226Y-89867693I-82500J0D01*
G01*
X122349226Y-89867693D01*
G75*
G02*
X122266726Y-89785193I0J82500D01*
G01*
X122266726Y-89400193D01*
G75*
G02*
X122349226Y-89317693I82500J0D01*
G01*
X122734226Y-89317693D01*
G75*
G02*
X122816726Y-89400193I0J-82500D01*
G01*
G37*
G36*
G01*
X122816726Y-88400193D02*
X122816726Y-88785193D01*
G75*
G02*
X122734226Y-88867693I-82500J0D01*
G01*
X122349226Y-88867693D01*
G75*
G02*
X122266726Y-88785193I0J82500D01*
G01*
X122266726Y-88400193D01*
G75*
G02*
X122349226Y-88317693I82500J0D01*
G01*
X122734226Y-88317693D01*
G75*
G02*
X122816726Y-88400193I0J-82500D01*
G01*
G37*
G36*
G01*
X163819835Y-92141256D02*
X163951513Y-91779474D01*
G75*
G02*
X164057255Y-91730166I77525J-28217D01*
G01*
X164419037Y-91861844D01*
G75*
G02*
X164468345Y-91967586I-28217J-77525D01*
G01*
X164336667Y-92329368D01*
G75*
G02*
X164230925Y-92378676I-77525J28217D01*
G01*
X163869143Y-92246998D01*
G75*
G02*
X163819835Y-92141256I28217J77525D01*
G01*
G37*
G36*
G01*
X164161855Y-91201564D02*
X164293533Y-90839782D01*
G75*
G02*
X164399275Y-90790474I77525J-28217D01*
G01*
X164761057Y-90922152D01*
G75*
G02*
X164810365Y-91027894I-28217J-77525D01*
G01*
X164678687Y-91389676D01*
G75*
G02*
X164572945Y-91438984I-77525J28217D01*
G01*
X164211163Y-91307306D01*
G75*
G02*
X164161855Y-91201564I28217J77525D01*
G01*
G37*
G36*
G01*
X165101547Y-91543584D02*
X165233225Y-91181802D01*
G75*
G02*
X165338967Y-91132494I77525J-28217D01*
G01*
X165700749Y-91264172D01*
G75*
G02*
X165750057Y-91369914I-28217J-77525D01*
G01*
X165618379Y-91731696D01*
G75*
G02*
X165512637Y-91781004I-77525J28217D01*
G01*
X165150855Y-91649326D01*
G75*
G02*
X165101547Y-91543584I28217J77525D01*
G01*
G37*
G36*
G01*
X164759527Y-92483276D02*
X164891205Y-92121494D01*
G75*
G02*
X164996947Y-92072186I77525J-28217D01*
G01*
X165358729Y-92203864D01*
G75*
G02*
X165408037Y-92309606I-28217J-77525D01*
G01*
X165276359Y-92671388D01*
G75*
G02*
X165170617Y-92720696I-77525J28217D01*
G01*
X164808835Y-92589018D01*
G75*
G02*
X164759527Y-92483276I28217J77525D01*
G01*
G37*
G36*
G01*
X164450912Y-89837498D02*
X164450912Y-89452498D01*
G75*
G02*
X164533412Y-89369998I82500J0D01*
G01*
X164918412Y-89369998D01*
G75*
G02*
X165000912Y-89452498I0J-82500D01*
G01*
X165000912Y-89837498D01*
G75*
G02*
X164918412Y-89919998I-82500J0D01*
G01*
X164533412Y-89919998D01*
G75*
G02*
X164450912Y-89837498I0J82500D01*
G01*
G37*
G36*
G01*
X164450912Y-88837498D02*
X164450912Y-88452498D01*
G75*
G02*
X164533412Y-88369998I82500J0D01*
G01*
X164918412Y-88369998D01*
G75*
G02*
X165000912Y-88452498I0J-82500D01*
G01*
X165000912Y-88837498D01*
G75*
G02*
X164918412Y-88919998I-82500J0D01*
G01*
X164533412Y-88919998D01*
G75*
G02*
X164450912Y-88837498I0J82500D01*
G01*
G37*
G36*
G01*
X165450912Y-88837498D02*
X165450912Y-88452498D01*
G75*
G02*
X165533412Y-88369998I82500J0D01*
G01*
X165918412Y-88369998D01*
G75*
G02*
X166000912Y-88452498I0J-82500D01*
G01*
X166000912Y-88837498D01*
G75*
G02*
X165918412Y-88919998I-82500J0D01*
G01*
X165533412Y-88919998D01*
G75*
G02*
X165450912Y-88837498I0J82500D01*
G01*
G37*
G36*
G01*
X165450912Y-89837498D02*
X165450912Y-89452498D01*
G75*
G02*
X165533412Y-89369998I82500J0D01*
G01*
X165918412Y-89369998D01*
G75*
G02*
X166000912Y-89452498I0J-82500D01*
G01*
X166000912Y-89837498D01*
G75*
G02*
X165918412Y-89919998I-82500J0D01*
G01*
X165533412Y-89919998D01*
G75*
G02*
X165450912Y-89837498I0J82500D01*
G01*
G37*
G36*
G01*
X124459641Y-86091787D02*
X124327963Y-86453569D01*
G75*
G02*
X124222221Y-86502877I-77525J28217D01*
G01*
X123860439Y-86371199D01*
G75*
G02*
X123811131Y-86265457I28217J77525D01*
G01*
X123942809Y-85903675D01*
G75*
G02*
X124048551Y-85854367I77525J-28217D01*
G01*
X124410333Y-85986045D01*
G75*
G02*
X124459641Y-86091787I-28217J-77525D01*
G01*
G37*
G36*
G01*
X124117621Y-87031479D02*
X123985943Y-87393261D01*
G75*
G02*
X123880201Y-87442569I-77525J28217D01*
G01*
X123518419Y-87310891D01*
G75*
G02*
X123469111Y-87205149I28217J77525D01*
G01*
X123600789Y-86843367D01*
G75*
G02*
X123706531Y-86794059I77525J-28217D01*
G01*
X124068313Y-86925737D01*
G75*
G02*
X124117621Y-87031479I-28217J-77525D01*
G01*
G37*
G36*
G01*
X123177929Y-86689459D02*
X123046251Y-87051241D01*
G75*
G02*
X122940509Y-87100549I-77525J28217D01*
G01*
X122578727Y-86968871D01*
G75*
G02*
X122529419Y-86863129I28217J77525D01*
G01*
X122661097Y-86501347D01*
G75*
G02*
X122766839Y-86452039I77525J-28217D01*
G01*
X123128621Y-86583717D01*
G75*
G02*
X123177929Y-86689459I-28217J-77525D01*
G01*
G37*
G36*
G01*
X123519949Y-85749767D02*
X123388271Y-86111549D01*
G75*
G02*
X123282529Y-86160857I-77525J28217D01*
G01*
X122920747Y-86029179D01*
G75*
G02*
X122871439Y-85923437I28217J77525D01*
G01*
X123003117Y-85561655D01*
G75*
G02*
X123108859Y-85512347I77525J-28217D01*
G01*
X123470641Y-85644025D01*
G75*
G02*
X123519949Y-85749767I-28217J-77525D01*
G01*
G37*
G36*
G01*
X164381820Y-87432902D02*
X164250142Y-87071120D01*
G75*
G02*
X164299450Y-86965378I77525J28217D01*
G01*
X164661232Y-86833700D01*
G75*
G02*
X164766974Y-86883008I28217J-77525D01*
G01*
X164898652Y-87244790D01*
G75*
G02*
X164849344Y-87350532I-77525J-28217D01*
G01*
X164487562Y-87482210D01*
G75*
G02*
X164381820Y-87432902I-28217J77525D01*
G01*
G37*
G36*
G01*
X164039800Y-86493210D02*
X163908122Y-86131428D01*
G75*
G02*
X163957430Y-86025686I77525J28217D01*
G01*
X164319212Y-85894008D01*
G75*
G02*
X164424954Y-85943316I28217J-77525D01*
G01*
X164556632Y-86305098D01*
G75*
G02*
X164507324Y-86410840I-77525J-28217D01*
G01*
X164145542Y-86542518D01*
G75*
G02*
X164039800Y-86493210I-28217J77525D01*
G01*
G37*
G36*
G01*
X164979492Y-86151190D02*
X164847814Y-85789408D01*
G75*
G02*
X164897122Y-85683666I77525J28217D01*
G01*
X165258904Y-85551988D01*
G75*
G02*
X165364646Y-85601296I28217J-77525D01*
G01*
X165496324Y-85963078D01*
G75*
G02*
X165447016Y-86068820I-77525J-28217D01*
G01*
X165085234Y-86200498D01*
G75*
G02*
X164979492Y-86151190I-28217J77525D01*
G01*
G37*
G36*
G01*
X165321512Y-87090882D02*
X165189834Y-86729100D01*
G75*
G02*
X165239142Y-86623358I77525J28217D01*
G01*
X165600924Y-86491680D01*
G75*
G02*
X165706666Y-86540988I28217J-77525D01*
G01*
X165838344Y-86902770D01*
G75*
G02*
X165789036Y-87008512I-77525J-28217D01*
G01*
X165427254Y-87140190D01*
G75*
G02*
X165321512Y-87090882I-28217J77525D01*
G01*
G37*
M02*
